<svg width="651" height="367" viewBox="0 0 651 367" fill="none" xmlns="http://www.w3.org/2000/svg">
<g clip-path="url(#clip0_254_2208)">
<path d="M648.767 336.715C648.316 338.632 647.798 340.617 647.234 342.601C646.715 344.585 646.038 346.682 645.317 348.78C644.978 349.794 570.35 367 570.35 367L550.638 366.955H374.204L322.67 366.887H186.854L130.11 366.842H46.7305C35.0479 366.842 24.6508 359.423 20.8393 348.374C20.5236 347.427 20.2078 346.525 19.9372 345.713C18.381 340.887 16.667 335.362 14.9304 329.251C14.0733 326.252 13.2163 323.118 12.3593 319.848C11.5248 316.623 10.6678 313.286 9.87844 309.836C9.69801 309.114 9.54014 308.37 9.35971 307.626C9.2695 307.265 9.20184 306.927 9.11163 306.566V306.544C8.45758 303.702 7.82609 300.748 7.21715 297.772C4.69119 285.55 2.52607 272.403 1.26309 258.918C0.203088 247.711 -0.247978 236.301 0.203088 224.958C0.315854 222.297 0.49628 219.636 0.654153 216.975C1.10522 211.315 1.78182 205.655 2.75161 200.153C3.3831 196.41 4.17246 192.689 5.07459 189.059C7.23971 180.174 10.2393 171.673 14.2087 163.645C15.6295 160.871 17.0955 158.143 18.7419 155.482C22.4181 149.416 26.1619 143.756 29.9508 138.434H29.996C31.9806 135.615 33.9653 132.954 35.95 130.406C43.37 120.777 50.9028 112.524 58.4807 105.376C151.626 18.2428 258.415 102.309 324.497 43.837C389.112 -13.282 509.997 -14.1163 564.057 38.5828C565.072 39.5976 566.155 40.6123 567.17 41.7398C571.568 46.4077 575.469 51.4589 578.762 56.9159C580.296 59.4415 581.716 62.0573 582.979 64.7408C590.738 81.112 593.602 100.55 589.881 123.032C589.182 127.339 588.212 131.737 587.016 136.247C586.994 136.359 586.949 136.472 586.926 136.562C584.581 145.176 581.356 154.129 577.116 163.577C576.845 164.186 576.552 164.817 576.281 165.426C575.83 166.396 575.379 167.343 574.928 168.313C564.35 190.457 567.598 206.242 577.138 219.636C580.905 224.935 585.686 229.874 590.963 234.677C602.465 245.163 616.336 254.994 627.883 266.788C629.417 268.367 630.883 269.968 632.349 271.591C632.957 272.29 633.544 273.012 634.153 273.711C635.641 275.515 637.085 277.364 638.46 279.281C638.551 279.393 638.618 279.506 638.686 279.619C644.099 287.354 648.158 296.013 649.963 306.093C649.985 306.228 650.008 306.363 650.03 306.498V306.521C651.564 315.406 651.338 325.35 648.767 336.715Z" fill="#DCEAFF"/>
<path opacity="0.5" d="M188.838 208.902C188.838 208.902 154.603 204.505 141.364 216.93C128.148 229.355 135.049 244.576 114.413 244.013C93.7765 243.449 81.9586 273.508 80.8083 290.082C79.6581 306.656 87.2586 308.551 87.2586 308.551H193.597L188.838 208.902Z" fill="#9BCC8F"/>
<path d="M640.874 306.25H189.244V136.247H587.016C586.994 136.359 586.949 136.472 586.926 136.562C584.581 145.176 581.355 154.129 577.115 163.577C576.845 164.186 576.552 164.817 576.281 165.426C575.83 166.396 575.379 167.343 574.928 168.313C564.35 190.457 567.598 206.242 577.138 219.636C580.904 224.935 585.686 229.874 590.963 234.677C602.465 245.163 616.336 254.994 627.883 266.788C629.416 268.367 630.882 269.968 632.348 271.591C632.957 272.29 633.544 273.012 634.153 273.711C635.641 275.515 637.085 277.364 638.46 279.281C638.551 279.393 638.618 279.506 638.686 279.619L640.874 306.25Z" fill="#F2CCAA"/>
<path d="M291.726 136.247H245.74V301.898H291.726V136.247Z" fill="#F9DDBF"/>
<path d="M629.552 282.866H184.869V306.679H629.552V282.866Z" fill="#DDAF8A"/>
<path d="M574.928 168.335C564.35 190.479 567.598 206.264 577.138 219.659V301.898H531.129V136.247H577.138V163.6C576.867 164.208 576.574 164.84 576.304 165.449C575.83 166.418 575.379 167.388 574.928 168.335Z" fill="#F9DDBF"/>
<path d="M460.064 112.772H350.162V304.334H460.064V112.772Z" fill="#F9DDBF"/>
<path d="M333.36 221.959H317.979V227.416H333.36V221.959Z" fill="#FFF2E6"/>
<path d="M329.909 227.393H321.429V306.25H329.909V227.393Z" fill="#FFF2E6"/>
<path d="M321.429 230.956C321.429 230.956 322.692 228.634 325.669 228.724C328.917 228.836 329.909 230.956 329.909 230.956V227.393H321.429V230.956Z" fill="#DDAF8A"/>
<path d="M333.36 221.936H317.979V222.883H333.36V221.936Z" fill="#DDAF8A"/>
<path d="M376.594 221.959H361.213V227.416H376.594V221.959Z" fill="#FFF2E6"/>
<path d="M373.144 227.393H364.664V306.25H373.144V227.393Z" fill="#FFF2E6"/>
<path d="M364.664 230.956C364.664 230.956 365.927 228.634 368.904 228.724C372.151 228.836 373.144 230.956 373.144 230.956V227.393H364.664V230.956Z" fill="#DDAF8A"/>
<path d="M376.594 221.936H361.213V222.883H376.594V221.936Z" fill="#DDAF8A"/>
<path d="M450.321 221.959H434.94V227.416H450.321V221.959Z" fill="#FFF2E6"/>
<path d="M446.87 227.393H438.39V306.25H446.87V227.393Z" fill="#FFF2E6"/>
<path d="M438.39 230.956C438.39 230.956 439.631 228.634 442.63 228.724C445.878 228.836 446.87 230.956 446.87 230.956V227.393H438.39V230.956Z" fill="#DDAF8A"/>
<path d="M450.321 221.936H434.94V222.883H450.321V221.936Z" fill="#DDAF8A"/>
<path d="M498.044 221.959H482.662V227.416H498.044V221.959Z" fill="#FFF2E6"/>
<path d="M494.593 227.393H486.113V306.25H494.593V227.393Z" fill="#FFF2E6"/>
<path d="M486.113 230.956C486.113 230.956 487.353 228.634 490.353 228.724C493.601 228.836 494.593 230.956 494.593 230.956V227.393H486.113V230.956Z" fill="#DDAF8A"/>
<path d="M498.044 221.936H482.662V222.883H498.044V221.936Z" fill="#DDAF8A"/>
<path d="M423.821 305.935H387.623V261.782C387.623 251.973 395.584 244.013 405.395 244.013H407.064C416.311 244.013 423.798 251.499 423.798 260.745V305.935H423.821Z" fill="#F2CCAA"/>
<path d="M226.954 191.719H208.708V171.785C208.708 167.05 212.542 163.216 217.278 163.216H218.902C223.368 163.216 226.976 166.824 226.976 171.289V191.719H226.954Z" fill="#DDAF8A"/>
<path d="M218.879 162.562H217.256C212.181 162.562 208.031 166.689 208.031 171.785V192.373H227.585V171.289C227.585 166.463 223.683 162.562 218.879 162.562ZM217.256 163.87H218.879C222.962 163.87 226.3 167.208 226.3 171.289V191.065H209.339V171.785C209.339 171.718 209.339 171.627 209.339 171.56C209.452 167.298 212.971 163.87 217.256 163.87Z" fill="white"/>
<path d="M226.638 171.56H208.821V172.8H226.638V171.56Z" fill="white"/>
<path d="M218.338 172.169H217.143V191.607H218.338V172.169Z" fill="white"/>
<path d="M213.241 155.685C213.241 155.685 217.143 154.377 223.187 155.685L221.09 160.916C221.09 160.916 218.203 160.533 215.361 160.916L213.241 155.685Z" fill="#DDAF8A"/>
<path d="M214.594 161.051L212.316 156.609C212.316 156.609 209.836 157.105 208.933 158.075L212.7 161.502L214.594 161.051Z" fill="#DDAF8A"/>
<path d="M221.811 161.074L223.886 156.699C223.886 156.699 226.051 156.925 227.269 158.165L223.525 161.525L221.811 161.074Z" fill="#DDAF8A"/>
<path d="M277.18 191.719H258.934V171.785C258.934 167.05 262.768 163.216 267.504 163.216H269.128C273.594 163.216 277.202 166.824 277.202 171.289V191.719H277.18Z" fill="#DDAF8A"/>
<path d="M269.106 162.562H267.482C262.407 162.562 258.257 166.689 258.257 171.785V192.373H277.811V171.289C277.834 166.463 273.932 162.562 269.106 162.562ZM267.482 163.87H269.106C273.188 163.87 276.526 167.208 276.526 171.289V191.065H259.588V171.785C259.588 171.718 259.588 171.627 259.588 171.56C259.701 167.298 263.197 163.87 267.482 163.87Z" fill="white"/>
<path d="M276.886 171.56H259.069V172.8H276.886V171.56Z" fill="white"/>
<path d="M268.564 172.169H267.369V191.607H268.564V172.169Z" fill="white"/>
<path d="M263.49 155.685C263.49 155.685 267.391 154.377 273.436 155.685L271.338 160.916C271.338 160.916 268.451 160.533 265.61 160.916L263.49 155.685Z" fill="#DDAF8A"/>
<path d="M264.82 161.051L262.543 156.609C262.543 156.609 260.062 157.105 259.16 158.075L262.926 161.502L264.82 161.051Z" fill="#DDAF8A"/>
<path d="M272.06 161.074L274.135 156.699C274.135 156.699 276.3 156.925 277.518 158.165L273.774 161.525L272.06 161.074Z" fill="#DDAF8A"/>
<path d="M226.954 264.172H208.708V244.238C208.708 239.503 212.542 235.669 217.278 235.669H218.902C223.368 235.669 226.976 239.277 226.976 243.742V264.172H226.954Z" fill="#DDAF8A"/>
<path d="M218.879 235.015H217.256C212.181 235.015 208.031 239.142 208.031 244.238V264.826H227.585V243.742C227.585 238.916 223.683 235.015 218.879 235.015ZM217.256 236.323H218.879C222.962 236.323 226.3 239.66 226.3 243.742V263.518H209.339V244.238C209.339 244.17 209.339 244.08 209.339 244.013C209.452 239.751 212.971 236.323 217.256 236.323Z" fill="white"/>
<path d="M226.638 244.013H208.821V245.253H226.638V244.013Z" fill="white"/>
<path d="M218.338 244.621H217.143V264.059H218.338V244.621Z" fill="white"/>
<path d="M213.241 228.16C213.241 228.16 217.143 226.852 223.187 228.16L221.09 233.392C221.09 233.392 218.203 233.008 215.361 233.392L213.241 228.16Z" fill="#DDAF8A"/>
<path d="M214.594 233.504L212.316 229.062C212.316 229.062 209.836 229.558 208.933 230.528L212.7 233.955L214.594 233.504Z" fill="#DDAF8A"/>
<path d="M221.811 233.527L223.886 229.152C223.886 229.152 226.051 229.378 227.269 230.618L223.525 233.978L221.811 233.527Z" fill="#DDAF8A"/>
<path d="M277.18 264.172H258.934V244.238C258.934 239.503 262.768 235.669 267.504 235.669H269.128C273.594 235.669 277.202 239.277 277.202 243.742V264.172H277.18Z" fill="#DDAF8A"/>
<path d="M269.106 235.015H267.482C262.407 235.015 258.257 239.142 258.257 244.238V264.826H277.811V243.742C277.834 238.916 273.932 235.015 269.106 235.015ZM267.482 236.323H269.106C273.188 236.323 276.526 239.66 276.526 243.742V263.518H259.588V244.238C259.588 244.17 259.588 244.08 259.588 244.013C259.701 239.751 263.197 236.323 267.482 236.323Z" fill="white"/>
<path d="M276.886 244.013H259.069V245.253H276.886V244.013Z" fill="white"/>
<path d="M268.564 244.621H267.369V264.059H268.564V244.621Z" fill="white"/>
<path d="M263.49 228.16C263.49 228.16 267.391 226.852 273.436 228.16L271.338 233.392C271.338 233.392 268.451 233.008 265.61 233.392L263.49 228.16Z" fill="#DDAF8A"/>
<path d="M264.82 233.504L262.543 229.062C262.543 229.062 260.062 229.558 259.16 230.528L262.926 233.955L264.82 233.504Z" fill="#DDAF8A"/>
<path d="M272.06 233.527L274.135 229.152C274.135 229.152 276.3 229.378 277.518 230.618L273.774 233.978L272.06 233.527Z" fill="#DDAF8A"/>
<path d="M330.563 191.719H312.318V171.785C312.318 167.05 316.152 163.216 320.888 163.216H322.512C326.977 163.216 330.586 166.824 330.586 171.289V191.719H330.563Z" fill="#DDAF8A"/>
<path d="M322.489 162.562H320.865C315.791 162.562 311.664 166.689 311.664 171.785V192.373H331.217V171.289C331.217 166.463 327.293 162.562 322.489 162.562ZM320.865 163.87H322.489C326.571 163.87 329.909 167.208 329.909 171.289V191.065H312.949V171.785C312.949 171.718 312.949 171.627 312.949 171.56C313.084 167.298 316.58 163.87 320.865 163.87Z" fill="white"/>
<path d="M330.27 171.56H312.453V172.8H330.27V171.56Z" fill="white"/>
<path d="M321.948 172.169H320.753V191.607H321.948V172.169Z" fill="white"/>
<path d="M316.851 155.685C316.851 155.685 320.753 154.377 326.797 155.685L324.699 160.916C324.699 160.916 321.813 160.533 318.971 160.916L316.851 155.685Z" fill="#DDAF8A"/>
<path d="M318.204 161.051L315.926 156.609C315.926 156.609 313.445 157.105 312.543 158.075L316.31 161.502L318.204 161.051Z" fill="#DDAF8A"/>
<path d="M325.421 161.074L327.496 156.699C327.496 156.699 329.661 156.925 330.879 158.165L327.135 161.525L325.421 161.074Z" fill="#DDAF8A"/>
<path d="M417.754 182.654H393.69V156.361C393.69 150.137 398.742 145.064 404.989 145.064H407.132C412.995 145.064 417.777 149.822 417.777 155.707V182.654H417.754Z" fill="#DDAF8A"/>
<path d="M407.132 144.207H404.989C398.291 144.207 392.833 149.664 392.833 156.361V183.511H418.611V155.707C418.634 149.371 413.469 144.207 407.132 144.207ZM404.989 145.943H407.132C412.522 145.943 416.897 150.318 416.897 155.707V181.797H394.547V156.361C394.547 156.271 394.547 156.158 394.547 156.068C394.705 150.453 399.328 145.943 404.989 145.943Z" fill="white"/>
<path d="M417.371 156.068H393.893V157.691H417.371V156.068Z" fill="white"/>
<path d="M406.41 156.88H404.831V182.519H406.41V156.88Z" fill="white"/>
<path d="M437.127 182.88H419.265V163.374C419.265 158.751 423.009 154.985 427.655 154.985H429.234C433.587 154.985 437.127 158.526 437.127 162.878V182.88Z" fill="#DDAF8A"/>
<path d="M429.234 154.332H427.655C422.693 154.332 418.634 158.368 418.634 163.352V183.511H437.782V162.878C437.759 158.165 433.947 154.332 429.234 154.332ZM427.633 155.617H429.211C433.226 155.617 436.473 158.864 436.473 162.878V182.248H419.897V163.374C419.897 163.306 419.897 163.239 419.897 163.149C420.01 158.977 423.438 155.617 427.633 155.617Z" fill="white"/>
<path d="M436.834 163.149H419.401V164.344H436.834V163.149Z" fill="white"/>
<path d="M428.715 163.735H427.542V182.767H428.715V163.735Z" fill="white"/>
<path d="M392.201 182.88H374.339V163.374C374.339 158.751 378.083 154.985 382.729 154.985H384.308C388.66 154.985 392.201 158.526 392.201 162.878V182.88Z" fill="#DDAF8A"/>
<path d="M384.308 154.332H382.729C377.767 154.332 373.708 158.368 373.708 163.352V183.511H392.855V162.878C392.833 158.165 388.999 154.332 384.308 154.332ZM382.706 155.617H384.285C388.277 155.617 391.547 158.864 391.547 162.878V182.248H374.948V163.374C374.948 163.306 374.948 163.239 374.948 163.149C375.083 158.977 378.511 155.617 382.706 155.617Z" fill="white"/>
<path d="M391.908 163.149H374.474V164.344H391.908V163.149Z" fill="white"/>
<path d="M383.766 163.735H382.594V182.767H383.766V163.735Z" fill="white"/>
<path d="M504.9 191.719H486.654V171.785C486.654 167.05 490.488 163.216 495.225 163.216H496.848C501.314 163.216 504.922 166.824 504.922 171.289V191.719H504.9Z" fill="#DDAF8A"/>
<path d="M496.826 162.562H495.202C490.128 162.562 486 166.689 486 171.785V192.373H505.554V171.289C505.531 166.463 501.63 162.562 496.826 162.562ZM495.202 163.87H496.826C500.908 163.87 504.246 167.208 504.246 171.289V191.065H487.286V171.785C487.286 171.718 487.286 171.627 487.286 171.56C487.399 167.298 490.917 163.87 495.202 163.87Z" fill="white"/>
<path d="M504.584 171.56H486.767V172.8H504.584V171.56Z" fill="white"/>
<path d="M496.285 172.169H495.089V191.607H496.285V172.169Z" fill="white"/>
<path d="M491.188 155.685C491.188 155.685 495.089 154.377 501.134 155.685L499.036 160.916C499.036 160.916 496.149 160.533 493.308 160.916L491.188 155.685Z" fill="#DDAF8A"/>
<path d="M492.541 161.051L490.263 156.609C490.263 156.609 487.782 157.105 486.88 158.075L490.646 161.502L492.541 161.051Z" fill="#DDAF8A"/>
<path d="M499.758 161.074L501.833 156.699C501.833 156.699 503.998 156.925 505.216 158.165L501.472 161.525L499.758 161.074Z" fill="#DDAF8A"/>
<path d="M563.606 191.719H545.338V171.785C545.338 167.05 549.172 163.216 553.908 163.216H555.532C559.998 163.216 563.606 166.824 563.606 171.289V191.719Z" fill="#DDAF8A"/>
<path d="M555.532 162.562H553.908C548.834 162.562 544.684 166.689 544.684 171.785V192.373H564.238V171.289C564.26 166.463 560.336 162.562 555.532 162.562ZM553.908 163.87H555.532C559.614 163.87 562.952 167.208 562.952 171.289V191.065H545.992V171.785C545.992 171.718 545.992 171.627 545.992 171.56C546.127 167.298 549.623 163.87 553.908 163.87Z" fill="white"/>
<path d="M563.313 171.56H545.496V172.8H563.313V171.56Z" fill="white"/>
<path d="M554.991 172.169H553.795V191.607H554.991V172.169Z" fill="white"/>
<path d="M549.894 155.685C549.894 155.685 553.795 154.377 559.84 155.685L557.742 160.916C557.742 160.916 554.855 160.533 552.014 160.916L549.894 155.685Z" fill="#DDAF8A"/>
<path d="M551.247 161.051L548.969 156.609C548.969 156.609 546.488 157.105 545.586 158.075L549.352 161.502L551.247 161.051Z" fill="#DDAF8A"/>
<path d="M558.487 161.074L560.561 156.699C560.561 156.699 562.727 156.925 563.944 158.165L560.201 161.525L558.487 161.074Z" fill="#DDAF8A"/>
<path d="M563.606 264.172H545.338V244.238C545.338 239.503 549.172 235.669 553.908 235.669H555.532C559.998 235.669 563.606 239.277 563.606 243.742V264.172Z" fill="#DDAF8A"/>
<path d="M555.532 235.015H553.908C548.834 235.015 544.684 239.142 544.684 244.238V264.826H564.238V243.742C564.26 238.916 560.336 235.015 555.532 235.015ZM553.908 236.323H555.532C559.614 236.323 562.952 239.66 562.952 243.742V263.518H545.992V244.238C545.992 244.17 545.992 244.08 545.992 244.013C546.127 239.751 549.623 236.323 553.908 236.323Z" fill="white"/>
<path d="M563.313 244.013H545.496V245.253H563.313V244.013Z" fill="white"/>
<path d="M554.991 244.621H553.795V264.059H554.991V244.621Z" fill="white"/>
<path d="M549.894 228.16C549.894 228.16 553.795 226.852 559.84 228.16L557.742 233.392C557.742 233.392 554.855 233.008 552.014 233.392L549.894 228.16Z" fill="#DDAF8A"/>
<path d="M551.247 233.504L548.969 229.062C548.969 229.062 546.488 229.558 545.586 230.528L549.352 233.955L551.247 233.504Z" fill="#DDAF8A"/>
<path d="M558.487 233.527L560.561 229.152C560.561 229.152 562.727 229.378 563.944 230.618L560.201 233.978L558.487 233.527Z" fill="#DDAF8A"/>
<path d="M350.162 136.246H174.021L189.244 123.032H350.162V136.246Z" fill="#ED7D2B"/>
<path d="M589.903 123.032C589.204 127.339 588.234 131.737 587.039 136.246H460.087V123.032H589.903Z" fill="#ED7D2B"/>
<path d="M503.885 215.464H312.408V221.959H503.885V215.464Z" fill="#FFF2E6"/>
<path d="M350.636 106.03H343.824L405.35 54.255L467.439 106.03H350.636Z" fill="#F49540"/>
<path d="M312.408 215.464L408.146 197.086L503.885 215.464H312.408Z" fill="#FFF2E6"/>
<path d="M339.833 215.464L408.146 202.34L476.438 215.464H339.833Z" fill="#F2CCAA"/>
<path d="M460.064 112.772H350.636V106.03L405.147 61.0651L460.064 106.03V112.772Z" fill="#F9DDBF"/>
<path d="M405.733 78.4961C407.377 78.4961 408.71 77.1635 408.71 75.5196C408.71 73.8756 407.377 72.543 405.733 72.543C404.089 72.543 402.756 73.8756 402.756 75.5196C402.756 77.1635 404.089 78.4961 405.733 78.4961Z" fill="#DBA579"/>
<path d="M405.733 236.301C407.377 236.301 408.71 234.968 408.71 233.324C408.71 231.68 407.377 230.347 405.733 230.347C404.089 230.347 402.756 231.68 402.756 233.324C402.756 234.968 404.089 236.301 405.733 236.301Z" fill="#DBA579"/>
<path d="M495.608 296.825H315.001V299.621H495.608V296.825Z" fill="#FFF2E6"/>
<path d="M506.073 299.621H304.514V302.417H506.073V299.621Z" fill="#F7E6D7"/>
<path d="M516.988 302.417H293.598V306.273H516.988V302.417Z" fill="#F4DDCB"/>
<path d="M414.867 130.744H396.622V110.81C396.622 106.075 400.456 102.241 405.192 102.241H406.816C411.281 102.241 414.89 105.849 414.89 110.314V130.744H414.867Z" fill="#DDAF8A"/>
<path d="M414.371 106.03C412.883 103.391 410.041 101.587 406.771 101.587H405.147C401.809 101.587 398.9 103.369 397.276 106.03C396.419 107.428 395.945 109.051 395.945 110.81V131.398H415.499V110.314C415.499 108.758 415.093 107.293 414.371 106.03ZM414.213 130.091H397.253V110.81C397.253 110.743 397.253 110.652 397.253 110.585C397.298 108.871 397.885 107.293 398.854 106.03C400.298 104.136 402.576 102.895 405.147 102.895H406.771C409.274 102.895 411.484 104.136 412.815 106.03C413.672 107.247 414.191 108.713 414.191 110.314V130.091H414.213Z" fill="white"/>
<path d="M414.551 110.585H396.734V111.825H414.551V110.585Z" fill="white"/>
<path d="M406.252 111.216H405.057V130.654H406.252V111.216Z" fill="white"/>
<path d="M401.155 94.7322C401.155 94.7322 405.057 93.4243 411.101 94.7322L409.003 99.9637C409.003 99.9637 406.117 99.5804 403.275 99.9637L401.155 94.7322Z" fill="#DDAF8A"/>
<path d="M402.508 100.076L400.23 95.6342C400.23 95.6342 397.749 96.1303 396.847 97.0999L400.614 100.527L402.508 100.076Z" fill="#DDAF8A"/>
<path d="M409.725 100.099L411.8 95.7244C411.8 95.7244 413.965 95.9499 415.183 97.1901L411.439 100.55L409.725 100.099Z" fill="#DDAF8A"/>
<path d="M102.798 309.949C102.798 309.949 35.5665 309.723 9.85583 309.813C9.6754 309.092 9.51753 308.348 9.3371 307.604C9.24689 307.243 9.17923 306.904 9.08901 306.544V306.521C8.43497 303.68 7.80348 300.726 7.19454 297.749C4.66857 285.527 2.50346 272.381 1.24048 258.896C6.60816 257.362 28.2593 251.905 42.2649 259.256C58.3453 267.713 55.6841 280.296 71.2007 276.755C86.7174 273.237 112.541 286.542 102.798 309.949Z" fill="#9BCC8F"/>
<path d="M650.887 322.126C650.617 326.726 649.94 331.574 648.79 336.715C648.677 337.189 648.564 337.663 648.452 338.136C648.091 339.602 647.685 341.113 647.256 342.601C646.737 344.585 646.061 346.683 645.339 348.78C645.226 349.14 644.234 351.508 643.016 354.44C639.836 362.062 632.394 367.023 624.117 367.023H570.35L550.638 366.977H374.204L345.516 366.955L322.67 366.932H186.854L130.11 366.887H46.7304C35.0478 366.887 24.6508 359.468 20.8393 348.419C20.5235 347.472 20.2078 346.57 19.9371 345.758C18.8771 342.488 17.772 338.903 16.5993 335.047C15.4716 331.303 14.3214 327.29 13.1937 323.05C12.9231 322.013 12.6299 320.953 12.3592 319.893C11.3443 315.992 10.3294 311.911 9.35966 307.671C9.26944 307.31 9.20179 306.972 9.11157 306.611V306.589H650.075V306.611C650.887 311.392 651.18 316.556 650.887 322.126Z" fill="#A8D29F"/>
<path d="M335.953 329.747L299.44 366.887H345.291L373.775 335.002L335.953 329.747Z" fill="#F9DDBF"/>
<path d="M348.335 291.841L347.997 293.262L347.546 295.178H346.125L346.057 293.352L345.99 291.954L348.335 291.841Z" fill="#FFB27D"/>
<path d="M352.823 260.654C352.823 260.654 353.951 259.459 354.673 260.406C355.394 261.353 356.206 261.985 357.311 262.706C358.417 263.428 356.319 269.088 354.921 268.953C353.523 268.84 347.839 264.375 352.823 260.654Z" fill="#BC3F3F"/>
<path d="M347.253 260.091C347.523 259.888 350.094 259.008 352.598 259.865C355.101 260.722 350.658 263.158 350.658 263.158L349.215 263.225L347.253 260.091Z" fill="#ED7D2B"/>
<path d="M345.584 297.253C345.584 297.253 345.584 296.554 345.674 296.328C345.764 296.103 346.125 295.156 346.125 295.156H347.546C347.546 295.156 347.816 296.013 347.816 296.283C347.839 296.554 347.816 297.23 347.816 297.23H345.584V297.253Z" fill="#233862"/>
<path d="M354.537 297.253C354.537 297.253 354.537 296.554 354.447 296.328C354.357 296.103 353.996 295.156 353.996 295.156H352.575C352.575 295.156 352.305 296.013 352.305 296.283C352.282 296.554 352.305 297.23 352.305 297.23H354.537V297.253Z" fill="#233862"/>
<path d="M348.877 258.467C348.877 258.467 348.831 260 348.628 260.7L347.072 264.059L352.936 262.661L351.538 260.722C351.538 260.722 351.109 258.647 351.335 257.903C351.56 257.137 348.877 258.467 348.877 258.467Z" fill="#FFB27D"/>
<path d="M348.876 258.67C348.876 258.67 349.35 259.798 350.207 259.753C351.087 259.73 351.29 258.738 351.29 258.738L348.876 258.67Z" fill="#ED985F"/>
<path d="M348.358 257.768C348.358 257.768 348.065 256.37 347.884 255.942C347.681 255.513 347.523 253.619 349.711 253.506C349.711 253.506 350.545 253.596 351.019 253.326C351.019 253.326 351.019 253.596 350.906 253.709C350.906 253.709 351.651 253.529 352.26 254.183C352.846 254.837 351.876 257.137 351.921 257.678L348.358 257.768Z" fill="#2C3A64"/>
<path d="M350.117 259.324C349.486 259.324 348.313 258.467 348.313 257.43V255.806C348.313 255.423 348.583 255.107 348.899 255.107H351.312C351.628 255.107 351.899 255.423 351.899 255.806V257.34C351.921 258.445 350.839 259.347 350.117 259.324Z" fill="#FFB27D"/>
<path d="M348.313 256.686C348.313 256.686 348.313 255.716 349.102 255.558C349.869 255.4 351.605 256.032 351.854 255.31C352.102 254.589 348.493 254.611 348.313 255.062C348.132 255.513 348.313 256.686 348.313 256.686Z" fill="#2C3A64"/>
<path d="M351.019 273.643C351.402 272.426 351.402 278.649 349.846 285.64C349.598 286.7 349.079 289.27 348.696 291.773H345.493C345.448 289.767 345.223 286.948 345.088 284.851C344.659 278.266 345.742 273.305 345.742 273.305L351.019 273.643Z" fill="#2B478B"/>
<path d="M355.124 284.851C355.079 286.858 354.673 289.541 354.65 291.503H351.402C351.177 290.082 350.839 288.616 350.591 287.421C350.41 286.587 350.275 285.888 350.297 285.437C350.297 284.58 349.756 282.122 349.44 279.935C349.418 279.845 349.418 279.777 349.395 279.687C348.967 276.62 349.125 273.643 349.125 273.643L354.605 273.305C354.583 273.305 355.214 279.484 355.124 284.851Z" fill="#2B478B"/>
<path d="M345.313 275.853C345.313 275.853 346.554 277.341 349.891 277.138C353.229 276.913 354.831 276.349 354.831 276.349L345.313 275.853Z" fill="#233862"/>
<path d="M354.831 276.327C353.748 276.485 346.305 276.868 345.313 275.853C344.321 274.838 346.937 261.015 346.937 261.015C346.937 261.015 347.23 260.925 347.726 260.835C347.974 260.79 348.29 260.745 348.628 260.7C348.628 260.812 348.719 262.436 350.072 263.112C350.072 263.112 351.696 262.459 351.538 260.722C351.538 260.7 351.538 260.677 351.538 260.655C351.763 260.677 351.966 260.7 352.192 260.745C352.643 260.812 353.094 260.925 353.545 261.083C353.545 261.083 355.936 276.191 354.831 276.327Z" fill="#F99746"/>
<path d="M345.381 269.201C345.336 269.269 345.629 269.674 346.057 270.238C346.914 271.366 348.29 272.989 348.29 272.989C348.268 273.553 348.2 273.891 348.2 273.891C346.305 272.989 345.042 272.155 344.185 271.501C342.99 270.554 342.652 269.945 342.652 269.945C344.569 261.872 347.005 261.038 347.005 261.038L347.794 265.909C347.794 265.886 345.516 269.021 345.381 269.201Z" fill="#F99746"/>
<path d="M352.192 260.745L351.696 262.233L351.042 263.203L350.094 263.721L349.215 263.203L347.726 260.812C347.974 260.767 348.29 260.722 348.628 260.677C348.628 260.722 348.651 260.97 348.809 261.286C349.35 262.323 350.861 262.323 351.402 261.286C351.493 261.105 351.538 260.903 351.538 260.7C351.538 260.677 351.538 260.655 351.538 260.632C351.763 260.677 351.989 260.722 352.192 260.745Z" fill="white"/>
<path d="M348.29 272.989C348.29 273.012 348.29 273.012 348.29 273.034C348.29 273.147 348.29 273.237 348.268 273.328C348.222 273.395 348.177 273.463 348.11 273.508C348.019 273.598 347.929 273.666 347.839 273.734C347.794 273.711 347.749 273.688 347.704 273.666C346.08 272.854 344.952 272.11 344.185 271.501C344.682 271.343 345.358 271.005 346.057 270.238C346.914 271.343 348.29 272.989 348.29 272.989Z" fill="#FFB27D"/>
<path d="M357.672 269.629C357.672 269.629 357.334 270.261 356.161 271.23C355.327 271.907 354.064 272.786 352.192 273.711C352.192 273.711 352.102 273.35 352.079 272.809C352.079 272.809 353.432 271.14 354.267 270.013C354.673 269.449 354.966 269.021 354.921 268.975C354.808 268.84 353.387 266.946 352.733 266.112C352.553 265.863 352.44 265.706 352.44 265.706L353.252 260.925C353.252 260.903 355.597 261.602 357.672 269.629Z" fill="#F99746"/>
<path d="M356.161 271.23C355.394 271.862 354.289 272.629 352.665 273.463C352.62 273.485 352.575 273.508 352.553 273.531C352.35 273.283 352.214 272.989 352.147 272.719C352.169 272.696 352.214 272.651 352.259 272.583C352.643 272.11 353.613 270.892 354.267 269.99C354.988 270.757 355.688 271.095 356.161 271.23Z" fill="#FFB27D"/>
<path d="M351.538 260.655C350.455 260.542 349.44 260.587 348.628 260.677C348.628 260.677 351.335 259.031 351.538 260.655Z" fill="#FFB27D"/>
<path d="M348.854 265.367H348.787L348.741 262.774H348.899L348.854 265.367Z" fill="#ED7D2B"/>
<path d="M348.786 265.3C348.741 265.367 348.628 265.615 348.696 265.661C348.764 265.683 348.899 265.683 348.944 265.661C348.967 265.593 348.877 265.142 348.786 265.3Z" fill="#ED7D2B"/>
<path d="M351.38 265.367H351.335L351.29 262.774H351.425L351.38 265.367Z" fill="#ED7D2B"/>
<path d="M351.335 265.3C351.29 265.367 351.177 265.615 351.245 265.661C351.312 265.683 351.448 265.683 351.493 265.661C351.515 265.593 351.425 265.142 351.335 265.3Z" fill="#ED7D2B"/>
<path d="M349.215 263.225L346.937 261.015C346.937 261.015 346.418 260.655 347.23 260.113C348.042 259.55 349.215 263.225 349.215 263.225Z" fill="#ED7D2B"/>
<path d="M351.042 263.225L353.32 261.015C353.32 261.015 353.838 260.655 353.026 260.113C352.214 259.55 351.042 263.225 351.042 263.225Z" fill="#ED7D2B"/>
<path d="M353.906 273.936C353.455 273.981 353.094 273.869 352.801 273.598C352.756 273.553 352.711 273.508 352.665 273.463C352.44 273.192 352.305 272.877 352.237 272.583C352.147 272.268 352.147 272.02 352.147 271.997V271.929H348.448V271.997C348.47 272.403 348.403 272.741 348.268 273.012C348.2 273.147 348.11 273.282 347.997 273.395C347.907 273.485 347.794 273.576 347.681 273.643C347.185 273.936 346.644 273.914 346.621 273.914H346.553V275.47H353.973V273.914L353.906 273.936Z" fill="#ED7D2B"/>
<path d="M354.921 268.953C354.921 268.953 352.868 266.247 354.492 265.48C355.146 265.164 356.048 268.863 355.552 269.223C355.056 269.562 354.267 270.013 354.267 270.013L354.921 268.953Z" fill="#ED7D2B"/>
<path d="M345.629 268.502C345.629 268.502 346.35 265.119 345.719 265.458C345.088 265.796 344.163 268.84 344.659 269.201C345.155 269.539 345.945 269.99 345.945 269.99L345.629 268.502Z" fill="#ED7D2B"/>
<path d="M354.628 268.953C353.68 267.78 353.342 265.886 353.387 263.947C353.432 262.481 353.635 261.151 353.635 261.105L354.402 261.714C354.402 261.714 353.951 262.526 353.929 263.947C353.906 265.255 353.838 266.247 354.583 268.524L354.628 268.953Z" fill="#BC3F3F"/>
<path d="M347.501 292.495H345.854C345.719 292.518 345.471 292.292 345.471 291.999C345.471 291.999 345.471 291.255 345.426 291.142C345.223 290.578 345.539 290.533 345.832 290.533H348.854C349.17 290.533 348.696 291.48 348.696 291.796L348.809 292.202C348.786 292.473 347.817 292.495 347.501 292.495Z" fill="#233862"/>
<path d="M347.997 293.262L347.546 295.156H346.125L346.035 293.329C346.26 293.42 346.959 293.623 347.997 293.262Z" fill="white"/>
<path d="M351.786 291.841L352.124 293.262L352.575 295.178H353.996L354.064 293.352L354.131 291.954L351.786 291.841Z" fill="#FFB27D"/>
<path d="M352.62 292.495H354.267C354.402 292.518 354.65 292.292 354.65 291.999C354.65 291.999 354.65 291.255 354.695 291.142C354.898 290.578 354.583 290.533 354.289 290.533H351.267C350.951 290.533 351.425 291.48 351.425 291.796L351.312 292.202C351.335 292.473 352.305 292.495 352.62 292.495Z" fill="#233862"/>
<path d="M352.124 293.262L352.575 295.156H353.996L354.086 293.329C353.861 293.42 353.162 293.623 352.124 293.262Z" fill="white"/>
<path d="M349.508 258.197C349.508 258.197 349.734 258.49 350.117 258.49C350.5 258.49 350.681 258.197 350.681 258.197C350.681 258.197 350.027 258.084 349.508 258.197Z" fill="white"/>
<path d="M384.195 274.59C384.195 274.59 383.383 283.272 385.187 288.008C385.683 289.315 391.186 294.412 392.066 296.126C392.066 296.126 393.239 295.088 393.103 294.863C392.314 293.6 391.231 289.676 388.841 287.083C386.45 284.49 389.337 277.747 389.337 277.747L384.195 274.59Z" fill="#E8945B"/>
<path d="M384.872 271.907C382.616 271.321 380.113 267.825 380.113 267.825L380.744 267.262C381.398 268.051 384.15 269.381 384.15 269.381C384.127 268.66 384.15 268.028 384.195 267.419C384.511 263.406 386.022 262.053 386.428 261.759C386.495 261.714 386.54 261.692 386.54 261.692C386.54 261.692 386.54 261.714 386.54 261.782C386.54 261.895 386.563 262.143 386.563 262.481C386.653 264.939 386.766 272.38 384.872 271.907Z" fill="#FFB27D"/>
<path d="M380.744 267.262C380.744 267.171 380.789 265.931 380.383 265.661C380.068 265.458 379.594 264.894 379.436 264.916C379.278 264.939 378.85 265.864 379.098 266.472C379.346 267.081 380.113 267.803 380.113 267.803L380.744 267.262Z" fill="#FFB27D"/>
<path d="M386.36 299.576L387.51 299.44C387.51 299.44 390.51 293.239 390.104 289.383C390.014 288.504 390.081 287.602 390.352 286.745C390.645 285.82 391.006 284.603 391.322 283.407C391.502 282.686 391.705 281.919 391.863 281.152C392.089 280.115 392.269 279.078 392.382 278.086C392.562 276.439 392.562 274.996 392.179 274.027L386.969 273.508C386.969 273.508 386.518 277.68 386.405 281.806C386.405 282.054 386.383 282.325 386.383 282.573C386.337 284.828 386.676 286.722 386.901 288.346C386.969 288.864 386.991 289.383 386.946 289.879L386.36 299.576Z" fill="#FFB27D"/>
<path d="M388.322 257.25C388.322 257.25 389.54 258.287 388.412 259.482C388.412 259.482 389.337 259.572 389.653 259.324C389.653 259.324 389.585 259.459 389.54 259.505C389.54 259.505 390.577 259.55 391.006 259.211C391.435 258.896 391.164 253.574 388.277 254.16C388.277 254.16 385.841 253.98 386.067 256.799C386.292 259.64 385.368 259.64 385.368 259.64C385.368 259.64 385.616 259.775 385.751 259.775C385.751 259.775 385.932 259.707 385.977 259.595C385.977 259.595 385.932 259.753 385.886 259.798C385.886 259.798 386.879 259.888 387.375 259.505C387.894 259.144 388.48 257.836 388.322 257.25Z" fill="#233862"/>
<path d="M384.668 263.451H391.344C390.871 262.256 390.194 261.399 389.675 261.286C389.405 261.218 388.931 260.203 388.931 258.602L388.796 258.625L386.698 259.031C386.698 259.031 386.743 259.685 386.743 260.316C386.743 260.835 386.721 261.354 386.608 261.421C386.45 261.444 386.315 261.466 386.315 261.466C386.315 261.466 385.165 262.278 384.668 263.451Z" fill="#FFB27D"/>
<path d="M386.698 259.031C386.698 259.031 386.743 259.685 386.743 260.316C387.916 260.294 388.525 259.211 388.796 258.625L386.698 259.031Z" fill="#E8945B"/>
<path d="M388.999 258.4C388.999 258.4 389.608 257.43 389.766 256.596C389.878 256.009 389.563 253.799 387.352 254.115C387.352 254.115 386.721 254.183 386.112 254.589C385.638 254.904 384.939 255.603 385.706 257.52L385.909 258.174L388.999 258.4Z" fill="#233862"/>
<path d="M386.292 259.64C386.292 259.64 389.066 259.685 389.066 257.948C389.066 256.212 389.427 255.062 387.646 254.949C385.864 254.837 385.526 255.513 385.39 256.077C385.277 256.663 385.571 259.572 386.292 259.64Z" fill="#FFB27D"/>
<path d="M386.405 254.927C386.405 254.927 387.172 256.956 388.322 257.25C389.495 257.543 389.991 257.227 389.991 257.227C389.991 257.227 389.089 256.528 388.909 255.288C388.931 255.288 386.969 253.957 386.405 254.927Z" fill="#233862"/>
<path d="M386.585 255.085C386.585 255.085 386.022 255.536 385.886 255.987C385.751 256.438 385.683 257.34 385.413 257.295C385.413 257.295 384.849 255.919 385.48 255.13C386.18 254.295 386.585 255.085 386.585 255.085Z" fill="#233862"/>
<path d="M395.855 276.665L395.02 276.913C395.02 276.913 392.269 272.358 392.021 271.163C391.931 270.779 391.75 270.013 391.502 269.133C391.029 267.352 390.397 265.142 390.397 265.142L390.194 264.263L389.495 261.241C389.495 261.241 390.826 261.376 391.615 261.714C391.863 261.827 392.066 261.962 392.134 262.098C392.72 263.361 393.284 266.563 393.69 268.84C393.915 270.103 394.096 271.095 394.186 271.298C394.457 271.862 395.223 275.064 395.855 276.665Z" fill="#FFB27D"/>
<path d="M386.495 255.152C386.495 255.152 387.037 257.272 388.503 257.949C388.503 257.949 387.037 256.641 386.901 255.243C386.789 253.844 386.495 255.152 386.495 255.152Z" fill="#233862"/>
<path d="M386.653 267.081C386.54 269.945 386.112 272.786 384.849 272.606C383.315 272.381 382.909 270.96 382.842 269.9C382.797 269.246 382.864 268.727 382.864 268.727C382.864 268.727 383.608 268.727 383.744 268.615C384.33 268.073 384.15 262.842 384.443 262.301C384.736 261.759 386.586 261.399 386.586 261.399C386.586 261.399 386.789 264.263 386.653 267.081Z" fill="white"/>
<path d="M393.735 280.431C393.735 280.431 392.652 280.814 391.029 281.062C389.044 281.378 386.247 281.491 383.766 280.431C383.766 280.431 383.563 276.259 384.15 274.072C384.736 271.884 385.007 270.847 385.007 270.847C385.007 270.847 387.375 271.524 389.766 271.005C390.104 270.937 390.442 270.847 390.78 270.712C390.78 270.712 392.269 274.252 392.675 275.786C393.081 277.296 393.735 280.431 393.735 280.431Z" fill="#2B478B"/>
<path d="M396.171 272.426C396.171 273.147 395.426 273.598 394.637 273.801C393.87 274.004 393.081 274.004 392.81 273.846C392.382 273.553 391.66 270.306 391.457 269.314C391.412 269.133 391.389 269.021 391.389 269.021C391.389 269.021 390.826 270.374 390.803 270.486C390.803 270.554 390.78 270.622 390.78 270.689C390.78 270.779 390.78 270.847 390.78 270.847C390.78 270.847 387.713 272.403 385.007 270.982C385.007 270.982 383.924 264.668 384.398 263.586C384.623 263.045 385.864 261.94 386.36 261.444C386.473 261.331 386.45 261.128 386.428 260.925C386.383 260.767 386.54 260.609 386.698 260.655C387.014 260.745 387.578 260.722 388.187 260.519C388.48 260.429 388.796 260.271 389.111 260.068C389.202 260.001 389.314 260.068 389.337 260.158C389.382 260.542 389.495 261.218 389.698 261.218C389.991 261.218 391.931 261.466 392.088 261.692C392.134 261.782 392.652 262.932 393.284 264.443C394.502 267.329 396.171 271.501 396.171 272.426Z" fill="white"/>
<path d="M391.412 269.021C391.412 269.021 390.848 270.374 390.826 270.486C390.826 270.554 390.803 270.622 390.803 270.689C390.532 270.915 390.194 271.073 389.856 271.185C388.909 271.478 388.48 269.629 388.548 268.727C388.615 267.803 389.969 265.187 390.42 265.142C390.871 265.097 391.412 269.021 391.412 269.021Z" fill="#ECF3FE"/>
<path d="M391.48 269.314C391.435 269.133 391.412 269.021 391.412 269.021C391.457 269.111 391.457 269.223 391.48 269.314Z" fill="#E58638"/>
<path d="M397.93 280.205C397.862 279.912 397.659 279.687 397.389 279.574C396.938 279.416 396.193 279.258 395.291 279.529C393.758 279.98 393.622 280.927 393.712 281.581C393.803 282.257 393.509 283.34 393.555 284.106C393.6 284.873 393.825 286.79 394.953 286.7C396.081 286.61 399.734 285.617 399.734 285.617C399.734 285.617 400.366 284.422 399.08 282.686C398.313 281.649 398.02 280.701 397.93 280.205Z" fill="#D36C26"/>
<path d="M397.231 279.326L396.938 279.348C396.938 279.348 396.892 279.145 396.757 279.01C396.644 278.92 396.509 278.875 396.329 278.897C396.148 278.92 396.035 279.01 395.968 279.123C395.878 279.303 395.923 279.529 395.923 279.529L395.629 279.596C395.629 279.574 395.539 279.191 395.697 278.875C395.81 278.649 395.99 278.537 396.261 278.469C396.532 278.424 396.757 278.492 396.938 278.672C397.163 278.943 397.231 279.303 397.231 279.326Z" fill="#D37129"/>
<path d="M400.501 285.437C400.501 285.437 396.847 286.429 395.72 286.519C394.592 286.632 394.366 284.693 394.321 283.926C394.276 283.159 394.569 282.077 394.479 281.4C394.457 281.265 394.457 281.13 394.457 280.995C394.479 280.386 394.817 279.709 396.058 279.348C396.96 279.078 397.704 279.236 398.155 279.394C398.426 279.506 398.629 279.732 398.697 280.025C398.719 280.093 398.719 280.16 398.742 280.228C398.877 280.769 399.17 281.603 399.847 282.505C401.132 284.242 400.501 285.437 400.501 285.437Z" fill="#F99746"/>
<path opacity="0.4" d="M394.863 284.084L397.05 283.588C397.05 283.588 397.569 285.166 396.531 285.459C395.494 285.753 395.066 285.144 394.863 284.084Z" fill="#D86713"/>
<path d="M394.863 284.084C394.863 284.084 395.359 284.58 396.058 284.4C396.734 284.219 397.073 283.588 397.073 283.588L394.863 284.084Z" fill="#D37129"/>
<path opacity="0.4" d="M397.524 283.498L399.711 283.001C399.711 283.001 400.23 284.58 399.193 284.873C398.155 285.144 397.704 284.535 397.524 283.498Z" fill="#D86713"/>
<path d="M397.524 283.498C397.524 283.498 398.02 283.994 398.719 283.813C399.396 283.633 399.734 283.001 399.734 283.001L397.524 283.498Z" fill="#D37129"/>
<path d="M398.674 280.025C398.697 280.093 398.697 280.16 398.719 280.228C398.426 280.837 397.885 281.603 396.937 281.761C395.359 282.077 394.434 280.995 394.434 280.995C394.457 280.386 394.795 279.709 396.035 279.348C396.937 279.078 397.682 279.236 398.133 279.394C398.426 279.506 398.629 279.754 398.674 280.025Z" fill="#ED7D2B"/>
<path d="M396.96 282.099C396.87 282.122 396.757 282.054 396.735 281.964L396.689 281.806C396.667 281.716 396.735 281.603 396.825 281.581C396.915 281.558 397.028 281.626 397.05 281.716L397.095 281.874C397.14 281.987 397.073 282.077 396.96 282.099Z" fill="#D86713"/>
<path d="M395.81 276.507C395.81 276.507 396.058 277.093 396.329 277.274C396.599 277.432 396.847 277.838 396.892 278.153C396.983 278.74 396.532 279.1 396.216 279.1C395.877 279.1 395.562 278.649 395.359 277.567C395.359 277.499 395.043 276.89 395.043 276.89L395.81 276.507Z" fill="#FFB27D"/>
<path d="M387.555 271.681C385.796 271.681 385.097 271.073 385.029 271.027L384.917 270.193C384.939 270.216 387.285 271.614 390.916 270.261L390.848 270.892C389.427 271.433 388.458 271.681 387.555 271.681Z" fill="#B64C41"/>
<path d="M387.51 299.621C387.51 299.621 387.375 300.049 387.51 300.387L385.841 301.402L383.879 301.921L383.293 301.628C383.293 301.628 386.202 300.139 386.36 297.884C386.495 296.103 387.51 299.621 387.51 299.621Z" fill="#FFB27D"/>
<path d="M386.089 301.876C385.142 302.011 385.458 302.169 384.172 302.507C382.887 302.845 382.346 302.53 382.233 302.372C382.143 302.214 382.729 301.921 383.338 301.605C383.338 301.605 384.285 301.831 385.3 301.47C386.134 301.177 386.924 300.59 387.51 300.365C387.6 300.545 387.691 300.748 387.713 300.951C387.848 301.537 387.037 301.763 386.089 301.876Z" fill="#1C468A"/>
<path d="M394.682 295.494C395.178 295.742 394.863 296.464 394.434 297.23C393.983 297.997 394.299 297.862 393.825 299.012C393.352 300.139 392.81 300.365 392.63 300.365C392.472 300.342 392.585 299.756 392.697 299.125C392.72 299.034 392.72 298.967 392.743 298.877C392.855 298.155 392.562 297.501 392.359 296.757C392.179 296.058 391.006 294.727 391.006 294.727L391.592 293.149C391.592 293.149 392.63 294.367 393.081 294.84C393.352 295.133 393.78 295.246 394.141 295.314C394.299 295.359 394.502 295.404 394.682 295.494Z" fill="#E8945B"/>
<path d="M394.412 297.231C393.961 297.997 394.276 297.862 393.803 299.012C393.329 300.139 392.788 300.365 392.607 300.365C392.449 300.342 392.562 299.756 392.675 299.125H392.698C392.698 299.125 393.397 298.561 393.712 297.591C393.961 296.802 393.983 295.9 394.141 295.336C394.321 295.381 394.524 295.427 394.682 295.517C395.156 295.742 394.863 296.464 394.412 297.231Z" fill="#1C468A"/>
<path d="M378.895 264.353L378.94 265.164L378.985 266.247L379.03 267.126H380.519L380.564 266.247L380.631 265.164L380.654 264.353H378.895Z" fill="#233862"/>
<path d="M378.782 264.488H380.744L380.699 264.195H378.827L378.782 264.488Z" fill="white"/>
<path d="M379.571 264.195L379.12 264.082L379.053 264.195H379.571Z" fill="white"/>
<path d="M378.94 265.164L378.985 266.247H380.564L380.631 265.164H378.94Z" fill="white"/>
<path d="M378.94 265.164C378.94 265.164 379.346 264.871 379.414 265.277C379.436 265.48 379.008 266.134 379.008 266.134C378.827 265.999 378.714 265.277 378.94 265.164Z" fill="#FFB27D"/>
<path d="M51.5342 157.985C51.5342 157.985 55.8193 152.392 66.1036 153.024C66.1036 153.024 81.0113 143.711 96.9114 151.783C96.9114 151.783 113.804 149.777 126.321 153.52C134.666 156 137.417 158.616 137.417 158.616L51.5342 157.985Z" fill="#F8FCFF"/>
<path d="M378.376 37.6133C378.376 37.6133 381.985 32.0209 390.578 32.6523C390.578 32.6523 403.072 23.3392 416.401 31.412C416.401 31.412 430.564 29.4051 441.052 33.1484C448.043 35.6289 450.344 38.2447 450.344 38.2447L378.376 37.6133Z" fill="#F8FCFF"/>
<path d="M154.873 110.472C154.873 110.472 159.632 104.88 171.021 105.511C171.021 105.511 187.553 96.1979 205.167 104.271C205.167 104.271 223.886 102.264 237.779 106.007C247.026 108.488 250.093 111.103 250.093 111.103L154.873 110.472Z" fill="#F8FCFF"/>
<path d="M582.979 64.7408L449.599 63.8614C449.599 63.8614 457.019 55.1571 474.746 56.1267C474.746 56.1267 500.48 41.6271 527.927 54.1874C527.927 54.1874 557.088 51.0756 578.694 56.8934C578.717 56.8934 578.739 56.916 578.762 56.916C580.296 59.4416 581.716 62.0574 582.979 64.7408Z" fill="#F8FCFF"/>
<path d="M148.288 94.1684C150.268 94.1684 151.874 92.5632 151.874 90.583C151.874 88.6028 150.268 86.9976 148.288 86.9976C146.307 86.9976 144.702 88.6028 144.702 90.583C144.702 92.5632 146.307 94.1684 148.288 94.1684Z" fill="#F8FCFF"/>
<path opacity="0.5" d="M109.316 172.958C109.316 172.958 112.135 169.305 118.833 169.711C118.833 169.711 128.576 163.622 138.973 168.899C138.973 168.899 150.024 167.591 158.211 170.026C163.669 171.65 165.473 173.364 165.473 173.364L109.316 172.958Z" fill="#F8FCFF"/>
<path d="M650.053 306.544L487.444 306.589C487.444 306.589 485.978 292.833 497.953 289.992C509.929 287.151 503.547 278.92 512.591 274.59C521.634 270.238 534.67 272.087 537.85 282.348C541.03 292.608 550.886 283.272 562.862 282.348C574.838 281.423 578.13 287.895 580.205 291.345C582.28 294.795 598.767 296.87 606.48 287.511C614.193 278.153 619.786 276.101 628.289 276.034C630.567 276.011 632.416 275.086 634.153 273.733C635.641 275.537 637.085 277.387 638.46 279.303C643.986 287.128 648.226 296.306 650.053 306.544Z" fill="#82B378"/>
<path d="M350.906 339.805C410.196 339.805 458.26 334.494 458.26 327.944C458.26 321.393 410.196 316.082 350.906 316.082C291.617 316.082 243.553 321.393 243.553 327.944C243.553 334.494 291.617 339.805 350.906 339.805Z" fill="#F9DDBF"/>
<path d="M344.366 346.028C415.713 346.028 473.551 338.971 473.551 330.266C473.551 321.561 415.713 314.504 344.366 314.504C273.019 314.504 215.181 321.561 215.181 330.266C215.181 338.971 273.019 346.028 344.366 346.028Z" fill="#F9DDBF"/>
<path d="M650.887 322.126C650.617 326.726 649.94 331.574 648.79 336.715C648.677 337.189 648.564 337.663 648.451 338.136H417.281L447.976 322.126H650.887Z" fill="#F9DDBF"/>
<path d="M291.478 321.404V334.979H16.5993C15.4716 331.236 14.3214 327.222 13.1937 322.983L291.478 321.404Z" fill="#F9DDBF"/>
<path d="M464.056 322.126C460.357 322.126 458.44 317.683 461.034 315.022C462.77 313.241 465.026 311.617 467.822 310.941C475.694 309.002 477.633 314.955 482.324 314.391C487.015 313.85 494.548 310.715 501.9 316.082C509.253 321.449 522.198 312.564 531.039 313.466C534.016 313.782 535.956 314.865 537.196 316.15C539.339 318.382 537.715 322.103 534.603 322.103H464.056V322.126Z" fill="#82B378"/>
<path d="M551.63 306.408H604.044L606.457 294.096H554.156L551.63 306.408Z" fill="#D36D1A"/>
<path d="M550.751 306.408H603.142L605.578 294.096H553.254L550.751 306.408Z" fill="#F49540"/>
<path d="M588.573 307.919H602.894C603.525 307.919 604.044 307.401 604.044 306.769V306.408H588.573V307.919Z" fill="#D36D1A"/>
<path d="M541.104 307.901H588.691V306.39H541.104V307.901Z" fill="#FFA255"/>
<path d="M600.909 307.919L601.811 311.437L604.473 321.878C604.518 322.013 604.63 322.103 604.766 322.103C605.036 322.103 605.239 321.855 605.194 321.584L602.826 309.385L602.533 307.874H600.909V307.919Z" fill="#FFA255"/>
<path d="M601.811 311.437C601.721 309.633 602.826 309.43 602.826 309.43L602.533 307.919H600.932L601.811 311.437Z" fill="#D36D1A"/>
<path d="M589.542 307.919L590.444 311.437L593.106 321.878C593.151 322.013 593.264 322.103 593.399 322.103C593.67 322.103 593.873 321.855 593.827 321.584L591.459 309.385L591.166 307.874H589.542V307.919Z" fill="#FFA255"/>
<path d="M590.444 311.437C590.354 309.633 591.459 309.43 591.459 309.43L591.166 307.919H589.565L590.444 311.437Z" fill="#D36D1A"/>
<path d="M545.451 307.919L544.549 311.437L541.887 321.878C541.842 322.013 541.73 322.103 541.594 322.103C541.324 322.103 541.121 321.855 541.166 321.584L543.534 309.385L543.827 307.874H545.451V307.919Z" fill="#FFA255"/>
<path d="M544.549 311.437C544.639 309.633 543.534 309.43 543.534 309.43L543.827 307.919H545.428L544.549 311.437Z" fill="#D36D1A"/>
<path d="M556.818 307.919L555.916 311.437L553.254 321.878C553.209 322.013 553.096 322.103 552.961 322.103C552.69 322.103 552.487 321.855 552.533 321.584L554.901 309.385L555.194 307.874H556.818V307.919Z" fill="#FFA255"/>
<path d="M555.916 311.437C556.006 309.633 554.901 309.43 554.901 309.43L555.194 307.919H556.795L555.916 311.437Z" fill="#D36D1A"/>
<path d="M150.385 304.649H195.492L197.567 294.051H152.55L150.385 304.649Z" fill="#D36D1A"/>
<path d="M149.618 304.649H194.725L196.8 294.051H151.783L149.618 304.649Z" fill="#F49540"/>
<path d="M182.185 305.957H194.522C195.063 305.957 195.514 305.506 195.514 304.965V304.649H182.208V305.957H182.185Z" fill="#D36D1A"/>
<path d="M141.306 305.969H182.263V304.661H141.306V305.969Z" fill="#FFA255"/>
<path d="M192.785 305.957L193.552 309.002L195.83 317.999C195.853 318.112 195.965 318.202 196.078 318.202C196.304 318.202 196.484 317.999 196.439 317.774L194.409 307.288L194.161 305.98H192.785V305.957Z" fill="#FFA255"/>
<path d="M193.575 309.002C193.507 307.446 194.432 307.265 194.432 307.265L194.184 305.957H192.808L193.575 309.002Z" fill="#D36D1A"/>
<path d="M183.02 305.957L183.787 309.002L186.064 317.999C186.087 318.112 186.2 318.202 186.313 318.202C186.538 318.202 186.719 317.999 186.673 317.774L184.644 307.288L184.396 305.98H183.02V305.957Z" fill="#FFA255"/>
<path d="M183.787 309.002C183.719 307.446 184.644 307.265 184.644 307.265L184.396 305.957H183.02L183.787 309.002Z" fill="#D36D1A"/>
<path d="M145.04 305.957L144.273 309.002L141.995 317.999C141.973 318.112 141.86 318.202 141.747 318.202C141.522 318.202 141.341 317.999 141.386 317.774L143.416 307.288L143.664 305.98H145.04V305.957Z" fill="#FFA255"/>
<path d="M144.273 309.002C144.341 307.446 143.416 307.265 143.416 307.265L143.664 305.957H145.04L144.273 309.002Z" fill="#D36D1A"/>
<path d="M154.828 305.957L154.061 309.002L151.784 317.999C151.761 318.112 151.648 318.202 151.535 318.202C151.31 318.202 151.129 317.999 151.175 317.774L153.204 307.288L153.452 305.98H154.828V305.957Z" fill="#FFA255"/>
<path d="M154.061 309.002C154.129 307.446 153.204 307.265 153.204 307.265L153.452 305.957H154.828L154.061 309.002Z" fill="#D36D1A"/>
<path d="M124.173 262.727C124.796 261.781 123.328 259.714 120.894 258.111C118.459 256.508 115.981 255.976 115.357 256.923C114.734 257.869 116.202 259.936 118.636 261.539C121.071 263.142 123.549 263.674 124.173 262.727Z" fill="#233862"/>
<path d="M128.08 292.179L127.606 292.202C127.606 292.202 127.426 283.813 126.682 280.408C125.306 274.094 121.72 269.133 121.697 269.088L122.554 268.818C122.6 268.863 123.276 269.923 124.246 271.862C125.125 273.643 126.569 276.642 127.178 280.115C127.787 283.543 128.103 292.134 128.08 292.179Z" fill="#BC3F3F"/>
<path d="M119.397 256.844C119.397 256.844 122.532 256.167 124.043 258.738C125.554 261.286 125.644 265.728 126.637 267.194C127.651 268.637 129.411 274.771 127.539 276.146C125.644 277.522 114.029 276.101 113.375 275.47C112.721 274.838 113.42 268.412 114.548 266.54C115.698 264.668 112.924 255.897 119.397 256.844Z" fill="#A53D38"/>
<path d="M114.706 284.828C111.143 283.926 107.241 278.401 107.241 278.401L108.233 277.522C109.271 278.74 113.578 280.859 113.578 280.859C113.556 279.732 113.578 278.717 113.646 277.792C114.12 271.478 116.51 269.381 117.164 268.908C117.277 268.84 117.322 268.795 117.322 268.795C117.322 268.795 117.322 268.84 117.322 268.93C117.322 269.111 117.345 269.494 117.367 270.013C117.525 273.891 117.683 285.595 114.706 284.828Z" fill="#FFB27D"/>
<path d="M108.233 277.544C108.211 277.387 108.12 275.222 107.692 274.816C107.263 274.41 106.406 273.846 106.158 273.891C105.91 273.936 105.076 275.312 105.482 276.259C105.865 277.206 107.241 278.401 107.241 278.401L108.233 277.544Z" fill="#FFB27D"/>
<path d="M122.464 321.539C122.239 322.396 122.013 323.231 121.765 323.975C121.72 324.133 121.652 324.29 121.607 324.448C121.585 324.516 121.562 324.606 121.54 324.674C121.495 324.832 121.427 324.967 121.382 325.125C121.314 325.305 121.246 325.508 121.179 325.666C121.134 325.801 121.089 325.937 121.043 326.049C120.322 327.989 119.713 329.206 119.713 329.206L118.269 329.116C118.269 329.116 118.811 326.545 118.923 322.87C118.923 322.734 118.923 322.599 118.923 322.464C118.923 322.171 118.923 321.878 118.923 321.584C118.923 321.472 118.923 321.336 118.923 321.224C118.901 318.067 118.495 314.323 117.255 310.738C116.24 307.829 115.495 305.123 114.977 302.665C113.263 294.727 113.669 289.518 113.669 289.518L121.765 290.466L122.149 290.511C122.194 294.231 122.284 299.26 122.352 303.206C122.374 303.883 122.374 304.537 122.397 305.146C122.442 307.671 122.487 309.407 122.487 309.407C124.02 312.79 123.457 317.525 122.464 321.539Z" fill="#FFB27D"/>
<path d="M126.321 288.662C124.787 285.234 124.066 284.264 124.043 283.182C124.02 282.325 124.449 281.401 125.261 279.146C125.464 278.604 125.577 278.063 125.667 277.522C126.321 273.17 123.795 268.479 122.239 268.141C121.81 268.028 121.066 266.45 121.066 263.924L120.863 263.969L117.57 264.623C117.57 264.623 117.638 265.661 117.638 266.63C117.638 267.442 117.593 268.276 117.412 268.367C117.164 268.389 114.593 268.84 114.12 269.584C113.668 270.306 114.165 270.374 113.984 273.034C113.736 276.575 116.24 280.769 114.029 287.872C111.774 295.111 127.155 290.556 126.321 288.662Z" fill="#FFB27D"/>
<path d="M117.57 264.623C117.57 264.623 117.638 265.661 117.638 266.63C119.487 266.585 120.457 264.894 120.863 263.969L117.57 264.623Z" fill="#EF9E67"/>
<path d="M116.961 265.548C116.961 265.548 121.314 265.616 121.314 262.91C121.314 260.204 121.878 258.377 119.104 258.219C116.33 258.061 115.788 259.099 115.563 260.001C115.337 260.903 115.811 265.458 116.961 265.548Z" fill="#FFB27D"/>
<path d="M117.119 258.152C117.119 258.152 118.314 261.331 120.141 261.805C121.968 262.278 122.757 261.782 122.757 261.782C122.757 261.782 121.359 260.677 121.066 258.715C121.066 258.715 118.021 256.618 117.119 258.152Z" fill="#A53D38"/>
<path d="M117.412 258.4C117.412 258.4 116.51 259.121 116.307 259.798C116.082 260.497 115.991 261.917 115.585 261.872C115.585 261.872 114.683 259.707 115.698 258.49C116.758 257.182 117.412 258.4 117.412 258.4Z" fill="#A53D38"/>
<path d="M131.982 292.292L130.674 292.675C130.674 292.675 126.366 285.505 125.96 283.655C125.825 283.047 125.509 281.829 125.148 280.476C124.381 277.657 123.411 274.207 123.411 274.207L123.096 272.809L121.991 268.051C121.991 268.051 124.088 268.276 125.328 268.773C125.734 268.953 126.05 269.156 126.163 269.381C127.065 271.366 127.967 276.394 128.599 279.957C128.96 281.942 129.23 283.498 129.366 283.836C129.749 284.783 130.967 289.812 131.982 292.292Z" fill="#FFB27D"/>
<path d="M117.255 258.512C117.255 258.512 118.112 261.85 120.412 262.91C120.412 262.91 118.112 260.858 117.909 258.67C117.706 256.46 117.255 258.512 117.255 258.512Z" fill="#A53D38"/>
<path d="M127.088 320.84C126.614 325.801 124.584 329.003 124.584 329.003L123.885 329.635C123.885 329.635 123.254 326.004 122.78 321.832C122.351 317.886 121.743 313.692 121.066 312.429C120.051 310.512 119.307 306.611 118.766 302.507C117.886 295.697 117.57 288.256 117.57 288.256L125.78 287.85C126.614 289.225 126.952 291.503 127.043 294.096C127.133 296.825 126.907 299.869 126.614 302.62C126.208 306.453 125.622 309.656 125.486 310.355C125.464 310.445 125.486 310.535 125.531 310.625C127.155 313.872 127.403 317.571 127.088 320.84Z" fill="#FFB27D"/>
<path d="M111.548 281.671C111.684 283.34 112.293 285.572 114.706 285.933C115.563 286.068 116.172 285.279 116.6 284.016C117.164 282.348 117.435 279.822 117.525 277.251C117.615 274.838 117.593 272.403 117.525 270.689C116.533 270.576 114.728 269.742 114.165 269.539C114.142 269.562 114.142 269.584 114.12 269.584C114.097 269.607 114.097 269.607 114.097 269.629C114.074 269.652 114.052 269.674 114.052 269.72C113.804 270.171 113.781 272.719 113.668 275.132C113.556 277.251 113.398 279.236 112.969 279.642C112.766 279.822 111.594 279.822 111.594 279.822C111.594 279.822 111.458 280.634 111.548 281.671Z" fill="#FFB93E"/>
<path d="M117.525 277.251C117.345 281.761 116.668 286.204 114.706 285.933C112.293 285.572 111.684 283.34 111.548 281.671C112.135 281.649 113.172 281.491 113.601 280.859C114.187 279.957 116.037 274.162 116.037 274.162C116.037 274.162 116.758 275.47 117.525 277.251Z" fill="#FFA412"/>
<path d="M114.977 283.385C114.977 283.385 119.803 284.603 124.02 283.182C124.02 283.182 126.343 288.12 126.975 290.217C127.606 292.337 132.433 319.375 132.433 319.375C132.433 319.375 121.81 322.441 114.751 319.803C114.751 319.803 112.676 290.894 113.601 287.85C114.548 284.828 114.977 283.385 114.977 283.385Z" fill="#2B478B"/>
<path d="M113.646 275.109C114.007 278.604 114.977 283.317 114.977 283.317C115.518 283.61 116.059 283.813 116.6 283.949C120.344 284.963 124.043 283.114 124.043 283.114C124.043 283.114 124.043 283.002 124.065 282.866C124.065 282.754 124.088 282.641 124.088 282.551C124.111 282.348 125.013 280.228 125.013 280.228C125.013 280.228 125.035 280.386 125.103 280.679C125.419 282.235 126.546 287.309 127.223 287.76C127.629 288.03 128.892 288.03 130.087 287.715C131.328 287.376 132.478 286.677 132.478 285.55C132.478 284.107 129.862 277.59 127.967 273.102C126.952 270.712 126.366 269.066 125.599 268.863C125.599 268.863 120.412 270.982 117.548 270.644C116.555 270.531 114.751 269.697 114.187 269.494C114.165 269.517 114.165 269.539 114.142 269.539C114.12 269.562 114.12 269.562 114.12 269.584C114.12 269.607 114.097 269.607 114.097 269.629C113.668 270.238 113.736 271.276 113.714 271.659C113.646 272.493 113.488 273.553 113.646 275.109Z" fill="#FFB93E"/>
<path d="M124.99 280.296C124.99 280.296 124.111 282.415 124.066 282.618C124.043 282.708 124.043 282.821 124.043 282.934C123.615 283.295 123.096 283.543 122.555 283.701C121.043 284.152 120.389 281.265 120.48 279.822C120.57 278.379 122.69 274.275 123.412 274.185C124.133 274.139 124.99 280.296 124.99 280.296Z" fill="#FFA412"/>
<path d="M125.08 280.747C125.013 280.476 124.99 280.296 124.99 280.296C125.035 280.453 125.058 280.611 125.08 280.747Z" fill="#E58638"/>
<path d="M118.878 284.287C116.127 284.287 115.044 283.52 114.954 283.453L114.774 282.167C114.796 282.19 118.495 284.4 124.201 282.28L124.088 283.25C121.878 284.084 120.299 284.287 118.878 284.287Z" fill="#163560"/>
<path d="M132.455 285.64C132.455 286.767 131.305 287.466 130.065 287.805C131.779 285.775 128.035 273.463 127.945 273.17C129.839 277.635 132.455 284.197 132.455 285.64Z" fill="#FFA412"/>
<path d="M120.525 330.447H119.6C119.284 330.401 119.059 330.311 118.743 330.266C118.269 330.198 118.044 330.401 117.999 330.447H114.12C114.029 330.311 114.12 329.973 114.21 329.747C114.277 329.59 114.413 329.454 114.571 329.409C114.977 329.296 115.788 329.184 116.555 328.507C116.984 328.124 118.585 327.109 118.585 327.109C118.63 327.109 118.788 327.154 119.51 327.786C119.893 328.101 120.525 327.335 120.525 327.335C120.525 327.335 120.637 327.425 120.728 327.628C120.795 327.786 120.863 327.966 120.818 328.237C120.75 328.597 120.953 329.251 121.088 329.68C121.179 329.95 121.246 330.131 121.246 330.131C121.246 330.131 121.314 330.356 120.525 330.447Z" fill="#233862"/>
<path d="M120.75 327.628C120.525 327.786 120.074 328.079 119.758 328.124C119.352 328.169 118.562 327.132 118.562 327.132C118.608 327.132 118.765 327.177 119.487 327.808C119.871 328.124 120.502 327.357 120.502 327.357C120.502 327.357 120.66 327.447 120.75 327.628Z" fill="#466AA5"/>
<path d="M120.525 330.446H119.6C119.284 330.401 119.059 330.311 118.743 330.266C118.269 330.198 118.044 330.401 117.999 330.446H114.12C114.029 330.311 114.12 329.973 114.21 329.747C114.322 329.635 114.368 330.198 114.435 330.289C114.503 330.379 117.615 330.311 117.796 330.198C117.976 330.063 118.517 329.838 119.262 330.018C119.916 330.176 120.886 329.77 121.111 329.657C121.201 329.928 121.269 330.108 121.269 330.108C121.269 330.108 121.314 330.356 120.525 330.446Z" fill="#466AA5"/>
<path d="M125.441 330.447H124.517C124.201 330.401 123.975 330.311 123.66 330.266C123.186 330.198 122.96 330.401 122.915 330.447H119.014C118.923 330.311 119.014 329.973 119.104 329.747C119.171 329.59 119.307 329.454 119.465 329.409C119.871 329.296 120.683 329.184 121.449 328.507C121.878 328.124 123.479 327.109 123.479 327.109C123.524 327.109 123.682 327.154 124.404 327.786C124.787 328.101 125.419 327.335 125.419 327.335C125.419 327.335 125.531 327.425 125.622 327.628C125.689 327.786 125.757 327.966 125.712 328.237C125.644 328.597 125.847 329.251 125.983 329.68C126.073 329.95 126.14 330.131 126.14 330.131C126.14 330.131 126.231 330.356 125.441 330.447Z" fill="#233862"/>
<path d="M125.644 327.628C125.419 327.786 124.968 328.079 124.652 328.124C124.246 328.169 123.457 327.132 123.457 327.132C123.502 327.132 123.66 327.177 124.381 327.808C124.765 328.124 125.396 327.357 125.396 327.357C125.396 327.357 125.554 327.447 125.644 327.628Z" fill="#466AA5"/>
<path d="M125.441 330.446H124.517C124.201 330.401 123.975 330.311 123.66 330.266C123.186 330.198 122.96 330.401 122.915 330.446H119.014C118.923 330.311 119.014 329.973 119.104 329.747C119.217 329.635 119.262 330.198 119.329 330.289C119.397 330.379 122.509 330.311 122.69 330.198C122.87 330.063 123.411 329.838 124.156 330.018C124.81 330.176 125.78 329.77 126.005 329.657C126.095 329.928 126.163 330.108 126.163 330.108C126.163 330.108 126.231 330.356 125.441 330.446Z" fill="#466AA5"/>
<path d="M131.892 292.067C131.892 292.067 132.298 293.014 132.703 293.262C133.109 293.532 133.515 294.141 133.606 294.66C133.764 295.584 133.042 296.171 132.523 296.171C132.004 296.171 131.508 295.449 131.192 293.758C131.17 293.668 130.674 292.698 130.674 292.698L131.892 292.067Z" fill="#FFB27D"/>
<path d="M106.271 272.696L106.316 273.328L106.519 275.312L106.632 276.575H109.158L109.316 275.312L109.564 273.328L109.654 272.696H106.271Z" fill="#EE9849"/>
<path d="M106.091 272.696H109.834L109.767 272.335H106.181L106.091 272.696Z" fill="#D17A33"/>
<path d="M106.316 273.328L106.519 275.312H109.316L109.564 273.328H106.316Z" fill="#D17A33"/>
<path d="M106 274.049C106 274.049 106.632 273.328 107.286 273.891C107.917 274.433 107.241 275.605 106.699 275.921C106.136 276.237 105.978 276.394 105.978 276.394L106 274.049Z" fill="#FFB27D"/>
<path d="M120.48 292.224L120.953 292.179C120.953 292.179 120.006 283.768 120.277 280.296C120.795 273.801 123.682 268.389 123.705 268.344L122.825 268.186C122.78 268.231 122.261 269.381 121.562 271.456C120.931 273.35 119.916 276.53 119.758 280.07C119.623 283.565 120.457 292.179 120.48 292.224Z" fill="#BC3F3F"/>
<path d="M126.298 290.375C126.298 290.375 125.825 289.225 125.08 288.932L121.292 289.654C121.292 289.654 122.216 290.533 122.306 291.12L126.298 290.375Z" fill="#D2E4FF"/>
<path d="M121.54 296.87L128.012 295.652C128.306 295.584 128.509 295.291 128.463 294.998L127.652 290.714C127.584 290.42 127.291 290.218 126.997 290.263L120.525 291.48C120.232 291.548 120.029 291.841 120.074 292.134L120.886 296.419C120.953 296.712 121.246 296.915 121.54 296.87Z" fill="#912F2F"/>
<path d="M123.91 291.983L126.999 291.956L126.965 287.987L123.875 288.014L123.91 291.983Z" fill="#E58638"/>
<path d="M124.107 291.98L127.196 291.953L127.162 287.984L124.072 288.011L124.107 291.98Z" fill="#EE9849"/>
<path d="M124.602 293.528L127.056 291.65L124.643 288.498L122.189 290.376L124.602 293.528Z" fill="#578E9B"/>
<path d="M124.858 293.322L127.312 291.445L124.899 288.293L122.445 290.171L124.858 293.322Z" fill="#74ACBE"/>
<path d="M123.141 296.577L129.343 295.404C129.726 295.336 129.975 294.976 129.907 294.592L129.14 290.578C129.072 290.195 128.712 289.947 128.328 290.015L122.126 291.187C121.743 291.255 121.494 291.616 121.562 291.999L122.329 296.013C122.374 296.396 122.757 296.644 123.141 296.577Z" fill="#BC3F3F"/>
<path d="M124.607 260.384C124.607 260.384 126.592 256.438 123.817 254.882C121.043 253.326 119.014 253.935 117.503 255.851L124.607 260.384Z" fill="#233862"/>
<path d="M115.247 259.234C115.383 258.783 115.54 258.467 115.676 258.219C115.518 257.858 115.518 257.543 115.653 257.317C115.834 257.024 116.262 256.889 116.826 256.934C117.818 257.002 119.239 257.52 120.683 258.422C122.554 259.595 123.592 261.106 123.998 261.94C124.291 262.526 125.306 263.248 125.644 264.015C126.005 263.924 126.231 263.766 126.389 263.496C126.907 262.662 126.118 261.173 124.539 259.617C123.682 258.783 122.6 257.926 121.337 257.137C120.322 256.505 119.329 255.987 118.382 255.603C115.969 254.611 113.984 254.476 113.398 255.378C112.924 256.212 113.691 257.678 115.247 259.234Z" fill="#2B478B"/>
<path d="M78.9815 270.982C78.7108 270.441 85.116 268.479 85.2287 273.846C85.2287 273.846 97.2496 273.553 91.5211 266.856C89.5364 264.533 89.7394 262.616 89.8071 260.835C89.8747 259.054 88.5666 253.867 84.1236 254.386C84.1236 254.386 82.9509 253.912 81.5074 254.656C78.1696 256.348 70.7495 272.967 78.9815 270.982Z" fill="#163560"/>
<path d="M98.6479 276.981C98.6479 276.981 99.4373 275.786 100.069 275.763C100.7 275.74 101.873 275.402 101.783 275.65C101.693 275.876 100.971 275.898 100.903 276.056C100.836 276.191 101.986 276.417 102.302 276.44C102.64 276.462 103.407 276.44 103.384 276.597C103.362 276.755 101.986 277.432 101.039 277.342C100.069 277.251 98.8735 277.612 98.8735 277.612L98.6479 276.981Z" fill="#FFB27D"/>
<path d="M87.3262 277.364C87.3262 277.364 87.7547 278.198 88.5215 279.168C89.4462 280.341 90.8896 281.671 92.6938 281.942C93.5509 282.077 94.3853 281.874 95.1747 281.536C97.3624 280.566 99.0088 278.334 99.0088 278.334C99.3922 277.274 98.7607 276.575 98.7607 276.575C98.7607 276.575 94.3402 277.567 93.9117 277.364C93.4832 277.161 91.0475 270.08 90.4611 269.201C89.8747 268.322 87.89 267.848 87.89 267.848L87.3262 277.364Z" fill="#F9DDBF"/>
<path d="M88.5216 279.168C89.4463 280.341 90.8897 281.671 92.6939 281.942C93.551 282.077 94.3854 281.874 95.1748 281.536C95.0846 281.536 92.8969 281.806 92.0399 280.25C91.1603 278.672 90.1905 276.146 88.8824 276.981C88.2735 277.364 88.296 278.266 88.5216 279.168Z" fill="#F2CCAA"/>
<path d="M70.8398 325.035C70.8398 325.035 69.4866 326.275 69.7572 327.132C70.0279 328.011 71.2457 328.597 71.4036 329.657C71.5615 330.717 72.2155 331.303 72.8245 331.303C73.4109 331.303 75.6436 331.303 75.6436 331.303C75.6436 331.303 76.0721 330.559 75.0347 330.334C73.9747 330.108 73.5913 328.845 73.6589 327.695C73.7266 326.523 73.5687 324.967 73.5687 324.967L71.336 324.448L70.8398 325.035Z" fill="#233862"/>
<path d="M82.2517 325.553C82.2517 325.553 81.7555 330.762 82.3645 331.055L89.9424 331.033C89.9424 331.033 89.9424 330.153 88.7245 329.973C87.5066 329.77 85.3641 329.071 85.0032 327.47C84.6424 325.891 82.2517 325.553 82.2517 325.553Z" fill="#233862"/>
<path d="M76.8615 288.165C78.4177 284.67 79.3649 283.678 79.1845 282.573C79.0492 281.761 79.5904 267.532 79.5904 267.532C79.7709 267.465 80.1543 267.42 80.3572 267.374C80.9887 267.239 81.53 266.788 81.7555 266.157C82.0262 265.413 82.2292 264.308 82.2292 262.932L82.4321 262.977L85.7926 263.631C85.7926 263.631 85.7249 264.691 85.7249 265.683V265.706C85.7249 266.563 86.2887 267.329 87.1232 267.577C87.5517 267.69 87.9126 267.803 87.9126 267.803C87.9126 267.803 89.153 271.321 89.3785 274.929C89.6041 278.537 87.1458 280.115 89.4011 287.331C91.679 294.75 75.9819 290.105 76.8615 288.165Z" fill="#FFB27D"/>
<path d="M85.77 263.676C85.77 263.676 85.7024 264.736 85.7024 265.728C83.8304 265.683 82.8381 263.969 82.4321 263.022L85.77 263.676Z" fill="#E8945B"/>
<path d="M86.4015 264.623C86.4015 264.623 81.9585 264.691 81.9585 261.917C81.9585 259.144 81.3721 257.295 84.2138 257.137C87.0555 256.979 87.5968 258.039 87.8223 258.963C88.0479 259.865 87.5517 264.533 86.4015 264.623Z" fill="#FFB27D"/>
<path d="M86.2436 257.069C86.2436 257.069 85.0257 260.316 83.1538 260.79C81.2819 261.263 80.47 260.767 80.47 260.767C80.47 260.767 81.9134 259.64 82.2066 257.633C82.2066 257.655 85.3189 255.513 86.2436 257.069Z" fill="#163560"/>
<path d="M85.928 257.317C85.928 257.317 86.8301 257.655 87.191 258.309C87.5518 258.963 87.8676 259.798 87.7999 260.858C87.7999 260.858 88.7246 258.648 87.6871 257.407C86.6046 256.077 85.928 257.317 85.928 257.317Z" fill="#163560"/>
<path d="M85.4318 262.887C85.4318 262.887 85.7475 263.293 86.3564 263.27C86.8526 263.248 87.033 262.819 87.033 262.819C87.033 262.819 86.1309 262.594 85.4318 262.887Z" fill="#EBF3FA"/>
<path d="M76.4329 273.846C76.4329 273.846 76.3202 275.447 76.4329 277.341C76.5006 278.604 77.7861 280.296 77.9666 280.724C78.4176 281.784 78.9363 281.942 78.9363 281.942L82.9057 282.911L84.304 283.25L88.7019 281.942C88.7019 281.942 90.7091 276.327 89.8972 273.192C89.0853 270.035 87.8674 267.848 87.8674 267.848C87.8674 267.848 84.2589 271.366 79.5904 267.555L76.4329 273.846Z" fill="#F9DDBF"/>
<path d="M77.5833 277.86C77.6509 279.123 77.7637 280.296 77.9667 280.724C78.4177 281.784 78.9364 281.942 78.9364 281.942L82.9058 282.911L84.6424 282.393C84.6424 282.393 78.8688 281.513 79.5228 276.552L77.5833 277.86Z" fill="#F2CCAA"/>
<path d="M88.4313 282.799C88.4313 282.799 90.619 289.586 90.7543 291.909C90.8896 294.231 86.5819 324.787 86.4015 325.846C86.2436 326.861 84.9807 327.493 84.9807 327.493C84.9807 327.493 84.4168 327.831 83.5824 327.605C82.4547 327.29 82.0938 326.906 82.0938 326.906C82.0938 326.906 80.4024 305.123 81.4398 297.343C82.4998 289.564 82.4998 282.821 82.4998 282.821H88.4313V282.799Z" fill="#ED7D2B"/>
<path d="M79.1844 282.596C79.1844 282.596 75.8466 287.06 75.5534 290.082C75.2376 293.104 75.0572 303.702 74.4031 306.656C73.7491 309.61 71.3134 315.27 71.3134 324.448C71.3134 324.448 71.5614 324.967 72.3508 325.26C72.5989 325.35 72.9372 325.44 73.2529 325.508C73.907 325.666 74.561 325.35 74.8542 324.741C76.5006 321.427 81.733 310.76 82.0036 308.551C82.184 306.972 83.853 296.599 87.4615 290.533C88.3185 289.067 86.9202 283.25 86.9202 283.25L79.1844 282.596Z" fill="#F99746"/>
<path d="M85.522 262.977C85.522 262.977 85.5896 263.293 86.4015 263.248C86.4015 263.248 87.0781 263.203 87.0556 262.842C87.0781 262.842 86.4241 262.594 85.522 262.977Z" fill="white"/>
<path d="M88.7921 281.739C88.7921 281.739 87.9125 282.438 86.1759 282.46C84.101 282.505 78.9363 281.919 78.9363 281.919C78.9363 281.919 78.7108 282.551 78.7108 283.227C78.7108 283.227 85.0032 284.806 88.6568 283.453C88.6568 283.498 89.1304 282.618 88.7921 281.739Z" fill="#233862"/>
<path d="M85.725 283.204C85.725 282.618 86.1535 282.122 86.6722 282.122C87.1909 282.122 87.6194 282.596 87.6194 283.204C87.6194 283.791 87.1909 284.287 86.6722 284.287C86.1535 284.287 85.725 283.791 85.725 283.204ZM86.0182 283.204C86.0182 283.633 86.3114 283.971 86.6497 283.971C87.0105 283.971 87.2811 283.633 87.2811 283.204C87.2811 282.776 86.988 282.438 86.6497 282.438C86.3114 282.438 86.0182 282.776 86.0182 283.204Z" fill="white"/>
<path d="M72.1565 282.971L78.6031 288.584L86.2899 279.757L79.8432 274.144L72.1565 282.971Z" fill="#B5453C"/>
<path d="M80.3798 283.002C80.3798 283.002 82.7479 283.272 82.7253 283.836C82.7253 284.4 82.1389 285.55 81.8457 285.595C81.5525 285.64 79.9287 284.039 79.9287 284.039L80.3798 283.002Z" fill="#FFB27D"/>
<path d="M79.5904 267.532C79.5904 267.532 76.433 267.758 75.2151 270.689C73.9972 273.621 71.7194 278.559 71.7194 279.393C71.7194 280.228 73.0049 282.776 79.8836 284.264C79.8836 284.264 80.6053 283.52 80.5602 282.934C80.5602 282.934 76.2526 279.236 76.2751 278.807C76.2977 277.995 76.9743 276.913 80.7632 273.147C81.7781 272.11 79.5904 267.532 79.5904 267.532Z" fill="#F9DDBF"/>
<path d="M384.466 366.932H374.226L345.539 366.91C344.794 364.7 344.434 361.813 344.997 358.16C346.734 346.84 354.199 340.481 364.01 340.639C373.82 340.774 379.436 346.66 382.233 352.094C384.172 355.905 384.939 362.31 384.466 366.932Z" fill="#82B378"/>
<path d="M196.462 349.005C196.462 349.005 190.981 345.668 192.334 335.859C193.687 326.049 199.506 320.525 207.129 320.66C214.752 320.773 219.15 325.891 221.315 330.604C223.48 335.317 223.774 344.608 222.037 347.494C220.255 350.381 202.957 351.17 196.462 349.005Z" fill="#82B378"/>
<path d="M224.676 318.315C224.676 318.315 221.067 316.127 221.947 309.678C222.826 303.229 226.66 299.598 231.667 299.688C236.674 299.779 239.561 303.116 240.982 306.228C242.403 309.317 242.606 315.428 241.455 317.322C240.328 319.217 228.961 319.735 224.676 318.315Z" fill="#82B378"/>
<path d="M616.606 341.744C616.606 341.744 614.283 328.44 612.547 331.168C610.833 333.897 616.606 341.744 616.606 341.744Z" fill="#82B378"/>
<path d="M614.802 341.451C614.802 341.451 610.63 334.212 609.75 335.069C608.871 335.926 614.802 341.451 614.802 341.451Z" fill="#82B378"/>
<path d="M617.621 341.812C617.644 341.699 617.148 331.191 619.764 332.318C622.357 333.446 617.621 341.812 617.621 341.812Z" fill="#82B378"/>
<path d="M611.081 341.451C611.081 341.451 615.231 339.286 622.312 341.023C622.312 341.023 623.959 341.902 622.312 342.443C620.643 343.007 608.419 343.232 611.081 341.451Z" fill="#82B378"/>
<path d="M291.727 360.145C291.727 360.145 289.404 346.84 287.667 349.569C285.953 352.297 291.727 360.145 291.727 360.145Z" fill="#82B378"/>
<path d="M289.922 359.852C289.922 359.852 285.75 352.613 284.87 353.47C283.991 354.327 289.922 359.852 289.922 359.852Z" fill="#82B378"/>
<path d="M292.741 360.235C292.764 360.122 292.268 349.614 294.884 350.741C297.478 351.846 292.741 360.235 292.741 360.235Z" fill="#82B378"/>
<path d="M286.201 359.852C286.201 359.852 290.351 357.687 297.433 359.423C297.433 359.423 299.079 360.302 297.433 360.844C295.764 361.407 283.54 361.633 286.201 359.852Z" fill="#82B378"/>
<path d="M158.933 360.979C158.933 360.979 156.61 347.675 154.873 350.403C153.159 353.154 158.933 360.979 158.933 360.979Z" fill="#82B378"/>
<path d="M157.129 360.709C157.129 360.709 152.956 353.47 152.077 354.327C151.22 355.184 157.129 360.709 157.129 360.709Z" fill="#82B378"/>
<path d="M159.948 361.069C159.97 360.957 159.474 350.448 162.09 351.576C164.706 352.703 159.948 361.069 159.948 361.069Z" fill="#82B378"/>
<path d="M153.407 360.709C153.407 360.709 157.557 358.544 164.639 360.28C164.639 360.28 166.285 361.16 164.639 361.701C162.992 362.242 150.769 362.467 153.407 360.709Z" fill="#82B378"/>
<path d="M528.739 362.467L424.407 362.422L445.45 345.081L549.781 345.127L528.739 362.467Z" fill="#DDAF8A"/>
<path d="M574.454 289.924C574.454 289.924 573.575 291.21 573.078 293.938C572.65 296.329 572.267 297.208 571.635 297.704C571.004 298.2 567.485 299.643 567.485 299.643L567.756 300.252C567.756 300.252 572.921 299.553 573.507 298.696C574.093 297.839 576.304 292.743 576.123 291.57C575.943 290.398 574.454 289.924 574.454 289.924Z" fill="#F4A269"/>
<path d="M570.891 316.917C571.207 317.3 570.71 317.796 570.079 318.292C569.425 318.788 569.741 318.788 568.929 319.577C568.139 320.389 567.598 320.389 567.44 320.299C567.305 320.231 567.621 319.758 567.936 319.262C567.982 319.194 568.027 319.126 568.049 319.059C568.41 318.473 568.365 317.819 568.478 317.12C568.568 316.466 568.027 314.932 568.027 314.932L569.087 313.805C569.087 313.805 569.538 315.203 569.763 315.789C569.899 316.127 570.214 316.375 570.485 316.556C570.62 316.669 570.778 316.781 570.891 316.917Z" fill="#FFB27D"/>
<path d="M570.056 318.292C569.402 318.788 569.718 318.788 568.906 319.577C568.117 320.389 567.575 320.389 567.418 320.299C567.282 320.231 567.598 319.758 567.914 319.262H567.936C567.936 319.262 568.726 319.036 569.335 318.315C569.831 317.728 570.147 316.962 570.485 316.556C570.62 316.646 570.778 316.759 570.891 316.894C571.207 317.3 570.71 317.796 570.056 318.292Z" fill="#C65447"/>
<path d="M576.867 300.478C576.867 300.478 566.831 299.711 564.937 300.906C563.042 302.101 568.342 317.187 568.342 317.187C568.342 317.187 568.906 317.029 569.289 316.759C569.65 316.511 570.034 316.015 570.034 316.015C570.034 316.015 570.485 310.963 568.703 304.83C568.5 304.153 576.867 306.296 578.175 303.973C579.484 301.65 578.401 299.35 578.401 299.35L576.867 300.478Z" fill="#2C3A64"/>
<path d="M565.658 320.006C565.704 320.502 565.004 320.637 564.192 320.682C563.381 320.728 563.629 320.885 562.523 321.088C561.418 321.291 560.967 320.976 560.877 320.84C560.809 320.705 561.328 320.502 561.869 320.254C561.937 320.231 562.005 320.186 562.072 320.164C562.704 319.893 563.042 319.33 563.516 318.811C563.967 318.315 564.418 316.759 564.418 316.759L565.929 316.443C565.929 316.443 565.501 317.841 565.365 318.45C565.275 318.811 565.41 319.194 565.523 319.51C565.568 319.668 565.636 319.826 565.658 320.006Z" fill="#FFB27D"/>
<path d="M564.192 320.682C563.381 320.728 563.629 320.885 562.523 321.088C561.418 321.291 560.967 320.976 560.877 320.84C560.809 320.705 561.328 320.502 561.869 320.254C561.869 320.254 562.659 320.525 563.561 320.277C564.305 320.074 565.004 319.645 565.523 319.487C565.591 319.645 565.636 319.826 565.658 320.006C565.704 320.525 565.004 320.637 564.192 320.682Z" fill="#C65447"/>
<path d="M578.829 301.109C578.829 301.109 569.898 301.538 568.072 302.8C566.222 304.063 563.741 318.067 563.741 318.067C563.741 318.067 563.944 318.202 564.35 318.247C564.734 318.27 565.591 318.022 565.591 318.022C565.591 318.022 569.695 311.64 569.943 310.061C570.192 308.483 570.056 307.085 570.755 307.017C571.455 306.95 580.205 307.716 581.423 305.348C582.663 302.958 578.829 301.109 578.829 301.109Z" fill="#1C468A"/>
<path d="M576.371 289.541C576.146 289.27 575.852 288.774 575.514 287.827C575.559 287.917 576.033 289.09 576.664 289.654C578.92 290.42 581.152 295.201 581.175 295.178C581.175 295.178 585.663 291.48 582.528 288.301C581.31 287.06 580.949 285.617 580.746 284.625C580.544 283.633 579.01 279.484 576.416 281.333C576.416 281.333 575.898 281.243 575.695 281.333C575.695 281.333 575.875 281.333 575.988 281.378C575.649 281.446 575.176 281.581 574.838 281.919C573.935 282.821 574.364 288.459 576.371 289.541Z" fill="#163560"/>
<path d="M579.213 288.436C579.213 288.436 578.378 288.368 577.544 288.436C576.98 288.481 576.416 288.662 576.1 288.797C575.311 289.135 575.401 290.511 577.048 290.263C578.694 290.015 579.326 288.865 579.213 288.436Z" fill="#FFB27D"/>
<path d="M576.168 289.451C576.168 289.451 575.943 290.646 577.003 290.601C577.702 290.578 579.235 289.721 579.1 289.113C579.032 288.819 578.491 288.075 578.401 286.361L578.266 286.407L576.1 286.993C576.1 286.993 576.191 287.692 576.236 288.323C576.303 288.864 576.303 289.383 576.168 289.451Z" fill="#FFB27D"/>
<path d="M576.123 286.97C576.123 286.97 576.213 287.669 576.258 288.301C577.476 288.188 578.063 287.015 578.288 286.384L576.123 286.97Z" fill="#F4A269"/>
<path d="M578.491 286.023C578.491 286.023 578.875 284.873 578.807 283.994C578.762 283.362 577.882 281.198 575.717 282.1C575.717 282.1 575.086 282.325 574.567 282.911C574.161 283.362 573.642 284.264 574.928 286.001L575.311 286.61L578.491 286.023Z" fill="#163560"/>
<path d="M576.055 287.985C576.055 287.985 578.897 287.309 578.446 285.55C577.995 283.791 578.063 282.505 576.236 282.866C574.409 283.227 574.229 283.994 574.229 284.603C574.229 285.234 575.311 288.12 576.055 287.985Z" fill="#FFB27D"/>
<path d="M574.928 283.159C574.928 283.159 576.236 285.031 577.499 285.031C578.762 285.031 579.19 284.58 579.19 284.58C579.19 284.58 578.085 284.084 577.589 282.866C577.589 282.866 575.266 282.009 574.928 283.159Z" fill="#163560"/>
<path d="M575.153 283.272C575.153 283.272 574.702 283.881 574.657 284.377C574.635 284.851 574.815 285.798 574.522 285.843C574.522 285.843 573.575 284.58 574.026 283.633C574.544 282.596 575.153 283.272 575.153 283.272Z" fill="#163560"/>
<path d="M572.83 300.636C573.056 300.929 573.8 300.996 574.589 301.132C575.198 301.244 575.852 301.357 576.326 301.628C577.386 302.237 580.814 304.334 581.807 304.244C582.19 304.198 582.122 303.454 581.897 302.485C581.536 300.929 580.747 298.764 580.747 297.817C580.747 297.298 580.566 296.081 580.341 294.705C580.318 294.592 580.295 294.479 580.273 294.367C579.822 291.661 579.19 288.481 579.19 288.481C579.19 288.481 578.491 290.015 577.138 290.015C575.785 290.015 576.101 288.842 576.101 288.842C576.101 288.842 574.86 288.977 574.567 289.293C574.274 289.609 573.53 290.984 573.372 291.345C573.372 291.345 573.349 291.819 574.522 292.044C574.522 292.044 574.229 293.329 574.206 294.186C574.184 294.818 574.635 296.802 574.77 298.042C574.815 298.471 574.815 298.832 574.747 298.967C574.657 299.17 574.364 299.373 574.026 299.553C573.372 299.914 572.537 300.297 572.83 300.636Z" fill="#265CAA"/>
<path d="M579.574 289.451C579.574 289.451 580.611 288.819 581.604 290.015C582.596 291.21 580.882 299.734 579.416 300.185C577.77 300.681 572.83 300.636 572.83 300.636L573.033 300.027C573.033 300.027 578.175 298.381 578.378 298.11C578.581 297.839 579.055 289.586 579.574 289.451Z" fill="#FFB27D"/>
<path d="M579.213 288.436C579.213 288.436 581.333 288.639 581.964 289.338C582.573 290.037 582.754 291.931 582.754 291.931C582.754 291.931 580.882 293.442 578.627 292.856L579.213 288.436Z" fill="#265CAA"/>
<path d="M565.997 297.569L565.794 295.697L568.432 299.17C568.432 299.17 567.327 299.711 567.26 299.621C567.192 299.531 565.997 297.569 565.997 297.569Z" fill="#163560"/>
<path d="M569.944 297.569L572.379 301.289H568.297L565.997 297.569H569.944Z" fill="#1650A5"/>
<path d="M565.997 297.569L565.816 295.72L567.192 297.434L565.997 297.569Z" fill="#EFDECE"/>
<path d="M572.266 301.087L572.447 300.951L570.034 297.366L569.943 297.569L572.266 301.087Z" fill="#EFDECE"/>
<path d="M570.034 297.366L566.177 297.479L565.997 297.569H569.944L570.034 297.366Z" fill="#FCECDB"/>
<path d="M570.823 300.545C570.891 300.545 571.003 300.545 571.094 300.545C570.8 300.41 570.507 300.252 570.507 300.252C570.507 300.252 570.643 300.117 571.139 300.297C571.206 300.32 571.252 300.32 571.319 300.32L570.62 300.004C570.755 299.891 571.094 299.982 571.342 300.072C571.522 300.139 571.748 300.117 571.906 299.982C571.883 299.982 571.883 299.982 571.861 299.982C571.455 299.914 571.342 299.689 571.455 299.711C571.567 299.734 572.266 299.779 572.266 299.779C572.582 299.756 573.191 300.004 573.191 300.004L572.853 300.636C572.853 300.636 571.86 300.816 571.59 300.748C571.567 300.748 571.545 300.726 571.522 300.726L570.62 300.658C570.62 300.681 570.643 300.568 570.823 300.545Z" fill="#FFB27D"/>
<path d="M503.096 325.508C502.96 325.508 496.465 329.274 496.984 330.469C497.48 331.664 505.734 327.808 505.734 327.808L503.096 325.508Z" fill="#ED985F"/>
<path d="M504.359 314.143C504.359 314.143 504.201 312.407 507.471 311.054C510.764 309.701 512.41 312.159 512.591 313.015C512.771 313.872 514.305 318.721 510.403 319.465C506.501 320.209 504.359 314.143 504.359 314.143Z" fill="#233862"/>
<path d="M504.742 328.214C505.464 328.733 506.388 329.139 507.539 329.409C511.846 330.401 513.515 326.748 514.124 324.245C513.538 323.907 512.974 323.839 512.658 323.794C512.343 323.749 512.027 323.727 511.756 323.727C511.283 323.366 510.538 321.832 510.38 319.487L510.177 319.532L506.772 320.457C506.772 320.457 506.93 321.539 506.997 322.554C507.065 323.343 507.02 323.839 507.02 323.839C506.749 323.907 506.479 324.381 506.479 324.381C506.479 324.471 505.486 326.094 504.742 328.214Z" fill="#FFB27D"/>
<path d="M506.794 320.457C506.794 320.457 506.952 321.539 507.02 322.554C508.937 322.351 509.839 320.525 510.2 319.51L506.794 320.457Z" fill="#ED985F"/>
<path d="M506.231 321.472C506.231 321.472 510.809 321.224 510.606 318.382C510.403 315.541 510.854 313.579 507.922 313.624C504.99 313.669 504.494 314.797 504.336 315.767C504.178 316.714 505.035 321.449 506.231 321.472Z" fill="#FFB27D"/>
<path d="M504.359 314.143C505.013 313.241 505.554 313.376 505.87 313.624C508.26 312.068 510.02 313.985 510.02 313.985C510.471 316.015 512.027 317.074 512.027 317.074C512.027 317.074 511.237 317.638 509.275 317.3C508.689 317.187 508.125 316.804 507.651 316.33C508.531 317.57 509.636 318.45 509.636 318.45C507.268 317.548 506.118 314.436 506.005 314.098C505.734 314.368 505.238 314.955 505.103 315.496C504.923 316.24 504.742 317.007 504.314 316.984C504.314 316.984 503.389 315.518 504.359 314.143Z" fill="#233862"/>
<path d="M515.455 337.505C515.861 335.385 517.214 326.951 515.861 324.245C515.387 323.276 513.47 323.185 511.395 323.276C510.741 323.704 508.283 325.283 507.268 325.08C507.268 325.08 507.245 325.08 507.2 325.057C506.727 324.944 506.659 324.155 507.042 323.862C507.042 323.862 505.892 324.223 504.629 324.448C503.907 324.584 501.72 326.072 501.72 326.072C501.72 326.072 502.938 327.38 504.381 327.989C504.133 330.198 504.494 331.168 506.794 336.264C508.734 340.571 506.524 344.45 506.524 344.45C506.524 344.45 517.891 353.605 517.958 348.937C518.026 345.42 514.913 340.211 515.455 337.505Z" fill="#B5453C"/>
<path d="M505.983 354.372C505.374 354.304 504.81 353.966 504.471 353.447C504.426 353.357 504.359 353.267 504.291 353.177C503.005 351.215 502.487 345.217 499.577 338.812C498.878 337.257 496.33 336.986 495.631 335.204C495.631 335.204 493.917 329.499 498.901 329.341C503.885 329.184 512.23 345.217 512.365 346.885C512.478 348.531 515.658 355.454 505.983 354.372Z" fill="#DD6D22"/>
<path d="M486.181 354.237H493.262C493.262 354.237 493.533 353.109 493.059 352.343C492.653 351.666 492.811 351.283 493.105 350.719C492.789 350.854 492.36 350.967 491.909 350.944C491.548 350.922 491.187 350.764 490.849 350.584C490.533 350.922 489.248 352.41 488.819 352.703C488.391 353.019 486.316 352.906 486.181 354.237Z" fill="#9E332E"/>
<path d="M514.711 326.455C514.711 326.455 515.635 334.844 509.659 336.603C503.682 338.362 501.968 328.891 506.817 328.192C511.621 327.515 514.711 326.455 514.711 326.455Z" fill="#9E332E"/>
<path d="M495.45 331.01C495.022 334.212 493.353 344.315 490.421 349.231C489.473 350.809 492.811 351.711 492.834 351.711C493.285 351.598 494.029 350.877 494.367 350.561C496.758 348.419 501.607 342.308 501.607 337.437C501.607 335.047 501.652 330.514 499.916 329.341C498.833 328.642 495.63 329.725 495.45 331.01Z" fill="#ED7D2B"/>
<path d="M510.2 354.237C510.2 354.237 509.929 353.876 509.478 353.177C508.937 352.342 508.328 350.719 507.606 348.644C506.84 346.457 505.915 343.773 504.787 340.977C504.426 340.12 504.065 339.241 503.66 338.362C502.96 336.806 500.998 337.008 500.299 335.25C500.299 335.25 497.593 329.139 502.577 328.981C507.561 328.823 517.034 345.307 517.575 346.908C518.161 348.667 521.071 355.928 510.2 354.237Z" fill="#F99746"/>
<path d="M491.391 354.237H498.472C498.472 354.237 498.743 353.109 498.269 352.343C497.863 351.666 498.021 351.283 498.314 350.719C497.999 350.854 497.57 350.967 497.119 350.944C496.758 350.922 496.397 350.764 496.059 350.584C495.743 350.922 494.458 352.41 494.029 352.703C493.578 353.019 491.526 352.906 491.391 354.237Z" fill="#B5453C"/>
<path d="M507.606 348.644C506.839 346.457 505.915 343.773 504.787 340.977C505.08 338.858 505.734 337.008 506.817 336.264C506.794 336.242 509.411 344.36 507.606 348.644Z" fill="#ED7D2B"/>
<path d="M499.6 330.785C499.171 333.987 498.562 344.315 495.631 349.231C494.683 350.809 498.021 351.711 498.044 351.711C498.495 351.598 499.239 350.877 499.577 350.561C501.968 348.419 506.817 342.308 506.817 337.437C506.817 335.047 504.02 330.695 502.284 329.545C501.201 328.823 499.758 329.499 499.6 330.785Z" fill="#F99746"/>
<path d="M514.147 324.245C514.147 324.245 504.088 327.943 502.577 327.876C501.607 327.831 493.488 324.967 493.488 324.967L492.766 326.342C492.766 326.342 500.682 331.416 502.848 331.394C507.133 331.348 514.372 328.71 515.207 328.191C516.041 327.673 516.515 324.764 514.147 324.245Z" fill="#FFB27D"/>
<path d="M493.465 324.967C493.465 324.967 492.744 323.839 491.999 323.817C491.278 323.794 490.015 324.313 489.586 324.403C489.158 324.493 487.94 324.877 488.301 325.485C488.662 326.072 490.353 326.207 491.075 326.072C491.796 325.936 492.721 326.365 492.721 326.365L493.465 324.967Z" fill="#FFB27D"/>
<path d="M492.202 323.839C492.202 323.839 491.052 323.321 490.714 323.208C490.376 323.118 490.443 323.208 490.556 323.524C490.646 323.839 491.255 324.133 491.255 324.223C491.255 324.335 492.202 323.839 492.202 323.839Z" fill="#FFB27D"/>
<path d="M505.374 319.825C505.374 319.825 505.802 319.645 507.02 319.758C507.02 319.758 506.952 320.231 506.05 320.276C505.554 320.299 505.374 319.825 505.374 319.825Z" fill="white"/>
<path d="M508.959 326.072C508.959 326.072 509.862 328.913 512.951 329.567C512.951 329.567 518.048 327.989 515.522 324.516C515.522 324.516 512.997 322.644 508.959 326.072Z" fill="#B5453C"/>
<path d="M510.809 311.234C510.809 311.234 511.982 309.588 514.981 310.445C517.981 311.302 516.47 315 517.462 316.037C518.454 317.074 519.808 319.194 517.462 320.074C515.117 320.93 513.177 321.111 513.763 317.864C514.35 314.616 513.966 311.279 511.147 312.001L510.809 311.234Z" fill="#233862"/>
<path d="M462.771 348.374C463.019 347.788 466.83 337.82 469.762 337.82C471.341 337.82 472.762 338.181 472.423 340.797C472.085 343.39 469.176 357.507 467.349 357.304C465.522 357.101 462.771 348.374 462.771 348.374Z" fill="#182E51"/>
<path d="M473.461 355.251C473.416 355.68 473.303 356.559 473.416 357.078C473.438 357.213 473.573 357.326 473.709 357.326H478.468C478.693 357.326 478.851 357.078 478.738 356.875C478.49 356.447 478.062 355.815 477.588 355.612C477.002 355.364 476.46 355.026 476.257 354.891C476.212 354.846 476.145 354.846 476.077 354.846L473.754 355.003C473.596 355.003 473.483 355.116 473.461 355.251Z" fill="#182E51"/>
<path d="M474.814 339.602C474.814 339.602 476.28 353.831 476.46 355.003C476.46 355.003 474.183 355.454 473.483 355.003C472.807 354.552 469.92 346.908 469.988 345.532C470.055 344.179 474.814 339.602 474.814 339.602Z" fill="#233862"/>
<path d="M465.139 348.374C465.387 347.788 469.198 337.82 472.13 337.82C473.709 337.82 475.13 338.181 474.791 340.797C474.453 343.39 471.544 357.507 469.717 357.304C467.913 357.101 465.139 348.374 465.139 348.374Z" fill="#233862"/>
<path d="M453.907 350.426C453.907 350.426 452.779 356.943 457.583 357.304C462.41 357.664 468.973 357.597 469.717 357.304C470.461 357.01 472.829 351.373 468.364 350.245C463.921 349.118 453.907 350.426 453.907 350.426Z" fill="#233862"/>
<path d="M467.71 341.519C468.093 339.512 469.379 331.506 468.093 328.913C467.642 327.989 465.838 327.899 463.853 327.989C463.244 328.395 460.899 329.883 459.929 329.702C459.929 329.702 451.291 334.754 453.479 339.602C454.471 341.812 454.11 345.172 453.569 347.765C453.118 349.997 454.493 352.207 456.726 352.726C461.913 353.944 468.341 353.29 468.364 350.268C468.431 346.908 467.214 344.089 467.71 341.519Z" fill="white"/>
<path d="M465.297 333.062C465.297 333.062 469.807 340.459 472.919 341.97C472.919 341.97 474.363 339.715 471.679 335.926C468.995 332.115 467.98 328.146 467.168 328.485C466.356 328.823 465.297 333.062 465.297 333.062Z" fill="#FFB27D"/>
<path d="M472.153 337.82C472.153 337.82 474.634 337.775 475.242 338.407C475.874 339.038 474.994 342.218 472.942 341.97L472.153 337.82Z" fill="#FFB27D"/>
<path d="M466.965 328.169C466.965 328.169 468.183 328.192 469.311 330.785C469.311 330.785 468.138 335.362 465.702 334.957C463.267 334.551 466.965 328.169 466.965 328.169Z" fill="white"/>
<path d="M462.703 316.24C462.703 316.24 459.794 315.676 458.328 316.736C455.689 318.653 455.554 325.283 454.561 326.275C453.569 327.267 451.201 326.839 450.975 331.957C450.772 337.076 451.922 337.505 450.547 339.782C449.171 342.06 451.133 344.337 451.133 344.337C451.133 344.337 450.321 343.075 450.682 342.173C450.682 342.173 452.396 344.653 453.569 345.352C456.726 347.246 460.267 346.57 462.004 345.397C462.252 345.217 462.545 345.127 462.861 345.081C463.718 344.946 465.522 343.819 464.868 336.648C464.507 332.724 467.011 328.778 465.973 327.064C465.973 327.064 466.447 327.786 466.492 328.62C466.492 328.62 467.123 327.425 466.041 326.297C464.958 325.17 467.326 322.87 466.965 320.186C466.695 318.337 465.387 316.308 462.703 316.24Z" fill="#233862"/>
<path d="M128.869 366.819H46.7304C35.0478 366.819 24.6508 359.401 20.8393 348.351C20.5235 347.404 20.2078 346.502 19.9371 345.69C18.3809 340.865 16.6669 335.34 14.9303 329.229C14.9303 329.229 28.2818 325.711 42.9189 333.152C57.556 340.594 52.5943 352.478 69.1483 350.268C85.725 348.058 111.616 345.307 120.773 353.019C125.689 357.236 127.9 362.693 128.869 366.819Z" fill="#82B378"/>
<path d="M110.985 351.801C110.985 351.801 116.465 342.962 119.803 344.27C123.141 345.578 112.36 351.801 112.36 351.801H110.985Z" fill="#82B378"/>
<path d="M108.571 349.727C108.571 349.727 109.541 343.864 111.887 344.134C114.232 344.405 110.714 349.727 110.714 349.727H108.571Z" fill="#82B378"/>
<path d="M41.7913 336.761C41.7913 336.761 49.527 327.515 52.1432 328.124C54.7594 328.755 43.0768 337.054 43.0768 337.054L41.7913 336.761Z" fill="#82B378"/>
<path d="M40.2351 334.19C40.2351 334.19 41.4304 327.831 43.5504 327.921C45.6704 328.011 41.9041 334.19 41.9041 334.19H40.2351Z" fill="#82B378"/>
<path d="M45.8057 337.076C45.8057 337.076 57.4432 334.641 57.8942 337.076C58.3678 339.512 45.8057 337.076 45.8057 337.076Z" fill="#82B378"/>
<path d="M351.718 332.318C387.379 332.318 416.288 329.613 416.288 326.275C416.288 322.937 387.379 320.231 351.718 320.231C316.057 320.231 287.148 322.937 287.148 326.275C287.148 329.613 316.057 332.318 351.718 332.318Z" fill="#82B378"/>
<path d="M327.248 326.636C327.248 326.636 322.782 324.11 325.241 317.751C327.699 311.392 333.134 305.055 344.118 304.244C355.101 303.432 361.236 304.018 366.829 308.145C372.422 312.271 380.135 318.089 377.79 323.907C375.467 329.725 336.314 328.552 327.248 326.636Z" fill="#73A567"/>
<path d="M279.457 260.136C279.457 260.136 277.247 260.361 275.984 262.233C275.105 263.541 275.263 266.608 274.09 267.668C272.917 268.727 273.143 270.802 274.631 271.681C276.12 272.561 284.013 273.17 286.472 271.095C288.93 268.998 285.615 267.848 285.795 264.33C285.93 262.707 283.607 259.662 279.457 260.136Z" fill="#163560"/>
<path d="M271.947 294.457C271.947 294.457 270.752 295.652 270.572 296.058C270.391 296.464 270.143 297.456 271.023 297.524C271.925 297.614 272.286 297.479 272.398 297.05C272.534 296.622 272.782 295.201 272.782 295.201L271.947 294.457Z" fill="#F4A269"/>
<path d="M276.21 273.891C276.21 273.891 273.909 274.523 273.233 277.544C272.579 280.566 273.21 287.038 272.624 289.067C272.038 291.097 271.316 294.818 271.316 294.818C271.316 294.818 272.128 295.472 272.985 295.427C272.985 295.427 277.383 288.977 277.428 287.218C277.495 285.505 276.21 273.891 276.21 273.891Z" fill="#FFB27D"/>
<path d="M293.756 332.792C293.756 332.792 295.155 334.054 294.884 334.956C294.613 335.858 293.35 336.467 293.192 337.55C293.012 338.655 292.335 339.241 291.726 339.241C291.118 339.241 288.817 339.241 288.817 339.241C288.817 339.241 288.366 338.474 289.449 338.226C290.531 338.001 290.937 336.693 290.869 335.498C290.802 334.303 290.982 332.701 290.982 332.701L293.283 332.16L293.756 332.792Z" fill="#233862"/>
<path d="M282.006 333.333C282.006 333.333 282.502 338.7 281.893 338.993L274.09 338.97C274.09 338.97 274.09 338.068 275.353 337.865C276.616 337.662 278.803 336.941 279.187 335.295C279.548 333.694 282.006 333.333 282.006 333.333Z" fill="#233862"/>
<path d="M287.554 294.84C285.953 291.232 284.96 290.217 285.163 289.09C285.299 288.256 284.735 273.598 284.735 273.598C284.555 273.531 284.171 273.485 283.946 273.44C283.292 273.305 282.75 272.831 282.525 272.2C282.254 271.433 282.029 270.306 282.029 268.885L281.826 268.93L278.375 269.607C278.375 269.607 278.443 270.689 278.465 271.727V271.749C278.465 272.629 277.879 273.418 277.022 273.666C276.593 273.801 276.21 273.891 276.21 273.891C276.21 273.891 274.947 277.522 274.699 281.243C274.451 284.963 276.999 286.587 274.676 294.028C272.286 301.628 288.434 296.825 287.554 294.84Z" fill="#FFB27D"/>
<path d="M278.375 269.607C278.375 269.607 278.443 270.689 278.465 271.726C280.405 271.681 281.42 269.9 281.848 268.93L278.375 269.607Z" fill="#E8945B"/>
<path d="M277.721 270.577C277.721 270.577 282.299 270.644 282.299 267.803C282.299 264.962 282.886 263.045 279.976 262.864C277.044 262.707 276.481 263.789 276.255 264.736C276.029 265.706 276.526 270.486 277.721 270.577Z" fill="#FFB27D"/>
<path d="M277.901 262.797C277.901 262.797 279.164 266.134 281.081 266.63C282.998 267.126 283.833 266.608 283.833 266.608C283.833 266.608 282.367 265.435 282.051 263.383C282.051 263.406 278.849 261.218 277.901 262.797Z" fill="#163560"/>
<path d="M278.217 263.067C278.217 263.067 277.292 263.406 276.909 264.082C276.526 264.736 276.21 265.615 276.3 266.698C276.3 266.698 275.353 264.42 276.413 263.135C277.518 261.805 278.217 263.067 278.217 263.067Z" fill="#163560"/>
<path d="M278.713 268.818C278.713 268.818 278.398 269.224 277.766 269.201C277.247 269.178 277.067 268.727 277.067 268.727C277.067 268.727 278.014 268.502 278.713 268.818Z" fill="#EBF3FA"/>
<path d="M286.923 280.093C286.923 280.093 286.9 282.257 286.787 284.219C286.72 285.527 286.584 286.745 286.404 287.173C285.93 288.256 285.412 288.436 285.412 288.436L281.307 289.451L279.863 289.812L275.33 288.459C275.33 288.459 273.255 282.686 274.09 279.439C274.924 276.191 276.187 273.936 276.187 273.936C276.187 273.936 279.886 277.567 284.712 273.621L286.923 280.093Z" fill="white"/>
<path d="M275.623 289.293C275.623 289.293 273.368 296.283 273.233 298.674C273.097 301.064 277.54 332.521 277.698 333.626C277.856 334.663 279.142 335.317 279.142 335.317C279.142 335.317 279.728 335.656 280.585 335.43C281.758 335.092 282.119 334.709 282.119 334.709C282.119 334.709 283.878 312.271 282.795 304.266C281.713 296.261 281.69 289.316 281.69 289.316H275.623V289.293Z" fill="#ED7D2B"/>
<path d="M285.163 289.09C285.163 289.09 288.592 293.69 288.907 296.802C289.223 299.914 289.403 310.828 290.08 313.872C290.757 316.894 293.26 322.734 293.26 332.205C293.26 332.205 292.989 332.747 292.2 333.04C291.952 333.13 291.591 333.22 291.275 333.288C290.621 333.446 289.922 333.107 289.629 332.499C287.938 329.094 282.547 318.112 282.277 315.834C282.074 314.211 280.382 303.544 276.661 297.276C275.759 295.765 277.202 289.789 277.202 289.789L285.163 289.09Z" fill="#F99746"/>
<path d="M278.623 268.885C278.623 268.885 278.533 269.224 277.698 269.178C277.698 269.178 276.999 269.133 277.022 268.773C277.022 268.75 277.698 268.502 278.623 268.885Z" fill="white"/>
<path d="M275.263 288.233C275.263 288.233 276.165 288.955 277.969 288.977C280.112 289.022 285.412 288.436 285.412 288.436C285.412 288.436 285.637 289.09 285.637 289.789C285.637 289.789 279.164 291.435 275.398 290.037C275.398 290.014 274.924 289.112 275.263 288.233Z" fill="#233862"/>
<path d="M293.965 292.856L284.163 296.456L286.177 301.939L295.979 298.339L293.965 292.856Z" fill="#163560"/>
<path d="M284.171 296.419C284.171 296.419 287.329 298.38 290.351 297.118C293.373 295.855 293.959 292.811 293.959 292.811L284.171 296.419Z" fill="#235187"/>
<path d="M285.615 296.419C285.299 296.464 285.028 296.238 284.983 295.945C284.938 295.629 285.163 295.359 285.457 295.314C285.772 295.269 286.043 295.494 286.088 295.787C286.133 296.08 285.908 296.374 285.615 296.419ZM285.479 295.494C285.276 295.517 285.118 295.72 285.163 295.923C285.186 296.126 285.389 296.283 285.592 296.238C285.795 296.216 285.953 296.013 285.908 295.81C285.863 295.607 285.682 295.449 285.479 295.494Z" fill="#17467F"/>
<path d="M291.997 296.982C291.997 296.982 291.997 297.817 292.155 298.2C292.313 298.606 292.786 299.125 292.944 299.125C293.102 299.125 292.809 298.29 292.877 298.313C292.944 298.335 293.328 299.688 293.598 299.734C293.869 299.756 294.117 298.2 293.982 297.591C293.846 296.982 293.215 296.238 293.215 296.238L291.997 296.982Z" fill="#FFB27D"/>
<path d="M284.735 273.598C284.735 273.598 287.261 273.936 288.637 276.62C289.697 278.694 290.418 285.211 291.163 287.263C291.884 289.225 292.606 292.608 293.147 295.652C293.192 295.877 293.237 296.216 293.237 296.216L292.02 296.96C292.132 297.185 291.614 296.103 291.501 295.832C289.584 291.616 289.043 289.699 287.915 286.474C287.486 285.256 286.111 282.55 285.569 281.648C284.239 279.484 283.201 278.649 283.946 276.236L284.735 273.598Z" fill="#FFB27D"/>
<path d="M271.496 294.953C271.496 294.953 270.662 295.381 270.459 295.652C270.256 295.923 269.917 296.306 270.12 296.351C270.346 296.396 270.977 295.923 270.977 295.923L271.496 294.953Z" fill="#F4A269"/>
<path d="M270.572 296.689C270.572 296.689 271.316 296.148 271.789 296.328C272.263 296.531 272.286 297.253 272.15 297.411C272.015 297.569 270.82 297.727 270.504 297.321C270.211 296.915 270.572 296.689 270.572 296.689Z" fill="#FFB27D"/>
<path d="M277.022 273.666C277.022 273.666 280.292 274.748 283.946 273.44C283.946 273.44 286.449 273.553 287.577 274.861C288.704 276.169 290.058 279.642 290.058 279.642C290.058 279.642 288.749 282.37 285.141 282.415C281.51 282.46 273.954 280.115 273.954 280.115C273.954 280.115 273.007 280.431 272.218 279.844C272.218 279.844 273.007 276.056 274.203 274.996C275.398 273.914 277.022 273.666 277.022 273.666Z" fill="white"/>
<path d="M285.276 295.449C285.254 295.359 283.382 286.226 282.75 281.04C282.435 278.311 282.57 276.327 282.75 275.154C282.953 273.869 283.427 273.282 283.449 273.26L283.652 273.282C283.652 273.305 282.412 275.853 283.021 280.994C283.63 286.181 285.502 295.291 285.524 295.381L285.276 295.449Z" fill="#0C2442"/>
</g>
<defs>
<clipPath id="clip0_254_2208">
<rect width="651" height="367" fill="white"/>
</clipPath>
</defs>
</svg>
