<svg width="634" height="367" viewBox="0 0 634 367" fill="none" xmlns="http://www.w3.org/2000/svg">
<path class="bg" d="M621.989 181.462C605.182 159.167 569.587 147.223 568.651 113.807C568.046 92.089 578.417 80.3373 561.829 61.8038C521.75 16.9939 459.94 11.7497 407.18 30.4479C354.42 49.1461 312.278 86.6525 253.631 84.401C221.694 83.1654 192.013 68.7505 160.406 66.0597C150.669 65.236 141.564 65.9499 133.064 68.0091C101.154 75.7795 72.9864 104.939 62.3958 137.366C53.7859 163.642 64.789 189.561 51.2826 215.289C36.8685 242.718 8.53535 261.773 1.38329 293.431C-7.19917 331.432 25.5627 364.463 60.7178 365.506C83.1093 366.165 104.375 365.506 143.627 365.506C177.48 365.506 189.537 364.875 216.523 365.506C267.907 366.659 315.661 365.506 371.863 365.506C423.839 365.506 464.313 364.243 508.353 365.506C540.703 366.44 561.829 365.506 577.619 339.065C598.497 299.115 657.227 228.248 621.989 181.462Z" fill="#BCFBD6"/>
<g clip-path="url(#clip0_254_2206)">
<path class="hand1" d="M203.662 19.4347C205.247 21.215 207.625 28.3362 207.625 28.3362C208.616 34.2704 209.013 37.4354 210.994 40.2047C212.976 42.974 209.013 64.3374 209.013 64.3374C209.013 64.3374 218.723 64.3374 225.659 59.3922C225.659 59.3922 226.055 42.3806 226.848 41.1937C228.235 38.6222 232.793 37.2376 234.577 31.8967C236.36 26.5559 240.918 20.6216 240.918 20.6216C240.918 20.6216 239.729 17.8523 237.351 19.4347C234.973 21.0172 233.189 25.369 232 25.7646C231.802 25.7646 231.406 25.9624 231.208 25.9624C230.217 26.1603 229.226 25.7646 228.631 25.1712C228.631 25.1712 228.433 25.1712 228.433 24.9734C226.253 22.4019 226.055 14.8851 226.253 11.7202C226.452 7.17058 226.452 0.840689 223.677 1.82973C220.903 2.81878 223.281 5.3903 220.903 15.4786L219.912 15.6764C219.714 16.4676 217.93 9.34648 217.732 3.01659C217.534 -1.53302 214.561 0.0494522 213.967 1.43412C213.174 2.81878 214.165 7.36839 214.165 10.5333C214.165 12.7092 214.363 14.8851 214.363 16.2698L213.174 16.8632C209.013 8.95086 210.598 5.78592 208.022 5.58811C205.445 5.3903 206.238 11.918 207.427 14.4895C208.022 15.6764 208.418 17.8523 208.814 20.0282C204.455 14.6873 205.049 11.918 202.869 12.1158C200.293 12.3136 202.077 17.4567 203.662 19.4347Z" fill="#FF8B66"/>
<path class="hand1" d="M222.884 32.0946C224.47 27.9406 230.019 26.1603 230.811 25.9625C229.82 26.1603 228.83 25.7647 228.235 25.1713C222.686 27.3472 222.884 32.0946 222.884 32.0946Z" fill="#EF6E4B"/>
<path class="hand1" d="M277.184 116.955L252.214 124.076L248.647 126.845L224.47 128.23L226.055 75.8103L228.433 73.6344L226.848 51.6776L198.708 60.9746L199.104 80.3599L196.726 89.0635C196.726 89.0635 191.177 148.406 190.781 151.967C190.385 155.527 200.095 163.242 200.095 163.242L270.049 158.099L272.229 166.605L280.751 135.944L277.184 116.955Z" fill="#662C33"/>
<path d="M309.684 110.823C309.684 110.823 328.51 126.449 379.836 119.328V135.944C379.836 135.944 349.714 155.132 333.861 151.176C318.007 147.219 306.711 128.23 306.711 128.23L309.684 110.823Z" fill="#4C1E27"/>
<path d="M396.879 540.662C400.843 535.914 396.879 445.12 396.879 445.12C396.879 445.12 400.05 428.504 399.257 403.382C398.465 378.458 396.879 335.336 396.681 330.984C396.483 326.632 393.114 274.608 393.114 274.608L340.202 276.982L287.29 274.608C287.29 274.608 283.921 326.632 283.723 330.984C283.525 335.336 282.138 378.458 281.147 403.382C280.354 428.306 283.525 445.12 283.525 445.12C283.525 445.12 279.562 536.112 283.525 540.662C287.489 545.211 278.373 588.927 281.147 588.927C284.12 589.125 303.54 592.29 314.044 602.971L318.601 557.871C318.601 557.871 316.62 522.661 318.601 518.705C320.583 514.749 332.473 359.864 334.455 357.886C335.644 356.699 338.022 355.71 340.202 355.117C342.184 355.71 344.76 356.699 345.949 357.886C347.931 359.864 359.821 514.749 361.803 518.705C363.785 522.661 361.803 557.871 361.803 557.871L366.361 602.971C376.864 592.29 396.285 588.927 399.257 588.927C402.032 588.729 392.916 545.211 396.879 540.662Z" fill="#8BBDDB"/>
<path d="M284.912 116.955C284.912 116.955 371.513 123.68 405.202 135.944C405.202 135.944 395.294 261.553 397.672 330.391C397.672 330.391 349.318 337.314 283.921 314.962C283.723 314.962 268.266 147.417 284.912 116.955Z" fill="#105E99"/>
<path d="M328.51 108.844C328.51 108.844 332.672 121.702 328.51 126.647C328.51 126.647 332.672 135.549 340.4 135.944C349.318 136.34 352.291 126.647 352.291 126.647C352.291 126.647 347.534 114.185 352.291 109.834L328.51 108.844Z" fill="#EF6E4B"/>
<path d="M317.016 85.5029C317.016 85.5029 310.674 79.173 309.882 86.492C308.891 95.1956 316.818 98.7561 318.403 95.9868C319.79 93.4153 317.016 85.5029 317.016 85.5029Z" fill="#FF8B66"/>
<path d="M362.001 86.0964C362.001 86.0964 368.342 79.7666 369.135 87.0855C370.126 95.7891 362.199 99.3497 360.614 96.5803C359.227 93.811 362.001 86.0964 362.001 86.0964Z" fill="#FF8B66"/>
<path d="M338.815 116.955C324.546 116.955 316.421 107.658 316.421 79.7666C316.421 65.3265 323.754 56.6229 339.806 56.6229C355.857 56.6229 362.595 65.5243 362.595 79.7666C362.595 109.834 353.479 116.955 338.815 116.955Z" fill="#FF8B66"/>
<path d="M354.884 92.8084C356.716 92.4893 358.004 91.0965 357.76 89.6975C357.515 88.2984 355.831 87.4229 353.998 87.742C352.165 88.0611 350.878 89.4539 351.122 90.8529C351.367 92.252 353.051 93.1275 354.884 92.8084Z" fill="#DB614D"/>
<path d="M328.412 90.5076C328.505 89.0903 327.075 87.8436 325.218 87.7228C323.361 87.602 321.781 88.653 321.689 90.0702C321.596 91.4874 323.026 92.7343 324.883 92.855C326.74 92.9758 328.32 91.9248 328.412 90.5076Z" fill="#DB614D"/>
<path d="M351.3 75.2169C351.101 75.2169 350.903 75.2169 350.705 75.0191C348.723 73.041 345.354 73.041 345.156 73.041C344.76 73.041 344.364 72.8432 344.364 72.4476C344.364 72.052 344.562 71.6563 344.958 71.6563C345.156 71.6563 349.12 71.4585 351.498 74.0301C351.696 74.2279 351.696 74.8213 351.498 75.0191C351.696 75.2169 351.498 75.2169 351.3 75.2169Z" fill="#0E3944"/>
<path d="M324.348 75.2169C324.15 75.2169 323.952 75.2169 323.952 75.0191C323.754 74.8213 323.754 74.2279 323.952 74.0301C326.33 71.4585 330.293 71.6563 330.491 71.6563C330.888 71.6563 331.284 72.052 331.086 72.4476C331.086 72.8432 330.69 73.2388 330.293 73.041C330.293 73.041 326.726 73.041 324.745 75.0191C324.745 75.2169 324.546 75.2169 324.348 75.2169Z" fill="#0E3944"/>
<path d="M348.327 85.8986C349.312 85.8986 350.111 84.4816 350.111 82.7337C350.111 80.9857 349.312 79.5687 348.327 79.5687C347.342 79.5687 346.543 80.9857 346.543 82.7337C346.543 84.4816 347.342 85.8986 348.327 85.8986Z" fill="#1A4850"/>
<path d="M329.104 85.8986C330.089 85.8986 330.888 84.4816 330.888 82.7337C330.888 80.9857 330.089 79.5687 329.104 79.5687C328.119 79.5687 327.321 80.9857 327.321 82.7337C327.321 84.4816 328.119 85.8986 329.104 85.8986Z" fill="#1A4850"/>
<path d="M330.888 101.723C330.888 101.723 343.571 103.306 349.912 100.141C349.912 100.141 346.345 108.647 339.409 107.855C332.671 107.262 330.888 101.723 330.888 101.723Z" fill="#1A4850"/>
<path d="M341.193 97.3716C339.806 97.3716 338.419 96.9759 338.022 96.9759L338.419 95.5913C340.004 95.9869 342.184 96.1847 342.778 95.5913C342.976 95.3935 342.976 94.8001 342.58 94.2066C340.598 89.8548 340.004 78.7775 340.004 78.1841H341.589C341.589 78.3819 341.986 89.4592 343.967 93.6132C344.562 94.8001 344.562 95.7891 343.967 96.5803C343.373 97.1738 342.382 97.3716 341.193 97.3716Z" fill="#DB614D"/>
<path d="M317.016 90.4482C317.016 90.4482 317.61 82.7337 318.799 77.9862C318.799 77.9862 316.62 68.0958 322.367 62.5571C322.367 62.5571 330.69 63.744 339.607 63.744C348.525 63.744 354.668 62.5571 354.668 62.5571C354.668 62.5571 359.028 66.3155 358.434 76.4038C358.434 76.4038 360.415 83.3271 362.199 90.0526C362.199 90.0526 373.891 48.5127 337.229 48.5127C299.973 48.7105 317.016 90.4482 317.016 90.4482Z" fill="#0E3944"/>
<path d="M369.333 124.273C369.333 124.273 362.001 213.485 362.596 224.365C362.992 235.244 376.864 408.723 376.864 408.723C376.864 408.723 396.681 410.701 414.517 408.723C414.517 408.723 407.184 309.027 405.202 288.653C403.221 268.279 402.626 264.125 402.626 264.125L405.202 231.288V135.944C405.202 135.944 380.035 122.889 369.333 124.273Z" fill="#8B383E"/>
<path d="M363.388 202.606C363.388 202.606 376.665 140.494 382.016 135.746C387.367 130.999 394.303 131.79 395.294 128.23C396.681 123.087 383.998 114.779 379.44 113.987C374.882 113.196 363.784 117.152 363.784 117.152C363.784 117.152 357.443 158.692 363.388 202.606Z" fill="#662C33"/>
<path d="M309.684 116.955C309.684 116.955 294.226 149.197 294.226 167.792C294.226 186.386 288.281 396.657 288.281 396.657H273.815C273.815 396.657 263.51 199.837 277.184 116.955H309.684Z" fill="#8B383E"/>
<path d="M293.83 189.946C293.83 189.946 289.668 149 289.866 146.23C290.065 143.461 295.613 120.911 295.613 120.911L287.092 116.955C287.092 116.955 292.641 108.053 297.991 108.251C303.342 108.449 316.421 111.02 318.799 113.988C320.979 116.757 302.351 128.428 293.83 189.946Z" fill="#662C33"/>
<path d="M405.202 135.944C405.202 135.944 429.577 168.978 429.577 172.539C429.577 176.1 429.577 176.1 429.577 176.1C429.577 176.1 455.34 241.97 455.34 245.531C455.34 249.289 427.001 311.797 422.245 310.808C417.687 310.016 408.968 337.116 408.968 337.116C408.968 337.116 404.41 310.412 399.654 300.719L409.76 282.323L410.355 274.411L427.398 246.322L401.041 193.902C397.275 156.121 405.202 135.944 405.202 135.944Z" fill="#662C33"/>
<path d="M336.635 46.139C342.778 45.7434 354.669 44.7543 364.775 51.6777C374.882 58.601 358.83 70.4695 346.544 69.6783C346.544 69.6783 348.525 69.6783 350.111 67.1068C350.111 67.1068 340.202 71.2607 329.303 69.6783C329.303 69.6783 336.635 69.2827 339.608 67.898C339.608 67.898 325.141 67.3046 316.62 66.3155C312.062 65.9199 303.144 48.3149 336.635 46.139Z" fill="#0E3944"/>
<path d="M330.095 116.955C330.095 116.955 335.644 122.295 350.111 116.955C350.111 116.955 352.885 115.174 354.47 116.955C356.056 118.735 359.028 128.032 359.028 128.032C359.028 128.032 349.318 144.054 338.022 142.472C326.726 140.889 322.168 125.263 322.168 125.263C322.168 125.263 325.339 114.976 330.095 116.955Z" fill="#0D527C"/>
<path d="M268.279 307.791C265.703 311.747 248.462 294.538 248.462 286.823C248.462 286.823 263.919 275.152 270.855 279.306C277.791 283.856 268.279 307.791 268.279 307.791Z" fill="#B72E48"/>
<path d="M257.181 273.57L242.913 297.307L228.645 305.615C228.645 305.615 231.617 319.857 238.157 323.22C244.696 326.583 250.047 304.23 250.047 304.23C250.047 304.23 271.251 288.801 279.773 271.394C288.492 253.789 257.181 273.57 257.181 273.57Z" fill="#FF8B66"/>
<path d="M227.059 195.238C227.059 195.238 284.529 232.228 298.004 243.503C298.004 243.503 301.968 250.228 298.004 262.097C294.041 273.966 287.501 284.054 287.501 284.054C287.501 284.054 287.898 288.999 286.907 289.592C285.916 290.186 282.547 291.373 282.547 292.362C282.547 293.351 274.026 300.67 268.279 307.791C268.279 307.791 259.956 289.592 248.462 286.823L263.324 260.712C263.324 260.712 262.73 260.317 262.532 259.525C262.135 258.339 263.324 255.569 263.324 255.569L232.806 246.668L227.059 195.238Z" fill="#CE364C"/>
<path class="hand2" d="M94.2842 245.481C88.9336 244.294 75.6561 260.515 75.2598 271.394L93.0952 280.889L94.2842 245.481Z" fill="#B72E48"/>
<path d="M131.342 216.601C127.379 218.777 88.3391 303.835 88.3391 303.835C88.3391 303.835 89.5281 320.846 98.0495 322.824C106.571 324.803 139.467 290.186 139.467 290.186C139.467 290.186 147.791 207.897 131.342 216.601Z" fill="#CE364C"/>
<path class="hand2" d="M86.3574 298.098C81.6013 284.449 80.0159 246.866 83.583 229.854L92.1044 230.645C92.1044 230.645 97.6532 271.79 103.4 284.252C109.147 296.911 108.156 307 100.031 312.143C91.9062 316.89 87.3483 300.868 86.3574 298.098Z" fill="#FF8B66"/>
<path class="hand2" d="M97.2569 211.854C97.2569 211.854 97.2569 211.854 96.0679 222.733C94.8788 233.613 93.0953 232.821 87.9428 235.788C83.1867 238.558 77.0434 230.448 75.458 226.294C74.0708 222.931 66.3421 217.788 65.9458 214.623C65.7476 213.436 66.7385 213.832 69.1165 215.81C71.6928 217.986 74.8635 219.173 74.8635 219.173C75.6562 215.414 65.3513 208.095 66.9367 204.337C67.7293 202.359 75.458 215.414 77.8361 215.216C77.8361 215.216 78.2324 213.832 75.0617 207.304C73.08 203.546 71.0983 199.589 72.0891 198.403C73.6745 196.424 76.2507 205.128 82.5922 213.238C82.5922 213.238 81.205 208.689 79.8178 204.732C78.4306 200.974 76.8452 197.809 78.4306 197.216C79.8178 196.82 81.7995 202.754 83.1867 206.315C85.7629 213.238 89.1319 217.59 91.1136 219.766C92.1044 220.755 92.6989 221.348 92.6989 221.348C94.6807 210.073 97.2569 211.854 97.2569 211.854Z" fill="#FF8B66"/>
<path class="hand2" d="M92.5007 221.151C92.5007 221.151 88.5373 223.92 88.3391 227.678C88.3391 227.678 85.7629 222.733 90.9154 219.568C91.9062 220.557 92.5007 221.151 92.5007 221.151Z" fill="#EF6E4B"/>
<path d="M178.507 123.631C146.205 122.048 139.864 149.741 143.233 181.984C146.8 214.425 139.269 255.569 134.711 271.592C130.351 287.614 136.693 301.659 136.693 301.659C136.693 301.659 132.729 289.593 139.665 271.592C139.665 271.592 128.568 308.384 158.492 315.308C188.416 322.231 194.955 311.549 203.675 260.119C212.394 208.689 225.077 126.004 178.507 123.631Z" fill="#0E3944"/>
<path d="M131.144 312.143C132.73 320.846 156.708 320.055 173.553 309.571C190.397 299.087 243.507 300.472 242.913 286.823C242.318 273.372 170.977 231.437 170.977 231.437C170.977 231.437 125.595 283.658 131.144 312.143Z" fill="#B72E48"/>
<path d="M124.208 596.394L137.486 599.559C137.486 599.559 158.294 487.995 163.05 476.324C167.211 466.236 184.849 427.268 190.596 397.398C190.794 397.596 192.776 397.201 195.154 396.805C195.748 396.607 196.343 396.607 197.135 396.409C197.73 396.212 198.324 396.212 199.117 396.014C199.712 425.685 206.053 462.478 208.035 472.764C210.413 485.226 209.224 598.768 209.224 598.768L222.898 598.372C248.858 506.391 235.184 471.972 235.184 471.972C235.184 471.972 258.965 389.288 250.642 360.013C247.867 350.32 244.3 341.418 241.129 334.099C240.931 333.506 240.535 332.913 240.337 332.319C233.995 318.473 228.248 309.967 228.248 309.967L200.504 313.527L200.306 313.132L199.513 313.33V322.033L195.946 321.835H195.154L183.66 321.242H182.074L171.968 320.649C171.968 320.649 165.824 330.341 157.303 345.77C156.907 346.364 156.708 346.957 156.312 347.551C153.339 353.089 149.772 359.419 146.403 366.145C132.531 393.244 137.288 470.588 137.288 470.588C137.288 470.588 116.48 501.248 124.208 596.394Z" fill="#FF8B66"/>
<path d="M218.934 312.736C219.132 312.934 226.267 329.946 241.13 333.704C240.931 333.11 240.535 332.517 240.337 331.924C227.059 327.77 220.52 312.341 220.52 312.143L218.934 312.736Z" fill="#6097B2"/>
<path d="M155.916 346.957C172.562 343.396 181.084 325.989 183.263 320.648C183.66 319.659 183.858 319.066 183.858 319.066L182.471 318.473C182.471 318.473 182.273 319.264 181.678 320.451C179.3 325.989 171.571 341.221 156.907 344.979C156.51 345.77 156.312 346.364 155.916 346.957Z" fill="#6097B2"/>
<path d="M195.352 396.607C195.946 396.409 196.541 396.409 197.334 396.212C199.712 391.662 204.071 382.167 207.837 366.145C212.989 343.199 201.297 318.67 201.099 318.473L199.712 319.066C199.91 319.264 211.404 343.396 206.251 365.749C206.053 366.738 205.855 367.529 205.657 368.518C205.459 369.112 205.459 369.507 205.26 369.903C201.495 384.739 197.334 393.244 195.352 396.607Z" fill="#6097B2"/>
<path d="M206.053 370.101H206.251V368.716C205.459 368.716 204.468 368.32 203.873 367.529C202.882 366.342 200.703 362.782 202.486 354.078C204.864 342.407 196.145 321.835 195.748 321.044L194.361 321.638C194.361 321.835 203.279 342.605 201.099 353.88C199.315 362.98 201.495 366.936 202.882 368.518C203.477 369.507 204.864 370.101 206.053 370.101Z" fill="#6097B2"/>
<path d="M171.571 320.055C171.571 320.055 200.702 330.341 228.05 309.571C228.05 309.571 233.203 205.128 223.492 198.007C219.331 194.842 210.809 197.413 202.882 201.172C192.379 205.919 182.471 213.04 182.471 213.04C182.471 213.04 164.437 210.469 150.169 212.051C141.053 213.04 133.72 215.612 133.324 221.744C132.333 236.975 171.571 320.055 171.571 320.055Z" fill="#FF8B66"/>
<path d="M149.376 212.249C155.519 211.656 156.51 216.205 162.653 218.381C168.797 220.557 176.129 222.337 178.904 222.535C181.678 222.733 183.065 226.294 183.065 226.294C183.065 226.294 184.056 221.744 185.641 221.151C187.029 220.755 200.108 207.7 202.684 200.974C192.181 205.721 182.272 212.843 182.272 212.843C182.272 212.843 164.239 210.271 149.97 211.853C149.772 212.051 149.376 212.249 149.376 212.249Z" fill="#EF6E4B"/>
<path d="M184.849 178.424C184.849 178.424 182.471 206.315 190.398 210.271C190.398 210.271 184.651 220.755 169.193 214.425C169.193 214.425 171.769 199.985 161.663 182.973C154.727 171.698 184.849 178.424 184.849 178.424Z" fill="#EF6E4B"/>
<path d="M154.727 164.973C154.727 164.973 148.98 158.247 147.592 165.566C146.007 173.874 153.538 178.028 155.123 175.457C156.907 172.687 154.727 164.973 154.727 164.973Z" fill="#FF8B66"/>
<path d="M198.522 168.731C198.522 168.731 205.26 162.995 205.458 170.314C205.657 178.819 197.73 181.589 196.541 178.819C195.352 176.05 198.522 168.731 198.522 168.731Z" fill="#FF8B66"/>
<path d="M173.751 197.018C159.879 196.029 152.745 186.336 154.727 159.236C155.717 145.192 163.644 137.082 179.102 138.269C194.757 139.455 200.504 148.555 199.513 162.599C197.333 191.875 188.019 198.205 173.751 197.018Z" fill="#FF8B66"/>
<path d="M191.239 174.844C192.982 174.676 194.284 173.393 194.146 171.979C194.009 170.566 192.485 169.557 190.742 169.726C188.999 169.894 187.697 171.177 187.835 172.59C187.972 174.004 189.496 175.013 191.239 174.844Z" fill="#DB614D"/>
<path d="M165.507 170.626C165.707 169.22 164.464 167.881 162.73 167.635C160.996 167.39 159.428 168.33 159.228 169.736C159.028 171.143 160.271 172.482 162.005 172.727C163.739 172.973 165.307 172.033 165.507 170.626Z" fill="#DB614D"/>
<path d="M189.208 157.258C189.01 157.456 188.614 157.258 188.416 157.06C186.632 154.884 183.263 154.687 183.263 154.687C182.867 154.687 182.669 154.291 182.669 153.895C182.669 153.5 183.065 153.302 183.461 153.302C183.66 153.302 187.425 153.5 189.605 156.071C189.803 156.467 189.605 157.06 189.208 157.258C189.407 157.258 189.208 157.258 189.208 157.258Z" fill="#0E3944"/>
<path d="M169.193 153.698C168.995 153.698 168.995 153.698 168.797 153.698C168.797 153.698 165.428 153.302 163.248 155.28C163.05 155.478 162.455 155.478 162.257 155.28C162.059 155.082 162.059 154.489 162.257 154.291C164.833 151.917 168.599 152.313 168.797 152.511C169.193 152.511 169.391 152.906 169.391 153.302C169.391 153.302 169.391 153.5 169.193 153.698Z" fill="#0E3944"/>
<path d="M187.246 164.611C187.378 162.868 186.69 161.395 185.708 161.32C184.726 161.246 183.822 162.598 183.689 164.341C183.556 166.084 184.244 167.557 185.227 167.632C186.209 167.706 187.113 166.354 187.246 164.611Z" fill="#1A4850"/>
<path d="M167.653 163.05C167.786 161.308 167.098 159.834 166.115 159.759C165.133 159.685 164.229 161.037 164.096 162.78C163.963 164.523 164.651 165.996 165.634 166.071C166.616 166.146 167.52 164.793 167.653 163.05Z" fill="#1A4850"/>
<path d="M168.995 180.006C168.995 180.006 177.516 181.787 182.272 179.808C182.272 179.808 179.3 185.941 174.544 185.149C169.788 184.358 168.995 180.006 168.995 180.006Z" fill="#1A4850"/>
<path d="M182.471 163.39C182.471 163.39 184.056 159.236 185.641 159.632C187.227 160.028 188.218 163.786 188.218 163.786L190.794 162.599L188.218 162.797C188.218 162.797 187.227 158.841 185.641 158.841C183.462 158.643 182.471 163.39 182.471 163.39Z" fill="#1A4850"/>
<path d="M168.995 162.995C168.995 162.995 168.004 158.643 166.419 158.841C164.635 159.038 163.248 162.599 163.248 162.599L160.87 161.017L163.248 161.61C163.248 161.61 164.833 157.852 166.419 158.049C168.797 158.049 168.995 162.995 168.995 162.995Z" fill="#1A4850"/>
<path d="M176.526 173.479C176.129 173.676 175.931 173.676 175.535 173.874L175.336 172.49C176.526 172.292 176.922 171.5 176.922 170.907C176.922 170.116 176.526 169.325 176.129 169.127C175.931 168.929 175.535 169.127 175.336 169.522L174.147 168.533C175.138 167.149 176.327 167.346 176.724 167.544C177.913 167.94 178.705 169.522 178.507 170.907C178.309 172.094 177.715 173.083 176.526 173.479Z" fill="#DB614D"/>
<path d="M176.922 139.455C176.922 139.455 177.714 149.346 170.382 155.478C170.382 155.478 173.355 149.346 173.553 145.39C173.553 145.39 167.608 155.478 162.059 156.467C156.51 157.456 148.583 160.423 148.583 160.423C148.583 160.423 152.547 136.488 176.327 134.906C200.108 133.323 205.26 148.159 200.9 164.379C200.9 164.379 191.388 160.423 189.605 150.928C189.605 150.928 191.983 158.049 179.3 155.28C179.3 155.478 182.074 147.763 176.922 139.455Z" fill="#0E3944"/>
<path d="M256.983 426.674C180.687 442.499 126.586 422.52 126.586 422.52L156.906 309.571L157.501 307.593L158.095 305.022L158.69 302.846L159.086 301.461L159.681 299.285L160.077 297.505L160.473 295.725L160.275 295.527C133.522 272.383 135.306 217.59 135.306 217.59C138.476 211.854 145.214 211.062 145.214 211.062C161.068 236.382 184.254 251.613 184.254 251.613C198.721 237.173 209.025 196.622 209.025 196.622C218.141 192.666 225.474 198.007 225.474 198.007C241.327 223.129 231.023 274.757 229.239 282.867C229.041 283.658 229.041 283.856 229.041 283.856C229.437 284.449 229.635 285.241 230.032 286.032C230.23 286.428 230.428 287.021 230.626 287.417C231.221 288.801 231.815 290.186 232.608 291.571C233.004 292.56 233.401 293.351 233.797 294.34C234.59 296.12 235.382 297.9 235.977 299.681C260.748 363.177 256.983 426.674 256.983 426.674Z" fill="#FFB878"/>
<path d="M230.032 286.23L228.446 284.845C227.257 283.856 227.059 284.054 226.465 284.449C225.077 285.241 223.69 285.636 220.916 282.867C219.925 281.878 219.33 281.68 219.132 281.68C218.736 281.68 218.141 282.274 217.547 282.867C216.556 284.054 214.971 285.834 212.196 285.241C210.215 284.845 209.62 285.636 208.827 286.428C207.836 287.417 206.647 288.801 203.873 287.219C202.486 286.428 201.297 287.021 199.513 287.812C197.532 288.801 195.352 289.79 192.379 287.812C191.586 287.219 191.388 287.417 191.388 287.417C191.19 287.417 190.794 288.208 190.596 288.603C190.001 289.592 189.407 290.977 187.821 291.373C186.632 291.768 185.245 291.373 183.461 290.384C180.687 288.801 179.894 289.988 178.507 291.768C177.12 293.549 175.336 296.12 171.175 294.34C168.4 293.153 167.806 293.944 166.617 295.329C165.626 296.516 164.239 297.703 161.663 297.703C161.266 297.703 160.672 297.703 160.077 297.505L160.473 295.725L160.275 295.527C162.852 296.12 163.842 294.933 165.031 293.746C166.22 292.362 167.806 290.582 171.967 292.362C174.742 293.549 175.535 292.362 176.922 290.384C178.309 288.603 180.092 286.032 184.452 288.406C185.641 288.999 186.632 289.395 187.425 289.197C188.019 288.999 188.416 288.208 189.01 287.417C189.407 286.428 190.001 285.438 191.19 285.241C191.983 285.043 192.775 285.241 193.766 286.032C195.55 287.417 197.135 286.625 198.919 285.834C200.702 285.043 202.684 284.054 205.062 285.439C206.449 286.23 206.647 285.834 207.44 285.043C208.233 284.054 209.62 282.471 212.593 283.263C214.376 283.658 215.169 282.669 216.16 281.482C216.952 280.691 217.745 279.702 219.132 279.702C220.123 279.702 221.312 280.295 222.501 281.482C224.483 283.46 225.077 283.263 225.672 282.867C226.663 282.274 227.654 281.878 229.437 283.263C229.239 284.054 229.239 284.252 229.239 284.252C229.437 284.647 229.635 285.438 230.032 286.23Z" fill="#F2A668"/>
<path d="M233.797 294.538C233.401 294.142 233.004 293.746 232.41 293.153C231.419 291.966 230.428 290.977 229.239 289.988C227.059 288.208 225.077 288.999 223.492 289.395C222.105 289.79 221.51 289.988 220.718 289.395C218.934 287.812 217.547 288.801 216.754 289.395C215.962 289.988 215.565 290.384 213.98 289.592C211.205 288.01 209.422 290.384 208.233 291.966C206.647 293.944 206.449 293.944 205.855 293.549C204.071 292.164 202.684 292.757 201.297 293.153C199.711 293.746 198.324 294.34 195.748 292.56C194.163 291.571 192.775 291.571 191.388 291.966C192.775 290.779 193.568 290.582 194.559 291.373C197.135 293.351 199.117 292.164 200.901 291.373C202.486 290.582 203.477 290.186 204.864 290.779C206.449 291.571 207.44 291.175 208.035 290.582C208.629 289.988 209.224 289.197 209.62 288.406C210.016 287.614 210.413 286.823 211.007 286.625C211.205 286.625 211.602 286.823 212.196 287.021C213.187 287.812 214.178 288.208 214.971 288.01C215.962 287.812 216.556 287.021 217.151 286.428C217.349 286.032 217.745 285.636 217.745 285.636C217.745 285.636 218.141 285.636 219.132 286.428C221.907 288.801 223.69 288.01 224.879 287.417C225.672 287.021 226.266 286.823 227.257 287.219C228.843 288.01 231.023 289.79 232.41 291.373C231.815 289.988 231.221 288.603 230.428 287.219C229.635 286.625 228.843 286.032 228.05 285.636C226.068 284.647 224.879 285.241 223.888 285.834C222.699 286.428 222.105 286.625 220.123 285.241C218.934 284.252 218.141 284.054 217.349 284.054C216.358 284.252 215.763 285.043 215.367 285.636C215.169 286.032 214.773 286.428 214.574 286.428C214.574 286.428 214.178 286.428 213.187 285.834C212.196 285.043 211.205 284.845 210.413 285.043C209.026 285.241 208.431 286.625 207.837 287.812C207.44 288.406 207.242 289.197 206.846 289.395C206.647 289.592 206.449 289.592 205.855 289.395C203.477 288.208 201.693 289.197 200.108 289.988C198.324 290.779 197.333 291.373 195.946 290.186C193.37 288.406 191.388 289.988 189.803 291.175C188.019 292.56 186.632 293.746 184.452 292.56C181.083 290.779 179.3 292.56 177.913 294.142C176.525 295.527 175.535 296.516 173.355 295.922C168.202 294.34 166.419 297.109 164.833 299.087C164.437 299.681 163.842 300.472 163.446 300.868C163.248 301.065 163.05 301.263 162.653 301.065C161.861 301.065 160.672 300.274 159.879 299.285L159.285 301.461C160.275 302.252 161.464 302.846 162.653 303.043H162.852C163.644 303.043 164.437 302.846 164.833 302.252C165.428 301.659 166.022 300.868 166.617 300.076C168.004 298.098 169.193 296.516 172.958 297.505C176.525 298.494 178.309 296.714 179.696 295.329C181.083 293.944 181.876 293.153 183.858 294.142C185.839 295.329 187.425 294.933 188.812 294.34C188.614 294.538 188.416 294.736 188.218 294.933C186.038 297.109 185.245 297.505 184.254 296.714C181.678 294.736 179.498 296.516 177.714 297.703C175.733 299.285 174.346 300.076 172.364 299.087C171.175 298.296 169.986 298.296 168.995 298.494C167.41 299.087 166.617 301.065 165.824 302.648C165.428 303.835 164.833 305.219 164.239 305.219C162.653 305.219 160.672 303.637 159.285 302.45L158.69 304.626C160.275 306.011 162.257 307.197 164.239 307.197C165.428 307.197 166.022 306.604 166.617 305.615C166.617 305.813 166.419 306.011 166.419 306.208C165.824 307.395 165.031 308.582 164.239 308.978C162.653 309.769 160.077 308.384 158.095 307.197L157.501 309.176C159.086 310.165 161.266 311.154 163.05 311.154C163.644 311.154 164.437 310.956 165.031 310.758C166.617 309.967 167.41 308.384 168.202 307C168.797 305.813 169.589 304.626 170.382 304.428C170.977 304.23 171.967 304.626 173.157 305.219C174.544 306.208 175.931 306.406 176.922 306.011C178.507 305.615 179.102 303.835 179.696 302.648C179.894 302.054 180.291 301.065 180.687 300.868C180.687 300.868 180.885 300.868 181.282 301.065C184.254 303.043 186.632 301.263 188.019 300.076C188.416 299.681 189.01 299.285 189.208 299.285C189.407 299.483 189.803 300.076 190.794 300.076C191.586 300.076 191.983 299.285 192.379 298.692C192.577 298.296 192.974 297.9 193.172 297.9C193.37 297.9 193.568 297.9 194.163 298.296C196.343 300.076 198.126 299.087 199.513 298.296C200.702 297.505 201.693 297.109 203.279 297.703C207.837 300.076 210.215 298.692 212.593 295.329C213.385 294.34 214.376 294.34 215.962 294.736C217.349 294.933 219.529 295.329 220.519 293.153C220.718 292.757 220.718 292.757 220.718 292.757C220.916 292.56 221.907 293.153 222.303 293.351C223.69 293.944 225.276 294.736 227.059 294.142C227.654 293.944 229.635 295.329 231.023 296.318C232.608 297.505 234.59 298.889 236.373 299.483C235.184 298.296 234.59 296.516 233.797 294.538ZM219.33 291.571C218.736 291.768 218.141 292.362 217.943 293.153C217.745 293.746 217.547 293.944 215.565 293.549C213.98 293.153 211.8 292.757 210.215 294.933C208.035 297.9 206.846 298.494 203.279 296.714C200.901 295.527 198.919 296.516 197.73 297.307C196.343 298.098 195.748 298.296 194.559 297.505C193.568 296.714 192.775 296.516 191.983 296.714C190.992 296.911 190.397 297.9 190.001 298.494C190.001 298.494 190.001 298.494 190.001 298.692C188.614 297.505 187.227 298.692 186.236 299.483C184.65 300.868 183.461 301.461 181.876 300.472C181.083 299.879 180.291 299.681 179.498 299.879C178.309 300.274 177.714 301.461 177.12 302.648C176.724 303.637 176.129 304.824 175.535 305.022C174.94 305.219 173.949 304.824 173.355 304.428C171.571 303.439 170.184 303.044 168.995 303.241C167.608 303.637 166.815 304.626 166.221 305.813C166.419 305.219 166.815 304.626 167.013 304.033C167.608 302.648 168.202 301.263 168.995 300.868C169.391 300.67 169.986 300.868 170.778 301.263C174.147 303.044 176.525 301.263 178.309 299.681C180.291 298.098 181.282 297.703 182.471 298.692C185.047 300.67 187.227 298.494 189.01 296.714C191.19 294.538 192.577 293.351 194.757 294.736C198.126 296.911 200.504 296.12 202.09 295.527C203.279 295.131 203.873 294.933 204.666 295.527C206.846 297.307 208.629 295.131 209.818 293.549C211.404 291.571 211.998 290.977 213.187 291.571C215.763 292.955 217.151 291.966 218.141 291.175C218.934 290.582 218.934 290.582 219.529 291.175C219.727 291.373 219.925 291.373 219.925 291.571C219.727 291.373 219.529 291.373 219.33 291.571ZM225.87 292.955C224.879 293.351 223.69 292.757 222.699 292.164C222.501 292.164 222.303 291.966 222.105 291.966C222.898 291.966 223.492 291.768 224.087 291.373C225.474 290.779 226.663 290.582 228.05 291.571C229.041 292.362 230.032 293.351 231.023 294.538C231.221 294.736 231.419 294.933 231.617 295.131C229.437 293.549 227.455 292.164 225.87 292.955Z" fill="#F2A668"/>
<path d="M200.108 197.413C200.108 197.413 198.919 211.062 206.053 224.513C220.123 250.822 221.312 282.076 221.312 282.076C233.797 278.911 242.715 287.021 242.715 287.021C242.715 287.021 242.318 235.195 226.861 195.435C227.059 195.238 213.385 193.062 200.108 197.413Z" fill="#F24052"/>
<path d="M155.916 209.678C155.916 209.678 161.861 223.722 152.547 250.229C145.413 270.999 141.647 303.241 141.647 303.241C133.324 305.813 130.946 312.341 130.946 312.341C124.803 271.988 139.467 276.735 131.144 216.601C131.342 216.601 142.44 207.502 155.916 209.678Z" fill="#F24052"/>
<path d="M155.916 209.678C155.916 209.678 146.601 205.524 140.26 216.601C140.26 216.601 150.961 227.283 153.736 238.953L141.647 248.053C141.647 248.053 144.62 260.119 145.016 278.317C145.016 278.12 166.815 226.096 155.916 209.678Z" fill="#CE364C"/>
<path d="M200.108 197.413C200.108 197.413 206.846 192.27 218.934 204.337C218.934 204.337 208.035 214.029 209.62 224.513C209.62 224.513 218.736 225.107 224.483 230.052C224.483 230.052 219.727 246.272 217.943 254.382C217.943 254.382 209.62 232.426 204.27 224.513C198.919 216.601 200.108 197.413 200.108 197.413Z" fill="#CE364C"/>
<path class="hand2" d="M94.2842 245.481C94.2842 245.481 87.15 270.998 75.2598 271.394C75.2598 271.394 80.4122 320.846 99.0403 322.824C99.0403 322.824 110.732 302.45 106.769 284.252C103.004 266.053 100.229 268.031 100.229 268.031L94.2842 245.481Z" fill="#CE364C"/>
<path d="M409.553 229.683C396.078 248.673 409.553 273.201 410.742 324.632C410.742 324.632 404.797 351.336 401.23 375.469C397.663 399.601 392.312 421.756 392.312 421.756L401.627 426.701C401.627 426.701 428.182 358.655 431.352 327.005L426.2 242.343L409.553 229.683Z" fill="#FF8B66"/>
<path d="M408.364 148.384C424.02 125.438 459.096 130.977 470.194 147.197C483.471 166.978 472.77 210.298 472.77 210.298C472.77 210.298 434.919 187.946 411.931 224.936C411.931 224.936 390.727 174.099 408.364 148.384Z" fill="#CE364C"/>
<path d="M450.773 184.978C450.773 184.978 450.971 201.99 459.096 216.232C459.096 216.232 454.34 227.31 438.486 222.167C438.486 222.167 439.874 207.726 428.182 191.506C420.255 181.022 450.773 184.978 450.773 184.978Z" fill="#EF6E4B"/>
<path d="M417.678 176.671C417.678 176.671 410.742 171.132 410.742 178.451C410.742 186.957 418.867 189.528 420.057 186.561C421.246 183.99 417.678 176.671 417.678 176.671Z" fill="#FF8B66"/>
<path d="M461.474 172.121C461.474 172.121 467.023 165.198 468.608 172.319C470.392 180.627 463.258 184.979 461.474 182.407C459.493 180.033 461.474 172.121 461.474 172.121Z" fill="#FF8B66"/>
<path d="M442.45 204.759C428.578 206.342 419.66 198.232 416.688 171.132C415.102 157.087 421.245 147.79 436.703 146.01C452.16 144.23 459.691 151.944 461.276 165.989C464.645 195.067 456.718 203.177 442.45 204.759Z" fill="#FF8B66"/>
<path d="M455.425 179.529C457.105 179.034 458.139 177.528 457.736 176.166C457.333 174.804 455.645 174.101 453.966 174.597C452.286 175.092 451.252 176.597 451.655 177.959C452.058 179.321 453.746 180.024 455.425 179.529Z" fill="#DB614D"/>
<path d="M426.335 183C428.084 182.914 429.444 181.694 429.374 180.275C429.304 178.857 427.829 177.777 426.08 177.863C424.33 177.95 422.97 179.17 423.04 180.588C423.111 182.007 424.585 183.087 426.335 183Z" fill="#DB614D"/>
<path d="M450.178 162.824C449.98 163.022 449.584 163.022 449.386 162.824C447.206 161.044 443.837 161.439 443.837 161.439C443.441 161.439 443.044 161.241 443.044 160.846C443.044 160.45 443.242 160.055 443.639 160.055C443.837 160.055 447.602 159.461 450.377 161.637C450.575 162.033 450.575 162.428 450.178 162.824Z" fill="#CE364C"/>
<path d="M429.767 163.022C429.569 163.022 429.569 163.219 429.37 163.219C429.37 163.219 426.001 163.615 424.218 165.791C424.02 166.187 423.623 166.187 423.227 165.989C422.831 165.791 422.831 165.395 423.029 165C425.011 162.23 428.974 161.835 429.172 161.835C429.568 161.835 429.965 162.033 429.965 162.428C429.965 162.626 429.965 162.824 429.767 163.022Z" fill="#CE364C"/>
<path d="M448.136 173.683C449.115 173.57 449.746 172.072 449.545 170.335C449.345 168.599 448.39 167.282 447.411 167.395C446.433 167.507 445.802 169.006 446.002 170.742C446.202 172.479 447.158 173.795 448.136 173.683Z" fill="#1A4850"/>
<path d="M428.74 176.057C429.718 175.945 430.349 174.446 430.149 172.71C429.949 170.973 428.993 169.657 428.015 169.769C427.036 169.882 426.405 171.38 426.605 173.117C426.805 174.853 427.761 176.17 428.74 176.057Z" fill="#1A4850"/>
<path d="M434.721 188.935C434.721 188.935 443.441 189.132 447.602 186.363C447.602 186.363 445.819 193.089 441.063 193.089C436.307 192.891 434.721 188.935 434.721 188.935Z" fill="#1A4850"/>
<path d="M444.63 170.143C444.63 170.143 445.422 165.791 447.008 165.791C448.791 165.989 450.377 169.352 450.377 169.352L452.755 167.769L450.377 168.363C450.377 168.363 448.593 164.802 447.008 165C444.828 165.198 444.63 170.143 444.63 170.143Z" fill="#1A4850"/>
<path d="M431.352 172.121C431.352 172.121 429.569 167.967 427.983 168.56C426.398 168.956 425.605 172.912 425.605 172.912L423.029 171.923H425.605C425.605 171.923 426.398 167.967 428.181 167.769C430.163 167.374 431.352 172.121 431.352 172.121Z" fill="#1A4850"/>
<path d="M440.864 181.022C440.666 181.22 440.27 181.418 439.874 181.616L439.279 180.231C440.468 179.835 440.666 179.044 440.666 178.451C440.666 177.66 440.072 176.868 439.477 176.868C439.279 176.868 438.883 177.066 438.685 177.462L437.297 176.868C438.09 175.286 439.279 175.286 439.675 175.484C440.864 175.681 441.855 177.066 442.053 178.451C442.252 179.44 441.657 180.429 440.864 181.022Z" fill="#DB614D"/>
<path d="M441.063 148.384C441.063 148.384 422.038 153.725 420.255 177.857C418.471 201.99 405.59 204.957 405.59 204.957C405.59 204.957 386.565 125.24 442.053 133.153C442.053 133.153 453.944 131.768 463.654 143.043C473.364 154.318 461.871 177.66 461.871 177.66C461.871 177.66 461.078 166.78 459.096 164.802C459.096 165 447.999 161.044 441.063 148.384Z" fill="#CE364C"/>
<path d="M519.935 359.446C511.413 330.17 494.767 308.609 494.767 308.609L469.599 312.763L469.401 312.367L467.419 312.763H467.221L441.261 317.906C441.261 317.906 429.965 338.676 422.633 368.15C415.102 397.623 437.495 471.999 437.495 471.999C437.495 471.999 425.011 506.814 453.944 597.806H467.618C467.618 597.806 462.465 484.461 464.447 471.999C466.23 461.12 468.41 421.36 467.221 391.096C468.807 391.491 470.392 391.491 472.175 391.491C472.175 421.954 475.544 461.516 477.724 472.197C480.102 484.659 478.913 598.202 478.913 598.202L492.587 597.806C518.548 505.825 504.874 471.406 504.874 471.406C504.874 471.406 528.456 388.722 519.935 359.446Z" fill="#FF8B66"/>
<path d="M497.343 309.4C469.996 329.973 440.865 319.884 440.865 319.884C440.865 319.884 433.334 307.225 422.831 282.301C416.093 276.96 414.706 269.047 414.904 262.52C409.752 249.267 403.014 239.969 406.581 233.244C409.553 227.507 419.066 223.947 428.578 220.782C429.371 220.584 430.163 220.189 430.956 219.991C436.703 218.013 442.45 216.43 445.819 214.65C451.962 211.485 456.322 208.518 459.889 205.353C461.276 204.166 462.663 202.781 463.852 201.397C469.005 195.462 471.779 188.737 475.743 179.242C477.328 175.286 499.92 164.011 501.307 234.233C501.901 259.75 497.938 262.322 496.947 281.509C496.154 297.532 497.343 309.4 497.343 309.4Z" fill="#8BBDDB"/>
<path d="M477.13 41.7647C477.13 41.7647 477.13 41.7647 480.301 52.2486C483.471 62.7325 485.057 61.5456 490.606 63.7215C495.758 65.6996 500.316 56.4026 501.109 52.2486C501.901 48.688 508.639 42.1603 508.243 38.9954C508.243 37.8085 507.252 38.402 505.468 40.5779C503.289 43.3472 500.316 44.9297 500.316 44.9297C498.731 41.3691 507.648 32.4677 505.468 28.9071C504.478 27.1269 499.127 41.3691 496.749 41.5669C496.749 41.5669 496.154 40.3801 498.136 33.2589C499.325 29.1049 500.514 24.951 499.523 23.9619C497.74 22.1816 496.749 31.2808 491.795 40.3801C491.795 40.3801 492.191 35.8305 492.984 31.4787C493.578 27.5225 494.767 23.9619 492.984 23.9619C491.596 23.7641 490.606 29.8962 490.011 33.8524C488.624 40.9735 486.048 45.9187 484.66 48.4902C483.868 49.6771 483.471 50.2705 483.471 50.2705C479.31 39.5888 477.13 41.7647 477.13 41.7647Z" fill="#FF8B66"/>
<path d="M483.669 50.0728C483.669 50.0728 488.029 52.0509 488.822 55.8092C488.822 55.8092 490.407 50.4684 484.858 48.2925C484.066 49.4793 483.669 50.0728 483.669 50.0728Z" fill="#EF6E4B"/>
<path d="M485.849 56.7982C485.849 56.7982 478.121 108.822 475.346 128.801C473.761 140.867 476.734 201.397 476.734 201.397C476.734 201.397 483.868 228.299 491.795 226.914C497.74 225.925 498.929 217.419 499.325 203.375C499.721 189.33 491.2 157.879 492.389 142.647C494.767 112.185 492.389 97.9425 495.164 59.5675L485.849 56.7982Z" fill="#FF8B66"/>
<path d="M524.493 440.548C524.096 445.493 523.7 448.46 523.7 448.46C523.7 448.46 485.453 471.208 474.752 452.812C474.752 452.812 472.968 452.219 471.185 441.735V441.537C470.392 436.592 469.401 429.273 468.807 418.789C469.005 421.558 469.599 434.02 469.401 444.108C469.401 447.471 469.203 450.438 468.807 452.812C468.807 452.812 454.538 469.626 420.255 450.834C420.255 450.834 419.858 448.46 419.264 444.108C417.48 430.657 414.904 398.81 422.435 365.578C426.002 349.951 431.749 334.127 440.864 319.687C440.864 319.687 443.243 319.687 447.008 319.489C450.773 319.291 456.124 318.895 461.871 318.104C463.456 317.906 465.041 317.708 466.825 317.511C472.968 316.719 479.508 315.335 485.651 313.752C490.011 312.565 493.974 310.983 497.343 309.203C497.343 309.203 511.81 327.401 519.935 350.743C521.52 355.49 522.907 360.435 523.898 365.38C527.862 388.524 525.682 424.723 524.493 440.548Z" fill="#105E99"/>
<path d="M519.935 350.94C500.514 346.984 490.209 326.412 485.651 313.752C490.011 312.565 493.974 310.983 497.343 309.203C497.343 309.4 511.81 327.599 519.935 350.94Z" fill="#0D527C"/>
<path d="M447.008 319.687C444.035 329.181 438.883 344.808 436.505 351.732C434.919 356.281 428.776 361.424 422.435 365.776C426.002 350.149 431.749 334.324 440.865 319.884C440.865 319.884 443.243 319.884 447.008 319.687Z" fill="#0D527C"/>
<path d="M468.807 418.591C462.465 390.304 461.871 340.061 461.871 318.302C463.456 318.104 465.041 317.906 466.825 317.708C473.365 364.589 465.438 361.82 465.438 361.82C464.447 378.634 468.608 416.613 468.807 418.591Z" fill="#0D527C"/>
<path d="M497.938 312.17C496.352 319.687 447.8 325.027 439.477 322.456C439.477 322.456 438.09 318.895 437.694 316.324C437.496 314.939 437.297 313.95 437.694 313.752C437.694 313.752 467.221 316.126 497.145 302.082C497.145 302.082 497.74 302.675 498.136 304.455C498.334 305.84 498.532 308.411 497.938 312.17Z" fill="#105E99"/>
<path d="M497.938 312.17C496.352 319.687 447.8 325.027 439.477 322.456C439.477 322.456 438.09 318.895 437.694 316.324C437.694 316.324 465.834 319.291 498.136 304.257C498.334 305.84 498.532 308.411 497.938 312.17Z" fill="#0C476B"/>
<path d="M457.907 315.533C457.907 315.533 458.105 321.665 459.493 322.258C460.682 322.852 469.401 321.071 469.401 321.071C469.401 321.071 470.59 316.522 469.401 313.752L457.907 315.533Z" fill="#8BBDDB"/>
<path d="M478.715 309.4C478.715 309.4 480.697 313.554 481.093 320.478H483.868C483.868 320.478 484.264 312.565 482.084 308.807L478.715 309.4Z" fill="#105E99"/>
<path d="M446.81 315.533H449.782C449.782 315.533 450.178 319.687 451.962 325.423H449.386C449.386 325.225 445.621 321.467 446.81 315.533Z" fill="#105E99"/>
<path d="M463.852 201.594C457.709 214.848 446.611 241.354 444.035 262.915L443.639 265.289L442.252 263.509C441.459 262.52 423.227 239.376 428.578 220.98C429.37 220.782 430.163 220.386 430.956 220.189C425.605 235.024 437.892 254.212 442.252 260.344C445.026 241.354 453.746 219.199 459.889 205.551C461.276 204.364 462.663 202.979 463.852 201.594Z" fill="#CFD8DC"/>
<path d="M442.846 273.795C445.364 273.795 447.404 270.695 447.404 266.871C447.404 263.048 445.364 259.948 442.846 259.948C440.329 259.948 438.288 263.048 438.288 266.871C438.288 270.695 440.329 273.795 442.846 273.795Z" fill="#CFD8DC"/>
<path d="M442.053 271.619C443.695 271.619 445.026 269.493 445.026 266.871C445.026 264.25 443.695 262.124 442.053 262.124C440.412 262.124 439.081 264.25 439.081 266.871C439.081 269.493 440.412 271.619 442.053 271.619Z" fill="#0C476B"/>
</g>
<defs>
<clipPath id="clip0_254_2206">
<rect width="459.758" height="365.947" fill="white" transform="translate(65.9211)"/>
</clipPath>
</defs>

<style>

.hand1 {
    animation: 3s ease-in-out infinite swing;
    transform-origin: center;
}



@keyframes swing {
    0% {
        transform: rotate(0deg);
    }

    50% {
        transform: rotate(-3deg) translateX(5px);
    }

    100% {
        transform: rotate(0deg);
    }

}


.hand2 {
    animation: 2s ease-in-out infinite swing2;
    transform-origin: center;
}
@keyframes swing2 {
    0% {
        transform: rotate(0deg);
    }

   50% {
    transform: rotate(4deg) translate(10px, 11px);
    }

    100% {
        transform: rotate(0deg);
    }

}



.bg {
    animation: 4s ease-in-out infinite blick;
    transform-origin: bottom;
}
@keyframes blick {
    0% {
        transform: scale(1)
        opacity: 1;
    }

   50% {
   transform: scale(.98);
   opacity: .2;
    }

    100% {
        transform: scale(1);
        opacity: 1;
    }

}

</style>


</svg>
