<svg width="651" height="446" viewBox="0 0 651 446" fill="none" xmlns="http://www.w3.org/2000/svg">
<g clip-path="url(#clip0_254_2711)">
<path d="M11.0108 244.178C27.8181 221.883 63.4135 209.939 64.3487 176.524C64.9539 154.806 54.5834 143.054 71.1707 124.52C111.25 79.7105 173.06 74.4662 225.82 93.1645C278.58 111.863 320.722 149.369 379.369 147.118C411.306 145.882 440.987 131.467 472.594 128.776C482.331 127.953 491.436 128.666 499.936 130.726C531.846 138.496 560.014 167.655 570.604 200.082C579.214 226.359 568.211 252.278 581.717 278.005C596.132 305.435 624.465 324.49 631.617 356.148C640.199 394.149 607.437 427.179 572.282 428.223C549.891 428.882 528.625 428.223 489.373 428.223C455.52 428.223 443.463 427.591 416.477 428.223C365.093 429.376 317.339 428.223 261.137 428.223C209.161 428.223 168.687 426.96 124.647 428.223C92.2973 429.156 71.1707 428.223 55.381 401.782C34.5026 361.832 -24.2268 290.965 11.0108 244.178Z" fill="#BCFBD6"/>
<g clip-path="url(#clip1_254_2711)">
<path d="M308.439 312.721C309.233 316.693 307.909 321.812 303.497 323.048C301.291 323.666 298.997 323.136 296.879 322.43C294.408 321.636 291.937 320.576 289.908 318.988C288.672 318.105 287.525 317.046 286.643 315.81C285.937 314.751 285.495 313.427 284.966 312.279C285.319 312.015 275.612 293.214 275.789 292.861" fill="#499096"/>
<path d="M270.847 439.468C270.406 434.967 265.199 391.364 265.199 388.805C265.199 386.245 228.137 390.923 212.606 388.54C197.075 386.157 176.955 383.332 176.955 383.332C176.955 383.332 162.13 389.864 161.248 401.426C160.277 412.901 158.159 432.849 158.159 435.232C158.159 437.615 270.847 439.468 270.847 439.468Z" fill="#66613B"/>
<path d="M242.168 227.281C241.462 234.342 230.696 248.2 224.078 248.2C217.548 248.2 212.429 234.077 214.106 221.632C215.783 209.187 242.168 227.281 242.168 227.281Z" fill="#FFA387"/>
<path d="M178.367 387.569C179.161 389.687 183.221 396.395 183.221 396.395C183.221 396.395 177.308 415.99 160.366 410.518C158.777 406.458 160.366 400.632 160.366 400.632C160.366 400.632 166.013 383.95 178.367 387.569Z" fill="#FF9B7D"/>
<path fill-rule="evenodd" clip-rule="evenodd" d="M265.552 377.86C265.641 380.684 265.905 388.275 265.199 388.805C264.493 389.246 236.432 393.836 214.547 390.835C192.575 387.745 178.632 385.715 176.426 384.656C174.22 383.597 175.367 371.858 175.632 370.799C176.867 370.093 194.075 380.331 265.552 377.86Z" fill="#4F3D35"/>
<path fill-rule="evenodd" clip-rule="evenodd" d="M229.637 377.772C229.372 381.037 228.313 392.247 227.784 392.512C227.254 392.777 209.606 392.247 203.164 389.952C201.311 387.216 204.134 375.918 204.134 375.918C204.134 375.918 208.282 375.565 208.547 376.359C208.811 377.242 207.311 387.481 207.929 387.922C208.547 388.363 223.019 389.599 223.725 389.776C224.431 389.864 225.401 377.242 225.401 377.242L229.637 377.772Z" fill="#DB8363"/>
<path d="M243.933 377.33C244.286 380.773 244.374 392.159 244.374 392.159C244.374 392.159 240.491 393.218 240.138 391.982C239.785 390.747 240.579 377.242 240.579 377.242H243.933V377.33Z" fill="#66613B"/>
<path d="M193.722 373.711C193.369 375.918 193.104 389.07 192.663 388.893C192.222 388.716 188.868 388.716 188.78 388.099C188.604 387.481 189.221 372.917 189.221 372.917L193.722 373.711Z" fill="#66613B"/>
<path d="M297.32 256.585C293.084 247.405 291.231 233.371 280.201 229.576C269.17 225.78 253.639 223.662 248.08 224.368C242.432 225.074 243.138 225.78 242.256 227.193C241.285 228.605 238.726 232.841 234.755 234.254C230.784 235.666 229.108 234.519 227.696 239.726C226.549 243.875 226.725 244.404 225.931 244.934C224.519 244.228 226.548 239.903 222.048 237.873C217.548 235.754 214.106 231.076 214.283 225.163C213.577 222.338 205.811 224.192 205.105 227.987C204.84 230.105 204.84 230.105 204.84 230.105C200.869 231.518 191.427 231.959 184.897 239.991C178.367 247.935 172.014 259.233 169.631 282.976C167.249 306.719 163.542 320.047 158.159 335.316C152.777 350.586 142.187 385.804 154.188 392.865C156.042 400.103 157.983 405.31 159.13 404.604C160.277 403.898 162.395 387.922 178.367 387.746C177.661 382.626 176.073 379.89 177.044 371.24C193.281 375.742 193.192 376.712 226.46 378.831C235.902 379.449 261.228 379.978 264.229 379.096C267.317 378.125 276.23 377.419 275.965 364.091C275.7 350.674 269.876 292.596 271.465 291.626C287.437 297.892 308.704 294.097 309.674 291.449L297.32 256.585Z" fill="#499096"/>
<path d="M245.697 162.76C250.198 166.555 254.081 173.528 252.933 182.266C251.786 190.916 250.463 202.479 249.933 204.773C249.492 207.157 214.283 211.128 212.871 200.272C204.664 203.096 202.987 190.916 208.37 188.091C211.459 179.618 213.312 168.408 213.312 168.408C213.312 168.408 236.785 156.405 245.697 162.76Z" fill="#FFA387"/>
<path d="M251.874 192.24C253.11 195.859 252.845 202.567 253.11 211.835C253.463 221.102 249.139 227.457 240.138 229.399C226.637 232.312 214.194 231.518 212.253 218.984C209.782 203.361 212.782 192.593 212.782 192.593C212.782 192.593 211.018 188.798 208.988 188.798C206.958 188.798 207.135 185.355 206.782 183.237C206.076 179.353 205.988 175.028 204.046 174.41C202.193 173.793 196.898 172.733 197.075 166.467C197.251 160.2 201.311 160.641 203.517 159.582C205.723 158.523 202.281 153.492 204.929 150.226C207.576 146.96 211.018 148.814 214.812 149.167C218.607 149.52 215.606 145.548 216.489 142.106C217.459 138.663 223.725 136.192 231.314 142.459C238.991 148.726 241.815 147.666 246.492 147.755C251.169 147.931 254.787 153.845 253.728 158.523C252.669 163.201 255.492 165.054 257.61 167.879C259.816 170.703 258.758 178.118 253.11 178.735C252.139 174.499 251.61 167.879 244.462 163.201C239.167 168.85 230.255 171.409 226.548 168.409C222.754 165.408 222.754 164.878 220.724 167.702C220.018 168.762 218.43 170.703 216.577 170.792C217.636 182.266 214.018 181.913 214.724 190.651C217.106 191.799 218.342 193.034 220.901 198.683C221.783 200.713 222.754 197.624 226.195 195.594C229.637 193.564 232.902 190.739 238.373 194.182C243.844 197.624 244.462 199.654 246.227 198.595C247.992 197.536 250.639 192.063 251.874 192.24Z" fill="#DB6844"/>
<path d="M226.019 182.884C228.137 182.531 229.196 186.414 226.548 186.944C223.636 187.474 223.813 183.237 226.019 182.884Z" fill="black"/>
<path d="M243.05 183.502C245.168 183.149 246.227 187.032 243.579 187.562C240.667 188.18 240.844 183.855 243.05 183.502Z" fill="black"/>
<path d="M236.432 183.943C236.873 185.444 237.314 186.856 237.756 188.356C238.109 189.415 238.55 190.739 238.461 191.799C238.285 193.476 235.02 193.652 233.873 193.564C233.343 193.476 233.343 192.593 233.873 192.681C234.843 192.769 235.726 192.593 236.697 192.328C238.109 191.887 237.314 190.033 237.05 189.239C236.608 187.562 235.991 185.885 235.549 184.208C235.461 183.59 236.255 183.325 236.432 183.943Z" fill="black"/>
<path d="M238.903 199.742C236.961 198.948 234.932 198.771 232.902 198.33C232.461 198.242 231.931 198.154 231.49 198.065C229.814 197.889 229.902 199.742 229.902 200.713C229.814 201.949 229.99 203.185 230.519 204.332C231.49 206.627 234.314 207.51 236.432 206.274C238.638 204.95 238.55 201.596 238.903 199.389C238.991 198.86 239.873 198.86 239.785 199.389C239.432 202.302 239.344 205.656 236.52 207.245C234.226 208.569 231.49 207.068 230.166 205.215C228.843 203.361 228.578 199.566 229.99 197.712C230.608 196.918 232.02 197.183 232.814 197.359C235.02 197.712 237.226 198.065 239.256 198.86C239.697 199.125 239.432 200.007 238.903 199.742Z" fill="black"/>
<path d="M237.667 205.215C235.549 203.626 232.108 202.92 229.549 202.92C229.019 202.92 229.019 202.037 229.549 202.037C232.284 202.037 235.814 202.743 238.109 204.42C238.55 204.862 238.109 205.568 237.667 205.215Z" fill="black"/>
<path d="M246.756 176.617C247.55 177.058 248.168 177.765 248.962 178.206C250.286 178.912 250.463 177.235 250.286 176.352C250.11 175.293 249.58 174.234 248.874 173.44C248.168 172.645 247.109 171.851 245.962 171.763C244.638 171.674 242.785 171.498 241.726 172.469C239.785 174.146 242.962 174.94 244.109 175.381C244.991 175.823 245.962 176.176 246.756 176.617Z" fill="#DB6844"/>
<path d="M228.049 175.205C226.195 175.558 224.342 175.999 222.666 176.705C222.136 176.97 221.077 177.411 220.813 176.617C220.018 173.969 223.548 171.763 225.666 171.41C227.254 171.145 229.549 171.321 230.431 172.998C231.049 174.146 230.431 174.675 229.372 174.94C228.931 175.028 228.49 175.117 228.049 175.205Z" fill="#DB6844"/>
<path d="M247.903 162.936C245.962 162.495 242.697 165.054 241.02 166.202C239.079 167.526 237.402 168.85 235.108 169.556C231.755 170.615 227.696 170.35 224.96 168.055C224.078 167.349 223.019 165.672 221.871 167.349C221.342 168.055 220.813 168.673 220.107 169.291C218.871 170.439 217.283 171.145 215.606 171.321C212.782 171.498 209.694 169.468 209.782 166.467C209.782 165.937 210.664 165.937 210.664 166.467C210.576 168.938 212.959 170.174 215.077 170.439C217.459 170.703 219.754 168.762 221.077 166.908C221.43 166.378 222.136 165.143 222.93 165.319C224.431 165.672 225.225 167.173 226.372 168.055C230.078 170.615 235.549 168.938 238.903 166.555C240.756 165.319 242.874 164.26 244.55 162.848C245.786 161.789 246.58 161.7 248.168 162.053C248.698 162.23 248.521 163.024 247.903 162.936Z" fill="black"/>
<path d="M251.433 225.163C252.581 228.252 250.021 231.341 248.345 233.812C246.139 237.255 243.844 240.785 241.462 244.139C240.315 245.816 238.373 247.935 236.167 246.699C233.343 245.11 232.284 241.138 229.108 240.256C228.578 240.079 228.755 239.197 229.372 239.373C231.225 239.903 232.284 241.315 233.343 242.727C234.402 244.228 235.902 246.434 238.197 245.993C239.697 245.728 240.844 243.522 241.638 242.374C243.403 239.814 244.992 237.166 246.756 234.607C248.345 232.224 251.698 228.34 250.551 225.339C250.374 224.898 251.257 224.633 251.433 225.163Z" fill="black"/>
<path d="M271.288 229.134C269.788 232.577 269.259 236.46 268.553 240.167C267.67 244.492 267.582 248.994 267.582 253.407C267.582 253.937 266.7 253.937 266.7 253.407C266.7 249.17 266.876 244.934 267.582 240.785C268.2 236.813 268.906 232.488 270.582 228.781C270.759 228.164 271.553 228.605 271.288 229.134Z" fill="black"/>
<path d="M226.46 245.11C225.313 245.905 223.813 246.611 222.578 247.14C220.813 247.935 221.166 251.554 221.166 253.142C221.166 253.672 220.283 253.672 220.283 253.142C220.283 251.995 220.371 250.847 220.46 249.612C220.46 248.994 220.283 247.67 220.813 247.14C221.342 246.522 222.136 246.346 222.754 245.905C223.813 245.199 225.048 244.934 226.019 244.228C226.46 244.051 226.902 244.845 226.46 245.11Z" fill="black"/>
<path d="M222.489 242.904C221.43 241.138 220.107 238.932 217.901 240.785C216.753 241.756 215.606 242.462 214.635 243.521C213.577 244.581 212.165 245.993 210.576 244.757C208.723 243.345 207.752 241.05 207.046 238.932C206.076 236.196 205.282 233.018 205.105 230.105C205.105 229.576 205.988 229.576 205.988 230.105C206.164 233.018 207.046 235.931 207.929 238.667C208.458 240.344 209.341 241.933 210.4 243.345C211.988 245.375 213.841 242.992 214.988 241.933C216.047 240.962 218.077 238.843 219.577 238.843C221.43 238.843 222.577 241.138 223.283 242.462C223.548 242.904 222.754 243.345 222.489 242.904Z" fill="black"/>
<path d="M217.724 275.738C218.695 279.533 218.43 283.417 218.43 287.212C218.43 291.449 219.048 295.774 218.43 299.922C217.901 304.071 216.753 308.219 215.959 312.368C215.077 316.957 214.636 321.194 214.636 325.872C214.636 330.197 214.989 334.434 214.724 338.759C214.459 342.995 214.459 347.232 214.459 351.469C214.459 358.795 211.988 367.71 217.636 373.711C217.989 374.153 217.371 374.771 217.018 374.329C212.165 369.21 213.047 362.237 213.488 355.794C213.753 351.734 213.577 347.673 213.577 343.613C213.665 339.024 214.106 334.522 213.93 329.932C213.753 325.96 213.577 321.812 214.106 317.752C214.724 313.339 215.783 308.837 216.753 304.512C217.812 299.569 217.812 294.803 217.636 289.772C217.459 285.182 218.077 280.416 216.93 276.003C216.753 275.473 217.636 275.208 217.724 275.738Z" fill="black"/>
<path d="M182.603 281.034C182.956 284.917 183.838 288.801 184.368 292.685C184.897 296.568 184.897 300.54 184.809 304.512C184.633 312.191 183.574 319.694 181.809 327.108C180.044 334.61 176.955 341.848 176.426 349.704C176.161 353.499 175.896 357.206 175.896 361.001C175.896 363.12 176.073 365.238 176.779 367.268C177.22 368.592 177.661 369.828 177.749 371.24C177.749 371.77 176.867 371.77 176.867 371.24C176.779 369.387 175.985 367.798 175.455 366.032C175.014 364.355 174.926 362.678 174.926 361.001C174.926 357.206 175.279 353.499 175.455 349.704C175.72 342.378 178.72 335.493 180.485 328.52C182.515 320.665 183.662 312.633 183.927 304.512C184.103 300.364 184.015 296.127 183.397 291.979C182.868 288.36 182.162 284.741 181.809 281.034C181.632 280.504 182.515 280.504 182.603 281.034Z" fill="black"/>
<path d="M174.308 378.125C170.867 377.33 166.896 380.508 164.16 382.185C162.483 383.244 161.16 384.656 159.836 386.069C158.512 387.569 157.012 388.981 156.13 390.835C155.865 391.364 155.159 390.923 155.336 390.393C157.1 386.775 160.895 383.156 164.248 381.037C167.072 379.272 170.955 376.448 174.485 377.242C175.102 377.33 174.926 378.213 174.308 378.125Z" fill="black"/>
<path d="M175.102 353.499C174.22 350.233 172.278 347.409 170.514 344.496C168.837 341.76 167.072 339.112 164.866 336.729C164.513 336.287 165.131 335.67 165.484 336.111C167.778 338.494 169.543 341.23 171.308 344.055C173.161 346.967 175.014 349.88 175.985 353.234C176.161 353.852 175.279 354.029 175.102 353.499Z" fill="black"/>
<path d="M173.602 346.173C172.72 343.26 170.602 340.789 169.102 338.141C168.837 337.611 169.631 337.17 169.896 337.7C171.396 340.436 173.514 342.995 174.485 345.908C174.573 346.438 173.69 346.703 173.602 346.173Z" fill="black"/>
<path d="M225.048 252.26C225.578 251.907 225.666 251.024 225.401 250.494C225.048 249.877 224.254 250.671 223.989 251.024C223.813 251.377 223.813 251.907 223.989 252.348C224.254 252.878 224.872 252.789 225.313 252.613C225.843 252.348 226.284 253.142 225.754 253.407C224.872 253.848 223.901 253.76 223.284 252.966C222.754 252.26 222.842 251.112 223.372 250.406C223.989 249.612 225.313 249.082 226.019 250.053C226.725 251.024 226.372 252.436 225.401 253.054C225.048 253.319 224.607 252.613 225.048 252.26Z" fill="black"/>
<path d="M223.372 289.772C223.725 289.066 224.166 288.625 223.725 287.83C223.372 287.212 222.666 287.124 222.136 287.565C221.695 287.919 221.519 288.536 221.695 289.066C221.872 289.684 223.107 289.684 223.637 289.684C224.166 289.684 224.166 290.566 223.637 290.566C222.666 290.566 221.342 290.39 220.901 289.419C220.548 288.536 220.901 287.477 221.607 286.859C222.401 286.153 223.46 286.242 224.166 287.036C224.431 287.389 224.784 287.919 224.784 288.448C224.784 289.154 224.431 289.596 224.078 290.213C223.813 290.743 223.107 290.302 223.372 289.772Z" fill="black"/>
<path d="M221.519 318.281C222.048 317.399 222.136 316.163 221.254 315.457C220.548 315.016 220.018 316.163 219.93 316.604C219.754 317.222 220.018 317.575 220.636 317.752C221.077 317.928 221.695 317.928 221.695 317.311C221.695 316.781 222.577 316.781 222.577 317.311C222.577 318.37 221.607 318.811 220.636 318.634C220.195 318.546 219.754 318.281 219.401 317.928C218.959 317.487 219.048 316.869 219.136 316.34C219.312 315.28 220.371 314.045 221.607 314.574C222.313 314.839 222.578 315.545 222.842 316.163C223.107 317.046 222.93 317.928 222.401 318.634C221.96 319.252 221.166 318.811 221.519 318.281Z" fill="black"/>
<path d="M221.607 349.615C221.872 349.174 222.136 348.733 221.872 348.115C221.695 347.85 221.254 347.673 220.989 347.673C220.283 347.585 219.754 348.115 219.754 348.821C219.754 349.351 220.018 349.968 220.548 350.233C221.166 350.586 221.695 350.057 222.048 349.615C222.313 349.174 223.107 349.615 222.842 350.057C222.225 351.028 221.342 351.557 220.195 351.028C219.312 350.586 218.783 349.439 218.959 348.468C219.136 347.32 220.283 346.614 221.43 346.791C221.96 346.879 222.489 347.232 222.754 347.673C223.195 348.468 222.93 349.262 222.489 349.968C222.048 350.498 221.342 350.057 221.607 349.615Z" fill="black"/>
<path d="M267.759 422.169C262.199 424.728 256.728 419.697 253.992 415.196C252.228 412.283 251.61 408.752 251.345 405.398C250.992 401.162 251.257 396.837 251.433 392.6C251.433 392.07 252.316 392.07 252.316 392.6C252.051 398.867 251.522 405.575 253.375 411.665C254.963 416.873 261.14 424.199 267.317 421.463C267.847 421.109 268.288 421.904 267.759 422.169Z" fill="black"/>
<path d="M249.933 393.13C248.963 396.925 248.698 400.897 248.963 404.869C249.227 409.282 250.463 413.166 252.051 417.226C252.228 417.755 251.433 418.02 251.169 417.491C249.668 413.607 248.61 409.9 248.08 405.663C247.639 401.515 247.904 397.013 249.051 392.953C249.227 392.335 250.021 392.6 249.933 393.13Z" fill="black"/>
<path d="M185.868 388.981C185.515 392.335 184.015 395.336 182.691 398.426C181.191 401.868 179.338 405.134 176.514 407.782C174.22 409.9 171.043 410.959 168.043 411.577C165.307 412.106 162.219 412.283 159.836 410.606C159.395 410.253 159.836 409.547 160.277 409.812C162.66 411.577 165.66 411.136 168.484 410.606C171.749 409.988 174.661 408.576 176.955 406.193C178.985 404.074 180.397 401.426 181.632 398.779C183.044 395.778 184.721 392.424 184.985 389.069C184.985 388.452 185.868 388.452 185.868 388.981Z" fill="black"/>
<path d="M187.809 393.13C186.221 398.867 184.368 403.986 180.309 408.576C178.72 410.341 176.338 411.4 174.22 412.283C171.396 413.519 168.484 414.49 165.396 414.225C164.866 414.137 164.866 413.254 165.396 413.342C170.337 413.784 176.956 411.136 180.221 407.428C183.927 403.28 185.515 398.161 187.015 392.953C187.104 392.335 187.986 392.6 187.809 393.13Z" fill="black"/>
<path d="M219.489 393.218C219.754 401.515 217.724 409.723 217.195 418.02C217.106 419.962 218.077 422.963 215.783 423.934C213.93 424.728 210.4 422.08 209.253 420.845C208.811 420.403 209.517 419.785 209.87 420.227C210.753 421.109 211.9 421.727 212.959 422.345C214.9 423.493 216.489 422.522 216.4 420.315C216.312 417.314 216.665 414.401 217.018 411.489C217.812 405.487 218.783 399.308 218.607 393.306C218.607 392.688 219.489 392.688 219.489 393.218Z" fill="black"/>
<path d="M210.135 394.365C210.047 402.662 208.37 411.136 209.164 419.521C209.253 420.05 208.37 420.05 208.282 419.521C207.399 411.136 209.076 402.75 209.253 394.365C209.253 393.836 210.135 393.836 210.135 394.365Z" fill="black"/>
<path d="M232.461 307.601C229.284 304.689 224.96 303.1 220.989 301.423C216.577 299.569 212.165 297.716 207.841 295.686C207.311 295.421 207.753 294.715 208.282 294.891C212.606 296.921 217.018 298.775 221.43 300.629C225.401 302.306 229.814 303.894 233.079 306.895C233.52 307.425 232.902 308.043 232.461 307.601Z" fill="black"/>
<path d="M309.762 398.161C309.939 403.457 310.204 423.757 308.792 425.258C307.38 426.758 304.997 428.259 302.879 428.259C300.673 428.259 294.408 425.611 292.731 415.902C290.966 406.193 294.584 405.928 295.732 401.691C296.79 397.455 297.496 392.953 297.496 392.953L310.027 393.306L309.762 398.161Z" fill="#FF9B7D"/>
<path d="M308.615 397.808C306.85 397.896 300.409 398.249 295.732 400.279C294.673 400.544 295.379 396.484 295.643 394.63C295.908 392.777 306.939 387.039 308.527 389.246C309.939 391.453 308.615 397.808 308.615 397.808Z" fill="#D0D4D6"/>
<path d="M308.527 406.634C307.821 410.518 307.645 414.225 306.586 418.02C306.056 419.962 305.615 422.433 303.762 423.581C302.085 424.64 300.409 422.433 300.056 421.021C298.909 417.491 301.821 414.137 300.32 410.518C300.144 409.988 300.938 409.723 301.203 410.253C302.085 412.283 301.821 414.225 301.291 416.343C301.026 417.491 300.762 418.55 300.762 419.697C300.762 420.933 301.379 422.257 302.615 422.786C303.497 423.14 304.203 421.904 304.556 421.374C305.703 419.432 306.056 416.784 306.497 414.666C307.115 411.93 307.203 409.105 307.645 406.369C307.821 405.84 308.704 406.016 308.527 406.634Z" fill="black"/>
<path d="M303.585 427.729C305.262 426.758 304.291 424.552 304.203 423.051C304.115 422.522 304.997 422.522 305.085 423.051C305.174 423.581 305.35 424.11 305.438 424.64C305.527 425.17 305.527 425.699 305.438 426.229C305.35 427.2 304.909 427.906 304.115 428.435C303.497 428.788 303.056 427.994 303.585 427.729Z" fill="black"/>
<path d="M401.007 430.554L307.468 431.525C307.468 431.525 309.057 398.955 311.527 386.157C313.998 373.358 326.529 352.351 328.117 352.969C329.706 353.587 387.594 394.012 404.448 394.895C402.86 410.253 401.007 430.554 401.007 430.554Z" fill="#123042"/>
<path d="M372.151 232.665C371.886 228.163 372.416 214.571 373.651 205.303C381.152 206.539 384.682 194.976 381.681 191.004C378.063 186.15 374.181 192.946 374.181 192.946C372.416 192.681 374.445 175.911 367.915 170.615C361.385 165.319 350.355 163.113 339.765 168.144C329.176 173.175 328.47 179.971 329 185.973C329.529 191.975 331.735 191.004 331.029 201.066C330.235 211.128 336.059 220.661 345.854 223.221C345.59 230.988 344.531 241.138 345.325 243.345C345.943 245.552 362.621 243.698 372.151 232.665Z" fill="#FF9B7D"/>
<path fill-rule="evenodd" clip-rule="evenodd" d="M380.446 189.68C378.416 188.709 374.622 190.651 374.269 193.829C373.916 197.006 372.592 196.477 370.739 196.212C368.886 195.947 369.768 190.298 370.121 188.798C370.474 187.297 368.974 184.649 367.209 183.766C365.444 182.884 363.327 182.884 364.915 176.441C366.592 169.997 366.945 170.615 364.297 168.497C361.65 166.378 348.325 163.377 339.501 168.408C330.676 173.44 331.294 176.441 326.882 174.587C322.47 172.733 320.617 166.555 325.558 163.995C330.5 161.524 331.735 161.259 329.617 158.699C327.5 156.228 326.97 149.873 333.147 150.403C339.324 150.932 350.531 156.051 355.296 155.345C360.062 154.551 368.004 152.962 369.151 164.172C377.093 165.672 382.829 165.937 380.446 189.68Z" fill="#944A2F"/>
<path d="M351.943 187.209C353.884 186.856 355.12 191.092 352.737 191.71C350.002 192.328 350.002 187.65 351.943 187.209Z" fill="black"/>
<path d="M335.441 188.798C337.383 188.444 338.618 192.681 336.236 193.299C333.588 193.917 333.5 189.151 335.441 188.798Z" fill="black"/>
<path fill-rule="evenodd" clip-rule="evenodd" d="M358.473 180.942C358.473 178.559 355.826 174.852 351.325 175.028C346.825 175.205 345.06 178.735 347.354 178.912C349.56 179.088 351.325 178.471 355.649 180.765C358.65 182.266 358.12 181.825 358.473 180.942Z" fill="#944A2F"/>
<path fill-rule="evenodd" clip-rule="evenodd" d="M338.265 179.353C338.177 180.148 335.53 179.883 333.5 181.648C331.47 183.502 331.029 184.826 330.588 184.12C330.147 183.325 330.5 179.442 333.235 177.764C335.971 176.176 338.265 178.471 338.265 179.353Z" fill="#944A2F"/>
<path d="M342.413 182.354C342.501 185.355 343.295 189.151 342.148 192.063C341.883 192.858 341.177 193.564 340.56 194.005C337.294 196.3 341.618 198.683 343.736 199.389C344.266 199.566 344.001 200.448 343.472 200.272C342.148 199.831 336.589 197.094 338.265 194.8C339.589 193.034 341.442 192.593 341.618 189.945C341.795 187.385 341.53 184.826 341.442 182.266C341.442 181.736 342.324 181.736 342.413 182.354Z" fill="black"/>
<path d="M350.884 202.037C349.384 202.743 347.972 202.832 346.296 202.92C344.178 203.008 342.236 203.538 340.207 203.802C340.295 203.538 340.471 203.361 340.56 203.096C341.442 205.215 342.678 208.304 344.619 209.716C346.472 211.128 348.325 208.127 349.031 206.98C349.914 205.479 350.266 203.449 350.266 201.772C350.266 201.243 351.149 201.243 351.149 201.772C351.149 204.509 349.825 210.069 346.472 210.864C342.854 211.658 340.913 206.097 339.854 203.626C339.677 203.273 339.854 203.008 340.207 202.92C341.53 202.743 342.766 202.39 344.178 202.214C346.296 201.949 348.502 202.214 350.443 201.243C350.972 200.978 351.414 201.772 350.884 202.037Z" fill="black"/>
<path d="M349.914 205.744C348.502 205.568 347.09 205.921 345.854 206.539C344.795 207.068 344.531 208.216 343.825 209.098C343.472 209.54 342.678 209.098 343.031 208.657C343.384 208.216 343.472 207.598 343.825 207.157C344.266 206.627 344.707 206.186 345.325 205.744C346.56 204.95 348.413 204.597 349.825 204.773C350.443 204.862 350.443 205.744 349.914 205.744Z" fill="black"/>
<path d="M365.797 209.187C363.944 213.07 362.091 217.483 358.473 220.043C354.679 222.691 350.002 224.633 345.325 223.75C344.795 223.662 344.972 222.779 345.589 222.868C350.09 223.662 355.032 221.632 358.561 218.807C361.65 216.424 363.415 212.188 365.003 208.745C365.268 208.216 366.062 208.657 365.797 209.187Z" fill="black"/>
<path d="M375.063 205.656C374.357 205.656 373.739 205.568 373.122 205.215C372.504 204.862 372.063 204.244 371.533 203.802C371.092 203.449 371.71 202.832 372.151 203.185C372.592 203.538 372.945 203.979 373.298 204.332C373.739 204.773 374.357 204.773 374.975 204.773C375.592 204.773 375.592 205.656 375.063 205.656Z" fill="black"/>
<path d="M405.331 397.102C395.359 405.84 372.151 409.282 361.562 408.399C350.884 407.429 336.147 406.546 327.411 371.505C317.793 407.252 312.763 406.281 310.292 406.281C307.821 406.281 308.174 392.159 308.174 392.159C308.174 392.159 300.497 391.894 294.849 395.689C292.996 391.629 296.349 370.357 298.555 361.266C300.762 352.175 306.056 339.994 307.645 319.341C309.233 298.687 313.469 275.385 319.999 265.058C326.529 254.731 338.265 241.138 339.854 241.403C339.942 242.462 339.324 251.73 340.295 253.937C341.266 256.143 404.095 253.319 405.684 260.203C407.272 266.912 412.214 363.296 405.331 397.102Z" fill="#215E75"/>
<path d="M394.653 317.84C389.888 323.489 384.064 329.314 376.122 328.697C371.974 328.344 368.092 326.402 364.562 324.372C358.826 320.929 353.62 316.604 348.59 312.279C348.149 311.926 348.766 311.309 349.208 311.662C353.884 315.722 358.738 319.694 364.033 323.048C367.562 325.343 371.533 327.284 375.769 327.814C383.534 328.785 389.447 322.695 394.035 317.222C394.388 316.781 395.006 317.487 394.653 317.84Z" fill="black"/>
<path d="M379.828 231.871C379.828 230.723 373.386 221.455 372.416 222.691C364.738 232.047 357.855 241.491 345.854 243.345C343.825 242.198 345.589 230.723 345.413 228.87C342.942 230.105 335.088 248.729 339.148 253.584C340.824 255.437 376.651 247.14 379.828 231.871Z" fill="#D0D4D6"/>
<path d="M345.766 249.17C345.766 247.846 345.678 246.346 344.972 245.198C345.148 245.287 345.413 245.287 345.59 245.375C344.619 246.081 344.001 247.14 343.472 248.199C342.942 249.17 342.677 250.406 341.972 251.289C341.619 251.73 341.001 251.112 341.354 250.671C342.148 249.788 342.413 248.288 343.03 247.229C343.56 246.258 344.266 245.287 345.237 244.669C345.413 244.492 345.678 244.669 345.854 244.845C346.648 246.081 346.737 247.846 346.825 249.259C346.737 249.7 345.854 249.7 345.766 249.17Z" fill="black"/>
<path d="M338.53 303.806C337.118 307.601 331.647 320.312 331.206 322.783C329 318.281 326.705 304.512 327.941 299.216C329.176 293.92 338.53 303.806 338.53 303.806Z" fill="#D0D4D6"/>
<path d="M328.47 309.102C329.176 313.25 330.059 317.399 330.941 321.459C331.559 324.46 332.441 327.549 332.618 330.55C332.794 335.228 332 340.083 331.471 344.672C330.412 354.293 329.176 363.914 327.853 373.535C327.764 374.065 326.882 373.888 326.97 373.27C328.294 363.914 329.529 354.47 330.588 345.026C331.118 340.348 331.824 335.493 331.824 330.727C331.824 327.902 330.941 324.901 330.323 322.077C329.441 317.752 328.47 313.427 327.764 309.102C327.588 308.749 328.382 308.484 328.47 309.102Z" fill="black"/>
<path d="M322.646 304.865C323.352 308.396 324.235 311.926 325.735 315.192C327.058 318.281 328.823 321.106 330.059 324.195C330.235 324.725 329.441 324.99 329.176 324.46C327.853 321.194 326.088 318.193 324.588 314.927C323.176 311.838 322.47 308.396 321.764 305.042C321.675 304.512 322.558 304.336 322.646 304.865Z" fill="black"/>
<path d="M348.766 303.718C345.325 305.924 342.942 310.161 340.648 313.515C338.177 317.134 335.971 320.841 333.676 324.46C333.412 324.901 332.618 324.46 332.882 324.019C335.353 320.047 337.912 315.987 340.56 312.103C342.677 309.014 345.06 305.042 348.325 303.012C348.766 302.659 349.207 303.365 348.766 303.718Z" fill="black"/>
<path d="M319.822 308.749C320.264 321.9 317.969 335.052 315.675 347.938C312.939 362.855 309.939 377.683 308.527 392.777C308.439 393.306 307.556 393.306 307.645 392.777C309.057 378.125 311.88 363.738 314.528 349.262C316.998 335.934 319.381 322.342 318.94 308.749C318.94 308.131 319.822 308.131 319.822 308.749Z" fill="black"/>
<path d="M390.506 339.553C393.33 340.436 393.771 344.143 393.947 346.614C394.124 348.468 394.388 352.793 392.624 354.117C390.859 355.529 388.035 355.882 385.917 356.412C382.123 357.294 378.328 358 374.445 358.442C371.092 358.883 367.739 359.324 364.386 359.06C361.473 358.883 359.797 356.853 358.65 354.382C357.326 351.645 356.532 348.115 356.885 345.114C357.061 343.525 358.208 343.437 359.532 343.172C365.18 342.025 371.004 341.318 376.74 340.612C379.74 340.259 382.74 339.906 385.741 339.641C387.241 339.553 389.006 339.2 390.506 339.553C391.035 339.641 390.859 340.524 390.241 340.436C388.3 339.994 385.917 340.524 383.976 340.789C380.358 341.142 376.651 341.583 373.033 342.113C369.415 342.554 365.886 343.084 362.356 343.702C361.032 343.966 357.855 343.878 357.679 345.467C357.326 348.909 358.561 353.146 360.415 355.97C362.356 358.883 365.886 358.442 368.886 358.265C376.034 357.824 383.887 356.676 390.682 354.205C392.888 353.411 392.888 351.204 392.977 348.997C393.065 346.526 393.065 341.407 390.153 340.436C389.712 340.171 389.888 339.377 390.506 339.553Z" fill="black"/>
<path d="M325.999 329.844C328.117 329.844 328.558 334.346 326.441 334.61C324.058 334.875 323.793 330.197 325.911 329.844C326.441 329.756 326.705 330.638 326.176 330.727C325.029 330.903 325.117 333.728 326.352 333.728C327.323 333.728 327.146 330.727 325.999 330.727C325.382 330.815 325.382 329.932 325.999 329.844Z" fill="black"/>
<path d="M338.795 433.378C337.648 428.435 335.706 422.963 333.059 418.55C332.794 418.02 333.5 417.579 333.853 418.108C336.5 422.522 338.53 428.082 339.677 433.113C339.766 433.731 338.971 433.908 338.795 433.378Z" fill="black"/>
<path d="M335.795 424.64C334.824 423.757 332.971 423.493 331.824 423.14C330.765 422.786 329.794 422.522 328.735 422.169C328.206 421.992 328.382 421.198 329 421.286C330.235 421.639 331.471 421.992 332.706 422.433C333.941 422.787 335.53 423.14 336.5 424.022C336.853 424.375 336.148 424.993 335.795 424.64Z" fill="black"/>
<path d="M323.176 284.3C317.351 284.918 311.174 285.8 304.909 284.917C298.555 283.947 286.995 281.122 277.024 283.152C267.052 285.182 260.169 287.83 253.992 289.154C247.903 290.478 248.433 292.243 248.962 293.656C249.404 295.068 251.168 295.421 251.168 295.421C252.58 300.452 256.64 300.276 262.993 295.862C271.553 295.862 272.612 292.596 276.141 295.068C279.671 297.539 295.467 300.893 300.673 302.659C305.88 304.424 319.116 307.601 325.911 301.953C332.618 296.304 323.176 284.3 323.176 284.3Z" fill="#FFBDA8"/>
<path d="M275.082 288.007C273.406 288.536 271.817 289.242 270.141 289.772C268.376 290.302 266.346 290.125 264.493 290.213C262.552 290.39 256.551 289.949 258.228 293.744C259.199 295.862 262.905 295.509 264.846 295.421C265.376 295.421 265.376 296.304 264.846 296.304C262.905 296.304 259.905 296.657 258.316 295.156C256.992 293.92 256.728 292.42 257.787 290.919C259.11 289.242 262.022 289.419 263.787 289.419C265.817 289.419 267.935 289.331 269.876 288.978C271.553 288.625 273.141 287.742 274.818 287.212C275.347 287.036 275.612 287.83 275.082 288.007Z" fill="black"/>
<path d="M257.61 293.744C255.581 294.538 249.139 297.01 248.345 293.479C248.256 292.95 249.051 292.685 249.227 293.214C249.757 295.774 255.845 293.479 257.346 292.95C257.875 292.685 258.052 293.567 257.61 293.744Z" fill="black"/>
<path fill-rule="evenodd" clip-rule="evenodd" d="M492.957 372.034C485.721 369.828 431.274 367.356 405.948 382.979C401.536 403.015 400.301 430.907 400.036 433.996C399.683 437.085 496.751 433.643 496.751 433.643L492.957 372.034Z" fill="#33221F"/>
<path d="M437.628 378.213C437.628 389.776 437.01 401.338 436.657 412.989C436.657 413.342 436.304 413.519 435.951 413.342C434.451 412.636 433.039 411.93 431.627 411.136C430.745 410.694 428.892 409.812 428.715 408.664C428.274 405.84 428.627 402.75 428.715 399.838C428.892 392.953 429.157 386.068 429.421 379.096C429.421 378.566 430.304 378.566 430.304 379.096C430.039 385.451 429.774 391.806 429.598 398.072C429.509 401.25 429.421 404.427 429.509 407.693C429.509 409.105 430.921 409.635 432.069 410.253C433.48 411.047 434.981 411.753 436.393 412.46C436.128 412.548 435.951 412.724 435.687 412.813C436.04 401.25 436.569 389.687 436.657 378.036C436.745 377.683 437.628 377.683 437.628 378.213Z" fill="black"/>
<path d="M503.281 226.222C498.869 218.719 488.545 212.452 483.603 212.805C478.573 213.159 425.097 231.871 421.303 239.373C417.508 246.876 351.325 271.678 333.5 275.473C320.352 278.562 321.234 280.416 320.616 282.005C321.411 285.006 321.675 302.482 325.999 306.277C328.558 308.661 339.677 307.072 339.677 307.072C350.619 310.161 367.209 312.986 402.242 303.012C400.036 327.726 395.183 366.915 403.654 372.299C404.889 378.831 404.713 383.509 405.684 384.745C436.304 371.328 464.542 370.357 490.751 376.889C504.164 355.264 511.047 302.747 509.811 279.269C508.664 255.614 503.281 226.222 503.281 226.222Z" fill="#DEAD85"/>
<path d="M334.647 281.475C335.618 289.86 336.147 298.334 339.942 306.013C340.207 306.542 339.412 306.984 339.148 306.454C335.265 298.599 334.735 290.037 333.677 281.475C333.677 280.946 334.559 280.946 334.647 281.475Z" fill="black"/>
<path d="M486.25 267.882C479.897 271.854 473.102 274.944 466.572 278.562C459.777 282.358 452.718 285.888 445.57 288.978C431.627 295.068 417.155 299.746 402.419 303.276C401.889 303.365 401.624 302.57 402.154 302.394C417.067 298.775 431.716 294.009 445.835 287.918C452.718 284.917 459.512 281.475 466.131 277.856C472.661 274.237 479.456 271.148 485.809 267.176C486.25 266.823 486.692 267.618 486.25 267.882Z" fill="black"/>
<path d="M485.456 361.707C458.277 356.676 429.862 361.972 404.801 372.917C404.272 373.182 403.83 372.387 404.36 372.123C429.598 361.09 458.277 355.706 485.633 360.825C486.25 361.001 485.986 361.796 485.456 361.707Z" fill="black"/>
<path d="M437.716 441.145C437.716 437.085 437.893 433.025 437.893 428.965C437.893 426.67 437.893 424.375 437.54 422.169C437.187 420.139 434.275 419.521 432.598 418.726C432.068 418.461 432.51 417.755 433.039 417.932C434.451 418.55 437.628 419.344 438.157 420.933C438.863 422.875 438.687 425.17 438.775 427.2C438.863 431.878 438.687 436.467 438.599 441.057C438.599 441.675 437.716 441.675 437.716 441.145Z" fill="black"/>
<path d="M451.835 358.089C447.07 358.883 442.305 358.795 437.54 358.971C431.98 359.236 426.597 360.295 421.215 361.531C420.685 361.619 420.42 360.825 420.95 360.648C425.627 359.589 430.304 358.707 435.069 358.265C440.628 357.736 446.188 358.177 451.659 357.206C452.1 357.118 452.365 358 451.835 358.089Z" fill="black"/>
<path d="M477.602 282.976C479.279 294.803 480.956 306.719 482.72 318.546C483.515 324.019 484.75 329.491 485.103 334.963C485.28 337.876 485.368 340.789 485.633 343.702C485.897 346.173 485.986 348.644 485.368 351.116C485.28 351.645 484.397 351.469 484.485 350.851C485.103 348.203 484.927 345.643 484.662 342.995C484.397 340.348 484.309 337.7 484.132 334.963C483.956 331.962 483.25 328.961 482.809 326.049C482.368 323.048 481.926 320.135 481.485 317.134C479.897 305.836 478.22 294.538 476.632 283.24C476.72 282.623 477.514 282.446 477.602 282.976Z" fill="black"/>
<path d="M459.601 284.564C467.19 282.093 475.308 281.475 482.721 278.298C483.25 278.033 483.515 278.915 482.985 279.18C475.573 282.27 467.454 282.976 459.865 285.447C459.248 285.624 459.071 284.741 459.601 284.564Z" fill="black"/>
<path fill-rule="evenodd" clip-rule="evenodd" d="M417.685 245.11C413.096 250.494 350.355 272.031 329.441 277.768C325.646 288.448 316.293 285.977 305.615 285.182C294.937 284.476 279.142 275.032 279.142 275.032C279.142 275.032 305.527 267.971 315.057 265.058C324.587 262.145 373.21 238.49 397.918 218.984C402.154 221.102 417.685 245.11 417.685 245.11Z" fill="#B06043"/>
<path d="M323.176 278.739C321.675 280.593 320.705 282.181 318.41 282.887C315.322 283.858 311.969 284.211 308.792 284.388C308.262 284.388 308.262 283.505 308.792 283.505C311.527 283.329 314.263 282.976 316.999 282.27C318.322 281.917 319.558 281.652 320.528 280.681C321.322 279.886 321.94 278.916 322.558 278.033C322.911 277.68 323.529 278.298 323.176 278.739Z" fill="black"/>
<path d="M308.439 258.173C305.35 257.732 301.291 256.938 296.526 258.438C286.995 261.527 284.172 263.469 281.612 264.087C276.406 265.323 275.612 267.353 276.936 268.765C273.053 272.296 276.847 275.208 280.818 274.414C282.318 275.473 288.319 274.326 290.084 272.384C291.496 274.591 295.026 272.649 299.702 270.883C304.379 269.118 311.968 266.117 312.939 265.499C313.91 264.881 314.88 259.939 308.439 258.173Z" fill="#FF9B7D"/>
<path d="M320.528 262.763C319.116 261.351 307.644 254.908 306.056 257.82C310.292 258.791 313.027 261.527 312.145 265.852C316.734 265.323 320.528 262.763 320.528 262.763Z" fill="#D0D4D6"/>
<path d="M303.674 264.264C301.556 265.058 299.35 265.764 297.232 266.559C294.849 267.353 289.29 269.03 290.966 272.737C291.231 273.267 290.437 273.708 290.172 273.178C289.202 271.06 290.26 269.206 292.025 267.882C293.437 266.823 295.29 266.294 296.967 265.676C299.085 264.882 301.291 264.175 303.409 263.381C303.938 263.204 304.203 264.087 303.674 264.264Z" fill="black"/>
<path d="M297.144 262.763C293.967 264.352 290.878 265.764 287.966 267.883C286.025 269.295 278.612 270.266 280.73 273.62C280.995 274.061 280.289 274.502 279.936 274.061C277.995 271.06 280.907 269.824 283.377 268.853C285.584 267.971 287.525 267 289.555 265.676C291.849 264.264 294.232 263.204 296.702 261.969C297.232 261.792 297.673 262.498 297.144 262.763Z" fill="black"/>
<path d="M275.259 272.649C274.112 269.295 277.377 268.236 280.024 267.529C282.318 266.912 284.26 265.588 286.289 264.352C288.319 263.116 290.525 262.234 292.643 261.174C293.172 260.91 293.614 261.704 293.084 261.969C289.996 263.469 286.995 264.97 284.083 266.735C281.877 268.059 274.994 268.765 276.23 272.384C276.318 272.914 275.435 273.178 275.259 272.649Z" fill="black"/>
<path d="M322.469 262.234C321.94 261.881 315.939 257.467 313.027 256.849C311.351 256.496 310.645 257.644 310.645 257.644C312.586 258.438 316.204 260.38 316.557 264.705C319.204 263.822 322.469 262.234 322.469 262.234Z" fill="#215E75"/>
<path d="M470.984 159.406C472.837 144.665 463.307 124.276 446.099 123.041C428.892 121.805 410.625 127.895 407.89 136.986C405.154 146.078 404.448 156.052 408.86 164.172C413.273 172.292 408.684 182.619 424.038 195.153C431.451 201.243 464.454 182.001 470.984 159.406Z" fill="#FFBDA8"/>
<path d="M465.337 126.395C462.336 122.776 458.189 119.775 453.512 119.333C451.129 119.069 448.835 119.775 446.541 119.687C442.128 119.51 438.51 118.892 434.01 118.98C425.009 119.069 419.891 120.746 413.802 123.57C409.655 125.424 406.39 127.895 403.566 131.337C402.242 133.014 401.713 136.015 401.624 138.134C401.448 142.282 405.772 142.812 408.86 142.812C413.802 142.812 419.714 140.87 423.95 138.399C426.421 136.986 428.98 135.309 431.627 134.162C434.363 133.014 436.746 131.955 439.393 133.544C442.923 135.662 443.187 138.928 444.335 142.459C445.04 144.577 445.393 147.578 446.717 149.343C447.864 150.932 450.07 151.638 450.247 153.757C450.512 155.875 448.923 161.789 452.012 162.407C455.365 163.113 456.071 157.464 457.836 155.875C459.601 154.374 461.542 154.374 463.395 155.698C467.366 158.523 465.954 165.054 465.954 165.054C465.954 165.054 466.219 170.439 473.19 155.698C473.632 154.728 473.19 152.256 473.102 151.197C473.014 149.608 472.926 148.108 472.837 146.519C472.573 143.518 472.043 140.429 471.161 137.516C470.102 133.721 468.072 129.66 465.337 126.395Z" fill="#967A72"/>
<path d="M428.98 158.082C430.921 157.022 433.833 161.171 431.363 162.671C428.715 164.348 426.95 159.229 428.98 158.082Z" fill="black"/>
<path d="M412.567 164.084C414.243 163.113 416.714 166.82 414.684 168.144C412.478 169.556 410.89 165.054 412.567 164.084Z" fill="black"/>
<path d="M418.038 155.875C419.185 157.817 420.862 161.436 419.538 163.642C418.567 165.319 417.597 166.908 416.714 168.673C416.185 169.821 415.832 170.968 416.008 172.292C416.273 174.499 419.097 174.587 420.685 174.587C421.215 174.587 421.215 175.47 420.685 175.47C418.92 175.47 417.508 175.47 416.185 174.234C415.214 173.263 414.861 171.939 415.214 170.615C415.655 168.673 416.626 166.731 417.597 165.143C418.567 163.466 419.273 162.495 418.832 160.465C418.567 159.141 417.95 157.64 417.244 156.493C416.979 155.787 417.685 155.345 418.038 155.875Z" fill="black"/>
<path d="M428.098 172.469C428.186 175.381 428.363 178.029 426.068 180.236C424.215 182.001 421.479 181.825 419.45 180.589C419.009 180.324 419.45 179.53 419.891 179.795C422.185 181.207 424.745 180.766 426.245 178.559C427.568 176.705 427.215 174.499 427.127 172.469C427.215 171.939 428.098 171.939 428.098 172.469Z" fill="black"/>
<path d="M434.804 148.372C431.98 148.902 428.715 147.843 425.803 147.755C424.48 147.666 422.715 148.284 421.744 147.313C420.862 146.519 420.773 145.018 421.479 144.136C422.45 142.9 424.48 142.547 425.892 142.459C427.833 142.282 429.951 142.635 431.627 143.694C432.069 143.959 435.863 148.196 434.804 148.372Z" fill="#967A72"/>
<path d="M411.331 151.197C411.243 151.462 410.89 151.815 410.537 152.256C408.772 154.286 407.449 156.669 406.743 159.229C406.478 160.288 404.89 157.552 404.89 157.375C404.537 155.875 404.801 154.021 405.154 152.609C405.507 151.373 406.125 149.608 407.449 149.079C408.508 148.637 409.919 149.167 410.714 149.961C411.331 150.579 411.42 150.932 411.331 151.197Z" fill="#967A72"/>
<path d="M435.422 152.609C431.363 152.697 427.392 152.874 423.862 154.992C422.185 156.051 421.744 157.022 421.921 158.964C422.097 161.524 422.98 163.642 424.744 165.407C427.656 168.32 434.01 168.585 436.304 164.613C438.069 161.7 438.334 155.169 435.598 152.786C435.157 152.433 435.775 151.815 436.216 152.168C439.216 154.816 438.952 161.171 437.363 164.437C435.422 168.497 430.039 169.291 426.245 167.526C424.215 166.555 422.803 164.701 421.832 162.76C421.391 161.789 421.215 160.641 421.038 159.582C420.95 158.876 420.42 156.846 420.95 156.316C422.627 154.639 424.303 153.227 426.598 152.521C429.333 151.638 432.598 151.638 435.334 151.638C435.951 151.727 435.951 152.609 435.422 152.609Z" fill="black"/>
<path d="M420.95 160.376C420.509 159.847 417.067 162.142 416.361 162.142C415.832 162.142 415.832 161.259 416.361 161.259C417.773 161.171 420.509 158.17 421.744 159.935C422.009 160.376 421.303 160.818 420.95 160.376Z" fill="black"/>
<path d="M417.155 165.672C416.714 163.377 415.39 159.935 412.39 160.376C409.743 160.818 406.566 163.466 406.301 166.29C405.948 170.174 410.537 176.617 414.596 173.175C415.037 172.822 415.655 173.44 415.214 173.793C410.449 177.853 404.625 170.615 405.419 165.761C405.948 162.583 409.566 159.935 412.567 159.494C415.655 158.964 417.42 163.024 417.861 165.496C418.126 166.025 417.244 166.202 417.155 165.672Z" fill="black"/>
<path d="M456.865 156.846C453.953 156.846 451.041 156.669 448.129 156.316C444.776 155.875 441.511 155.875 438.157 155.875C437.628 155.875 437.628 154.992 438.157 154.992C440.981 154.992 443.893 154.728 446.629 155.169C449.982 155.787 453.424 155.875 456.865 155.963C457.395 155.963 457.395 156.846 456.865 156.846Z" fill="black"/>
<path fill-rule="evenodd" clip-rule="evenodd" d="M435.687 151.02C436.922 151.55 437.893 152.521 437.187 153.05C436.481 153.58 426.509 151.55 421.038 158.17C420.332 158.964 419.891 157.111 420.156 156.228C420.509 155.257 424.303 149.785 435.687 151.02Z" fill="#4D3733"/>
<path fill-rule="evenodd" clip-rule="evenodd" d="M415.832 160.641C414.596 160.73 408.861 161.789 405.507 167.349C404.713 167.967 404.272 166.114 404.89 164.79C405.507 163.377 408.596 160.023 413.714 159.229C415.832 158.876 416.097 160.376 415.832 160.641Z" fill="#4D3733"/>
<path fill-rule="evenodd" clip-rule="evenodd" d="M573.7 133.191C571.494 127.895 568.406 116.597 569.641 103.446C570.876 90.2945 586.496 73.0829 568.406 49.6046C550.227 26.1263 506.194 30.0099 494.898 56.4892C487.574 73.7008 500.811 81.8211 494.545 88.7057C488.28 95.5904 483.868 97.1791 494.898 100.268C498.693 100.621 497.722 105.299 501.164 111.831C504.605 118.363 510.87 126.218 522.43 125.6C533.99 125.071 573.7 133.191 573.7 133.191Z" fill="#B06043"/>
<path fill-rule="evenodd" clip-rule="evenodd" d="M596.997 80.6737C601.056 87.2053 597.791 109.624 584.466 98.6796C590.113 114.479 574.141 115.45 567.7 107.947C570.7 120.922 558.346 120.657 552.963 108.565C551.374 106.712 550.315 115.626 545.109 112.978C539.903 110.331 538.667 102.298 538.226 102.034C536.814 103.799 534.432 106.976 531.784 105.741C530.372 105.123 529.225 103.093 528.431 101.857C528.078 101.328 526.401 97.0909 527.196 96.7378C525.342 97.5322 524.372 99.474 521.901 98.3266C519.518 97.2674 518.989 93.2955 518.901 91.0006C518.901 87.9114 519.695 84.9104 520.754 81.9977C521.548 79.7028 522.43 75.6426 521.724 73.2595C521.371 72.0238 518.724 70.1702 518.901 68.8463C518.106 74.3186 517.312 76.1722 512.988 74.6717C509.547 73.436 505.576 70.8763 502.487 56.754C497.193 56.3127 490.398 55.1653 486.339 51.4582C484.75 50.0459 482.897 47.398 483.338 45.1031C483.603 43.7792 486.868 40.2486 488.456 41.9256C486.78 40.1603 482.721 39.4542 482.191 36.718C481.662 33.2757 486.515 32.3931 489.074 31.9517C482.985 28.4212 490.486 22.1544 494.545 21.7131C496.751 21.4483 499.487 21.8013 500.987 22.5074C499.928 21.007 496.751 17.2116 500.369 14.9167C501.87 13.9458 506.193 14.2106 507.341 15.7994C504.782 11.9157 503.546 9.35605 508.929 7.41424C514.4 5.38415 522.342 6.70812 526.401 11.0331C524.283 7.06118 524.195 1.41226 529.666 0.264819C535.137 -0.882618 542.726 4.67804 546.433 8.20862C544.933 6.2668 543.962 2.2949 547.315 1.14746C550.757 -0.0882382 554.992 2.91275 557.11 5.29589C560.111 8.7382 562.405 12.7984 564.523 16.7703C566.199 19.9478 566.111 21.8896 569.111 19.7713C571.582 18.0942 574.671 16.4172 578.201 16.5937C581.113 16.7703 585.084 18.0942 586.584 20.7422C588.702 24.1845 585.79 28.5094 583.319 30.9808C592.231 32.8344 602.115 40.8664 601.497 46.7802C600.879 52.6939 595.408 55.077 595.408 55.077C604.762 58.1663 606.792 68.6697 606.703 74.1421C606.527 79.5262 600.615 83.1451 596.997 80.6737Z" fill="#733924"/>
<path d="M627.97 439.91C624.705 431.436 624.705 411.312 630.353 395.778C636 380.243 634.588 350.233 606.88 310.338C567.964 305.66 503.193 309.896 503.193 309.896C496.134 344.673 489.074 362.061 489.074 394.365C489.074 426.67 491.457 443.176 491.457 443.176L627.97 439.91Z" fill="#0D3D63"/>
<path d="M596.291 308.572C598.232 312.721 599.82 317.222 601.32 321.547C603.968 329.314 606.262 337.258 608.115 345.29C610.145 354.029 611.557 362.855 611.91 371.858C612.174 379.36 611.557 387.216 608.38 394.101C605.115 401.073 600.615 407.517 594.967 412.724C594.437 413.166 593.908 413.695 593.379 414.137C592.849 414.578 593.29 413.783 593.29 414.225C593.202 415.725 593.026 417.138 592.937 418.638C592.143 427.641 591.349 436.644 590.555 445.647C590.466 446.177 589.584 446.177 589.672 445.647C590.555 435.232 591.525 424.905 592.408 414.49C592.496 413.43 593.379 413.077 594.173 412.283C597.349 409.459 600.085 406.193 602.468 402.75C607.939 395.071 610.674 386.863 611.116 377.419C611.733 363.385 608.556 349.174 604.85 335.669C602.379 326.667 599.644 317.399 595.673 308.925C595.32 308.484 596.026 308.043 596.291 308.572Z" fill="black"/>
<path d="M592.672 414.401C578.906 412.107 565.14 409.812 551.374 407.517C550.845 407.429 551.021 406.546 551.639 406.634C565.405 408.929 579.171 411.224 592.937 413.519C593.467 413.607 593.202 414.49 592.672 414.401Z" fill="black"/>
<path d="M593.82 337.788C597.085 347.497 599.291 357.736 599.114 368.063C599.026 374.682 597.702 381.391 594.702 387.304C591.349 393.924 585.613 398.867 578.907 402.044C577.053 402.927 575.112 403.633 573.082 404.251C571.406 404.781 568.935 402.574 567.523 401.78C563.023 399.22 558.699 396.484 554.286 393.659C551.904 392.159 549.08 390.658 547.139 388.54C546.256 387.569 546.345 384.833 546.256 383.509C544.933 369.828 544.933 355.97 544.756 342.201C544.756 340.965 544.756 339.818 544.756 338.582C544.756 338.318 544.933 338.141 545.197 338.141C561.081 336.376 577.495 335.67 593.379 337.523C593.908 337.611 593.908 338.494 593.379 338.406C577.495 336.552 561.081 337.258 545.197 339.024C545.374 338.847 545.462 338.759 545.639 338.582C545.727 350.233 545.903 361.884 546.521 373.447C546.697 376.713 546.874 379.89 547.139 383.156C547.315 384.833 547.139 387.304 548.462 388.452C551.463 390.923 554.992 392.953 558.257 395.072C562.67 397.808 567.082 400.544 571.671 403.104C573.435 404.074 576.789 402.133 578.465 401.338C580.407 400.456 582.348 399.396 584.113 398.161C587.378 395.954 590.114 393.13 592.32 389.864C596.291 383.95 597.879 376.801 598.232 369.74C598.761 359.06 596.467 348.38 593.114 338.317C593.114 338.229 593.026 338.141 593.026 338.053C592.849 337.523 593.643 337.258 593.82 337.788Z" fill="black"/>
<path d="M623.734 340.524C620.822 340.612 617.91 340.701 614.998 340.877C615.175 340.701 615.263 340.612 615.439 340.436C616.675 350.498 617.91 360.648 618.969 370.799C619.587 376.712 620.293 382.626 620.646 388.628C620.822 391.894 620.911 394.807 622.764 397.719C624.087 399.749 626.117 401.603 628.323 402.75C628.852 403.015 628.411 403.81 627.882 403.545C622.852 400.897 620.028 395.954 619.852 390.393C619.675 384.656 618.969 379.007 618.351 373.27C617.204 362.325 615.881 351.469 614.557 340.612C614.557 340.348 614.822 340.171 614.998 340.171C617.91 340.083 620.822 339.994 623.734 339.818C624.352 339.641 624.352 340.524 623.734 340.524Z" fill="black"/>
<path d="M530.372 308.308C528.696 317.664 527.725 327.196 526.666 336.64C524.636 354.735 523.048 373.005 522.43 391.188C521.813 408.223 521.636 425.787 524.813 442.558C524.901 443.087 524.107 443.352 523.93 442.823C520.665 425.699 520.93 407.958 521.548 390.57C522.254 372.388 523.842 354.205 525.872 336.111C526.931 326.755 527.99 317.311 529.578 307.955C529.578 307.513 530.46 307.778 530.372 308.308Z" fill="black"/>
<path d="M526.225 308.572C524.725 317.928 522.872 327.284 521.46 336.729C518.724 355.617 516.695 374.594 516.165 393.659C515.724 409.812 516.165 426.229 519.871 442.028C519.96 442.558 519.165 442.823 518.989 442.293C514.577 423.669 514.577 404.163 515.547 385.186C516.43 367.092 518.548 348.998 521.371 331.08C522.519 323.489 524.107 315.987 525.254 308.396C525.519 307.778 526.313 308.043 526.225 308.572Z" fill="black"/>
<path d="M518.636 354.293C507.164 354.47 499.84 343.26 497.899 332.933C497.81 332.404 498.604 332.139 498.781 332.669C498.781 332.669 498.781 332.669 498.781 332.757C498.869 333.286 498.075 333.551 497.899 333.022C497.899 333.022 497.899 333.022 497.899 332.933C498.163 332.845 498.428 332.757 498.781 332.669C500.722 342.554 507.517 353.499 518.636 353.322C519.165 353.411 519.165 354.293 518.636 354.293Z" fill="black"/>
<path d="M517.842 359.942C513.959 360.648 509.723 359.324 506.282 357.647C500.899 354.999 497.016 350.145 495.428 344.319C495.251 343.79 496.134 343.525 496.31 344.055C497.81 349.527 501.34 353.852 506.37 356.588C509.635 358.353 513.959 359.677 517.665 359.06C518.106 358.971 518.371 359.854 517.842 359.942Z" fill="black"/>
<path d="M606.88 310.338C607.498 306.278 604.056 291.273 603.085 290.92C602.115 290.566 539.55 283.417 504.252 290.92C501.781 293.126 503.193 309.896 503.193 309.896C503.193 309.896 551.463 306.895 606.88 310.338Z" fill="#EDE3CC"/>
<path d="M603.085 291.008C614.38 285.712 620.028 282.534 615.881 264.44C611.821 246.258 597.702 162.142 571.406 128.954C558.257 121.099 531.078 111.743 515.988 115.803C500.987 119.863 486.603 135.486 477.514 147.137C468.425 158.699 454.659 169.026 440.893 176.529C427.127 184.031 402.683 197.536 408.949 211.923C415.214 223.839 426.156 239.814 426.156 239.814C445.57 245.463 485.633 227.634 502.84 211.658C495.339 251.995 481.838 284.564 504.076 291.184C510.164 290.302 560.905 287.565 603.085 291.008Z" fill="#EDE3CC"/>
<path d="M575.553 184.914C567.435 156.758 560.816 134.162 556.404 121.805C558.522 122.599 560.552 123.482 562.405 124.276C567.523 136.104 583.142 170.527 586.848 191.445C590.378 210.422 599.467 245.375 603.791 262.234C608.203 279.092 600.614 283.77 595.232 289.684H585.878C594.349 276.268 593.731 263.116 589.319 242.462C584.995 221.808 584.378 215.189 575.553 184.914Z" fill="#DED1B4"/>
<path d="M542.109 165.143C543.697 179.53 550.845 227.104 554.639 244.051C558.434 260.91 560.552 284.388 560.552 289.154L569.641 289.419C572.465 279.445 565.846 248.729 562.052 226.575C558.257 204.332 549.257 156.14 547.668 149.255L542.109 165.143Z" fill="#DED1B4"/>
<path d="M520.489 195.859C519.518 208.392 509.194 274.414 525.166 290.39L533.284 289.772C533.284 289.772 529.843 284.741 527.637 267.529C525.431 250.318 527.637 196.83 527.637 188.356L520.489 195.859Z" fill="#DED1B4"/>
<path d="M426.333 239.638C424.127 242.462 420.42 246.434 415.567 246.787C413.449 246.964 397.83 221.808 396.948 219.337C395.977 216.866 404.36 209.981 408.684 209.628" fill="#EDE3CC"/>
<path d="M501.781 82.9686C504.605 82.7038 506.723 88.6175 503.37 89.5002C501.075 90.2063 498.428 83.3216 501.781 82.9686Z" fill="black"/>
<path d="M504.87 72.0238C502.752 69.7289 499.487 68.9345 496.398 68.8463C495.869 68.8463 495.869 67.9636 496.398 67.9636C499.663 68.0519 503.193 68.9345 505.487 71.4059C505.929 71.8473 505.223 72.4651 504.87 72.0238Z" fill="black"/>
<path d="M506.723 99.7388C506.635 103.799 504.076 108.477 499.575 108.654C499.046 108.654 499.046 107.771 499.575 107.771C503.546 107.594 505.752 103.358 505.84 99.7388C505.84 99.2092 506.723 99.2092 506.723 99.7388Z" fill="black"/>
<path d="M534.079 60.8142C534.696 62.2264 535.049 64.5213 533.902 65.8453C532.755 67.081 531.167 67.3458 529.578 67.434C529.755 67.2575 529.843 67.081 530.019 66.9044C530.549 69.9054 529.402 72.0238 526.401 72.9064C523.401 73.7891 520.666 71.5825 518.812 69.4641C518.459 69.0228 519.077 68.4049 519.43 68.8463C520.666 70.2585 521.989 71.4942 523.842 72.0238C524.989 72.3768 526.137 72.112 527.196 71.6707C529.225 70.7881 529.402 68.9345 529.137 67.081C529.049 66.8162 529.225 66.5514 529.578 66.5514C530.814 66.4631 531.961 66.3749 532.931 65.5805C534.255 64.5213 533.726 62.3147 533.196 60.9907C533.02 60.5494 533.902 60.2846 534.079 60.8142Z" fill="black"/>
<path d="M419.803 228.693C427.656 221.455 458.012 215.542 487.397 195.506C516.783 175.47 542.462 137.251 546.521 128.866C546.521 128.866 548.462 136.369 547.492 140.782C542.462 153.933 529.666 171.498 506.193 193.387C482.721 215.277 440.452 235.666 422.979 233.724C422.979 233.724 422.803 233.812 422.538 233.901C421.656 232.488 420.597 230.9 419.538 229.223C419.538 229.046 419.626 228.87 419.803 228.693Z" fill="#DED1B4"/>
<path d="M408.772 210.864C412.92 205.391 422.538 198.242 438.51 191.181C455.365 183.678 472.573 171.145 484.838 154.904C497.016 138.663 520.489 120.128 533.02 115.803C533.196 115.715 533.284 115.626 533.461 115.538C535.402 115.803 537.432 116.244 539.373 116.686C540.785 118.009 541.579 119.51 541.579 119.51C535.932 124.541 495.781 158.699 475.043 177.411C454.394 196.212 440.275 198.683 429.068 205.568C420.156 211.04 414.773 216.601 412.92 218.719C411.508 216.336 410.184 214.041 409.037 211.746C408.949 211.481 408.86 211.128 408.772 210.864Z" fill="#DED1B4"/>
<path d="M603.085 291.449C598.938 290.92 594.702 290.831 590.555 290.655C582.348 290.302 574.141 290.037 565.935 289.949C545.374 289.596 524.725 289.772 504.164 291.449C503.634 291.537 503.634 290.655 504.164 290.566C524.636 288.889 545.286 288.713 565.935 289.066C574.141 289.154 582.348 289.419 590.555 289.772C594.702 289.949 598.938 290.037 603.085 290.566C603.703 290.566 603.703 291.449 603.085 291.449Z" fill="black"/>
<path d="M539.02 115.715C546.609 122.511 548.815 133.632 548.286 143.43C547.403 160.465 538.226 176.088 527.548 188.886C520.401 197.448 512.106 204.95 503.37 211.835C502.928 212.188 502.311 211.57 502.752 211.217C520.048 197.624 536.549 180.677 544.05 159.494C548.197 147.843 549.345 133.985 543.344 122.688C542.109 120.304 540.432 118.186 538.402 116.333C537.961 115.979 538.579 115.362 539.02 115.715Z" fill="black"/>
<path d="M408.772 209.275C409.743 213.07 412.302 216.689 414.331 220.043C416.185 223.221 418.126 226.31 420.156 229.399C422.273 232.753 424.48 236.107 426.774 239.373C427.127 239.814 426.333 240.256 425.98 239.814C423.597 236.372 421.303 232.841 419.097 229.311C417.067 226.222 415.126 223.044 413.273 219.867C411.331 216.601 408.949 213.159 407.978 209.451C407.801 209.01 408.684 208.745 408.772 209.275Z" fill="black"/>
<path d="M311.88 307.16C315.145 308.308 312.939 310.956 310.909 312.015C308.88 313.074 307.115 311.926 305.35 313.78C303.585 315.634 298.291 317.222 294.055 316.163C289.819 315.104 288.407 314.31 284.525 314.751C280.642 315.192 278.524 315.192 276.406 313.692C271.553 317.84 269.964 317.575 267.935 315.81C265.905 314.045 269.7 309.367 272.17 306.631C274.641 303.894 277.112 297.098 282.848 297.363C288.584 297.628 294.231 300.54 296.79 301.158C299.35 301.776 304.732 302.57 306.056 303.188C307.38 303.806 307.556 304.689 307.556 304.689C310.38 304.247 313.292 304.071 311.88 307.16Z" fill="#FF9B7D"/>
<path d="M308.086 304.336C308.086 305.836 307.38 306.984 306.409 308.043C305.262 309.278 303.232 309.014 301.82 309.543C301.291 309.72 301.026 308.925 301.556 308.661C302.526 308.308 303.674 308.219 304.644 307.955C306.144 307.513 307.115 305.836 307.115 304.336C307.203 303.806 308.086 303.806 308.086 304.336Z" fill="black"/>
<path d="M312.233 307.072C311.439 308.396 310.556 309.367 309.056 309.896C307.909 310.338 306.762 310.514 305.615 311.044C304.909 311.397 304.379 311.573 303.585 311.662C303.056 311.75 303.056 310.867 303.585 310.779C304.997 310.602 306.321 309.632 307.733 309.278C309.409 308.837 310.556 308.131 311.439 306.631C311.792 306.101 312.586 306.542 312.233 307.072Z" fill="black"/>
<path d="M293.614 299.658C295.379 301.335 298.026 302.306 300.32 302.835C301.82 303.188 302.526 304.159 302.085 305.66C301.026 309.543 294.673 308.925 291.849 308.219C291.319 308.131 291.496 307.248 292.114 307.337C294.055 307.778 295.732 307.866 297.673 307.601C298.644 307.425 299.614 307.248 300.409 306.631C301.556 305.66 301.026 303.894 299.438 303.541C297.144 303.012 294.584 301.864 292.908 300.276C292.555 299.922 293.173 299.216 293.614 299.658Z" fill="black"/>
<path d="M306.674 313.25C305.527 313.25 304.732 312.986 303.85 312.279C302.261 311.044 299.702 311.75 297.761 311.573C294.32 311.132 291.937 309.278 288.937 307.778C288.407 307.513 288.848 306.719 289.378 306.984C292.643 308.661 295.114 310.602 298.996 310.779C300.232 310.867 301.556 310.426 302.791 310.779C304.203 311.132 305.085 312.368 306.674 312.456C307.203 312.368 307.203 313.25 306.674 313.25Z" fill="black"/>
<path d="M279.495 310.249C279.23 310.602 279.142 311.044 278.789 311.309C278.436 311.75 278.171 312.103 277.818 312.544C277.2 313.339 276.583 314.133 275.877 314.839C275.524 315.28 274.818 314.663 275.259 314.221C275.965 313.515 276.494 312.633 277.2 311.926C277.906 311.22 278.259 310.338 278.877 309.543C279.23 309.102 279.848 309.808 279.495 310.249Z" fill="black"/>
<path d="M168.837 151.903C174.749 150.491 178.72 142.282 178.102 135.398C177.485 128.513 170.249 121.452 161.865 117.568C153.394 113.685 140.599 105.211 122.244 113.949C103.977 122.688 106.713 143.341 97.1826 152.609C87.6523 161.877 68.2386 164.172 59.326 182.178C50.4133 200.184 61.9733 210.069 48.3837 221.279C34.7941 232.577 25.5285 249.259 45.9129 264.352C66.209 279.357 88.4465 270.883 88.4465 270.883C88.4465 270.883 145.452 249.7 156.659 232.224C166.542 216.866 162.748 211.746 160.277 207.068C157.806 202.39 160.895 197.977 163.895 193.122C166.895 188.268 164.689 180.412 157.453 175.47" fill="#734338"/>
<path d="M136.628 205.215C136.187 199.566 141.305 184.12 141.305 184.12C149.423 186.326 160.542 176.176 164.513 169.291C168.484 162.495 166.542 158.082 168.749 153.139C172.19 145.195 176.691 130.102 154.188 121.717C129.127 112.272 122.244 139.987 116.596 159.494C110.949 179 111.655 189.062 111.655 189.062L136.628 205.215Z" fill="#FFAB8F"/>
<path d="M146.599 302.57C146.246 307.601 145.364 315.369 145.364 315.369C146.335 328.52 155.071 395.16 150.041 429.583C124.98 432.672 38.677 430.818 38.677 430.818C42.7362 404.251 46.5307 363.208 58.9731 335.669C71.5037 308.131 76.1807 300.275 76.1807 300.275L78.0338 289.595C78.122 289.684 120.303 290.655 146.599 302.57Z" fill="#0C1C24"/>
<path d="M147.658 147.313C149.688 147.137 150.129 151.373 147.57 151.903C144.834 152.609 145.276 147.578 147.658 147.313Z" fill="black"/>
<path d="M163.101 152.521C165.131 152.344 165.572 156.581 163.013 157.111C160.277 157.728 160.719 152.697 163.101 152.521Z" fill="black"/>
<path d="M311.968 284.741C315.41 287.212 317.44 289.242 314.969 290.655C312.498 292.067 310.292 290.478 310.292 290.478C308.439 292.508 304.997 291.714 302.173 289.684C298.291 291.361 295.732 290.743 292.908 288.889C290.084 287.036 285.407 283.417 279.936 284.211C274.465 285.006 266.523 287.477 260.081 284.035C253.639 280.592 246.491 277.768 236.785 277.592C227.078 277.415 187.986 272.56 172.367 263.469C171.572 254.555 192.574 240.344 192.574 240.344C202.899 243.963 236.343 262.234 250.904 265.499C265.464 268.765 286.113 272.737 296.879 277.238C307.556 281.916 310.91 283.947 311.968 284.741Z" fill="#FFAB8F"/>
<path d="M301.291 289.419C302.262 286.594 297.32 285.094 295.467 284.3C292.819 283.152 290.613 281.299 287.878 280.416C287.348 280.239 287.613 279.357 288.143 279.533C291.584 280.769 294.673 282.887 298.026 284.388C300.055 285.271 303.056 286.948 302.173 289.595C301.997 290.213 301.114 289.949 301.291 289.419Z" fill="black"/>
<path d="M309.586 290.39C310.91 287.742 306.939 286.594 305.35 285.977C303.938 285.359 302.527 284.653 301.203 283.858C297.938 282.093 295.379 279.798 291.673 278.827C291.143 278.651 291.32 277.856 291.937 277.945C296.526 279.18 300.144 282.358 304.38 284.476C306.674 285.624 312.322 287.036 310.38 290.743C310.027 291.272 309.321 290.831 309.586 290.39Z" fill="black"/>
<path d="M157.365 121.805C157.189 126.659 156.306 131.161 150.306 133.103C144.393 134.956 138.393 133.103 138.393 142.37C138.393 151.638 137.775 160.553 130.539 163.201C123.303 165.849 122.421 165.407 122.597 172.557C122.774 179.795 120.126 187.297 108.39 187.738C96.6534 188.18 111.655 159.229 115.273 147.666C118.891 136.015 129.568 106.006 157.365 121.805Z" fill="#734338"/>
<path fill-rule="evenodd" clip-rule="evenodd" d="M193.633 241.138C195.486 239.285 190.368 234.607 180.926 231.782C180.662 224.986 168.749 219.778 161.954 218.366C155.159 216.954 118.097 189.504 110.772 186.414C103.536 183.325 87.7406 183.325 79.7986 196.741C71.8567 210.158 72.2979 235.666 75.8276 247.935C79.3574 260.115 70.886 271.413 69.7388 279.357C68.5917 287.301 76.5336 291.361 79.6222 291.096C82.7107 290.831 125.597 293.92 145.099 303.806C150.306 305.66 161.071 296.304 160.101 280.769C159.13 265.235 161.777 260.115 161.777 260.115C161.777 260.115 170.249 266.912 178.191 266.205C175.985 262.057 184.897 244.669 193.633 241.138Z" fill="#DB8363"/>
<path d="M155.777 152.344C155.512 154.198 156.394 154.992 157.542 156.228C158.159 156.934 158.159 157.905 157.894 158.699C157.453 160.2 154.541 161.347 153.129 161.259C152.6 161.259 152.6 160.376 153.129 160.376C154.1 160.376 154.982 159.847 155.777 159.405C157.453 158.523 157.277 157.111 155.953 155.875C154.806 154.816 154.629 153.757 154.894 152.256C154.982 151.726 155.865 151.726 155.777 152.344Z" fill="black"/>
<path d="M153.041 138.575C150.747 137.692 148.894 138.663 146.864 139.723C146.335 139.987 145.893 139.193 146.423 138.928C148.629 137.781 150.747 136.722 153.218 137.692C153.835 137.957 153.571 138.752 153.041 138.575Z" fill="black"/>
<path d="M169.984 147.225C170.072 145.46 168.307 143.606 166.895 142.9C166.366 142.635 166.807 141.841 167.337 142.106C169.101 142.988 170.955 145.107 170.866 147.225C170.866 147.843 169.984 147.843 169.984 147.225Z" fill="black"/>
<path d="M155.424 165.319C153.747 164.348 151.806 164.26 150.041 163.819C148.1 163.289 146.599 161.877 144.746 161.259C144.923 161.082 145.099 160.994 145.276 160.818C145.364 163.642 144.835 170.792 149.423 170.085C151.894 169.732 153.218 166.114 155.159 164.79C155.6 164.437 156.041 165.231 155.6 165.584C153.306 167.173 151.188 172.469 147.57 170.88C143.952 169.291 144.57 164.083 144.393 160.906C144.393 160.641 144.658 160.376 144.923 160.465C146.776 161.082 148.364 162.318 150.217 163.024C152.071 163.73 154.1 163.642 155.865 164.613C156.394 164.79 155.953 165.584 155.424 165.319Z" fill="black"/>
<path d="M149.688 170.262C148.982 168.32 147.217 166.82 145.629 165.672C145.187 165.319 145.629 164.613 146.07 164.878C147.923 166.114 149.776 167.791 150.57 169.997C150.747 170.615 149.864 170.792 149.688 170.262Z" fill="black"/>
<path d="M141.658 184.649C134.422 182.707 128.245 176.529 125.95 169.379C125.774 168.85 126.656 168.585 126.833 169.115C129.039 175.911 135.039 181.913 141.922 183.766C142.452 183.943 142.187 184.826 141.658 184.649Z" fill="black"/>
<path d="M183.75 233.195C181.191 232.841 178.808 234.518 176.691 235.666C174.661 236.725 172.984 238.049 171.396 239.726C168.219 243.168 165.572 247.67 165.219 252.348C165.131 252.877 164.248 252.877 164.336 252.348C164.778 247.229 167.513 242.904 170.778 239.108C172.72 236.902 175.102 235.489 177.661 234.165C179.691 233.106 181.632 232.047 183.927 232.4C184.544 232.4 184.28 233.283 183.75 233.195Z" fill="black"/>
<path d="M181.72 232.312C177.926 230.105 172.543 230.105 168.307 230.811C167.778 230.9 167.513 230.017 168.043 229.929C172.543 229.223 178.102 229.223 182.162 231.518C182.691 231.871 182.25 232.665 181.72 232.312Z" fill="black"/>
<path d="M170.602 265.676C168.749 264.881 166.984 263.999 165.307 262.851C163.807 261.792 162.483 260.556 160.895 259.586C158.953 258.438 156.659 257.909 154.541 257.202C152.335 256.496 150.129 255.79 147.923 255.084C139.54 252.348 131.333 249.7 123.479 245.64C116.243 241.844 109.184 237.873 102.918 232.577C99.83 230.017 97.0062 226.928 94.6236 223.75C91.888 220.22 89.9466 216.159 87.7405 212.276C87.4758 211.746 88.1818 211.305 88.5347 211.835C90.4761 215.277 92.1528 218.807 94.4471 222.073C97.0062 225.692 100.183 229.046 103.624 231.959C109.978 237.431 117.39 241.403 124.803 245.287C132.833 249.523 141.393 252.083 149.953 254.819C153.747 256.055 157.895 257.026 161.513 258.879C163.189 259.762 164.425 260.998 165.925 262.145C167.513 263.293 169.366 264.175 171.219 264.97C171.572 265.146 171.131 265.941 170.602 265.676Z" fill="black"/>
<path d="M88.3583 219.867C92.1528 225.957 95.5943 231.871 101.507 236.107C101.948 236.46 101.507 237.166 101.065 236.902C94.9766 232.577 91.5351 226.486 87.6524 220.308C87.2112 219.778 88.0053 219.337 88.3583 219.867Z" fill="black"/>
<path d="M142.54 314.751C140.069 313.956 137.775 312.897 135.304 312.279C132.48 311.485 129.833 310.249 127.097 309.278C121.803 307.425 116.332 306.277 110.772 305.218C104.948 304.159 99.2124 302.923 93.3883 302.394C87.7407 301.864 82.093 300.805 76.4454 300.629C75.916 300.629 75.916 299.746 76.4454 299.746C81.8283 299.922 87.2112 301.07 92.5941 301.423C98.2417 301.864 103.801 303.012 109.36 304.071C115.185 305.218 120.92 306.454 126.568 308.219C129.304 309.014 131.951 310.338 134.686 311.22C136.01 311.662 137.334 311.926 138.657 312.279C140.069 312.721 141.393 313.427 142.805 313.956C143.334 314.045 143.158 314.927 142.54 314.751Z" fill="black"/>
<path d="M89.1526 305.483C87.3878 310.426 86.3288 315.633 85.1817 320.753C84.6522 323.048 83.6815 325.254 82.9756 327.549C82.1814 330.109 81.4754 332.668 80.6812 335.228C79.0928 340.171 77.4162 345.114 75.916 350.145C74.4159 355.352 73.2687 360.648 72.1216 365.944C70.8862 371.417 69.739 376.889 69.1213 382.538C68.5035 387.922 68.1506 393.306 67.5329 398.69C66.9152 403.633 66.6504 408.488 65.768 413.342C64.8856 418.373 64.1796 423.493 63.4736 428.524C63.3854 429.053 62.5029 428.877 62.5912 428.259C63.2971 423.139 64.0031 418.108 64.8856 413.077C65.8562 407.693 66.2092 402.309 66.8269 396.925C67.4446 391.541 67.7976 386.157 68.4153 380.861C69.033 375.741 70.1802 370.71 71.2391 365.679C72.3863 360.383 73.5335 355.088 75.0336 349.88C76.4455 344.849 78.2104 339.906 79.7987 334.963C80.5047 332.668 81.2107 330.285 81.8284 327.99C82.5344 325.431 83.5932 323.048 84.2109 320.488C85.4464 315.369 86.417 310.161 88.1819 305.218C88.4467 304.689 89.3291 304.953 89.1526 305.483Z" fill="black"/>
<path d="M82.5342 315.192C78.9162 324.107 76.7101 333.375 73.9745 342.554C71.1507 352.087 68.7682 361.531 66.915 371.24C64.9737 381.39 63.2088 391.629 61.8851 401.956C61.3556 406.369 61.0027 410.871 60.1202 415.284C59.2378 419.962 57.2082 424.817 57.12 429.583C57.12 430.112 56.2375 430.112 56.2375 429.583C56.414 425.434 57.9141 421.374 58.7966 417.314C59.9437 412.195 60.2967 407.075 61.0027 401.956C62.2381 391.894 64.003 381.832 65.8561 371.858C67.7092 362.149 69.6506 352.44 72.8274 343.084C76.0042 333.728 77.8573 324.107 81.5635 314.927C81.9165 314.398 82.799 314.663 82.5342 315.192Z" fill="black"/>
<path d="M313.557 285.359C314.881 286.418 316.91 287.83 316.469 289.772C316.028 291.537 313.204 291.802 311.88 291.626C311.263 291.537 310.645 291.273 310.204 290.919C310.91 291.361 308.174 292.067 307.998 292.067C306.85 292.243 305.703 291.89 304.644 291.537C304.203 291.361 303.674 291.096 303.232 290.919C302.085 290.302 301.379 290.566 300.144 290.919C295.114 292.332 291.143 287.83 286.995 285.888C283.289 284.123 279.848 284.741 275.965 285.447C272.523 286.065 269.082 286.506 265.552 286.241C265.023 286.153 265.023 285.271 265.552 285.359C270.229 285.8 274.73 284.741 279.23 284.035C282.583 283.505 285.584 284.211 288.584 285.712C291.761 287.301 294.408 290.213 298.114 290.39C299.261 290.39 300.32 290.037 301.379 289.684C301.556 289.595 302.173 289.242 302.526 289.419C304.733 290.919 307.821 292.42 310.115 290.302C310.292 290.213 310.468 290.125 310.645 290.213C311.439 290.743 312.233 290.919 313.204 290.919C315.322 290.919 316.116 288.978 314.792 287.565C314.263 287.036 313.645 286.506 313.116 286.065C312.41 285.624 313.116 285.006 313.557 285.359Z" fill="black"/>
<path d="M97.2711 185.002C93.3001 186.503 89.1526 188.003 85.4464 190.033C82.0048 191.799 79.0928 194.623 76.269 197.183C73.2687 199.919 71.5038 202.92 70.6214 206.98C70.0037 210.158 69.7389 213.335 68.4153 216.248C67.3564 218.631 65.5032 220.661 63.2971 222.073C61.8852 223.044 60.2086 223.574 58.6202 224.456C57.0318 225.339 55.6199 226.398 54.1197 227.457C50.943 229.752 48.1192 232.4 46.619 236.107C45.0306 239.991 47.5014 242.992 50.6782 245.022C51.1194 245.287 50.6782 246.081 50.237 245.816C47.9426 244.404 46.0013 242.551 45.3836 239.814C44.7659 237.166 46.3543 234.077 48.0309 232.047C50.3252 229.134 53.2373 226.928 56.3258 224.898C60.0321 222.426 64.1796 221.455 66.8269 217.572C69.1212 214.129 69.2977 209.981 70.0919 206.009C70.7978 202.39 72.651 199.566 75.2983 197.094C78.1221 194.358 81.1224 191.71 84.4757 189.68C88.3584 187.297 93.0354 185.797 97.2711 184.208C97.624 183.943 97.8005 184.826 97.2711 185.002Z" fill="black"/>
</g>
</g>
<defs>
<clipPath id="clip0_254_2711">
<rect width="651" height="446" fill="white" transform="matrix(-1 0 0 1 651 0)"/>
</clipPath>
<clipPath id="clip1_254_2711">
<rect width="599" height="428" fill="white" transform="matrix(-1 0 0 1 633 0)"/>
</clipPath>
</defs>
</svg>
