<svg width="749" height="410" viewBox="0 0 749 410" fill="none" xmlns="http://www.w3.org/2000/svg">
<path d="M735.958 190.711C716.071 164.331 673.953 150.199 672.846 110.661C672.13 84.9626 684.401 71.0577 664.774 49.1283C617.352 -3.89224 544.216 -10.0975 481.788 12.0269C419.361 34.1513 369.497 78.53 300.104 75.8659C262.316 74.404 227.196 57.3477 189.798 54.1639C178.276 53.1893 167.503 54.034 157.445 56.4706C119.689 65.6647 86.3598 100.167 73.8287 138.535C63.6411 169.626 76.6604 200.295 60.6793 230.736C43.624 263.192 10.0993 285.739 1.63676 323.197C-8.51829 368.161 30.2467 407.244 71.8433 408.479C98.3376 409.258 123.5 408.479 169.944 408.479C210 408.479 224.267 407.731 256.196 408.479C316.997 409.843 373.5 408.479 440 408.479C501.5 408.479 549.39 406.984 601.5 408.479C639.777 409.583 664.774 408.479 683.457 377.193C708.161 329.923 777.652 246.071 735.958 190.711Z" fill="#BCFBD6"/>
<g clip-path="url(#clip0_302_356)">
<path d="M225.181 385H161.326C160.167 385 159.24 384.071 159.24 382.91V381.749C159.24 380.588 160.167 379.66 161.326 379.66H225.181C226.34 379.66 227.267 380.588 227.267 381.749V382.91C227.151 384.071 226.34 385 225.181 385Z" fill="#ADBEC4"/>
<path d="M629.753 385H612.253C611.094 385 610.167 384.071 610.167 382.91V381.749C610.167 380.588 611.094 379.66 612.253 379.66H629.753C630.912 379.66 631.839 380.588 631.839 381.749V382.91C631.839 384.071 630.912 385 629.753 385Z" fill="#ADBEC4"/>
<path d="M345.359 385H281.504C280.345 385 279.418 384.071 279.418 382.91V381.749C279.418 380.588 280.345 379.66 281.504 379.66H345.359C346.518 379.66 347.445 380.588 347.445 381.749V382.91C347.329 384.071 346.518 385 345.359 385Z" fill="#ADBEC4"/>
<path d="M439.114 385H375.259C374.1 385 373.173 384.071 373.173 382.91V381.749C373.173 380.588 374.1 379.66 375.259 379.66H439.114C440.273 379.66 441.2 380.588 441.2 381.749V382.91C441.084 384.071 440.273 385 439.114 385Z" fill="#ADBEC4"/>
<path d="M553.961 385H466.928C465.769 385 464.842 384.071 464.842 382.91V381.749C464.842 380.588 465.769 379.66 466.928 379.66H553.961C555.12 379.66 556.047 380.588 556.047 381.749V382.91C555.931 384.071 555.004 385 553.961 385Z" fill="#ADBEC4"/>
<path d="M246.621 94.4101C246.621 94.4101 239.899 89.7663 230.049 93.3653C220.198 96.8482 217.996 110.199 220.43 120.996C222.864 131.793 209.304 168.712 209.304 168.712C209.304 168.712 216.374 178.696 241.058 174.865C241.058 174.865 259.485 141.429 258.094 117.281C256.587 93.2492 246.621 94.4101 246.621 94.4101Z" fill="#0E3944"/>
<path d="M254.386 135.973C263.657 132.954 269.335 140.733 274.666 155.129C279.997 169.525 281.736 170.918 281.736 170.918L302.248 184.153L300.51 191.815C300.51 191.815 281.04 184.153 276.289 179.277C271.537 174.401 257.978 149.788 257.978 149.788L254.386 135.973Z" fill="#FFB38E"/>
<path d="M209.189 228.966C209.189 228.966 205.132 249.399 205.828 280.049C205.828 280.049 189.951 303.5 203.046 370.256H209.884C209.884 370.256 215.447 313.368 219.735 298.044C224.022 282.603 239.899 277.959 240.711 231.056L209.189 228.966Z" fill="#FFB38E"/>
<path d="M177.782 288.988C173.842 275.869 163.528 253.811 137.221 223.858C137.221 223.858 135.598 223.045 133.512 224.322C131.311 225.715 131.311 227.341 131.311 227.341C131.311 227.341 144.522 256.133 152.866 277.262C155.647 284.344 162.485 288.988 170.134 288.988H177.782Z" fill="#FFB38E"/>
<path d="M225.645 314.413C225.645 314.413 225.761 324.281 219.271 324.398C210.232 324.63 209.884 314.762 199.57 315.11C189.255 315.458 168.048 318.012 161.326 301.875C157.849 293.516 162.601 282.835 151.359 274.824C140.118 266.814 145.565 257.758 151.359 252.882C157.154 248.006 148.81 242.782 154.952 240.344C156.343 239.763 157.849 239.879 159.124 240.228C159.935 240.46 160.631 240.924 161.326 241.388C164.571 243.478 166.773 247.193 166.773 247.193C183.809 200.406 214.172 194.253 214.172 194.253L244.187 204.586C244.883 277.378 225.645 314.413 225.645 314.413Z" fill="#164353"/>
<path d="M254.386 135.973C254.386 135.973 247.432 138.295 237.466 136.785C227.499 135.276 224.254 129.007 217.301 133.07C206.755 139.107 211.738 160.005 214.404 170.802C215.331 174.865 216.605 185.43 214.288 194.253C214.288 194.253 228.31 205.166 244.303 204.586L252.995 185.546C252.879 185.546 271.885 162.791 254.386 135.973Z" fill="#CFD8DC"/>
<path d="M236.539 118.558C236.539 118.558 237.697 128.426 234.105 137.366C234.105 137.366 239.32 145.028 244.303 140.036C244.303 140.036 244.767 130.981 250.329 120.764C254.038 113.914 236.539 118.558 236.539 118.558Z" fill="#DF9470"/>
<path d="M228.658 118.79C228.658 118.79 224.254 116.004 224.718 120.3C225.297 125.292 230.165 126.221 230.628 124.479C231.208 122.854 228.658 118.79 228.658 118.79Z" fill="#FFB38E"/>
<path d="M253.806 113.45C253.806 113.45 256.587 109.038 257.978 113.102C259.601 117.862 255.66 120.764 254.386 119.487C253.111 118.094 253.806 113.45 253.806 113.45Z" fill="#FFB38E"/>
<path d="M244.651 133.651C236.654 135.392 231.092 131.213 227.615 115.656C225.761 107.645 228.774 101.724 237.697 99.7505C246.621 97.7769 251.488 101.84 253.227 109.851C257.051 126.685 252.879 131.793 244.651 133.651Z" fill="#FFB38E"/>
<path d="M250.686 118.228C251.632 117.835 252.141 116.893 251.822 116.123C251.503 115.353 250.478 115.047 249.532 115.44C248.586 115.833 248.078 116.775 248.396 117.545C248.715 118.315 249.74 118.621 250.686 118.228Z" fill="#F97F6B"/>
<path d="M233.988 121.904C235 121.745 235.716 120.949 235.588 120.126C235.459 119.302 234.534 118.763 233.523 118.922C232.511 119.08 231.795 119.876 231.924 120.7C232.052 121.524 232.977 122.063 233.988 121.904Z" fill="#F97F6B"/>
<path d="M246.389 108.806C246.273 108.806 246.273 108.806 246.157 108.69C244.767 107.761 242.912 108.226 242.797 108.226C242.565 108.342 242.333 108.11 242.333 107.877C242.333 107.645 242.449 107.413 242.681 107.413C242.797 107.413 244.998 106.832 246.621 107.993C246.853 108.11 246.853 108.342 246.737 108.574C246.621 108.69 246.505 108.806 246.389 108.806Z" fill="#0E3944"/>
<path d="M231.323 112.173C231.208 112.173 231.208 112.173 231.092 112.057C230.86 111.941 230.86 111.709 230.976 111.476C232.019 109.735 234.221 109.271 234.337 109.271C234.568 109.271 234.8 109.387 234.8 109.619C234.8 109.851 234.684 110.083 234.452 110.083C234.452 110.083 232.482 110.431 231.671 111.825C231.671 112.057 231.555 112.173 231.323 112.173Z" fill="#0E3944"/>
<path d="M246.107 115.255C246.669 115.129 246.944 114.215 246.72 113.214C246.496 112.213 245.859 111.504 245.297 111.63C244.735 111.756 244.46 112.67 244.684 113.671C244.908 114.672 245.545 115.381 246.107 115.255Z" fill="#1A4850"/>
<path d="M235.084 117.569C235.647 117.443 235.921 116.529 235.697 115.528C235.473 114.527 234.836 113.818 234.274 113.944C233.712 114.07 233.438 114.984 233.662 115.985C233.885 116.986 234.522 117.695 235.084 117.569Z" fill="#1A4850"/>
<path d="M239.204 124.944C239.204 124.944 244.303 124.479 246.505 122.622C246.505 122.622 245.926 126.569 243.144 126.917C240.363 127.149 239.204 124.944 239.204 124.944Z" fill="#1A4850"/>
<path d="M243.955 113.334C243.955 113.334 244.187 110.78 245.114 110.664C246.157 110.664 247.316 112.521 247.316 112.521L248.591 111.476L247.2 111.941C247.2 111.941 245.926 109.967 244.999 110.083C243.608 110.431 243.955 113.334 243.955 113.334Z" fill="#1A4850"/>
<path d="M236.307 115.307C236.307 115.307 235.032 112.986 234.105 113.45C233.178 113.798 232.946 116.12 232.946 116.12L231.323 115.656L232.83 115.54C232.83 115.54 233.062 113.218 233.989 112.986C235.264 112.637 236.307 115.307 236.307 115.307Z" fill="#1A4850"/>
<path d="M241.754 120.3L241.29 119.487C241.985 119.139 241.985 118.674 241.985 118.326C241.87 117.862 241.522 117.513 241.174 117.513C241.058 117.513 240.826 117.629 240.826 117.978L240.015 117.629C240.363 116.701 241.058 116.585 241.29 116.701C241.985 116.701 242.681 117.397 242.797 118.21C243.028 119.023 242.681 119.835 241.754 120.3Z" fill="#DB614D"/>
<path d="M229.238 121.693C229.238 121.693 226.804 112.637 228.194 106.252C228.194 106.252 235.148 96.616 248.475 101.376C248.475 101.376 252.415 107.761 254.386 116.701C254.386 116.701 254.849 113.45 253.574 106.368C252.3 99.1701 245.926 94.7584 237.234 96.1516C228.542 97.5447 219.271 106.252 229.238 121.693Z" fill="#0E3944"/>
<path d="M243.26 99.2862C243.26 99.2862 243.84 101.608 241.522 107.761C241.522 107.761 239.899 106.02 237.929 107.761C235.959 109.503 232.135 108.922 230.744 109.851C229.353 110.78 229.353 112.869 229.353 112.869C229.353 112.869 228.194 110.199 229.353 107.065C229.353 107.065 226.804 110.431 227.151 114.495C227.151 114.495 223.675 113.914 223.791 108.109C223.907 102.305 232.251 92.7847 241.522 93.4813C250.793 94.1779 252.995 108.806 252.995 108.806C252.995 108.806 252.184 108.11 250.793 108.458C250.793 108.458 250.561 105.323 248.475 101.376C248.475 101.376 249.402 104.162 248.475 107.297C248.475 107.297 245.926 105.904 243.84 106.368C243.84 106.252 245.114 103.814 243.26 99.2862Z" fill="#0E3944"/>
<path d="M214.867 134.928C219.387 131.329 222.864 135.857 223.791 142.126C224.602 148.395 216.49 185.43 210.116 184.153C207.682 183.572 206.639 173.936 206.639 173.936C206.639 173.936 209.073 163.488 210.695 147.815C211.506 140.617 212.434 136.785 214.867 134.928Z" fill="#FFB38E"/>
<path d="M201.656 178.928C195.514 173.124 184.62 153.852 181.839 143.983L186.474 142.126C186.474 142.126 200.381 162.094 206.755 167.087C213.129 172.079 215.331 177.768 212.549 182.527C209.652 187.287 202.931 180.206 201.656 178.928Z" fill="#FFB38E"/>
<path d="M183.809 131.213C183.461 137.482 188.676 138.991 186.358 143.867C185.895 144.912 185.199 145.377 184.388 145.609C182.997 146.073 181.375 145.609 180.332 144.564C177.898 142.126 174.074 139.456 172.104 138.295C169.786 137.018 171.061 136.669 171.061 136.669C170.829 136.553 170.597 136.437 170.365 136.437C168.743 135.741 167.468 135.508 168.627 134.812C169.902 133.999 174.653 135.741 174.653 135.741C168.511 131.677 166.889 132.606 167.932 131.793C169.438 130.632 175.233 133.303 175.465 133.419C172.22 130.4 169.902 129.704 171.177 129.239C172.451 128.775 178.941 133.419 181.259 135.16C181.839 135.508 182.07 135.857 182.07 135.857C182.186 130.516 183.809 131.213 183.809 131.213Z" fill="#FFB38E"/>
<path d="M181.375 134.928C181.954 135.276 182.186 135.624 182.186 135.624C182.186 135.624 181.143 137.482 182.534 139.92C182.65 139.92 179.984 138.179 181.375 134.928Z" fill="#EF6E4B"/>
<path d="M176.044 138.643C175.465 138.295 172.451 136.553 171.177 136.669C170.945 136.553 170.713 136.437 170.481 136.437C171.408 135.276 175.465 138.179 176.044 138.643Z" fill="#EF6E4B"/>
<path d="M199.106 233.378C199.81 233.378 200.381 232.806 200.381 232.101C200.381 231.395 199.81 230.824 199.106 230.824C198.402 230.824 197.831 231.395 197.831 232.101C197.831 232.806 198.402 233.378 199.106 233.378Z" fill="#6097B2"/>
<path d="M221.125 241.969C221.829 241.969 222.4 241.397 222.4 240.692C222.4 239.987 221.829 239.415 221.125 239.415C220.421 239.415 219.85 239.987 219.85 240.692C219.85 241.397 220.421 241.969 221.125 241.969Z" fill="#6097B2"/>
<path d="M240.015 246.497C240.719 246.497 241.29 245.925 241.29 245.22C241.29 244.514 240.719 243.943 240.015 243.943C239.311 243.943 238.74 244.514 238.74 245.22C238.74 245.925 239.311 246.497 240.015 246.497Z" fill="#6097B2"/>
<path d="M211.043 217.24C211.747 217.24 212.318 216.669 212.318 215.963C212.318 215.258 211.747 214.686 211.043 214.686C210.339 214.686 209.768 215.258 209.768 215.963C209.768 216.669 210.339 217.24 211.043 217.24Z" fill="#6097B2"/>
<path d="M215.215 228.966C215.919 228.966 216.49 228.394 216.49 227.689C216.49 226.984 215.919 226.412 215.215 226.412C214.511 226.412 213.94 226.984 213.94 227.689C213.94 228.394 214.511 228.966 215.215 228.966Z" fill="#6097B2"/>
<path d="M234.8 235.7C235.504 235.7 236.075 235.128 236.075 234.423C236.075 233.717 235.504 233.146 234.8 233.146C234.096 233.146 233.526 233.717 233.526 234.423C233.526 235.128 234.096 235.7 234.8 235.7Z" fill="#6097B2"/>
<path d="M237.466 215.383C238.17 215.383 238.74 214.811 238.74 214.106C238.74 213.4 238.17 212.829 237.466 212.829C236.762 212.829 236.191 213.4 236.191 214.106C236.191 214.811 236.762 215.383 237.466 215.383Z" fill="#6097B2"/>
<path d="M224.718 211.203C225.422 211.203 225.993 210.632 225.993 209.926C225.993 209.221 225.422 208.649 224.718 208.649C224.014 208.649 223.443 209.221 223.443 209.926C223.443 210.632 224.014 211.203 224.718 211.203Z" fill="#6097B2"/>
<path d="M188.213 257.642C188.917 257.642 189.487 257.07 189.487 256.365C189.487 255.66 188.917 255.088 188.213 255.088C187.508 255.088 186.938 255.66 186.938 256.365C186.938 257.07 187.508 257.642 188.213 257.642Z" fill="#6097B2"/>
<path d="M170.481 252.302C171.185 252.302 171.756 251.73 171.756 251.025C171.756 250.319 171.185 249.747 170.481 249.747C169.777 249.747 169.207 250.319 169.207 251.025C169.207 251.73 169.777 252.302 170.481 252.302Z" fill="#6097B2"/>
<path d="M161.21 241.389C160.978 241.737 160.631 241.969 160.167 241.969C159.472 241.969 158.892 241.388 158.892 240.692C158.892 240.576 158.892 240.344 159.008 240.228C159.82 240.576 160.515 240.924 161.21 241.389Z" fill="#6097B2"/>
<path d="M194.471 273.779C195.175 273.779 195.745 273.208 195.745 272.502C195.745 271.797 195.175 271.225 194.471 271.225C193.767 271.225 193.196 271.797 193.196 272.502C193.196 273.208 193.767 273.779 194.471 273.779Z" fill="#6097B2"/>
<path d="M162.833 291.31C163.537 291.31 164.107 290.738 164.107 290.033C164.107 289.328 163.537 288.756 162.833 288.756C162.129 288.756 161.558 289.328 161.558 290.033C161.558 290.738 162.129 291.31 162.833 291.31Z" fill="#6097B2"/>
<path d="M175.812 280.629C176.516 280.629 177.087 280.057 177.087 279.352C177.087 278.647 176.516 278.075 175.812 278.075C175.108 278.075 174.538 278.647 174.538 279.352C174.538 280.057 175.108 280.629 175.812 280.629Z" fill="#6097B2"/>
<path d="M156.459 271.225C157.163 271.225 157.734 270.654 157.734 269.948C157.734 269.243 157.163 268.671 156.459 268.671C155.755 268.671 155.184 269.243 155.184 269.948C155.184 270.654 155.755 271.225 156.459 271.225Z" fill="#6097B2"/>
<path d="M172.104 308.376C172.808 308.376 173.379 307.805 173.379 307.099C173.379 306.394 172.808 305.822 172.104 305.822C171.4 305.822 170.829 306.394 170.829 307.099C170.829 307.805 171.4 308.376 172.104 308.376Z" fill="#6097B2"/>
<path d="M183.809 243.13C184.513 243.13 185.084 242.558 185.084 241.853C185.084 241.148 184.513 240.576 183.809 240.576C183.105 240.576 182.534 241.148 182.534 241.853C182.534 242.558 183.105 243.13 183.809 243.13Z" fill="#6097B2"/>
<path d="M195.745 222.349C196.449 222.349 197.02 221.777 197.02 221.072C197.02 220.366 196.449 219.794 195.745 219.794C195.041 219.794 194.471 220.366 194.471 221.072C194.471 221.777 195.041 222.349 195.745 222.349Z" fill="#6097B2"/>
<path d="M209.189 204.934C209.893 204.934 210.463 204.362 210.463 203.657C210.463 202.952 209.893 202.38 209.189 202.38C208.485 202.38 207.914 202.952 207.914 203.657C207.914 204.362 208.485 204.934 209.189 204.934Z" fill="#6097B2"/>
<path d="M181.954 230.243C182.659 230.243 183.229 229.671 183.229 228.966C183.229 228.261 182.659 227.689 181.954 227.689C181.25 227.689 180.68 228.261 180.68 228.966C180.68 229.671 181.25 230.243 181.954 230.243Z" fill="#6097B2"/>
<path d="M196.904 209.926C197.608 209.926 198.179 209.355 198.179 208.649C198.179 207.944 197.608 207.372 196.904 207.372C196.2 207.372 195.63 207.944 195.63 208.649C195.63 209.355 196.2 209.926 196.904 209.926Z" fill="#6097B2"/>
<path d="M173.263 265.769C173.967 265.769 174.538 265.197 174.538 264.492C174.538 263.786 173.967 263.215 173.263 263.215C172.559 263.215 171.988 263.786 171.988 264.492C171.988 265.197 172.559 265.769 173.263 265.769Z" fill="#6097B2"/>
<path d="M157.734 254.856C158.438 254.856 159.008 254.284 159.008 253.579C159.008 252.873 158.438 252.302 157.734 252.302C157.029 252.302 156.459 252.873 156.459 253.579C156.459 254.284 157.029 254.856 157.734 254.856Z" fill="#6097B2"/>
<path d="M202.815 251.141C203.519 251.141 204.089 250.569 204.089 249.864C204.089 249.158 203.519 248.586 202.815 248.586C202.111 248.586 201.54 249.158 201.54 249.864C201.54 250.569 202.111 251.141 202.815 251.141Z" fill="#6097B2"/>
<path d="M228.426 257.642C229.13 257.642 229.701 257.07 229.701 256.365C229.701 255.66 229.13 255.088 228.426 255.088C227.722 255.088 227.151 255.66 227.151 256.365C227.151 257.07 227.722 257.642 228.426 257.642Z" fill="#6097B2"/>
<path d="M227.151 222.349C227.856 222.349 228.426 221.777 228.426 221.072C228.426 220.366 227.856 219.794 227.151 219.794C226.447 219.794 225.877 220.366 225.877 221.072C225.877 221.777 226.447 222.349 227.151 222.349Z" fill="#6097B2"/>
<path d="M241.985 224.903C242.69 224.903 243.26 224.331 243.26 223.626C243.26 222.92 242.69 222.349 241.985 222.349C241.281 222.349 240.711 222.92 240.711 223.626C240.711 224.331 241.281 224.903 241.985 224.903Z" fill="#6097B2"/>
<path d="M212.318 266.93C213.022 266.93 213.592 266.358 213.592 265.653C213.592 264.947 213.022 264.376 212.318 264.376C211.614 264.376 211.043 264.947 211.043 265.653C211.043 266.358 211.614 266.93 212.318 266.93Z" fill="#6097B2"/>
<path d="M201.54 288.988C202.244 288.988 202.815 288.416 202.815 287.711C202.815 287.006 202.244 286.434 201.54 286.434C200.836 286.434 200.265 287.006 200.265 287.711C200.265 288.416 200.836 288.988 201.54 288.988Z" fill="#6097B2"/>
<path d="M182.65 292.587C183.354 292.587 183.925 292.015 183.925 291.31C183.925 290.605 183.354 290.033 182.65 290.033C181.946 290.033 181.375 290.605 181.375 291.31C181.375 292.015 181.946 292.587 182.65 292.587Z" fill="#6097B2"/>
<path d="M234.8 273.779C235.504 273.779 236.075 273.208 236.075 272.502C236.075 271.797 235.504 271.225 234.8 271.225C234.096 271.225 233.526 271.797 233.526 272.502C233.526 273.208 234.096 273.779 234.8 273.779Z" fill="#6097B2"/>
<path d="M217.764 283.183C218.468 283.183 219.039 282.612 219.039 281.906C219.039 281.201 218.468 280.629 217.764 280.629C217.06 280.629 216.49 281.201 216.49 281.906C216.49 282.612 217.06 283.183 217.764 283.183Z" fill="#6097B2"/>
<path d="M192.037 310.814C192.741 310.814 193.312 310.242 193.312 309.537C193.312 308.832 192.741 308.26 192.037 308.26C191.333 308.26 190.762 308.832 190.762 309.537C190.762 310.242 191.333 310.814 192.037 310.814Z" fill="#6097B2"/>
<path d="M211.043 304.313C211.747 304.313 212.318 303.741 212.318 303.036C212.318 302.33 211.747 301.759 211.043 301.759C210.339 301.759 209.768 302.33 209.768 303.036C209.768 303.741 210.339 304.313 211.043 304.313Z" fill="#6097B2"/>
<path d="M229.469 297.115C230.173 297.115 230.744 296.543 230.744 295.838C230.744 295.132 230.173 294.561 229.469 294.561C228.765 294.561 228.195 295.132 228.195 295.838C228.195 296.543 228.765 297.115 229.469 297.115Z" fill="#6097B2"/>
<path d="M221.125 318.361C221.829 318.361 222.4 317.789 222.4 317.083C222.4 316.378 221.829 315.806 221.125 315.806C220.421 315.806 219.85 316.378 219.85 317.083C219.85 317.789 220.421 318.361 221.125 318.361Z" fill="#6097B2"/>
<path d="M221.009 382.33H200.729C199.454 378.499 201.888 374.784 201.424 371.417C200.729 365.728 203.974 368.863 203.974 368.863C204.553 362.826 213.013 361.665 213.013 364.335C212.897 368.282 213.592 370.836 214.751 372.462C217.069 375.828 220.778 375.712 221.473 378.15C221.589 378.382 221.589 378.615 221.589 378.847C222.284 381.749 221.009 382.33 221.009 382.33Z" fill="#164353"/>
<path d="M221.589 378.847C217.417 379.776 207.682 378.499 207.334 376.061C206.987 373.739 212.202 372.578 214.751 372.462C217.069 375.828 220.778 375.712 221.473 378.15C221.589 378.382 221.589 378.615 221.589 378.847Z" fill="#205260"/>
<path d="M137.569 224.671C135.367 222.697 131.89 225.948 131.89 225.948C131.89 225.948 133.744 228.734 132.585 229.895C131.311 231.056 129.92 228.386 127.486 229.547C127.254 229.663 127.139 229.779 126.907 229.895C125.053 231.056 123.082 233.378 121.46 235.119C121.112 235.468 120.881 235.816 120.533 236.164C118.679 238.138 113.927 239.183 113 234.074C112.073 228.966 117.867 222.929 124.241 217.356C130.615 211.784 134.671 215.151 134.671 215.151C134.671 215.151 136.062 217.473 136.062 218.982C136.062 220.375 137.337 221.188 138.032 222.581C138.959 223.858 137.569 224.671 137.569 224.671Z" fill="#164353"/>
<path d="M126.907 229.895C125.053 231.056 123.082 233.378 121.46 235.119C119.026 235.7 116.94 235.468 116.593 233.262C115.781 227.805 126.559 220.955 125.748 224.787C125.284 226.76 126.096 228.618 126.907 229.895Z" fill="#205260"/>
<path d="M503.085 373.506C502.042 372.926 501.115 371.765 500.304 370.372C500.304 370.372 499.609 366.076 500.304 361.432C500.999 356.905 499.029 353.19 492.655 351.796C486.397 350.403 482.689 353.422 484.079 366.076C483.152 371.301 482.92 377.338 485.122 382.33H504.36C504.36 382.33 507.489 375.828 503.085 373.506Z" fill="#CFD8DC"/>
<path d="M520.005 305.706C520.005 305.706 520.005 318.244 512.936 331.131C505.751 344.25 496.827 362.245 496.827 362.245C496.827 362.245 490.917 368.05 487.092 358.414C487.092 358.414 489.758 324.978 495.9 312.672C502.042 300.366 520.005 305.706 520.005 305.706Z" fill="#FF8B66"/>
<path d="M612.369 264.724C612.369 264.724 623.843 313.02 631.144 325.791C631.144 325.791 629.521 331.131 621.525 332.757C621.525 332.757 596.608 296.07 594.986 280.513C593.364 265.072 612.369 264.724 612.369 264.724Z" fill="#FF8B66"/>
<path d="M617.816 276.101C614.803 283.415 591.161 283.88 591.161 283.88L589.307 281.21L588.844 280.513L585.135 275.056C585.135 275.056 546.08 236.745 538.547 239.879C538.316 239.995 538.084 240.111 537.852 240.227C532.637 243.943 532.173 264.492 525.915 298.856C525.336 302.107 524.061 305.938 523.018 308.492C522.902 308.724 522.786 309.073 522.671 309.305C522.091 310.814 521.743 311.743 521.743 311.743C497.87 321.379 490.105 302.339 490.105 302.339C490.105 302.339 490.337 301.759 490.801 300.946C490.917 300.714 491.033 300.482 491.148 300.249C492.423 297.463 494.393 292.703 494.393 290.149C494.393 287.363 494.393 284.692 494.278 282.138C494.278 281.906 494.278 281.674 494.278 281.442C494.278 273.199 494.278 266.001 494.278 259.732V259.035C494.278 256.365 494.393 253.811 494.393 251.373V250.676C494.625 239.763 494.973 232.565 495.321 227.689C495.321 227.457 495.321 227.225 495.321 226.992C496.016 218.866 496.711 218.053 496.711 218.053L491.96 184.849H544.11C544.11 184.849 551.991 192.744 562.073 203.077C562.305 203.309 562.537 203.541 562.653 203.657C566.361 207.372 570.301 211.435 574.241 215.615C574.357 215.731 574.589 215.963 574.705 216.079C576.328 217.705 577.834 219.33 579.457 220.955C579.688 221.188 579.804 221.304 580.036 221.536C585.251 226.992 590.35 232.333 594.638 236.977C594.754 237.093 594.986 237.325 595.102 237.441C601.012 243.826 605.532 249.051 607.154 251.373C611.326 257.758 614.455 265.885 616.309 270.993C616.425 271.225 616.425 271.457 616.541 271.69C617.353 274.476 617.816 276.101 617.816 276.101Z" fill="#8B383E"/>
<path d="M504.592 223.277C502.506 225.831 499.377 227.341 495.437 227.921C495.437 227.689 495.437 227.457 495.437 227.225C499.145 226.644 502.158 225.251 504.128 222.813C507.721 218.633 507.141 212.829 507.141 212.829L507.837 212.713C507.837 213.061 508.416 218.866 504.592 223.277Z" fill="#662C33"/>
<path d="M562.768 203.889C562.537 203.889 562.421 203.889 562.189 203.889C556.394 203.889 550.368 197.504 550.021 197.272L550.484 196.807C550.6 196.923 556.626 203.193 562.189 203.309C562.305 203.541 562.537 203.773 562.768 203.889Z" fill="#662C33"/>
<path d="M523.25 308.608C523.134 308.841 523.018 309.189 522.902 309.421C519.078 310.814 515.485 311.395 512.24 311.395C501.926 311.395 494.857 305.474 490.917 300.946C491.033 300.714 491.149 300.482 491.264 300.249C496.248 306.17 506.91 314.761 523.25 308.608Z" fill="#662C33"/>
<path d="M537.157 227.921C537.968 231.636 538.547 235.7 538.547 239.879C538.316 239.995 538.084 240.111 537.852 240.227C537.852 220.723 526.611 205.631 526.495 205.398L526.958 205.05C527.074 205.166 533.68 214.222 536.925 227.225C538.2 226.412 539.127 225.135 539.475 223.51C541.097 216.66 533.68 205.515 533.68 205.398L534.26 205.05C534.607 205.515 541.908 216.544 540.17 223.626C539.822 225.599 538.779 226.992 537.157 227.921Z" fill="#662C33"/>
<path d="M595.218 237.789C593.247 239.879 591.509 241.621 591.277 241.853L590.93 242.201L590.814 241.737C588.264 235.119 572.04 220.839 571.924 220.607L571.692 220.375L574.357 215.847C574.473 215.963 574.705 216.195 574.821 216.312L572.503 220.027C575.632 221.072 577.95 221.304 579.457 221.072C579.688 221.304 579.804 221.42 580.036 221.652C579.457 221.768 578.993 221.768 578.298 221.768C576.791 221.768 575.169 221.42 573.314 220.955C577.023 224.322 588.38 234.887 591.046 240.808C592.089 239.763 593.363 238.486 594.638 237.093C594.87 237.441 595.102 237.557 595.218 237.789Z" fill="#662C33"/>
<path d="M506.214 282.022H505.983C505.751 282.138 502.854 282.719 499.493 282.719C497.754 282.719 496.016 282.603 494.394 282.138C494.394 281.906 494.394 281.674 494.394 281.442C498.681 282.719 504.36 281.674 505.635 281.442L504.592 254.623C504.012 256.133 502.738 258.106 500.536 259.267C499.493 259.848 498.218 260.08 496.943 260.08C496.132 260.08 495.321 259.964 494.509 259.848V259.151C496.711 259.616 498.681 259.499 500.304 258.687C503.085 257.294 504.128 254.391 504.476 253.23C502.274 253.579 497.986 252.418 494.741 251.489V250.792C498.334 251.837 503.085 253.114 504.824 252.534L505.287 252.418L506.214 282.022Z" fill="#662C33"/>
<path d="M616.541 272.038C612.833 275.753 605.184 281.442 593.363 281.442C592.088 281.442 590.814 281.326 589.423 281.21L588.959 280.513C603.33 282.138 612.253 275.405 616.309 271.457C616.425 271.574 616.541 271.806 616.541 272.038Z" fill="#662C33"/>
<path class="otherhand" d="M553.729 43.792C553.729 43.792 552.338 40.5413 546.196 40.5413C541.56 40.5413 539.706 43.0954 539.706 43.0954C536.925 51.2222 533.912 82.5682 532.869 83.6131C532.289 84.1936 497.754 107.529 497.754 107.529C516.528 107.877 528.233 131.097 528.233 131.097C528.813 123.434 550.02 93.3652 550.252 90.5789C550.832 85.4707 559.755 62.8318 553.729 43.792Z" fill="#CE364C"/>
<path d="M493.814 207.14C493.814 207.14 493.698 213.641 495.784 214.106C497.87 214.57 515.022 219.562 534.723 210.623C554.424 201.683 557.901 194.95 552.106 190.074C546.312 185.198 493.814 207.14 493.814 207.14Z" fill="#CE364C"/>
<path d="M485.818 111.941C485.818 111.941 467.855 109.851 457.54 114.263C457.54 114.263 454.643 127.033 468.782 155.593C482.92 184.153 479.675 202.148 495.552 208.881C509.691 214.918 551.411 197.04 552.686 191.119C555.931 176.258 530.435 150.02 528.929 134.812C527.422 119.719 512.588 96.9642 485.818 111.941Z" fill="#F24052"/>
<path d="M457.656 114.263C445.14 118.674 431.002 132.838 431.002 139.688C431.002 146.538 442.822 149.092 442.822 149.092L462.176 139.688C462.176 139.688 467.739 135.857 464.146 124.595C460.554 113.218 457.656 114.263 457.656 114.263Z" fill="#CE364C"/>
<path d="M509.112 126.917C505.403 126.917 500.767 125.524 497.87 123.55C496.248 122.389 495.321 121.112 495.089 119.835C494.394 115.424 498.681 113.102 498.913 112.986L499.493 114.147C499.377 114.263 495.784 116.12 496.364 119.603C496.48 120.532 497.291 121.577 498.566 122.505C501.81 124.827 507.373 126.221 511.082 125.524C512.704 125.292 513.747 124.595 514.327 123.783C514.906 122.738 514.442 121.461 514.442 121.461L515.601 120.996C515.601 121.112 516.297 122.738 515.485 124.363C514.79 125.64 513.399 126.453 511.429 126.801C510.618 126.801 509.923 126.917 509.112 126.917Z" fill="#CFD8DC"/>
<path d="M493.234 140.5C490.453 140.5 485.818 139.339 485.238 134.812C484.89 132.49 485.122 130.516 485.354 128.891C485.586 126.337 485.817 124.363 484.427 122.041C481.993 118.094 478.748 117.862 478.632 117.862L478.748 116.585C478.864 116.585 482.804 116.817 485.586 121.344C487.324 124.131 486.976 126.453 486.745 129.007C486.513 130.748 486.397 132.49 486.629 134.696C487.324 139.572 493.582 139.339 493.814 139.339L493.93 140.617C493.582 140.5 493.466 140.5 493.234 140.5Z" fill="#CFD8DC"/>
<path d="M497.175 117.397C497.175 117.397 506.678 110.896 504.36 103.93C502.158 96.9642 471.563 97.4286 463.683 105.788C455.802 114.147 480.718 119.719 480.718 119.719C482.689 115.772 494.973 115.307 497.175 117.397Z" fill="#CE364C"/>
<path d="M480.139 116.236C475.619 114.727 472.954 111.476 473.881 107.645C474.808 103.93 494.162 103.814 497.87 106.832C501.579 109.851 496.363 121.809 480.139 116.236Z" fill="#A02E44"/>
<path d="M477.937 105.672C477.937 105.672 481.877 112.521 480.023 116.236C480.023 116.236 493.698 120.996 493.698 113.334C493.698 113.334 491.148 107.645 492.076 103.93L477.937 105.672Z" fill="#EF6E4B"/>
<path d="M473.417 99.7506C473.417 99.7506 466.696 88.9536 467.275 78.7371C467.623 73.6288 470.172 71.5391 470.172 71.5391C470.172 71.5391 468.086 68.5206 470.288 63.9928C470.288 63.9928 473.417 67.7079 484.543 66.5469C495.205 65.386 496.363 73.0483 496.363 73.0483C504.012 74.2093 498.797 97.4286 493.466 99.7506H473.417Z" fill="#FFB878"/>
<path d="M470.52 89.7663C470.52 89.7663 466.696 85.9351 466.232 90.4629C465.653 95.6872 470.404 97.7769 471.331 96.1516C472.258 94.4101 470.52 89.7663 470.52 89.7663Z" fill="#FF8B66"/>
<path d="M497.522 89.9985C497.522 89.9985 501.347 86.1673 501.81 90.695C502.39 95.9194 497.638 98.0091 496.711 96.3838C495.9 94.7584 497.522 89.9985 497.522 89.9985Z" fill="#FF8B66"/>
<path d="M483.616 108.69C475.04 108.69 470.172 103.117 470.172 86.2833C470.172 77.5761 474.576 72.3517 484.195 72.3517C493.814 72.3517 497.87 77.6922 497.87 86.2833C497.87 104.394 492.539 108.69 483.616 108.69Z" fill="#FF8B66"/>
<path d="M493.398 94.2556C494.47 94.0683 495.214 93.1995 495.06 92.3152C494.906 91.431 493.913 90.866 492.841 91.0534C491.769 91.2407 491.025 92.1095 491.179 92.9938C491.333 93.8781 492.327 94.443 493.398 94.2556Z" fill="#DB614D"/>
<path d="M477.472 92.7164C477.53 91.8206 476.697 91.0369 475.611 90.966C474.526 90.895 473.598 91.5637 473.54 92.4595C473.482 93.3553 474.315 94.1389 475.4 94.2099C476.486 94.2808 477.414 93.6121 477.472 92.7164Z" fill="#DB614D"/>
<path d="M491.264 83.2648C491.149 83.2648 491.033 83.2648 490.917 83.1487C489.526 82.1038 487.556 82.4521 487.44 82.4521C487.208 82.4521 486.977 82.336 486.977 82.1038C486.977 81.8716 487.092 81.6395 487.324 81.6395C487.44 81.6395 489.758 81.1751 491.496 82.4521C491.728 82.5682 491.728 82.9165 491.612 83.0326C491.496 83.2648 491.38 83.2648 491.264 83.2648Z" fill="#FFB878"/>
<path d="M474.924 83.381C474.808 83.381 474.692 83.2649 474.692 83.2649C474.576 83.0327 474.576 82.8005 474.808 82.6844C476.43 81.4073 478.748 81.7556 478.864 81.7556C479.096 81.7556 479.212 81.9878 479.212 82.22C479.212 82.4522 478.98 82.5683 478.748 82.5683C478.748 82.5683 476.662 82.22 475.387 83.381C475.156 83.381 475.04 83.381 474.924 83.381Z" fill="#FFB878"/>
<path d="M489.294 90.1145C489.87 90.1145 490.337 89.2309 490.337 88.1409C490.337 87.0509 489.87 86.1672 489.294 86.1672C488.718 86.1672 488.251 87.0509 488.251 88.1409C488.251 89.2309 488.718 90.1145 489.294 90.1145Z" fill="#1A4850"/>
<path d="M477.937 90.1145C478.513 90.1145 478.98 89.2309 478.98 88.1409C478.98 87.0509 478.513 86.1672 477.937 86.1672C477.361 86.1672 476.894 87.0509 476.894 88.1409C476.894 89.2309 477.361 90.1145 477.937 90.1145Z" fill="#1A4850"/>
<path d="M472.838 74.2093C472.838 74.2093 481.993 77.5761 495.089 76.6473C495.089 76.6473 497.87 80.1302 497.522 92.4365C497.522 92.4365 505.171 70.262 482.804 70.262C460.438 70.262 470.52 91.856 470.52 91.856C470.52 91.856 468.782 78.2727 472.838 74.2093Z" fill="#FFB878"/>
<path d="M484.195 93.8296L483.5 93.133L485.238 91.3916C483.616 89.0697 483.616 83.7292 483.616 83.497H484.543C484.543 83.497 484.543 89.3018 486.165 91.1594L486.513 91.5077L484.195 93.8296Z" fill="#DB614D"/>
<path d="M478.517 96.616C478.517 96.616 486.977 96.9643 491.149 95.8033C491.149 95.8033 491.844 101.956 485.354 102.305C478.517 102.653 478.517 96.616 478.517 96.616Z" fill="#1A4850"/>
<path d="M514.558 119.835C516.181 119.487 515.949 123.783 514.558 122.505C513.052 121.344 512.936 120.184 514.558 119.835Z" fill="#CFD8DC"/>
<path d="M495.089 140.268C494.857 141.894 490.917 140.384 492.539 139.339C494.277 138.411 495.436 138.643 495.089 140.268Z" fill="#CFD8DC"/>
<path d="M477.821 149.092C477.821 149.092 475.272 155.709 475.388 159.308C475.503 163.023 476.778 162.559 476.778 162.559C476.778 162.559 474.808 163.372 474.46 165.461C474.113 167.551 479.444 169.176 479.791 169.176C480.139 169.176 483.963 167.783 483.963 167.783L484.775 155.709L481.414 153.619L477.821 149.092Z" fill="#EF6E4B"/>
<path d="M479.907 148.279C479.907 148.279 484.543 151.181 486.397 152.923C488.251 154.664 487.208 168.364 486.397 169.06C485.586 169.757 479.675 171.034 478.517 170.337C477.358 169.641 478.98 165.577 478.98 165.577C478.98 165.577 481.993 164.881 481.53 166.042C481.066 167.203 481.53 168.131 481.53 168.131L482.805 167.667C482.805 167.667 482.225 164.649 482.805 162.327C483.384 160.121 478.632 157.683 478.053 153.619C477.358 149.324 479.907 148.279 479.907 148.279Z" fill="#FF8B66"/>
<path d="M431.697 141.545C430.19 135.16 436.564 132.838 445.488 133.883C455.802 135.16 476.894 137.83 481.53 148.975C481.53 148.975 483.036 153.387 479.096 155.477C468.318 161.514 434.478 153.619 431.697 141.545Z" fill="#CE364C"/>
<path d="M463.914 137.366C463.914 137.366 451.63 132.258 445.488 131.793C439.462 131.213 453.948 136.553 463.914 137.366Z" fill="#A02E44"/>
<path class="otherhand" d="M555.931 26.6097C555.004 27.6545 553.497 31.834 553.497 31.834C552.802 35.3169 552.454 37.1745 551.295 38.7998C550.136 40.4252 550.716 43.2115 550.716 43.2115C550.716 43.2115 546.08 45.6495 542.14 42.631C542.14 42.631 542.604 39.8447 542.14 39.032C541.329 37.4066 538.779 36.594 537.852 33.4594C536.925 30.3248 534.26 26.7258 534.26 26.7258C534.26 26.7258 535.071 25.1004 536.461 26.0292C537.852 27.074 538.779 29.6282 539.475 29.8604C539.59 29.8604 539.822 29.9765 539.938 29.9765C540.518 30.0926 541.097 29.9765 541.445 29.6282C541.445 29.6282 541.561 29.6282 541.561 29.5121C542.835 28.0028 543.183 23.7072 543.067 21.7336C542.951 19.0634 543.067 15.2322 544.69 15.9288C546.312 16.5093 544.806 18.0185 546.08 24.0555L546.66 24.1716C546.776 24.636 547.935 20.5726 548.166 16.7414C548.398 14.0712 550.021 15.1161 550.484 15.9288C550.832 16.7414 550.252 19.4117 550.136 21.2692C550.021 22.5463 549.905 23.8233 549.905 24.636L550.6 24.9843C553.15 20.4565 552.338 18.599 553.845 18.4829C555.351 18.3668 554.772 22.198 553.961 23.7072C553.613 24.2877 553.265 25.6809 553.034 26.958C555.699 23.8233 555.351 22.3141 556.626 22.4302C557.901 22.5463 556.742 25.5648 555.931 26.6097Z" fill="#FF8B66"/>
<path class="otherhand" d="M544.342 33.8076C543.415 31.3696 540.17 30.2086 539.822 30.0926C540.402 30.2086 540.981 30.0926 541.329 29.7443C544.574 31.0213 544.342 33.8076 544.342 33.8076Z" fill="#EF6E4B"/>
<path d="M488.483 363.406C488.483 363.406 486.745 359.807 488.251 358.182C489.874 356.672 491.728 359.575 494.394 358.878C497.059 358.182 497.754 356.324 498.45 358.878C499.145 361.665 498.334 369.907 488.483 363.406Z" fill="#CFD8DC"/>
<path d="M498.681 363.29C498.681 363.29 491.38 365.844 487.672 363.29L488.599 366.425C488.599 366.425 496.48 367.237 497.638 365.264L498.681 363.29Z" fill="#ADBEC4"/>
<path d="M498.565 367.237C498.565 367.237 491.844 366.308 488.715 367.934V369.443C488.715 369.443 497.407 367.353 500.188 369.443L498.565 367.237Z" fill="#ADBEC4"/>
<path d="M488.367 372.81C488.367 372.81 489.642 369.675 493.698 369.443C497.754 369.211 500.536 371.417 500.536 371.417C500.536 371.417 494.046 368.746 488.367 372.81Z" fill="#ADBEC4"/>
<path d="M660 328.925C647.252 345.992 629.753 349.358 629.753 349.358C624.654 345.295 624.538 340.535 624.538 340.535C624.538 340.535 619.67 336.123 618.975 334.034C618.28 331.944 623.147 325.675 626.044 326.255C628.015 326.719 629.173 328.345 629.753 329.274C627.319 323.817 629.289 321.96 632.65 322.424C636.243 322.888 632.882 323.701 635.431 326.603C635.663 326.836 635.779 326.952 636.011 327.184C636.474 327.532 637.054 327.764 637.633 327.88C638.213 327.997 638.792 327.997 639.488 327.997C639.835 327.997 640.183 327.997 640.531 327.88C641.226 327.764 641.805 327.648 642.501 327.416C643.544 327.068 644.703 326.603 645.746 326.023C650.149 323.585 652.004 322.772 655.365 323.585C658.725 324.398 658.725 326.952 658.725 326.952L660 328.925Z" fill="#CFD8DC"/>
<path d="M660 328.925C647.252 345.991 629.753 349.358 629.753 349.358C638.676 345.527 646.789 340.535 652.351 334.382C658.03 328.113 660 328.925 660 328.925Z" fill="#ADBEC4"/>
<path d="M636.127 327.184C636.59 327.532 637.17 327.764 637.749 327.88C634.389 328.577 634.157 331.596 634.157 331.596L632.766 331.131C632.998 327.416 635.895 327.184 636.127 327.184Z" fill="#ADBEC4"/>
<path d="M638.329 331.828H636.822C636.243 329.738 636.938 328.461 637.749 327.648C638.329 327.764 638.908 327.764 639.604 327.764C637.749 329.622 638.329 331.828 638.329 331.828Z" fill="#ADBEC4"/>
<path d="M642.037 331.015L640.531 331.247C639.951 329.738 640.067 328.577 640.531 327.764C641.226 327.648 641.806 327.532 642.501 327.3C641.342 329.157 642.037 331.015 642.037 331.015Z" fill="#ADBEC4"/>
<path d="M498.797 172.079C498.797 172.079 502.158 189.958 495.437 197.04C488.715 204.121 493.119 198.317 495.205 189.145C497.175 179.973 495.668 170.337 498.797 172.079Z" fill="#CE364C"/>
<path d="M529.624 164.068C529.624 164.068 540.17 167.551 545.617 177.303C545.733 177.303 538.316 161.514 529.624 164.068Z" fill="#CE364C"/>
<path class="lefthand" d="M256.124 31.3697C257.515 31.3697 261.571 32.995 261.571 32.995C264.584 34.8526 266.206 35.8974 268.176 36.0135C270.147 36.2457 270.958 39.6125 270.958 39.6125C270.958 39.6125 278.722 41.354 279.186 36.3618C279.186 36.3618 274.782 30.2087 274.55 29.396C273.971 27.7707 275.014 25.2165 273.276 22.4302C271.537 19.6439 270.726 15.2322 270.726 15.2322C270.726 15.2322 268.988 14.6517 268.756 16.3932C268.524 18.1346 269.799 20.4566 269.567 21.2692C269.451 21.3853 269.451 21.5014 269.335 21.7336C268.988 22.198 268.524 22.5463 268.061 22.5463H267.945C265.975 22.5463 262.614 19.76 261.223 18.4829C259.253 16.6254 256.472 14.1874 255.776 15.8127C255.081 17.4381 257.283 17.322 260.875 22.3141L260.528 22.7785C260.76 23.1268 257.051 21.2692 254.038 18.9473C251.952 17.322 251.488 19.2956 251.952 20.1083C252.3 20.921 254.617 22.3141 256.124 23.4751C257.167 24.2878 258.094 25.1004 258.789 25.5648L258.558 26.3775C253.458 25.2165 252.647 23.359 251.604 24.4039C250.561 25.4487 253.69 27.6546 255.313 28.0029C256.008 28.1189 257.167 28.8155 258.326 29.5121C254.27 29.396 253.227 28.1189 252.531 29.1638C251.72 30.2087 254.733 31.3697 256.124 31.3697Z" fill="#FF8B66"/>
<path class="lefthand" d="M269.104 27.6546C267.829 25.3326 269.22 22.198 269.335 21.7336C268.988 22.198 268.524 22.5463 268.061 22.5463C266.902 25.9131 269.104 27.6546 269.104 27.6546Z" fill="#EF6E4B"/>
<path class="righthand" d="M485.354 31.3697C483.963 31.3697 479.907 32.995 479.907 32.995C476.894 34.8526 475.272 35.8974 473.302 36.0135C471.331 36.2457 470.52 39.6125 470.52 39.6125C470.52 39.6125 462.756 41.354 462.292 36.3618C462.292 36.3618 466.696 30.2087 466.928 29.396C467.507 27.7707 466.464 25.2165 468.202 22.4302C469.941 19.6439 470.752 15.2322 470.752 15.2322C470.752 15.2322 472.49 14.6517 472.722 16.3932C472.954 18.1346 471.679 20.4566 471.911 21.2692C472.027 21.3853 472.027 21.5014 472.143 21.7336C472.49 22.198 472.954 22.5463 473.417 22.5463H473.533C475.503 22.5463 478.864 19.76 480.255 18.4829C482.225 16.6254 485.006 14.1874 485.702 15.8127C486.397 17.4381 484.195 17.322 480.603 22.3141L480.95 22.7785C480.718 23.1268 484.427 21.2692 487.44 18.9473C489.526 17.322 489.99 19.2956 489.526 20.1083C489.178 20.921 486.861 22.3141 485.354 23.4751C484.311 24.2878 483.384 25.1004 482.689 25.5648L482.92 26.3775C488.02 25.2165 488.831 23.359 489.874 24.4039C490.917 25.4487 487.788 27.6546 486.165 28.0029C485.47 28.1189 484.311 28.8155 483.152 29.5121C487.208 29.396 488.251 28.1189 488.947 29.1638C489.758 30.2087 486.745 31.3697 485.354 31.3697Z" fill="#FF8B66"/>
<path class="righthand" d="M472.374 27.6546C473.649 25.3326 472.258 22.198 472.143 21.7336C472.49 22.198 472.954 22.5463 473.417 22.5463C474.576 25.9131 472.374 27.6546 472.374 27.6546Z" fill="#EF6E4B"/>
<path d="M416.863 268.091L401.913 175.213L371.898 178.58L341.883 175.213L326.933 268.091L319.748 358.182C319.748 358.182 322.065 365.612 337.015 360.504C337.015 360.504 348.141 276.914 349.879 275.173C351.617 273.315 369.233 218.75 369.233 218.75H374.795C374.795 218.75 392.41 273.315 394.149 275.173C395.887 277.03 407.013 360.504 407.013 360.504C421.962 365.612 424.28 358.182 424.28 358.182L416.863 268.091Z" fill="#0E3944"/>
<path d="M362.511 85.2385C364.365 87.0961 373.752 90.4629 378.62 85.2385L381.98 88.4892C381.98 88.4892 378.156 97.4287 371.55 97.777C364.829 98.1253 360.077 89.7663 360.077 89.7663L362.511 85.2385Z" fill="#0C476B"/>
<path class="righthand" d="M388.934 84.3097C400.059 79.5498 436.101 66.663 436.101 66.663C436.101 66.663 460.322 36.2457 465.305 31.718C465.305 31.718 470.636 32.6467 472.258 39.3803C472.258 39.3803 456.613 72.8162 448.153 82.4522C439.693 91.9721 396.698 112.753 396.698 112.753L388.934 84.3097Z" fill="#0C476B"/>
<path d="M349.879 83.6132C353.24 81.5234 369.812 92.6687 369.812 92.6687C369.812 92.6687 391.483 81.1751 396.582 83.381C396.582 83.381 401.218 89.5341 402.956 105.323C404.811 121.112 404.926 186.01 404.926 186.01C404.926 186.01 390.324 191.119 370.623 191.119C348.14 191.119 336.088 184.617 336.088 184.617C336.088 184.617 332.148 94.7585 349.879 83.6132Z" fill="#FFB878"/>
<path d="M363.438 81.8717C363.438 81.8717 365.872 89.418 363.438 92.3204C363.438 92.3204 365.872 97.5448 370.391 97.7769C375.606 98.0091 377.345 92.3204 377.345 92.3204C377.345 92.3204 374.563 85.0063 377.345 82.4522L363.438 81.8717Z" fill="#EF6E4B"/>
<path d="M357.412 74.4415C357.412 74.4415 352.313 64.6894 353.356 54.3568C354.399 43.9081 370.044 41.5862 380.59 46.6944C380.59 46.6944 377.461 43.6759 378.735 42.7471C380.01 41.9345 382.096 47.391 382.096 47.391C382.096 47.391 385.457 46.3461 385.921 47.391C386.384 48.4359 382.56 49.0164 382.56 49.0164C382.56 49.0164 389.397 52.8476 383.023 72.9323L357.412 74.4415Z" fill="#8B383E"/>
<path d="M356.6 68.2884C356.6 68.2884 352.892 64.5733 352.428 68.8689C351.849 73.9771 356.484 76.0669 357.412 74.4415C358.339 72.8162 356.6 68.2884 356.6 68.2884Z" fill="#FF8B66"/>
<path d="M383.023 68.5206C383.023 68.5206 386.732 64.8055 387.195 69.1011C387.775 74.2093 383.139 76.2991 382.212 74.6737C381.285 73.0484 383.023 68.5206 383.023 68.5206Z" fill="#FF8B66"/>
<path d="M369.464 86.7478C361.12 86.7478 356.369 81.2913 356.369 64.9216C356.369 56.4466 360.657 51.3383 370.044 51.3383C379.431 51.3383 383.371 56.5627 383.371 64.9216C383.255 82.4522 378.04 86.7478 369.464 86.7478Z" fill="#FF8B66"/>
<path d="M378.872 72.5701C379.943 72.3828 380.696 71.5654 380.553 70.7442C380.411 69.9231 379.426 69.4093 378.354 69.5965C377.282 69.7838 376.529 70.6013 376.672 71.4224C376.815 72.2435 377.8 72.7573 378.872 72.5701Z" fill="#DB614D"/>
<path d="M363.417 71.1579C363.471 70.3261 362.634 69.5944 361.549 69.5235C360.463 69.4526 359.539 70.0694 359.485 70.9012C359.431 71.733 360.267 72.4647 361.353 72.5356C362.438 72.6065 363.363 71.9897 363.417 71.1579Z" fill="#DB614D"/>
<path d="M376.765 62.2514C376.649 62.2514 376.533 62.2514 376.417 62.1353C375.259 60.9743 373.288 60.9743 373.173 60.9743C372.941 60.9743 372.709 60.8582 372.709 60.6261C372.709 60.3939 372.825 60.1617 373.057 60.1617C373.173 60.1617 375.49 60.0456 376.881 61.5548C376.997 61.6709 376.997 62.0192 376.881 62.1353L376.765 62.2514Z" fill="#8B383E"/>
<path d="M361.004 62.2514C360.888 62.2514 360.772 62.2514 360.772 62.1353C360.657 62.0192 360.657 61.6709 360.772 61.5548C362.163 60.0456 364.481 60.1617 364.597 60.1617C364.829 60.1617 365.06 60.3939 364.944 60.6261C364.944 60.8582 364.713 61.0904 364.481 60.9743C364.481 60.9743 362.395 60.9743 361.236 62.1353C361.236 62.1353 361.12 62.2514 361.004 62.2514Z" fill="#8B383E"/>
<path d="M374.911 68.5206C375.487 68.5206 375.954 67.6889 375.954 66.663C375.954 65.6371 375.487 64.8055 374.911 64.8055C374.335 64.8055 373.868 65.6371 373.868 66.663C373.868 67.6889 374.335 68.5206 374.911 68.5206Z" fill="#1A4850"/>
<path d="M363.785 68.5206C364.361 68.5206 364.828 67.6889 364.828 66.663C364.828 65.6371 364.361 64.8055 363.785 64.8055C363.209 64.8055 362.742 65.6371 362.742 66.663C362.742 67.6889 363.209 68.5206 363.785 68.5206Z" fill="#1A4850"/>
<path d="M364.829 77.8083C364.829 77.8083 372.246 78.7371 375.954 76.8796C375.954 76.8796 373.868 81.8717 369.812 81.4073C365.756 81.0591 364.829 77.8083 364.829 77.8083Z" fill="#1A4850"/>
<path d="M382.444 70.3782C382.444 70.3782 382.212 61.3226 378.619 54.2407C378.619 54.2407 372.361 57.1432 370.971 56.4466C369.58 55.75 372.245 54.2407 372.245 54.2407C372.245 54.2407 361.931 57.6075 361.352 56.911C360.772 56.2144 364.713 54.2407 364.713 54.2407L358.339 56.4466C358.339 56.4466 356.369 64.6894 357.18 70.3782C357.18 70.3782 354.398 65.6182 354.051 62.3675C353.703 59.1168 355.21 49.713 364.829 49.0164C374.447 48.3198 379.894 50.5256 382.328 54.9373C384.762 59.4651 384.53 64.9216 382.444 70.3782Z" fill="#8B383E"/>
<path d="M370.855 75.1381C370.044 75.1381 369.232 74.9059 369 74.9059L369.232 74.0932C370.159 74.3254 371.434 74.4415 371.782 74.0932C371.898 73.9771 371.898 73.6288 371.666 73.2805C370.507 70.7264 370.159 64.225 370.159 63.8767H371.087C371.087 63.9928 371.318 70.4942 372.477 72.9323C372.825 73.6288 372.825 74.2093 372.477 74.6737C372.13 75.022 371.55 75.1381 370.855 75.1381Z" fill="#DB614D"/>
<path d="M380.126 87.6765C380.126 87.6765 395.192 134.696 396.698 172.891C396.698 172.891 402.145 174.401 408.287 166.042C414.429 157.683 410.721 91.2755 399.016 80.2464C399.016 80.2464 393.685 78.9693 380.126 87.6765Z" fill="#105E99"/>
<path d="M382.56 95.9194C382.56 95.9194 385.225 89.6502 384.066 85.3546C382.908 81.059 378.62 85.3546 378.62 85.3546C378.62 85.3546 380.358 92.3204 382.56 95.9194Z" fill="#0C476B"/>
<path class="lefthand" d="M352.197 84.3097C341.071 79.5498 305.03 66.663 305.03 66.663C305.03 66.663 280.693 35.433 275.825 30.9053C275.825 30.9053 269.683 34.3882 269.335 41.5862C269.335 41.5862 284.633 72.9323 293.093 82.5683C301.553 92.2043 344.548 112.87 344.548 112.87L352.197 84.3097Z" fill="#0C476B"/>
<path d="M361.004 87.6765C361.004 87.6765 345.939 134.696 344.432 172.891C344.432 172.891 338.985 174.401 332.843 166.042C326.701 157.683 330.409 91.2755 342.114 80.2464C342.114 80.2464 347.445 78.9693 361.004 87.6765Z" fill="#105E99"/>
<path d="M358.57 95.9194C358.57 95.9194 355.905 89.6502 357.064 85.3546C358.223 81.059 362.511 85.3546 362.511 85.3546C362.511 85.3546 360.772 92.3204 358.57 95.9194Z" fill="#0C476B"/>
<path d="M437.376 382.33H407.36C405.274 370.372 408.635 358.414 408.635 358.414L422.31 356.092C423.585 363.638 425.091 366.657 427.177 368.166C428.684 369.327 430.538 369.675 432.74 370.372C435.29 371.301 436.68 372.926 437.376 374.667C438.766 378.266 437.376 382.33 437.376 382.33Z" fill="#662C33"/>
<path d="M437.492 374.783C430.075 375.712 413.85 377.338 414.777 373.042C415.588 369.443 422.426 368.514 427.177 368.282C428.684 369.443 430.538 369.791 432.74 370.488C435.406 371.301 436.796 372.926 437.492 374.783Z" fill="#8B383E"/>
<path d="M336.899 382.33H306.884C306.884 382.33 305.957 379.543 306.42 376.525C306.768 374.087 308.043 371.533 311.519 370.372C314.069 369.443 316.155 369.095 317.777 367.586C319.516 365.96 320.906 362.826 321.949 356.092L335.624 358.414C335.74 358.414 338.985 370.372 336.899 382.33Z" fill="#662C33"/>
<path d="M306.42 376.525C306.768 374.087 308.043 371.533 311.519 370.372C314.069 369.443 316.155 369.095 317.777 367.586C321.602 368.747 326.933 370.952 328.555 374.203C330.757 378.731 313.258 378.034 306.42 376.525Z" fill="#8B383E"/>
<path d="M552.338 380.24C552.338 381.517 552.222 382.446 552.222 382.446H515.717C515.717 381.749 515.717 381.053 515.717 380.24C516.181 370.72 519.194 362.361 519.194 362.361L528.349 358.414C529.16 363.174 531.13 366.076 533.68 368.05C534.375 368.63 535.071 368.979 535.766 369.443C536.114 369.675 536.461 369.791 536.809 369.907C537.62 370.256 538.316 370.488 539.127 370.72C542.372 371.649 545.617 371.881 547.819 372.229C551.759 372.926 552.338 377.454 552.338 380.24Z" fill="#164353"/>
<path d="M552.338 380.24C552.338 381.517 552.222 382.446 552.222 382.446H515.717C515.717 381.749 515.717 381.053 515.717 380.24H552.338Z" fill="#225866"/>
<path d="M535.766 369.443L530.667 371.068L529.624 369.211L533.68 368.05C534.375 368.63 535.071 369.095 535.766 369.443Z" fill="#225866"/>
<path d="M539.127 370.836L535.766 373.158L533.68 372.345L536.809 370.023C537.504 370.256 538.316 370.604 539.127 370.836Z" fill="#225866"/>
<path d="M413.039 380.24C412.923 381.517 412.575 382.446 412.575 382.446H388.238C387.891 381.749 387.659 381.053 387.543 380.24C385.109 368.63 401.334 354.35 401.334 354.35L406.433 361.2C406.433 361.2 405.854 372.113 410.141 374.435C412.923 375.828 413.27 378.382 413.039 380.24Z" fill="#164353"/>
<path d="M387.659 380.24H413.039C412.923 381.517 412.575 382.446 412.575 382.446H388.238C388.122 381.633 387.891 380.937 387.659 380.24Z" fill="#225866"/>
<path d="M409.214 373.506C409.214 373.506 399.016 371.184 394.265 374.203V372.578C394.265 372.578 402.956 368.398 409.214 373.506Z" fill="#225866"/>
<path d="M407.128 370.952C407.128 370.952 400.639 367.934 394.265 370.952L394.96 369.211C395.076 369.211 402.609 366.308 407.128 370.952Z" fill="#225866"/>
<path d="M541.329 276.682C541.329 286.434 532.637 366.192 532.637 366.192C523.945 367.005 516.992 365.264 516.992 365.264C514.558 324.862 514.326 290.033 514.326 290.033L472.722 258.803L472.606 258.687C472.606 258.687 472.49 259.383 472.142 260.66C470.056 269.832 461.365 308.144 457.772 316.967C453.6 326.952 408.519 368.979 408.519 368.979C400.175 367.818 392.99 361.781 392.99 361.781C409.214 334.846 431.349 307.796 431.349 307.796C433.088 298.044 434.362 276.45 435.058 260.312C435.058 260.08 435.058 259.848 435.058 259.616C435.521 248.702 435.753 240.46 435.753 240.46L428.104 224.787L476.546 207.024L487.44 220.955C487.44 220.955 489.874 223.277 493.814 226.992C494.046 227.109 494.162 227.341 494.393 227.457C508.995 241.388 541.329 272.386 541.329 276.682Z" fill="#8BBDDB"/>
<path d="M435.174 260.544C435.174 260.312 435.174 260.08 435.174 259.848C445.372 254.275 443.634 245.452 443.634 245.336L444.213 245.22C444.329 245.336 446.183 254.856 435.174 260.544Z" fill="#6097B2"/>
<path d="M472.142 252.766C472.49 254.739 472.722 256.829 472.838 259.035L472.722 258.919C472.722 258.919 472.606 259.616 472.258 260.893C471.795 245.684 465.537 236.744 465.537 236.628L466.116 236.28C466.232 236.396 470.172 242.085 472.026 251.953C479.443 245.452 472.142 231.985 472.142 231.868L472.722 231.52C472.722 231.752 480.37 245.916 472.142 252.766Z" fill="#6097B2"/>
<path d="M494.509 227.573C494.161 227.689 493.814 227.805 493.466 227.805C489.874 227.805 483.963 222.813 483.615 222.581L484.079 222.116C486.049 223.742 491.496 227.689 494.046 227.108C494.161 227.225 494.277 227.457 494.509 227.573Z" fill="#6097B2"/>
<path d="M431.697 141.545C431.697 141.545 446.415 139.223 453.832 143.867C461.249 148.627 470.868 160.817 470.868 160.817C470.868 160.817 459.395 162.327 458.12 170.105C458.12 170.221 449.776 150.369 431.697 141.545Z" fill="#ADBEC4"/>
<path d="M409.562 149.324C403.304 152.691 392.874 165.345 392.41 173.124C391.947 180.67 397.509 187.752 401.334 193.673C413.155 212.248 425.555 228.618 430.886 250.328C430.886 250.444 457.888 261.241 489.526 223.045C489.526 223.045 471.679 198.897 465.421 178.348C462.871 169.989 460.322 161.166 455.454 153.735C450.123 145.609 440.968 140.849 431.581 141.661C423.7 142.242 415.704 145.957 409.562 149.324Z" fill="#CFD8DC"/>
<path d="M407.012 141.545C407.012 141.545 410.953 148.395 409.098 152.11C409.098 152.11 422.773 156.87 422.773 149.208C422.773 149.208 420.224 143.519 421.151 139.804L407.012 141.545Z" fill="#B75E41"/>
<path d="M437.376 188.216C437.376 188.216 429.727 190.422 427.873 193.092C425.902 195.762 424.28 201.799 424.28 201.799H437.376L439.809 197.272L442.707 191.235L437.376 188.216Z" fill="#C1684B"/>
<path d="M424.744 133.883C424.744 133.883 430.075 131.677 426.598 115.54C424.28 104.859 421.035 103.35 418.833 103.233C418.833 103.233 416.284 99.2862 407.244 101.144C401.102 102.421 396.119 106.252 393.917 113.218C391.599 120.532 396.235 136.089 402.145 137.598L424.744 133.883Z" fill="#164353"/>
<path d="M426.018 122.97C426.018 122.97 429.379 118.326 430.654 122.854C432.161 128.194 427.525 131.213 426.25 129.703C425.091 128.194 426.018 122.97 426.018 122.97Z" fill="#C1684B"/>
<path d="M397.857 127.962C397.857 127.962 393.221 124.595 393.453 129.355C393.801 134.928 399.132 136.321 399.711 134.347C400.407 132.49 397.857 127.962 397.857 127.962Z" fill="#C1684B"/>
<path d="M415.588 145.028C424.512 143.519 428.568 136.901 425.671 119.371C424.164 110.315 418.717 105.555 408.635 107.181C398.668 108.806 395.307 115.075 396.814 124.131C400.059 142.938 406.317 146.537 415.588 145.028Z" fill="#C1684B"/>
<path d="M405.123 129.929C405.131 129.031 404.204 128.295 403.052 128.284C401.9 128.274 400.959 128.993 400.951 129.891C400.943 130.788 401.87 131.524 403.022 131.535C404.174 131.546 405.115 130.827 405.123 129.929Z" fill="#DB614D"/>
<path d="M421.743 128.393C422.865 128.132 423.61 127.211 423.407 126.337C423.204 125.463 422.13 124.966 421.007 125.227C419.885 125.489 419.14 126.41 419.343 127.284C419.546 128.158 420.621 128.655 421.743 128.393Z" fill="#DB614D"/>
<path d="M403.42 120.067C403.304 120.067 403.188 120.067 403.188 119.951C402.956 119.835 402.956 119.487 403.072 119.371C404.347 117.513 406.781 117.165 406.897 117.165C407.128 117.165 407.36 117.281 407.36 117.513C407.36 117.746 407.244 117.978 407.012 117.978C407.012 117.978 404.811 118.326 403.768 119.835C403.652 120.067 403.536 120.067 403.42 120.067Z" fill="#1A4850"/>
<path d="M420.224 117.281C420.108 117.281 419.992 117.281 419.992 117.165C418.601 116.12 416.4 116.468 416.4 116.468C416.168 116.468 415.936 116.352 415.82 116.12C415.82 115.888 415.936 115.656 416.168 115.54C416.284 115.54 418.717 115.075 420.572 116.352C420.803 116.468 420.803 116.817 420.687 116.933C420.456 117.281 420.34 117.281 420.224 117.281Z" fill="#1A4850"/>
<path d="M406.545 126.529C407.176 126.425 407.536 125.417 407.349 124.278C407.161 123.139 406.497 122.301 405.866 122.405C405.234 122.509 404.874 123.517 405.062 124.656C405.249 125.795 405.913 126.633 406.545 126.529Z" fill="#1A4850"/>
<path d="M418.5 124.671C419.131 124.567 419.491 123.559 419.304 122.42C419.116 121.281 418.452 120.443 417.82 120.547C417.189 120.652 416.829 121.659 417.017 122.798C417.204 123.937 417.868 124.775 418.5 124.671Z" fill="#1A4850"/>
<path d="M420.34 132.838C420.34 132.838 412.575 134.928 408.287 134.115C408.287 134.115 411.3 137.83 415.472 136.785C419.76 135.624 420.34 132.838 420.34 132.838Z" fill="#1A4850"/>
<path d="M420.687 111.244C420.687 111.244 410.605 118.558 397.973 119.139L398.321 130.4C398.321 130.4 386.5 108.574 409.91 104.743C433.203 100.912 426.482 125.176 426.482 125.176C426.482 125.176 425.671 114.727 420.687 111.244Z" fill="#0E3944"/>
<path d="M412.459 129.82L412.343 128.891C412.343 128.891 413.734 128.775 414.082 127.962C414.197 127.614 413.618 126.569 413.154 125.524C412.459 124.131 411.532 122.505 411.184 120.648L412.111 120.416C412.459 122.157 413.27 123.783 413.966 125.06C414.661 126.453 415.24 127.498 414.893 128.31C414.429 129.703 412.459 129.82 412.459 129.82Z" fill="#DB614D"/>
<path d="M426.134 111.244C409.214 103.814 393.222 119.139 393.222 119.139C393.222 119.139 391.367 106.716 394.612 103.814C395.423 103.001 396.351 102.421 397.278 101.84C404.811 97.0803 414.777 97.1964 419.297 98.8217C420.224 99.17 420.919 99.5183 421.383 99.9827C424.048 102.769 426.134 111.244 426.134 111.244Z" fill="#CE364C"/>
<path d="M424.048 108.458C424.048 108.458 409.794 105.671 396.582 114.495C396.582 114.495 395.771 106.484 397.278 101.84C404.811 97.0803 414.777 97.1964 419.297 98.8217C421.962 101.84 424.048 108.458 424.048 108.458Z" fill="#CFD8DC"/>
<path d="M394.612 117.746C394.612 117.746 396.814 108.11 399.943 105.439C405.042 100.912 419.181 99.4023 426.714 102.072C434.247 104.743 426.714 112.986 426.714 112.986C426.714 112.986 414.777 104.394 394.612 117.746Z" fill="#A02E44"/>
<path d="M416.631 181.483C416.631 181.483 422.426 190.538 432.392 195.879C432.392 195.879 444.793 185.082 460.901 186.01C460.901 186.01 447.574 210.042 436.101 212.713C430.075 214.106 408.287 199.71 408.287 199.71C408.287 199.71 412.575 184.501 416.631 181.483Z" fill="#C1684B"/>
<path d="M395.192 165.113C400.523 156.406 412.807 169.292 416.979 178.464C421.151 187.636 424.164 189.609 424.164 189.609C424.164 189.609 411.88 194.718 411.996 204.005C411.996 204.005 383.487 184.153 395.192 165.113Z" fill="#ADBEC4"/>
<path d="M432.276 191.931C432.276 191.931 439.809 184.617 464.378 174.981L461.249 164.997C464.03 161.282 469.245 161.282 469.245 161.282C469.245 161.282 481.877 179.161 479.675 184.385C478.285 187.752 451.978 191.235 432.276 191.931Z" fill="#B75E41"/>
<path d="M459.279 177.419C459.279 177.419 459.511 176.374 460.438 175.097C461.365 173.82 461.133 171.498 461.481 170.802C461.828 170.105 463.799 167.087 465.073 166.506C466.348 165.926 468.086 164.997 468.434 166.622C468.782 168.248 466.116 167.783 464.957 170.105C464.957 170.105 467.623 169.292 469.593 169.757C471.679 170.221 472.258 172.195 469.709 172.079C467.623 172.079 465.073 173.472 465.073 173.472C465.073 173.472 467.739 173.82 467.275 175.097C466.464 176.723 463.219 175.678 459.279 177.419Z" fill="#C1684B"/>
<path d="M277.332 210.971C279.534 216.66 288.573 226.296 288.573 226.296C288.573 226.296 310.592 213.061 320.675 218.633C330.873 224.206 338.869 227.573 345.475 225.135C352.081 222.697 323.804 171.266 323.804 171.266L287.183 157.218C287.183 157.218 286.371 166.506 282.199 168.131C278.027 169.757 273.508 185.082 273.855 187.984C274.203 191.003 277.332 210.971 277.332 210.971Z" fill="#3E6575"/>
<path d="M318.589 226.528C318.589 226.528 309.201 245.104 289.616 268.787C289.616 268.787 287.646 296.999 236.075 341.464L230.628 337.168C230.628 337.168 261.339 288.988 267.481 274.244C273.623 259.499 264.12 245.916 292.282 208.649L318.589 226.528Z" fill="#EF6E4B"/>
<path d="M288.457 193.789C280.345 209.346 277.564 229.314 277.564 229.314L273.855 238.718C273.855 238.718 286.951 245.8 302.132 248.354L308.158 232.217L288.457 193.789Z" fill="#662C33"/>
<path d="M330.873 225.135C330.873 225.135 334.929 245.568 334.234 276.217C334.234 276.217 350.111 299.669 337.015 366.425H330.178C330.178 366.425 324.615 309.537 320.327 294.212C316.039 278.772 300.162 274.128 299.351 227.225L330.873 225.135Z" fill="#FF8B66"/>
<path d="M334.929 246.961C334.929 246.961 322.065 249.283 299.235 248.238L298.887 245.684L298.771 244.987L296.454 228.386C296.454 228.386 294.252 225.715 292.05 221.304C291.818 220.839 291.47 220.259 291.239 219.678C288.225 213.177 285.444 203.657 288.457 193.789L293.209 194.021H293.904L310.013 194.718H310.708L316.039 194.95H316.85L320.327 195.066C320.327 195.066 337.71 210.739 334.581 239.763L334.813 243.826V244.523L334.929 246.961Z" fill="#8B383E"/>
<path d="M293.904 194.021C293.441 195.298 290.427 205.166 291.934 221.304C291.702 220.839 291.354 220.259 291.123 219.678C289.964 204.934 292.629 195.762 293.209 193.905C293.325 193.673 293.325 193.557 293.325 193.557L293.904 193.789C294.02 193.905 294.02 193.905 293.904 194.021Z" fill="#662C33"/>
<path d="M334.813 244.639C330.294 245.8 322.529 246.148 315.112 246.148C308.506 246.148 302.248 245.916 298.887 245.684L298.771 244.987C304.566 245.22 319.748 245.916 329.598 244.755L329.019 234.423C329.135 222.349 325.542 212.016 321.949 204.818C313.026 203.193 310.592 196.575 310.013 194.718C309.897 194.369 309.897 194.253 309.897 194.253L310.476 194.137C310.476 194.137 310.476 194.369 310.592 194.718C311.172 196.691 313.605 202.38 321.486 204.005C319.052 199.361 316.85 196.111 315.923 194.95C315.691 194.601 315.46 194.369 315.46 194.369L315.923 193.905C315.923 193.905 316.271 194.253 316.734 194.95C319.748 199.013 329.83 214.338 329.482 234.307L330.062 244.639C331.8 244.407 333.307 244.175 334.581 243.826L334.813 244.639Z" fill="#662C33"/>
<path d="M301.9 123.899C296.801 121.112 259.832 135.624 259.832 135.624C259.832 135.624 254.386 145.377 257.746 149.208C261.107 153.039 273.276 151.297 276.868 149.208C280.577 147.118 290.311 145.493 290.311 145.493L301.9 123.899Z" fill="#8BBDDB"/>
<path d="M334.466 93.0169C334.466 93.0169 342.114 95.9194 344.896 104.743C347.677 113.566 339.333 135.857 342.23 146.073C345.127 156.29 344.664 175.678 335.624 179.741C326.585 183.804 308.159 176.49 304.218 165.345C300.278 154.2 302.016 111.825 309.549 97.4286C317.314 83.1487 332.727 90.3467 334.466 93.0169Z" fill="#F24052"/>
<path d="M325.774 130.981C327.744 133.186 332.959 129.239 332.959 129.239C332.959 129.239 332.843 148.395 327.28 149.904C321.718 151.414 307.463 134.812 308.043 130.284C308.622 125.872 321.254 126.221 325.774 130.981Z" fill="#8BBDDB"/>
<path d="M304.334 126.221C304.334 126.221 310.013 130.981 319.748 133.302C329.598 135.624 334.929 130.981 339.912 137.25C347.445 146.77 335.161 164.3 328.787 173.356C326.353 176.723 321.254 186.126 320.327 195.182C320.327 195.182 303.291 200.174 288.573 193.673L287.53 172.775C287.414 172.891 278.143 144.68 304.334 126.221Z" fill="#0E3944"/>
<path d="M321.949 146.538C321.949 146.538 329.714 127.962 332.032 126.801C334.234 125.64 340.028 128.426 341.187 130.981C342.346 133.535 341.187 139.107 341.187 139.107C341.187 139.107 334.929 132.142 321.949 146.538Z" fill="#8BBDDB"/>
<path d="M359.15 225.135C355.557 232.449 346.982 234.423 346.982 234.423C346.982 234.423 346.286 233.378 345.243 231.636C345.127 231.404 345.011 231.288 344.896 231.056C338.058 219.911 317.198 184.501 317.546 165.926C318.009 143.867 332.379 131.793 332.379 131.793C339.681 133.535 341.998 135.508 341.998 135.508C341.998 135.508 344.432 148.047 342.23 163.139C340.028 178.232 335.856 182.179 337.942 183.34C340.028 184.501 337.942 186.707 337.942 186.707C337.942 186.707 349.995 203.657 352.312 208.881C353.819 212.364 356.253 218.169 357.875 221.768C357.991 222 358.107 222.232 358.223 222.465C358.686 224.09 359.15 225.135 359.15 225.135Z" fill="#6097B2"/>
<path d="M338.174 135.508C338.174 135.508 329.482 141.894 334.581 151.762L358.571 176.723C345.359 190.77 344.084 196.575 334.581 203.077L338.174 208.649C338.174 208.649 371.55 182.992 371.666 176.723C371.55 174.052 351.154 141.661 338.174 135.508Z" fill="#FF8B66"/>
<path d="M334.002 203.077C334.002 203.077 329.366 203.541 326.585 204.354C323.688 205.05 319.863 205.747 319.747 206.443C319.631 207.024 326.121 206.443 326.121 206.443C326.121 206.443 320.79 208.649 320.675 209.462C320.559 210.275 327.396 208.881 327.396 208.881C327.396 208.881 323.108 211.552 323.34 212.248C323.572 212.945 328.903 211.203 328.903 211.203C328.903 211.203 327.86 213.757 326.933 214.918C326.933 214.918 327.976 215.499 330.062 213.177C332.148 210.855 335.508 211.552 338.174 209.578C340.723 207.256 336.436 202.728 334.002 203.077Z" fill="#FF8B66"/>
<path d="M309.433 129.355C309.433 129.355 302.828 133.651 298.656 143.983C294.484 154.316 281.388 173.704 278.259 178.696C275.13 183.688 277.332 210.971 277.332 210.971C277.332 210.971 273.507 194.485 271.769 187.984C270.031 181.483 277.332 165.577 278.375 164.765C279.418 163.952 285.096 165.461 283.938 158.96C282.779 152.458 297.844 124.595 301.785 123.899C301.9 123.899 308.274 125.06 309.433 129.355Z" fill="#6097B2"/>
<path d="M289.037 130.748C288.921 130.981 288.805 131.213 288.689 131.445C287.182 133.651 284.401 135.276 284.401 135.276C284.401 135.276 279.418 142.358 279.302 143.171C279.302 143.867 270.61 150.137 266.67 150.02C266.09 150.02 265.743 149.904 265.395 149.556C263.077 147.35 273.16 129.239 275.362 125.292C275.478 125.06 275.593 124.827 275.709 124.711C275.709 124.595 275.825 124.595 275.825 124.595C275.825 124.595 274.087 117.978 281.504 119.255C287.646 120.3 288.921 125.176 289.5 128.426C289.616 129.123 289.5 129.936 289.037 130.748Z" fill="#6097B2"/>
<path d="M263.193 137.598C268.292 130.864 286.255 117.862 295.642 114.03L297.96 118.442C297.96 118.442 279.765 134.463 275.478 141.313C271.19 148.163 265.859 151.065 260.875 148.743C255.776 146.538 262.15 138.991 263.193 137.598Z" fill="#FF8B66"/>
<path d="M287.298 129.355L286.371 130.516L285.908 131.097L284.285 132.954C284.285 132.954 280.229 137.83 280.461 139.804C280.577 141.197 272.812 147.466 266.786 150.136C264.352 151.181 262.15 151.646 260.875 150.949C256.472 148.395 257.515 140.849 259.948 135.74C262.15 131.213 271.653 125.524 274.087 124.015C274.435 123.783 274.55 123.666 274.666 123.666L275.593 120.067C275.593 120.067 278.954 118.094 281.504 119.255C281.504 119.255 275.709 119.487 276.636 121.809C277.679 123.899 285.676 129.239 287.298 129.355Z" fill="#8BBDDB"/>
<path d="M308.274 110.78C302.48 113.218 303.291 118.442 297.96 118.442C294.599 118.442 294.252 114.611 294.252 114.611C295.758 111.36 296.685 105.904 296.917 103.233C297.149 100.563 297.96 101.608 297.96 101.608C297.96 101.376 297.96 101.144 297.96 100.911C297.844 99.17 297.613 97.893 298.771 98.5896C300.046 99.4022 300.51 104.394 300.51 104.394C301.553 97.0803 299.93 96.0354 301.205 96.6159C302.943 97.5447 302.943 103.93 302.943 104.162C304.334 99.8666 303.986 97.5447 304.914 98.4735C305.841 99.4022 304.45 107.181 303.871 110.083C303.755 110.78 303.639 111.128 303.639 111.128C308.274 108.922 308.274 110.78 308.274 110.78Z" fill="#FF8B66"/>
<path d="M303.871 110.199C303.755 110.896 303.639 111.244 303.639 111.244C303.639 111.244 301.553 111.012 299.93 113.334C299.93 113.334 300.394 110.199 303.871 110.199Z" fill="#EF6E4B"/>
<path d="M298.308 106.832C298.308 106.252 298.656 102.653 297.96 101.608C297.96 101.376 297.96 101.144 297.96 100.911C299.235 101.26 298.424 106.136 298.308 106.832Z" fill="#EF6E4B"/>
<path d="M301.9 137.598C301.9 137.598 305.841 126.917 307.115 124.479C308.39 122.041 314.88 122.506 319.863 123.434C324.847 124.363 325.774 130.981 325.774 130.981C325.774 130.981 310.708 123.899 301.9 137.598Z" fill="#8BBDDB"/>
<path d="M327.28 116.585C327.28 116.585 322.529 125.292 322.645 135.044C322.645 135.044 314.996 140.268 312.215 133.767C312.215 133.767 315.112 125.176 313.721 113.682C312.794 105.788 327.28 116.585 327.28 116.585Z" fill="#EF6E4B"/>
<path d="M312.215 104.511C312.215 104.511 310.824 99.5184 308.274 103.001C305.377 107.065 308.274 111.012 309.897 110.083C311.403 109.154 312.215 104.511 312.215 104.511Z" fill="#FF8B66"/>
<path d="M334.465 117.281C334.465 117.281 339.449 115.888 337.71 119.835C335.74 124.479 330.873 123.899 330.873 122.157C330.873 120.416 334.465 117.281 334.465 117.281Z" fill="#FF8B66"/>
<path d="M314.301 126.337C307.231 122.389 305.841 115.424 313.605 101.492C317.661 94.294 323.803 91.9721 331.684 96.3837C339.68 100.911 340.492 107.181 336.435 114.379C328.091 129.355 321.602 130.4 314.301 126.337Z" fill="#FF8B66"/>
<path d="M331.368 117.983C331.646 117.197 331.088 116.283 330.123 115.94C329.158 115.598 328.15 115.958 327.872 116.743C327.595 117.529 328.152 118.444 329.118 118.786C330.083 119.128 331.091 118.769 331.368 117.983Z" fill="#DB614D"/>
<path d="M316.559 110.114C317.013 109.416 316.686 108.396 315.829 107.835C314.971 107.275 313.907 107.386 313.452 108.085C312.998 108.783 313.325 109.803 314.183 110.364C315.04 110.924 316.104 110.812 316.559 110.114Z" fill="#DB614D"/>
<path d="M332.38 109.038C332.148 109.038 332.032 108.922 332.032 108.69C331.684 107.065 329.83 106.136 329.83 106.136C329.598 106.02 329.598 105.788 329.714 105.555C329.83 105.323 330.062 105.323 330.294 105.439C330.409 105.439 332.38 106.6 332.843 108.458C332.843 108.69 332.727 108.922 332.38 109.038Z" fill="#1A4850"/>
<path d="M322.645 102.072C322.529 102.072 322.529 102.072 322.413 101.956C322.413 101.956 320.675 100.912 319.168 101.376C318.936 101.492 318.704 101.376 318.704 101.144C318.589 100.912 318.704 100.679 318.936 100.679C320.79 100.099 322.761 101.26 322.876 101.26C323.108 101.376 323.108 101.608 322.992 101.84C322.876 101.956 322.761 102.072 322.645 102.072Z" fill="#1A4850"/>
<path d="M329.439 112.345C329.942 111.451 329.942 110.497 329.44 110.214C328.938 109.931 328.124 110.426 327.622 111.32C327.119 112.214 327.119 113.168 327.621 113.451C328.123 113.734 328.937 113.239 329.439 112.345Z" fill="#1A4850"/>
<path d="M319.472 107.025C319.974 106.131 319.975 105.177 319.473 104.894C318.971 104.611 318.157 105.106 317.654 106C317.151 106.894 317.151 107.848 317.653 108.131C318.155 108.414 318.969 107.919 319.472 107.025Z" fill="#1A4850"/>
<path d="M316.039 116.12C316.039 116.12 320.095 119.255 323.108 119.371C323.108 119.371 319.979 121.925 317.777 120.3C315.46 118.558 316.039 116.12 316.039 116.12Z" fill="#1A4850"/>
<path d="M327.28 110.548C327.28 110.548 329.135 108.69 329.946 109.387C330.757 109.967 330.293 112.289 330.293 112.289H331.916L330.525 111.708C330.525 111.708 330.989 109.387 330.178 108.922C329.019 108.342 327.28 110.548 327.28 110.548Z" fill="#1A4850"/>
<path d="M320.211 106.949C320.211 106.949 320.79 104.394 319.863 104.046C318.936 103.698 317.198 105.207 317.198 105.207L316.271 103.814L317.43 104.743C317.43 104.743 319.168 103.117 319.979 103.698C321.37 104.278 320.211 106.949 320.211 106.949Z" fill="#1A4850"/>
<path d="M333.654 99.4022C333.654 99.4022 331.105 95.8032 327.628 98.7056C324.151 101.492 316.155 106.02 312.331 104.51C308.39 103.001 320.906 86.3994 331.684 91.2755C342.462 96.1515 341.535 112.057 337.015 117.049C332.495 122.041 334.697 117.397 334.697 117.397C334.697 117.397 335.045 110.199 336.551 105.555C337.826 100.679 333.654 99.4022 333.654 99.4022Z" fill="#F24052"/>
<path d="M321.602 114.495C321.37 114.495 321.254 114.495 321.022 114.379L321.254 113.566C321.949 113.798 322.297 113.45 322.529 113.102C322.761 112.637 322.761 112.173 322.529 111.941C322.413 111.825 322.181 111.825 321.949 111.941L321.486 111.128C322.413 110.664 322.876 111.012 323.108 111.244C323.572 111.708 323.688 112.753 323.224 113.45C322.876 114.147 322.297 114.495 321.602 114.495Z" fill="#DB614D"/>
<path d="M373.636 175.678C373.173 181.947 357.759 202.264 355.21 202.96C354.514 203.193 353.819 203.541 353.24 204.005C353.008 204.238 352.66 204.354 352.428 204.586C350.922 205.747 349.879 207.14 349.879 207.14C345.359 206.792 332.727 200.987 336.783 199.71C337.015 199.594 337.247 199.478 337.594 199.245C337.71 199.129 337.942 199.013 338.174 198.781C342.925 194.718 352.312 178.464 352.312 177.187C352.312 175.794 353.935 175.562 353.935 175.562C353.935 175.562 345.127 162.675 340.028 161.05C334.929 159.54 332.379 153.271 332.379 153.271C327.396 131.909 341.998 135.276 341.998 135.276C352.776 142.01 374.1 169.409 373.636 175.678Z" fill="#8BBDDB"/>
<path d="M353.24 204.005C353.008 204.237 352.66 204.354 352.428 204.586C345.475 204.121 339.68 200.755 337.594 199.245C337.71 199.129 337.942 199.013 338.174 198.781C340.376 200.406 346.286 203.773 353.24 204.005Z" fill="#3E6575"/>
<path d="M289.037 130.748C288.921 130.981 288.805 131.213 288.689 131.445C287.646 131.445 286.719 131.329 285.908 131.097C281.388 130.168 277.795 127.614 275.478 125.408C274.898 124.944 274.435 124.363 274.087 123.899C274.435 123.666 274.55 123.55 274.666 123.55C275.014 123.899 275.362 124.363 275.825 124.711C278.143 126.917 281.736 129.587 286.371 130.4C287.182 130.632 288.11 130.748 289.037 130.748Z" fill="#3E6575"/>
<path d="M358.107 222.581C356.021 226.18 352.081 230.475 345.243 231.636C345.127 231.404 345.011 231.288 344.896 231.056C351.965 230.011 355.789 225.367 357.875 221.884C357.875 222.116 357.991 222.349 358.107 222.581Z" fill="#3E6575"/>
<path d="M240.942 339.838C240.942 339.838 239.32 341.464 237.697 344.366C236.075 347.269 237.813 349.939 229.817 356.672C229.817 356.672 213.477 347.152 206.06 334.73C206.06 334.73 206.175 331.247 209.768 330.435C211.738 329.97 216.953 332.524 222.052 333.453C222.748 333.569 223.443 333.685 224.254 333.801C225.181 333.917 225.993 333.917 226.804 333.801C227.615 333.685 228.31 333.569 229.006 333.221C230.744 332.524 232.135 331.131 232.83 328.693C232.83 328.693 237.118 331.131 234.221 335.311C234.221 335.311 239.32 333.105 240.942 339.838Z" fill="#CFD8DC"/>
<path d="M229.817 356.672C229.817 356.672 213.477 347.152 206.06 334.73C206.06 334.73 208.841 334.15 211.043 338.213C213.361 342.392 231.092 351.68 229.817 356.672Z" fill="#ADBEC4"/>
<path d="M229.817 337.4C228.542 339.49 228.542 335.659 226.804 333.801C227.615 333.685 228.31 333.569 229.006 333.221C229.817 334.034 230.86 335.659 229.817 337.4Z" fill="#ADBEC4"/>
<path d="M224.718 337.516C223.327 338.793 222.864 335.427 222.052 333.569C222.748 333.685 223.443 333.801 224.254 333.917C224.95 334.846 225.761 336.472 224.718 337.516Z" fill="#ADBEC4"/>
<path d="M341.419 382.33H318.357C318.357 382.33 317.43 379.079 318.357 375.596C318.82 374.087 321.138 372.578 323.34 370.604C323.92 370.024 324.499 369.443 325.078 368.863C325.542 368.398 325.89 367.818 326.237 367.121C326.701 366.425 327.049 365.612 327.165 364.683C327.512 362.942 327.396 360.852 326.353 358.414C326.353 358.414 334.234 356.789 337.015 361.084C337.015 361.084 337.247 359.11 339.796 360.388C339.796 360.388 339.449 364.335 339.912 367.702C340.492 371.068 343.621 371.997 341.419 382.33Z" fill="#CFD8DC"/>
<path d="M335.393 368.398C335.161 368.63 334.929 368.746 334.581 368.746C334.35 368.746 334.118 368.63 333.886 368.514C332.727 367.585 330.062 366.076 326.237 367.121C326.701 366.425 327.049 365.612 327.164 364.683C328.671 364.103 331.568 363.754 335.161 366.889C335.74 367.237 335.856 367.934 335.393 368.398Z" fill="#ADBEC4"/>
<path d="M333.538 372.229L333.423 372.462C333.075 372.926 332.495 373.042 332.032 372.81C330.409 371.881 326.933 370.14 323.456 370.604C324.036 370.023 324.615 369.443 325.194 368.863C326.933 368.514 330.178 368.282 333.307 370.836C333.654 371.184 333.77 371.765 333.538 372.229Z" fill="#ADBEC4"/>
</g>
<defs>
<clipPath id="clip0_302_356">
<rect width="547" height="370" fill="white" transform="translate(113 15)"/>
</clipPath>
</defs>





<style>



.lefthand{
    animation: 3s ease-in-out infinite swingl;
    transform-origin: center;
}
@keyframes swingl {

    0%{
        transform: rotate(0deg);
    }
    50%{
        transform: rotate(2deg);
    }
    100%{
        transform: rotate(0deg);
    }
}

.righthand{
    animation: 3s ease-in-out infinite swingr;
    transform-origin: center;
}
@keyframes swingr {

    0%{
        transform: rotate(0deg);
    }
    50%{
        transform: rotate(-2deg);
    }
    100%{
        transform: rotate(0deg);
    }
}

.otherhand{
    animation: 2s ease-in-out infinite swingh;
    transform-origin: 52% 41%;
}
@keyframes swingh {

    0%{
        transform: rotate(0deg);
    }
    50%{
        transform: rotate(2deg);
    }

    100%{
        transform: rotate(0deg);
    }
}
</style>
</svg>
