<svg width="18" height="10" viewBox="0 0 18 10" fill="none" xmlns="http://www.w3.org/2000/svg">
<path d="M17.2901 9.40393C17.0489 9.64334 16.7217 9.77783 16.3806 9.77783C16.0395 9.77783 15.7124 9.64334 15.4711 9.40393L9.10343 3.08256L2.73572 9.40393C2.4931 9.63655 2.16815 9.76527 1.83086 9.76236C1.49357 9.75945 1.17092 9.62515 0.932415 9.38837C0.693905 9.1516 0.558617 8.8313 0.555685 8.49646C0.552754 8.16163 0.682417 7.83904 0.916746 7.59819L8.19394 0.373955C8.43517 0.134546 8.76232 5.3581e-05 9.10343 5.36108e-05C9.44454 5.36406e-05 9.77168 0.134547 10.0129 0.373955L17.2901 7.59819C17.5313 7.83767 17.6667 8.16244 17.6667 8.50106C17.6667 8.83969 17.5313 9.16445 17.2901 9.40393Z" fill="white"/>
</svg>
