<svg width="508" height="613" viewBox="0 0 508 613" fill="none" xmlns="http://www.w3.org/2000/svg">
<g clip-path="url(#clip0_293_1493)">
<path class="bg" d="M390.47 357.439C437.506 411.334 464.158 486.915 458.902 562.616C453.801 638.586 416.17 713.596 357.408 757.85C290.914 808.016 200.135 815.403 131.453 776.011C111.536 764.515 93.2267 749.571 79.5295 730.16C60.5171 703.393 50.9106 669.565 46.377 635.499C35.8813 557.403 49.8491 474.683 85.9718 403.603C107.068 362.26 136.221 323.989 174.289 300.882C249.063 256.356 338.357 297.849 390.47 357.439Z" fill="#BCFBD6"/>
<path d="M427.969 384.631C427.795 389.17 449.291 398.249 450.339 391.615C451.213 384.98 428.668 372.933 427.969 384.631Z" fill="#0A3D56"/>
<path d="M446.494 388.647C446.844 390.742 448.766 405.408 447.892 408.026C447.892 408.201 447.892 408.201 447.718 408.376C446.669 410.82 443.523 413.264 442.475 415.01C441.426 416.756 439.504 417.105 437.756 418.502C436.183 419.899 432.164 420.248 432.164 420.248C432.164 420.248 425.872 424.787 425.697 422.343C425.522 419.2 429.193 416.407 429.193 416.407L431.989 409.423C431.989 409.423 430.416 399.821 428.493 399.821C426.571 399.821 427.27 403.836 426.396 406.979C425.872 409.074 423.425 408.725 423.425 408.725L423.25 402.963C423.25 402.963 423.6 394.757 424.649 393.186C425.697 391.615 430.94 386.202 430.94 386.202L433.212 374.504L448.941 375.377C449.116 375.028 445.97 386.377 446.494 388.647Z" fill="#FF8B66"/>
<path d="M447.718 408.201C446.669 410.645 443.523 413.09 442.475 414.836C441.426 416.582 439.504 416.931 437.756 418.328C436.183 419.724 432.164 420.073 432.164 420.073C433.736 418.851 436.358 412.217 437.057 411.868C437.756 411.518 438.106 412.391 439.329 412.391C440.552 412.391 441.077 409.947 442.3 410.296C443.523 410.645 444.747 410.82 445.621 409.249C446.32 408.376 447.019 408.201 447.718 408.201Z" fill="#EF6E4B"/>
<path d="M254.252 235.178C250.407 230.813 235.028 248.971 241.144 255.606C247.261 262.24 258.971 248.971 258.971 248.971C258.971 248.971 258.271 239.718 254.252 235.178Z" fill="#0A3D56"/>
<path d="M225.415 234.654C227.513 235.004 233.28 237.972 233.28 237.972C237.474 241.289 239.746 243.035 242.717 243.559C245.688 244.083 249.883 251.066 249.883 251.066C249.883 251.066 255.475 246.003 256.873 238.67C256.873 238.67 253.727 235.877 253.378 234.654C252.679 232.036 254.776 228.544 252.679 224.004C250.582 219.465 250.057 212.83 250.057 212.83C250.057 212.83 247.611 211.783 246.912 214.227C246.387 216.846 247.785 220.512 247.261 221.56C247.086 221.735 247.086 221.909 246.912 222.084C246.387 222.782 245.513 223.131 244.814 223.131H244.64C241.669 222.782 237.125 218.068 235.202 215.798C232.581 212.656 228.736 208.465 227.513 210.91C226.289 213.179 229.435 213.529 233.979 221.56L233.28 222.258C233.629 222.782 228.212 219.465 224.192 215.449C221.396 212.656 220.347 215.449 220.871 216.846C221.221 218.243 224.542 220.512 226.464 222.608C227.862 224.004 229.26 225.226 230.134 226.099L229.785 227.322C222.27 224.703 221.396 221.735 219.648 223.131C217.9 224.528 222.27 228.369 224.716 229.067C225.765 229.417 227.338 230.639 229.085 231.861C222.969 230.988 221.745 228.893 220.522 230.29C218.949 232.036 223.318 234.305 225.415 234.654Z" fill="#FF8B66"/>
<path d="M245.513 231.163C244.115 227.496 246.562 222.957 246.911 222.433C246.387 223.131 245.513 223.48 244.814 223.48C242.542 228.194 245.513 231.163 245.513 231.163Z" fill="#EF6E4B"/>
<path d="M328.877 184.371L286.758 261.367C286.758 261.367 284.836 257.003 282.739 258.749C280.642 260.494 254.252 235.178 254.252 235.178C254.252 235.178 256.349 250.543 241.145 255.606C241.145 255.606 276.098 286.509 287.632 293.842C299.167 301.175 337.965 236.051 337.965 236.051L328.877 184.371Z" fill="#0D527C"/>
<path d="M262.815 609.857C262.815 611.778 262.99 613.175 262.99 613.175H318.041C318.041 612.127 318.041 611.08 318.041 609.857C317.342 595.541 312.798 582.97 312.798 582.97L298.992 577.034C297.769 584.192 294.798 588.557 290.953 591.525C289.904 592.398 288.856 592.922 287.807 593.62C287.283 593.969 286.758 594.144 286.234 594.318C285.011 594.842 283.962 595.191 282.739 595.541C277.845 596.937 272.952 597.287 269.631 597.81C263.689 599.033 262.815 605.667 262.815 609.857Z" fill="#0E3944"/>
<path d="M262.815 609.857C262.815 611.778 262.99 613.175 262.99 613.175H318.041C318.041 612.127 318.041 611.079 318.041 609.857H262.815Z" fill="#ADBEC4"/>
<path d="M287.807 593.62L295.497 596.064L297.07 593.271L290.953 591.525C289.904 592.398 288.856 593.096 287.807 593.62Z" fill="#ADBEC4"/>
<path d="M282.739 595.715L287.807 599.207L290.953 597.985L286.234 594.493C285.185 595.017 283.962 595.366 282.739 595.715Z" fill="#ADBEC4"/>
<path d="M360.335 609.857C360.51 611.778 361.034 613.175 361.034 613.175H397.735C398.259 612.127 398.609 611.079 398.783 609.857C402.453 592.398 377.986 570.923 377.986 570.923L370.297 581.224C370.297 581.224 371.17 597.636 364.704 601.128C360.684 603.223 360.16 607.064 360.335 609.857Z" fill="#0E3944"/>
<path d="M398.609 609.857H360.335C360.51 611.778 361.034 613.175 361.034 613.175H397.735C398.084 611.952 398.434 610.905 398.609 609.857Z" fill="#ADBEC4"/>
<path d="M366.277 599.731C366.277 599.731 381.656 596.239 388.822 600.778V598.16C388.647 598.334 375.714 592.049 366.277 599.731Z" fill="#ADBEC4"/>
<path d="M369.248 595.89C369.248 595.89 379.035 591.35 388.647 595.89L387.598 593.271C387.598 593.271 376.239 589.081 369.248 595.89Z" fill="#ADBEC4"/>
<path d="M421.503 326.84C421.503 361.584 418.007 397.027 417.134 406.106C416.26 415.01 406.997 515.576 405.599 554.336C404.9 574.24 398.608 598.334 398.608 598.334C398.608 598.334 379.559 582.97 368.898 594.318L366.277 578.78L371.345 566.558C371.345 566.558 365.927 556.432 370.296 548.575C374.665 540.718 376.064 372.758 376.064 372.758L367.5 372.235L326.78 566.558V577.557C326.78 577.557 317.867 591.7 317.867 600.604L290.778 591.35L295.147 578.605L292.176 560.447L301.963 536.702C301.963 536.702 330.1 350.934 327.828 330.158L421.503 326.84Z" fill="#8BBDDB"/>
<path d="M421.328 335.57C421.328 335.57 406.648 356.172 363.655 349.363C339.188 345.522 328.178 333.649 328.178 333.649C328.178 333.649 320.313 195.545 329.052 184.197C335.343 175.991 347.577 172.499 363.655 171.801C369.772 171.451 376.238 171.626 383.404 171.801C388.647 171.975 393.54 172.848 398.084 174.07C416.085 179.134 428.668 190.831 430.591 200.085C432.863 211.957 421.328 335.57 421.328 335.57Z" fill="#CFD8DC"/>
<path d="M385.501 171.975C385.501 171.975 393.191 176.515 393.016 183.498C393.016 183.498 395.637 167.61 389.52 165.166C383.404 162.896 385.501 171.975 385.501 171.975Z" fill="#0A3D56"/>
<path d="M424.474 350.934C424.474 350.934 405.949 363.33 383.055 359.664C383.055 359.664 375.365 214.751 377.462 201.132C377.462 201.132 384.802 193.101 390.919 188.387C396.337 184.371 397.91 176.165 398.084 174.07C416.085 179.134 429.193 183.149 431.115 192.403C433.387 204.101 424.474 350.934 424.474 350.934Z" fill="#105E99"/>
<path d="M363.655 171.801C361.208 175.642 356.665 184.371 355.266 196.942C354.393 205.497 339.887 353.379 339.887 353.379C326.78 353.379 323.809 345.871 323.809 345.871C323.809 345.871 320.313 195.371 328.877 184.197C335.168 176.166 347.577 172.674 363.655 171.801Z" fill="#105E99"/>
<path d="M389.521 165.341C389.521 165.341 402.279 165.515 405.424 178.61C408.57 191.704 391.967 201.831 391.967 201.831C391.967 201.831 389.171 194.847 385.501 194.847C381.831 194.847 377.287 201.132 377.287 201.132C377.287 201.132 380.782 193.276 386.025 189.26C391.268 185.244 396.162 173.896 389.521 165.341Z" fill="#0D527C"/>
<path d="M365.752 164.991C365.752 164.991 348.625 170.578 343.382 191.355C343.382 191.355 346.703 184.721 349.849 186.641C352.82 188.562 355.266 196.942 355.266 196.942C355.266 196.942 358.237 176.689 368.024 171.626L365.752 164.991Z" fill="#0D527C"/>
<path d="M429.367 188.213C416.959 194.673 412.589 221.735 413.988 232.559L431.464 285.811C431.464 285.811 431.988 291.921 434.086 292.794L427.969 384.456C429.717 380.964 447.717 383.758 450.339 391.44C450.339 391.44 462.573 302.921 460.825 278.652C460.475 273.938 429.367 188.213 429.367 188.213Z" fill="#0D527C"/>
<path d="M364.529 160.103L370.297 182.625C370.297 182.625 376.763 185.594 390.395 176.515C390.395 176.515 383.054 159.404 389.521 147.183C389.521 147.183 387.948 147.357 385.326 147.532C385.326 147.532 382.705 160.801 364.529 160.103Z" fill="#EF6E4B"/>
<path d="M393.191 135.834C393.54 162.373 365.053 165.864 358.412 156.087C356.315 152.944 354.393 147.183 353.169 140.897C352.82 139.501 352.645 138.104 352.47 136.533C351.247 126.755 352.121 116.803 357.713 114.185C376.763 105.106 393.016 109.296 393.191 135.834Z" fill="#FF8B66"/>
<path d="M370.535 133.732C371.4 133.652 371.993 132.419 371.858 130.979C371.724 129.539 370.914 128.437 370.049 128.517C369.184 128.598 368.592 129.83 368.726 131.27C368.86 132.711 369.67 133.813 370.535 133.732Z" fill="#1A4850"/>
<path d="M357.26 136.167C358.125 136.087 358.717 134.854 358.583 133.414C358.449 131.974 357.639 130.871 356.774 130.952C355.909 131.032 355.316 132.265 355.451 133.705C355.585 135.145 356.395 136.248 357.26 136.167Z" fill="#1A4850"/>
<path d="M376.262 138.288C377.686 137.69 378.445 136.268 377.959 135.112C377.472 133.957 375.924 133.505 374.5 134.104C373.076 134.702 372.317 136.124 372.803 137.279C373.29 138.435 374.839 138.886 376.262 138.288Z" fill="#DB614D"/>
<path d="M356.14 139.326C355.966 140.548 354.567 141.247 353.169 141.072C352.82 139.675 352.645 138.279 352.47 136.707C352.82 136.533 353.344 136.533 353.868 136.707C355.266 136.882 356.315 138.104 356.14 139.326Z" fill="#DB614D"/>
<path d="M367.325 121.867C367.325 121.867 370.471 120.994 372.568 122.565" stroke="#8B383E" stroke-miterlimit="10" stroke-linecap="round" stroke-linejoin="round"/>
<path d="M356.315 124.66C356.315 124.66 353.169 125.009 353.169 126.755" stroke="#8B383E" stroke-miterlimit="10" stroke-linecap="round" stroke-linejoin="round"/>
<path d="M360.51 129.025C360.51 129.025 360.684 135.834 356.84 141.247C356.84 141.247 356.665 144.04 361.908 142.993" stroke="#DB614D" stroke-width="0.75" stroke-miterlimit="10"/>
<path d="M352.995 120.47C352.995 120.47 358.238 113.486 374.666 115.232C374.666 115.232 377.112 125.009 382.181 127.978C387.074 130.946 388.996 139.152 388.996 139.152C388.996 139.152 389.521 134.961 391.618 134.612C393.715 134.088 390.919 147.532 390.919 147.532C390.919 147.532 398.958 146.31 399.482 123.962C399.832 103.709 382.53 108.947 382.53 108.947C382.53 108.947 378.336 100.566 359.111 104.931L360.51 105.629C360.51 105.629 351.596 107.026 348.451 114.534L350.024 114.359C350.198 114.185 348.451 118.2 352.995 120.47Z" fill="#8B383E"/>
<path d="M387.598 135.66C387.598 135.66 391.443 130.247 395.637 132.866C399.832 135.66 394.064 145.437 389.695 145.611C385.501 145.611 387.598 135.66 387.598 135.66Z" fill="#FF8B66"/>
<path d="M353.519 142.818C353.519 142.818 355.791 145.961 361.733 145.437C371.695 144.389 383.579 139.675 387.074 131.644L388.297 134.961C388.297 134.961 391.443 147.707 390.045 151.897L389.171 151.548C389.171 151.548 389.521 156.786 382.006 160.801C374.491 164.817 369.073 164.817 369.073 164.817L370.122 165.864C370.122 165.864 358.063 166.737 354.917 158.357L354.742 160.277C354.742 160.277 350.024 149.627 353.519 142.818Z" fill="#8B383E"/>
<path d="M358.937 147.008C358.937 147.008 359.461 147.881 364.18 146.834C368.723 145.786 371.694 144.389 371.694 144.389C371.694 144.389 371.694 153.817 364.704 154.341C358.937 154.865 358.937 147.008 358.937 147.008Z" fill="#1A4850"/>
<path d="M138.207 610.032C135.586 607.413 126.847 596.239 126.673 590.477C126.498 582.446 126.673 571.621 127.022 559.574H114.439C114.963 572.669 114.963 588.906 114.788 593.795C114.439 594.668 113.565 600.08 113.216 600.953C112.516 602.175 113.041 611.254 113.041 611.254L138.557 610.207C138.382 610.032 138.207 610.032 138.207 610.032Z" fill="#EF6E4B"/>
<path d="M126.673 573.367C127.197 539.67 134.013 488.689 134.887 480.134C135.411 474.721 140.13 460.405 146.421 439.628C160.927 391.265 161.976 356.347 156.907 324.92L124.401 325.618C118.808 350.585 86.8262 377.647 108.497 406.63C109.371 417.455 115.488 454.119 112.866 470.182C109.721 489.213 107.973 498.466 109.021 520.64C109.546 529.893 114.439 558.701 114.439 573.367H126.673Z" fill="#0D527C"/>
<path d="M210.036 257.701C210.036 257.701 210.036 257.701 203.745 265.208C197.453 272.541 199.026 273.24 200.249 278.303C201.298 283.017 210.211 281.969 213.881 280.573C216.852 279.351 224.891 281.271 227.163 279.525C228.037 278.827 227.163 278.478 224.542 278.303C221.571 277.954 218.775 276.732 218.775 276.732C220.697 273.938 231.532 276.033 233.105 272.716C233.804 271.145 220.872 273.938 219.648 272.367C219.648 272.367 220.173 271.319 226.464 269.399C230.134 268.351 233.804 267.129 233.979 265.907C234.329 263.637 227.163 267.304 218.075 268.177C218.075 268.177 221.746 266.256 225.241 264.859C228.387 263.463 231.532 262.59 230.833 261.193C230.309 260.145 225.241 262.415 222.095 263.637C216.153 266.081 211.26 266.605 208.638 266.605C207.415 266.605 206.716 266.605 206.716 266.605C212.658 258.399 210.036 257.701 210.036 257.701Z" fill="#FF8B66"/>
<path d="M206.89 266.431C206.89 266.431 207.415 270.621 205.143 273.065C205.143 273.065 209.861 271.668 208.638 266.605C207.589 266.431 206.89 266.431 206.89 266.431Z" fill="#EF6E4B"/>
<path d="M83.5053 171.277C75.466 181.578 68.8249 269.05 83.5053 300.651C83.5053 300.651 112.167 305.191 134.886 297.508C134.886 297.508 140.304 183.673 126.672 169.531L83.5053 171.277Z" fill="#0E3944"/>
<path d="M129.469 232.734C150.615 237.797 154.46 239.369 166.344 298.556C166.344 298.556 197.103 263.288 203.045 265.907C203.045 265.907 201.123 269.05 205.317 276.383C207.764 280.747 212.133 280.922 212.133 280.922C213.007 287.906 181.899 335.395 171.937 338.538C161.975 341.681 135.411 309.206 131.391 298.556C127.372 288.08 129.469 232.734 129.469 232.734Z" fill="#CE364C"/>
<path d="M97.6614 223.131C98.8848 220.687 121.779 224.703 123.876 226.623C126.148 228.544 115.313 236.75 109.546 234.305C103.953 232.036 96.2633 226.099 97.6614 223.131Z" fill="#B72E48"/>
<path d="M105.876 562.019H91.0205C92.7682 577.383 93.9915 590.303 93.9915 590.303L92.4186 613H108.672C107.623 606.191 104.477 585.938 105.177 577.383C105.351 572.32 105.701 567.256 105.876 562.019Z" fill="#FF8B66"/>
<path d="M81.5833 435.787C82.8066 446.612 85.2533 453.77 86.3019 462.849C87.7001 476.118 79.6608 495.149 84.9038 516.449C87.3505 526.576 91.0206 559.749 92.7683 578.081H105.002C105.002 577.907 105.002 577.732 105.002 577.557C108.148 532.861 107.449 481.356 109.895 461.103C110.944 452.548 116.886 438.755 119.158 427.756C119.158 427.756 126.149 395.63 131.042 393.011C150.791 382.012 156.907 325.094 156.907 325.094L108.322 327.364C108.322 327.364 78.4375 350.934 82.8066 392.662C82.8066 392.662 82.8066 393.011 82.6319 393.884C80.1851 413.264 80.3599 426.01 81.5833 435.787Z" fill="#105E99"/>
<path d="M91.3698 595.541C91.3698 595.541 91.8941 589.954 99.5838 590.652C107.273 591.35 106.225 596.937 106.225 596.937C106.225 596.937 107.448 596.064 108.322 596.937C109.196 597.81 107.798 605.492 109.72 607.238C111.643 608.81 110.594 613.175 110.594 613.175H88.224C88.224 613.175 87.3501 607.762 89.7969 605.667C92.2436 603.572 87.0006 596.239 91.3698 595.541Z" fill="#CDCFD0"/>
<path d="M84.3792 381.837C93.1175 401.741 174.384 395.63 171.587 377.473C163.723 329.11 151.489 299.08 151.489 299.08C173.859 261.018 134.887 234.305 134.887 234.305C134.887 234.305 98.5352 221.036 78.4372 238.146C58.5138 255.257 100.807 308.159 100.807 308.159C95.0399 322.301 80.7091 373.282 84.3792 381.837Z" fill="#F24052"/>
<path d="M94.5159 169.706C94.5159 169.706 123.177 160.103 128.945 180.356C134.712 200.609 129.469 221.909 116.012 220.338C97.1373 218.243 72.3206 181.054 94.5159 169.706Z" fill="#FF8B66"/>
<path d="M114.559 198.56C114.69 197.313 113.552 196.172 112.016 196.01C110.48 195.848 109.129 196.727 108.997 197.974C108.865 199.221 110.004 200.362 111.54 200.524C113.075 200.686 114.427 199.807 114.559 198.56Z" fill="#DB614D"/>
<path d="M111.293 185.594C111.468 185.594 111.643 185.419 111.818 185.244C113.041 183.324 115.313 183.673 115.313 183.673C115.663 183.673 116.012 183.498 116.012 183.149C116.012 182.8 115.837 182.451 115.488 182.451C115.313 182.451 112.342 182.102 110.769 184.721C110.594 185.07 110.594 185.419 110.944 185.594C110.944 185.594 111.119 185.594 111.293 185.594Z" fill="#1A4850"/>
<path d="M124.401 182.625C124.576 182.625 124.576 182.625 124.75 182.451C126.498 181.054 128.595 181.927 128.595 181.927C128.945 182.102 129.294 181.927 129.294 181.578C129.469 181.229 129.294 180.879 128.945 180.879C128.77 180.879 126.149 179.657 123.877 181.578C123.702 181.752 123.527 182.102 123.877 182.451C124.051 182.451 124.226 182.625 124.401 182.625Z" fill="#1A4850"/>
<path d="M127.372 203.751C127.372 203.751 123.003 206.545 115.488 204.101C115.488 204.101 117.76 213.005 122.653 211.957C127.372 210.735 127.372 203.751 127.372 203.751Z" fill="#1A4850"/>
<path d="M106.05 180.007C106.05 180.007 99.4091 188.387 99.7586 199.212C99.7586 199.212 94.8652 193.276 92.4185 198.514C89.9717 203.577 99.9334 211.084 99.9334 211.084C99.9334 211.084 83.6802 211.957 81.7577 191.006C81.0587 182.276 92.5932 174.07 106.05 180.007Z" fill="#0E3944"/>
<path d="M100.283 206.545C102.555 212.481 110.944 222.782 119.857 219.814C119.857 219.814 117.585 228.718 121.255 231.861C121.255 231.861 125.1 238.67 116.187 239.718C105.002 240.94 98.7101 231.861 98.7101 231.861C103.604 221.036 96.9624 207.592 96.9624 207.592C99.5839 209.338 100.283 206.545 100.283 206.545Z" fill="#EF6E4B"/>
<path d="M118.459 191.879C118.459 191.879 114.614 189.958 111.818 191.879C111.818 191.879 115.138 191.181 117.76 192.577L118.459 191.879Z" fill="#1A4850"/>
<path d="M129.469 190.308C129.469 190.308 127.022 189.435 126.148 191.704L126.673 192.403C126.673 192.577 126.847 190.657 129.469 190.308Z" fill="#1A4850"/>
<path d="M125.974 200.783L125.449 199.561C125.624 199.386 127.547 198.513 126.847 196.768C126.673 196.244 126.323 195.895 125.974 195.72C125.275 195.545 124.401 195.895 124.401 195.895L123.702 194.672C123.702 194.672 125.1 193.974 126.323 194.323C127.022 194.672 127.721 195.196 128.071 196.069C128.945 198.688 127.022 200.259 125.974 200.783Z" fill="#DB614D"/>
<path d="M92.0691 164.642C74.4177 172.674 81.9327 191.006 81.9327 191.006C83.6803 184.022 97.3121 178.784 97.3121 178.784C96.2635 184.197 101.332 189.26 101.332 189.26C102.73 187.34 104.303 185.594 106.05 184.371C106.4 183.498 106.749 182.451 107.099 181.403C107.274 180.53 107.623 179.483 107.623 178.61C107.623 178.086 107.798 177.737 107.798 177.388C107.798 177.038 107.798 176.515 107.798 176.165C107.798 175.467 107.798 174.769 107.623 174.42C107.623 174.07 107.623 173.721 107.623 173.721C107.623 173.721 107.623 173.896 107.798 174.42C107.973 174.769 107.973 175.467 108.148 176.165C108.148 176.515 108.148 176.864 108.322 177.388C108.322 177.737 108.322 178.261 108.322 178.784C108.322 179.657 108.148 180.705 108.148 181.753C108.148 182.276 107.973 182.8 107.798 183.324C108.497 182.975 109.021 182.451 109.72 182.102C109.895 181.753 110.245 181.229 110.42 180.88C111.293 179.308 111.818 177.737 111.992 176.515C112.167 175.816 112.167 175.293 112.167 174.943C112.167 174.594 112.167 174.42 112.167 174.42C112.167 174.42 112.167 174.594 112.167 174.943C112.167 175.293 112.167 175.816 112.167 176.515C112.167 177.911 111.818 179.657 111.119 181.229V181.403C113.041 180.53 114.963 179.832 116.886 179.483C116.886 178.959 116.711 178.435 116.711 177.911C116.536 176.689 116.187 175.467 116.012 174.594C115.663 173.721 115.488 173.197 115.488 173.197C115.488 173.197 115.837 173.721 116.362 174.594C116.886 175.467 117.235 176.689 117.76 177.911C117.934 178.435 118.109 178.959 118.284 179.483C119.507 179.308 120.731 179.134 121.779 178.959C121.605 178.086 121.255 176.864 121.08 175.816C120.731 174.594 120.206 173.372 119.857 172.324C119.333 171.451 118.983 170.928 118.983 170.928C118.983 170.928 119.507 171.451 120.032 172.324C120.556 173.197 121.255 174.42 121.954 175.642C122.478 176.864 123.003 178.086 123.352 179.134C125.449 179.134 127.197 179.134 128.595 179.308C128.595 179.134 128.595 178.959 128.595 178.784C128.595 177.911 128.595 176.864 128.246 175.642C128.071 174.594 127.721 173.372 127.372 172.674C127.197 172.324 127.022 171.975 126.848 171.801C126.148 171.102 126.148 171.102 126.148 171.102C126.148 171.102 126.323 171.277 126.323 171.451C126.498 171.626 126.673 171.975 127.022 172.324C127.547 173.023 128.071 174.07 128.595 175.118C129.119 176.166 129.294 177.388 129.469 178.261C129.469 178.61 129.644 178.784 129.644 179.134C130.692 179.308 131.391 179.483 131.391 179.483C132.615 161.849 109.72 156.611 92.0691 164.642Z" fill="#0E3944"/>
<path d="M93.8169 230.813C93.9917 235.178 105.002 243.035 118.284 241.464C131.566 239.892 126.323 228.369 123.877 226.798C123.877 226.798 116.012 232.385 97.6617 223.306C97.6617 223.306 95.215 224.703 95.5646 227.322C95.9141 229.766 93.8169 230.813 93.8169 230.813Z" fill="#CE364C"/>
<path d="M88.5741 415.709C88.5741 415.709 89.2731 419.026 88.5741 420.946C87.875 422.867 84.5545 427.232 85.0788 429.676C85.6031 432.12 82.9816 433.168 83.1563 426.359C83.3311 419.55 83.1563 414.312 88.5741 415.709Z" fill="#EF6E4B"/>
<path d="M84.9038 416.582L82.9814 426.359C82.9814 426.359 81.5833 433.168 80.3599 432.994C79.1366 432.819 78.4375 427.581 78.4375 427.581C78.4375 427.581 75.1169 425.835 74.9422 424.788C74.7674 423.74 74.7674 420.248 73.0197 419.899C71.2721 419.55 71.7964 407.154 71.7964 407.154C71.7964 407.154 83.5057 413.264 84.9038 416.582Z" fill="#FF8B66"/>
<path d="M78.4373 238.146C87.3503 231.861 98.5354 265.034 99.7587 277.081C102.905 304.492 98.8849 408.725 91.5447 417.455C84.0298 426.184 75.2915 415.359 70.5728 411.518C65.8541 407.677 73.1943 333.475 73.1943 333.475C73.1943 333.475 61.485 250.368 78.4373 238.146Z" fill="#CE364C"/>
<path d="M111.293 613C111.293 613 110.07 596.239 113.391 591.874C113.391 591.874 117.061 597.636 121.954 597.636C125.1 597.636 126.498 590.303 129.294 591.874C131.741 593.271 133.314 597.461 139.78 601.826C146.247 606.191 151.49 604.969 152.014 613H111.293Z" fill="#BFC0C1"/>
<path class="cloud1" d="M283.263 100.566C314.922 100.566 340.586 78.0537 340.586 50.2831C340.586 22.5125 314.922 0 283.263 0C251.604 0 225.94 22.5125 225.94 50.2831C225.94 78.0537 251.604 100.566 283.263 100.566Z" fill="#105E99"/>
<path class="cloud1" d="M310.702 79.2657L279.593 83.8052C279.593 83.8052 292.526 111.216 327.829 122.565C327.829 122.565 307.556 102.661 310.702 79.2657Z" fill="#105E99"/>
<path class="cloud2" d="M188.365 180.88C213.75 180.88 234.328 162.823 234.328 140.548C234.328 118.274 213.75 100.217 188.365 100.217C162.98 100.217 142.401 118.274 142.401 140.548C142.401 162.823 162.98 180.88 188.365 180.88Z" fill="#F24052"/>
<path class="cloud2" d="M166.344 163.595L191.161 167.261C191.161 167.261 180.85 189.26 152.538 198.339C152.538 198.339 168.791 182.451 166.344 163.595Z" fill="#F24052"/>
</g>
<defs>
<clipPath id="clip0_293_1493">
<rect width="508" height="613" fill="white"/>
</clipPath>
</defs>


<style>

.bg {
    animation: 4s ease-in-out infinite blick;
    transform-origin: bottom;
}

@keyframes blick {
    0% {
        transform: scale(.3);
        opacity: 0;
    }

    80% {
        transform: scale(1);
        opacity: 1;
    }

    100% {
        opacity: 0;
    }

}
.cloud1 {
    animation: 4s ease-in-out infinite cloudanim;
    transform-origin: 67% 24%;
}
.cloud2 {
    animation: 4s ease-in-out .4s infinite cloudanim;
    transform-origin: 27% 32%;
}

@keyframes cloudanim {
    0% {
        transform: scale(0);
    }

    100%{
        transform: scale(1);
    }

}

</style>

</svg>
