<svg width="203" height="154" viewBox="0 0 203 154" fill="none" xmlns="http://www.w3.org/2000/svg">
<path d="M0 49V103.25C0 131.25 45.4021 154 101.5 154C157.598 154 203 131.25 203 103.25V49H0Z" fill="#75C094"/>
<path d="M203 51C203 79.1379 157.598 102 101.5 102C80.3269 102 60.6817 98.7026 44.529 93.2069C29.2495 87.931 16.8075 80.6767 9.16774 72.1035C3.27419 65.7285 0 58.4741 0 51C0 22.8621 45.4021 0 101.5 0C109.358 0 116.998 0.43966 124.201 1.31897C142.755 3.51725 159.562 8.13362 172.659 14.7285C191.431 23.9612 203 36.7112 203 51Z" fill="#BCFBD6"/>
<path d="M58.9904 70.4035C47.237 63.6177 47.2075 52.6332 58.9245 45.8684C70.6415 39.1036 89.6671 39.1206 101.42 45.9064" fill="#75C094"/>
<path d="M105.154 48.063C116.907 54.8488 116.937 65.8332 105.22 72.598C93.5026 79.3628 74.477 79.3447 62.7246 72.5594" fill="#75C094"/>
<path d="M120.567 45.7902C106.563 45.5797 94.7137 39.3384 93.3837 31.0883C92.0558 22.8509 101.682 15.5024 115.35 13.8374" fill="#75C094"/>
<path d="M122.513 27.1009C136.518 27.3114 148.367 33.5527 149.697 41.8027C151.025 50.0402 141.399 57.3887 127.73 59.0537" fill="#75C094"/>
</svg>
