<svg width="259" height="479" viewBox="0 0 259 479" fill="none" xmlns="http://www.w3.org/2000/svg">
<g clip-path="url(#clip0_496_2250)">
<path opacity="0.63" d="M99.5996 128.1C72.4996 146.2 51.9996 176.2 45.2996 210C38.5996 243.9 46.2996 281.2 66.8996 307.5C90.1996 337.3 129.2 351.2 164 342C174.1 339.3 183.9 334.9 192.2 328C203.7 318.5 211.9 304.8 217.9 290.4C231.7 257.4 235.3 219.5 227.8 184.1C223.4 163.5 215.1 143.3 201.1 128.7C173.6 100.4 129.6 108.1 99.5996 128.1Z" fill="#695EA9"/>
<path class="cloud" d="M119.799 87C119.799 87 68.0988 96.8 64.1988 85.9C60.2988 75 57.9988 39.9 64.5988 34.6C71.1988 29.3 151.699 23.4 157.599 33.2C163.499 43 163.799 79 158.299 81.9C152.799 84.8 128.799 87 128.799 87L130.299 97.9L119.799 87Z" fill="#695EA9"/>
<path class="cloud" d="M111.099 64.9L110.699 65C110.299 65 109.999 64.8 109.799 64.5C109.199 63.2 108.799 61.9999 108.799 60.7999C108.799 57.7999 110.799 55.9 112.899 54C113.899 53 114.599 52.3 114.999 51.8C115.399 51.3 115.599 50.7 115.599 50.1C115.599 48.5 114.199 47.7 112.699 47.7C110.999 47.7 109.299 48.6 107.999 49.6C107.799 49.7 107.599 49.8 107.399 49.8C107.099 49.8 106.899 49.7 106.799 49.4L105.299 47.2C105.199 47.1 105.099 46.9 105.099 46.7C105.099 46.4 105.199 46.2 105.399 46C107.699 44.1 110.099 43.2 112.699 43.2C116.999 43.2 120.299 45.7 120.299 50C120.299 52.7 118.999 54.5 117.099 56.3L116.299 57.1C115.299 58 114.699 58.7 114.199 59.2C113.799 59.7 113.599 60.3 113.599 60.9C113.599 61.4 113.699 62.0999 113.999 62.7999C113.999 62.9999 114.099 63.1 114.099 63.2C114.099 63.3 114.099 63.4999 113.999 63.5999C113.899 63.6999 113.699 63.8 113.599 63.9L111.099 64.9ZM108.299 71.2999C108.299 69.3999 109.899 67.9 111.799 67.9C113.799 67.9 115.299 69.3999 115.299 71.2999C115.299 73.1999 113.799 74.7 111.799 74.7C109.899 74.7 108.299 73.1999 108.299 71.2999Z" fill="#FEE9E8"/>
<path d="M140.199 460.1C140.599 462.4 107.399 477.7 105.999 475.6C104.599 473.5 119.899 455.1 119.899 455.1L117.799 449.7L115.699 444.3L132.699 437.5C132.699 437.5 134.299 442 135.999 447C137.899 452.6 139.899 458.9 140.199 460.1Z" fill="#FF9C87"/>
<path d="M140.199 460.1C140.599 462.4 107.399 477.7 105.999 475.6C104.599 473.5 119.899 455.1 119.899 455.1L117.799 449.7C118.099 449.2 118.499 448.7 119.099 448.5C119.799 448.2 120.699 448.5 121.299 448.9C121.999 449.3 122.499 449.9 122.899 450.6C123.399 451.2 123.899 451.8 124.299 452.4C126.599 449.7 129.799 446.9 133.299 446.7C134.199 446.6 134.999 446.7 135.799 447C137.899 452.6 139.899 458.9 140.199 460.1Z" fill="#FEE9E8"/>
<path d="M180.799 471.9C180.299 474.2 143.799 476 143.299 473.6C142.799 471.2 163.799 459.7 163.799 459.7L163.899 454L163.999 448.2H182.299C182.299 448.2 182.099 452.9 181.799 458.2C181.499 464 181.099 470.7 180.799 471.9Z" fill="#FF9C87"/>
<path d="M180.799 471.9C180.299 474.2 143.799 476 143.299 473.6C142.799 471.2 163.799 459.7 163.799 459.7L163.899 454C164.399 453.6 164.899 453.4 165.499 453.4C166.299 453.4 166.999 454 167.399 454.6C167.899 455.2 168.099 456 168.299 456.7C168.499 457.4 168.799 458.2 168.999 458.9C172.099 457.2 176.099 455.9 179.499 456.9C180.299 457.2 181.099 457.6 181.699 458.1C181.499 464 181.099 470.7 180.799 471.9Z" fill="#FEE9E8"/>
<path d="M117.499 246.3C117.499 246.3 74.9992 355.5 79.8992 376.2C84.7992 396.9 114.199 446.7 114.199 446.7L139.799 438L137.599 433.1L114.999 368.8L147.099 320.3L155.499 377.8L160.399 449.4C160.399 449.4 177.599 454 186.499 450.8C186.499 450.8 195.799 323.6 192.199 305.1C188.699 286.6 176.399 247.4 176.399 247.4L117.499 246.3Z" fill="#433D3B"/>
<path d="M135.299 286.6L147.199 320.4C147.199 320.4 154.899 366.5 157.099 397.8C159.299 429 160.499 449.5 160.499 449.5" stroke="#0E1219" stroke-width="0.5334" stroke-miterlimit="10" stroke-linecap="round" stroke-linejoin="round"/>
<path d="M171.6 249.1C181 281.7 183.8 315.8 184.3 349.7C184.7 383.6 182.8 417.5 183 451.4" stroke="#0E1219" stroke-width="0.5334" stroke-miterlimit="10" stroke-linecap="round" stroke-linejoin="round"/>
<path d="M144.299 311.8C131.399 327.5 120.199 344.7 110.999 362.9C110.499 363.9 109.899 365 109.899 366.2C109.899 367.2 110.199 368.3 110.599 369.3C118.799 392.6 127.099 415.9 135.299 439.2" stroke="#0E1219" stroke-width="0.5334" stroke-miterlimit="10" stroke-linecap="round" stroke-linejoin="round"/>
<path d="M80.999 109.1C80.999 109.1 83.099 105.4 82.999 101.6C82.899 93.5999 80.999 94.1999 82.999 91.0999C84.999 87.9999 96.199 76.4999 98.099 77.1999C99.999 77.8999 93.299 85.4999 93.299 85.4999C93.299 85.4999 105.699 82.8999 103.499 87.6999C103.499 87.6999 106.599 88.7999 103.999 91.0999C103.999 91.0999 105.399 92.6999 103.299 93.2999C98.999 94.6999 96.199 96.0999 96.199 96.0999C96.199 96.0999 99.599 104.1 94.399 110.8L80.999 109.1Z" fill="#FF9C87"/>
<path d="M88.1992 89.5999C88.1992 89.5999 91.1992 86.1999 93.3992 85.4999C95.1992 84.9999 100.199 84.2999 102.699 85.1999C103.599 85.4999 104.099 86.5999 103.699 87.4999C103.699 87.5999 103.599 87.5999 103.599 87.6999" stroke="#0E1219" stroke-width="0.3359" stroke-miterlimit="10" stroke-linecap="round" stroke-linejoin="round"/>
<path d="M90.5986 91.5999C90.5986 91.5999 94.5986 88.5999 97.0986 88.0999C99.6986 87.5999 104.999 87.0999 105.299 89.2999" stroke="#0E1219" stroke-width="0.3359" stroke-miterlimit="10" stroke-linecap="round" stroke-linejoin="round"/>
<path d="M91.8994 94.2999C91.8994 94.2999 95.5994 91.4999 98.8994 91.2999C102.199 91.0999 103.799 90.7999 104.399 91.4999" stroke="#0E1219" stroke-width="0.3359" stroke-miterlimit="10" stroke-linecap="round" stroke-linejoin="round"/>
<path d="M165.2 122.5C167.8 123.8 170.1 125.6 172 127.8C175.4 131.7 176.6 136.9 176.6 142.1C176.6 145 175.9 148 175.8 150.9C175.7 152.7 176 154.7 177.1 156.2C178.6 158.3 181.1 159 183.3 160.2C185.7 161.5 188 163.1 189.6 165.2C193.2 170 193.6 177.2 191.5 182.6C190.5 185.4 188.7 187.9 186.3 189.7C183.5 191.7 180.1 192.5 176.7 192.7C166.2 193.4 155.7 191.8 145.4 190.2C137.9 189 130.3 187.8 123.2 185.1C117.1 182.8 111.7 179.4 110.1 172.7C108.1 164.8 112.8 156 120.5 153.4C123 152.6 125.9 152.3 127.7 150.1C129.9 147.3 128.8 143.4 128.5 140.3C127.9 134.5 129.2 128.3 133.8 124.4C140.4 118.9 147.8 118.6 155.9 119.6C159.1 120.1 162.3 121 165.2 122.5Z" fill="#240A19"/>
<path d="M165.599 155.2L163.399 172.7L142.199 173.1L142.899 167.8L143.499 163.1L163.699 155.8L165.599 155.2Z" fill="#FF9C87"/>
<path d="M163.699 155.8C163.899 160.1 161.599 164.4 158.099 166.9C154.499 169.4 149.699 170.1 145.399 168.9C144.499 168.7 143.599 168.3 142.899 167.7L143.499 163L163.699 155.8Z" fill="#FF836D"/>
<path d="M167.099 145.5C168.799 144.5 170.799 144.5 172.399 146.4C172.599 146.7 172.799 147 172.999 147.3C173.799 149.3 173.399 152 171.799 153.5C170.299 154.9 167.699 155.7 165.699 155C163.599 154.3 163.199 152.1 163.599 150.2C163.899 148.5 165.299 146.5 167.099 145.5Z" fill="#FF9C87"/>
<path d="M169.899 148.9C168.699 149.3 167.699 150.2 167.399 151.4" stroke="#0E1219" stroke-width="0.5" stroke-miterlimit="10" stroke-linecap="round" stroke-linejoin="round"/>
<path d="M133.199 135.9C134.699 127.5 142.299 121.2 151.499 121.2C151.799 121.2 152.099 121.2 152.399 121.2C162.199 121.7 169.999 129.4 169.999 138.9C169.999 140.9 169.699 142.7 169.099 144.5C168.599 146 167.899 147.4 166.999 148.7C165.899 160.1 160.699 166.9 144.799 165.2C128.499 163.6 133.199 135.9 133.199 135.9Z" fill="#FF9C87"/>
<path d="M152.467 143.822C152.507 142.829 151.734 141.991 150.741 141.951C149.747 141.911 148.91 142.684 148.87 143.678C148.83 144.671 149.603 145.509 150.596 145.548C151.59 145.588 152.427 144.815 152.467 143.822Z" fill="#240A19"/>
<path d="M139.075 142.508C139.112 141.569 138.382 140.778 137.444 140.741C136.506 140.703 135.715 141.433 135.677 142.371C135.64 143.31 136.37 144.101 137.308 144.138C138.246 144.176 139.037 143.446 139.075 142.508Z" fill="#240A19"/>
<path d="M141.498 142.1C140.798 144 140.298 145.9 139.998 147.9C139.798 149 140.498 150.1 141.498 150.5" stroke="#0E1219" stroke-width="0.5" stroke-miterlimit="10" stroke-linecap="round" stroke-linejoin="round"/>
<path d="M144.098 150.3C143.998 150.1 143.898 150 143.698 149.9C143.598 149.8 143.398 149.8 143.298 149.8C142.998 149.9 142.998 150.2 142.898 150.5" stroke="#0E1219" stroke-width="0.5" stroke-miterlimit="10" stroke-linecap="round" stroke-linejoin="round"/>
<path d="M149.099 138.6C148.899 138.8 148.599 139 148.599 139.3C148.599 139.6 148.799 139.8 149.099 140C149.399 140.1 149.699 140.2 150.099 140.2C151.099 140.3 152.199 140.2 152.899 139.6C152.999 139.5 153.099 139.4 153.099 139.3C153.199 139 152.999 138.8 152.799 138.6C151.699 137.7 150.199 137.8 149.099 138.6Z" fill="#240A19"/>
<path d="M136.099 136.5C135.899 136.7 135.699 136.9 135.599 137.2C135.599 137.5 135.799 137.7 136.099 137.9C136.399 138.1 136.699 138.1 137.099 138.1C138.099 138.2 139.199 138.1 139.799 137.4C139.899 137.3 139.999 137.2 139.999 137.1C140.099 136.8 139.899 136.6 139.699 136.4C138.599 135.6 137.099 135.7 136.099 136.5Z" fill="#240A19"/>
<path d="M143.599 153.7C144.499 152.3 146.399 151.6 148.099 152" stroke="#0E1219" stroke-width="0.5" stroke-miterlimit="10" stroke-linecap="round" stroke-linejoin="round"/>
<path d="M150.399 120.4C149.699 123.1 149.999 125.9 150.799 128.6C151.599 131.2 152.999 133.6 154.699 135.9C157.199 139.3 160.399 142.5 164.399 143.9C164.399 145.2 164.599 146.4 164.699 147.6C164.699 147.7 164.699 147.7 164.799 147.8C164.899 147.9 165.099 147.9 165.199 147.8C166.999 146.8 168.899 145.8 170.699 144.8C171.599 142.9 171.499 140.8 171.599 138.7C171.599 137.4 171.699 136.1 171.499 134.8C170.999 131.2 168.899 128 166.099 125.7C163.299 123.4 159.899 122 156.399 121.1C154.399 120.7 152.399 120.3 150.399 120.4Z" fill="#240A19"/>
<path d="M140.899 167.5L164.899 167C164.899 167 164.899 171.9 166.299 174.1C167.699 176.3 182.099 186.6 184.799 195.1C187.499 203.5 176.599 248.5 176.599 248.5C176.599 248.5 135.699 256.1 117.499 246.3C117.499 246.3 108.799 225.3 111.799 202.2C111.799 202.2 62.7992 179.3 58.0992 163.5C53.4992 147.7 80.1992 106.3 80.1992 106.3L95.9992 111.4C95.9992 111.4 81.7992 146.5 82.8992 149.5C83.9992 152.5 123.199 172.1 129.499 173.5C135.799 174.9 138.799 174 140.899 167.5Z" fill="#FEE9E8"/>
<path d="M148.6 205L164.6 200.1L169.8 214.5L183.4 193.4C183.4 193.4 188.3 197.2 186.5 220.2C184.7 243.2 181.6 253.8 169.1 255.3C149.1 257.8 148.6 205 148.6 205Z" fill="#FEE9E8"/>
<path d="M115.699 191.8C115.699 191.8 108.299 208 111.499 224.1C114.699 240.2 117.499 246.3 117.499 246.3" stroke="#0E1219" stroke-width="0.5334" stroke-miterlimit="10" stroke-linecap="round" stroke-linejoin="round"/>
<path d="M151.5 203.5C151.5 203.5 149.4 200.5 148.6 197.5C147.9 194.5 148.6 191.3 148.6 191.3C148.6 191.3 146.8 184.2 151.8 181.4C151.8 181.4 151.5 177.1 153 176.3C154.5 175.5 155.2 180.4 155.2 180.4C155.2 180.4 154.8 168.8 156.5 168.2C158.2 167.6 158.5 180.4 159.3 182C160 183.6 163.4 188.7 163.2 190.4C163 192.1 161.4 200.9 161.4 200.9L151.5 203.5Z" fill="#FF9C87"/>
<path d="M155.799 179.9C155.799 179.9 152.799 180.4 151.099 181.9C149.799 183.1 148.899 184.8 148.599 186.6C148.299 187.9 147.899 190.9 149.199 191.7C149.899 192.1 150.599 191.7 150.799 191" stroke="#0E1219" stroke-width="0.3419" stroke-miterlimit="10" stroke-linecap="round" stroke-linejoin="round"/>
<path d="M156.5 181.4C156.5 181.4 152.2 182.4 151.3 185.4C150.4 188.4 150.3 191.4 151.8 191.6C153.3 191.8 153.5 190.2 153.5 190.2" stroke="#0E1219" stroke-width="0.3419" stroke-miterlimit="10" stroke-linecap="round" stroke-linejoin="round"/>
<path d="M157.5 183C157.5 183 156 182.5 154.6 185.7C153.2 189.1 153.1 190.9 154.4 191.3C155.3 191.6 156.2 189.2 156.7 188" stroke="#0E1219" stroke-width="0.3419" stroke-miterlimit="10" stroke-linecap="round" stroke-linejoin="round"/>
<path d="M156.6 188.5C156.2 189.5 155.8 190.6 155.5 191.6C155.3 192.7 155.2 193.8 155.5 194.9" stroke="#0E1219" stroke-width="0.3419" stroke-miterlimit="10" stroke-linecap="round" stroke-linejoin="round"/>
<path d="M175.699 230.7L164.699 199.9L148.899 204.4C148.899 204.4 151.399 241.9 159.699 251.2" stroke="#0E1219" stroke-width="0.5334" stroke-miterlimit="10" stroke-linecap="round" stroke-linejoin="round"/>
<path class="question1" d="M205.5 173.2C206.4 171.5 208.5 170.8 210.2 171.7C212 172.6 212.6 174.6 211.7 176.4C210.8 178.1 208.8 178.8 207 177.9C205.3 177 204.6 174.9 205.5 173.2ZM210.9 168.8L210.6 168.7C210.3 168.5 210.1 168.2 210.1 167.8C210.1 166.4 210.4 165.1 210.9 164C212.3 161.3 214.9 160.6 217.6 159.9C218.9 159.5 219.9 159.2 220.5 158.9C221.1 158.6 221.5 158.2 221.8 157.7C222.5 156.3 221.7 154.9 220.3 154.2C218.8 153.4 216.9 153.4 215.3 153.7C215.1 153.7 214.9 153.7 214.7 153.6C214.5 153.5 214.3 153.3 214.3 153L214 150.4C213.9 150.2 214 150 214.1 149.8C214.2 149.5 214.5 149.4 214.7 149.3C217.6 148.7 220.2 149 222.5 150.2C226.3 152.2 228.1 155.9 226.1 159.7C224.9 162.1 222.9 163.1 220.4 163.9L219.3 164.2C218 164.5 217.1 164.9 216.5 165.1C215.9 165.4 215.4 165.8 215.2 166.3C215 166.8 214.8 167.4 214.7 168.2C214.7 168.4 214.6 168.5 214.6 168.6C214.5 168.7 214.4 168.8 214.3 168.9C214.1 169 214 169 213.8 169L210.9 168.8Z" fill="#FEE9E8"/>
<path class="question2" d="M84.4992 223.5L84.1992 223.7C83.8992 223.9 83.4992 223.9 83.1992 223.7C81.9992 222.9 81.0992 222 80.4992 221C78.9992 218.4 79.7992 215.8 80.6992 213.1C81.0992 211.8 81.2992 210.8 81.3992 210.1C81.4992 209.4 81.2992 208.8 81.0992 208.4C80.2992 207 78.6992 207 77.3992 207.8C75.8992 208.6 74.8992 210.2 74.2992 211.7C74.1992 211.9 74.0992 212.1 73.8992 212.2C73.6992 212.3 73.3992 212.3 73.1992 212.2L70.7992 211.1C70.5992 211.1 70.4992 210.9 70.3992 210.7C70.2992 210.4 70.1992 210.2 70.2992 209.9C71.2992 207.1 72.9992 205.1 75.1992 203.8C78.8992 201.7 82.9992 202.2 85.1992 205.9C86.5992 208.3 86.2992 210.4 85.5992 213L85.2992 214.1C84.8992 215.3 84.6992 216.3 84.5992 217C84.4992 217.7 84.5992 218.3 84.8992 218.8C85.1992 219.3 85.5992 219.7 86.1992 220.2C86.2992 220.3 86.3992 220.4 86.4992 220.5C86.5992 220.6 86.5992 220.8 86.5992 220.9C86.5992 221.1 86.4992 221.2 86.3992 221.3L84.4992 223.5ZM85.2992 230.4C84.2992 228.7 84.8992 226.6 86.5992 225.7C88.2992 224.7 90.3992 225.3 91.2992 226.9C92.2992 228.6 91.6992 230.6 89.9992 231.6C88.3992 232.6 86.2992 232.1 85.2992 230.4Z" fill="#FEE9E8"/>
</g>
<defs>
<clipPath id="clip0_496_2250">
<rect width="259" height="479" fill="white"/>
</clipPath>
</defs>


<style>

.cloud{
    animation: 5s ease-in-out infinite blick;
    transform-origin: 60% 30%;
}

@keyframes blick {
    0%{
        transform: scale(.3);
        opacity: 0;
    }
    50%{
        transform: scale(1);
        opacity: 1;
    }
    100%{
        transform: scale(1);
        opacity: 0;
    }
}

.question1 {
    animation: 3s linear .2s infinite qanim;
    transform-origin: 77% 36%;
}

.question2{
    animation: 4s linear infinite reverse qanim;
   transform-origin: 35% 45%;
}
@keyframes qanim {

    0%{
        transform: rotate(0);
    }
    50%{
        transform: rotate(26deg);
    }
    100%{
        
       transform: rotate(0);
    }
    
}

</style>

</svg>
