<svg width="175" height="64" viewBox="0 0 175 64" fill="none" xmlns="http://www.w3.org/2000/svg">
<path d="M77.8539 27.0081L81.2008 11.1105H93.5301L92.718 15.0355H85.6797L85.2367 17.0597H91.3645L90.5278 21.0835H84.4L83.957 23.083H90.9953L90.1832 27.0081H77.8539Z" fill="white"/>
<path d="M92.5458 27.0081L95.0067 15.307H99.9532L99.904 16.097C100.396 15.8172 101.031 15.5749 101.811 15.3692C102.59 15.1635 103.399 15.0602 104.235 15.0602C105.351 15.0602 106.188 15.3189 106.745 15.8373C107.303 16.3557 107.582 17.1009 107.582 18.0709C107.582 18.2849 107.566 18.5116 107.533 18.7493C107.5 18.988 107.459 19.2394 107.41 19.5027L105.835 27.0072H100.544L101.996 20.1198C102.012 20.0376 102.024 19.9635 102.033 19.8977C102.041 19.8318 102.045 19.766 102.045 19.7002C102.045 19.2229 101.733 18.9843 101.11 18.9843C100.798 18.9843 100.486 19.0501 100.175 19.1818C99.863 19.3134 99.6005 19.4698 99.3872 19.6508L97.8368 27.0072H92.5458V27.0081Z" fill="white"/>
<path d="M112.356 31.3527C112.094 31.3527 111.724 31.3408 111.249 31.3161C110.773 31.2914 110.309 31.2585 109.859 31.2174C109.407 31.1762 109.075 31.1388 108.861 31.1068L109.624 27.5273C109.953 27.6096 110.379 27.6837 110.904 27.7495C111.429 27.8153 111.888 27.8482 112.282 27.8482C113.644 27.8482 114.62 27.7531 115.211 27.5648C115.801 27.3756 116.154 27.0748 116.269 26.6633L116.318 26.4658C115.957 26.6304 115.506 26.7749 114.965 26.8983C114.423 27.0217 113.915 27.083 113.439 27.083C112.094 27.083 110.986 26.7584 110.117 26.1074C109.247 25.4574 108.812 24.4169 108.812 22.9851C108.812 22.475 108.87 21.9401 108.985 21.3806C109.395 19.3399 110.182 17.7765 111.347 16.6903C112.512 15.6041 114.038 15.061 115.924 15.061C116.63 15.061 117.232 15.1598 117.733 15.3573C118.233 15.5547 118.647 15.8181 118.976 16.1472L119.394 15.3079H123.972L121.88 25.1822C121.601 26.4823 121.117 27.5932 120.428 28.5148C119.739 29.4364 118.746 30.1394 117.45 30.6249C116.154 31.1095 114.456 31.3527 112.356 31.3527ZM115.555 23.4039C116.13 23.4039 116.638 23.2393 117.081 22.9102L117.819 19.4295C117.508 19.0674 117.097 18.8864 116.589 18.8864C115.949 18.8864 115.465 19.0839 115.137 19.4789C114.809 19.8738 114.555 20.4992 114.374 21.355C114.341 21.5525 114.312 21.7335 114.287 21.8981C114.263 22.0626 114.25 22.2108 114.25 22.3424C114.25 22.7703 114.361 23.0546 114.583 23.1945C114.805 23.3344 115.129 23.4039 115.555 23.4039Z" fill="white"/>
<path d="M129.214 27.2549C127.901 27.2549 126.859 26.9011 126.088 26.1934C125.317 25.4858 124.932 24.4819 124.932 23.1818C124.932 22.9349 124.944 22.6798 124.969 22.4165C124.994 22.1532 125.038 21.8899 125.105 21.6266C125.548 19.4542 126.405 17.8168 127.676 16.7141C128.947 15.6115 130.428 15.0602 132.118 15.0602C132.775 15.0602 133.316 15.1461 133.743 15.3189C134.169 15.4917 134.497 15.6938 134.727 15.9233L134.85 15.3061H140.141L137.68 27.0072H133.103L133.029 26.1678C132.504 26.5134 131.938 26.7813 131.331 26.9697C130.723 27.1598 130.018 27.2549 129.214 27.2549ZM131.699 23.4533C132.044 23.4533 132.347 23.4039 132.61 23.3052C132.872 23.2065 133.085 23.0748 133.25 22.9102L133.988 19.3802C133.873 19.2156 133.721 19.0922 133.532 19.0099C133.343 18.9276 133.102 18.8865 132.807 18.8865C132.2 18.8865 131.707 19.1214 131.33 19.5905C130.953 20.0595 130.674 20.7379 130.493 21.6266C130.477 21.7747 130.456 21.9109 130.432 22.0344C130.408 22.1578 130.395 22.2693 130.395 22.3681C130.395 22.7795 130.51 23.0638 130.739 23.2193C130.969 23.3756 131.289 23.4533 131.699 23.4533Z" fill="white"/>
<path d="M144.693 31.3528C144.431 31.3528 144.061 31.3409 143.586 31.3162C143.11 31.2916 142.646 31.2586 142.196 31.2175C141.744 31.1764 141.412 31.1389 141.199 31.1069L141.961 27.5274C142.29 27.6097 142.716 27.6838 143.241 27.7496C143.766 27.8154 144.225 27.8484 144.619 27.8484C145.981 27.8484 146.957 27.7533 147.548 27.5649C148.138 27.3757 148.491 27.0749 148.606 26.6634L148.655 26.466C148.294 26.6305 147.843 26.775 147.302 26.8984C146.76 27.0218 146.252 27.0831 145.776 27.0831C144.431 27.0831 143.323 26.7585 142.454 26.1076C141.584 25.4575 141.149 24.417 141.149 22.9853C141.149 22.4751 141.207 21.9402 141.322 21.3807C141.732 19.34 142.519 17.7766 143.684 16.6904C144.849 15.6042 146.375 15.0612 148.261 15.0612C148.967 15.0612 149.569 15.1599 150.07 15.3574C150.57 15.5549 150.984 15.8182 151.313 16.1473L151.731 15.308H156.309L154.217 25.1823C153.938 26.4824 153.454 27.5933 152.765 28.5149C152.076 29.4365 151.083 30.1396 149.787 30.625C148.49 31.1096 146.792 31.3528 144.693 31.3528ZM147.892 23.404C148.466 23.404 148.975 23.2394 149.418 22.9103L150.156 19.4296C149.845 19.0676 149.434 18.8865 148.926 18.8865C148.286 18.8865 147.802 19.084 147.474 19.479C147.146 19.874 146.891 20.4993 146.711 21.3551C146.678 21.5526 146.65 21.7336 146.624 21.8982C146.6 22.0628 146.587 22.2109 146.587 22.3425C146.587 22.7704 146.698 23.0548 146.92 23.1946C147.141 23.3345 147.465 23.404 147.892 23.404Z" fill="white"/>
<path d="M163.321 27.255C162.173 27.255 161.151 27.0776 160.257 26.7238C159.363 26.37 158.657 25.8479 158.14 25.1567C157.624 24.4655 157.366 23.6097 157.366 22.5894C157.366 22.1615 157.415 21.7007 157.513 21.207C157.792 19.9562 158.222 18.8746 158.805 17.9613C159.387 17.0479 160.199 16.3366 161.241 15.8264C162.283 15.3162 163.624 15.0612 165.264 15.0612C166.889 15.0612 168.172 15.4689 169.116 16.2826C170.059 17.0973 170.531 18.1633 170.531 19.4799C170.531 19.6609 170.519 19.8502 170.493 20.0477C170.469 20.2452 170.44 20.4426 170.408 20.6401L169.989 22.6644H162.065C162.147 23.1416 162.442 23.4872 162.951 23.7012C163.46 23.9151 164.264 24.0221 165.363 24.0221C166.085 24.0221 166.798 23.9608 167.504 23.8365C168.209 23.713 168.783 23.5695 169.226 23.4049L168.587 26.4166C167.308 26.9752 165.552 27.255 163.321 27.255ZM162.411 19.8986H166.299L166.348 19.5777C166.397 19.2321 166.294 18.9359 166.04 18.689C165.786 18.4422 165.355 18.3188 164.748 18.3188C164.042 18.3188 163.501 18.4586 163.123 18.7384C162.747 19.0182 162.509 19.4049 162.411 19.8986Z" fill="white"/>
<path d="M83.1202 51.5833C82.0538 51.5833 81.0366 51.4928 80.0686 51.3117C79.1007 51.1307 78.305 50.8756 77.6815 50.5465L78.5675 46.3993C79.2565 46.7613 80.0395 47.0576 80.9181 47.288C81.7958 47.5184 82.6198 47.6336 83.3918 47.6336C84.0481 47.6336 84.5685 47.5677 84.955 47.4361C85.3405 47.3044 85.5656 47.0576 85.6313 46.6955C85.7133 46.2841 85.5082 45.9842 85.016 45.794C84.5238 45.6048 83.802 45.3369 82.8504 44.9922C81.784 44.5972 80.9719 44.1081 80.4141 43.5229C79.8563 42.9387 79.5774 42.1862 79.5774 41.2637C79.5774 40.8852 79.6266 40.4902 79.725 40.0788C80.0859 38.3673 80.8935 37.1248 82.1486 36.3513C83.4037 35.5778 85.2038 35.191 87.5508 35.191C88.1086 35.191 88.6956 35.2285 89.3108 35.3017C89.926 35.3757 90.5121 35.4662 91.0699 35.5732C91.6277 35.6802 92.0953 35.8 92.4727 35.9307L91.5867 40.1026C90.832 39.7734 90.1184 39.5394 89.4457 39.3986C88.7731 39.2587 88.1496 39.1892 87.5754 39.1892C87.1652 39.1892 86.7715 39.2102 86.3941 39.2505C86.0168 39.2916 85.7087 39.3821 85.4718 39.522C85.2339 39.6619 85.1145 39.8804 85.1145 40.1766C85.1145 40.44 85.3068 40.642 85.6923 40.7819C86.0779 40.9218 86.6895 41.1147 87.5262 41.3616C88.9207 41.773 89.8841 42.3243 90.4182 43.0155C90.9514 43.7067 91.2176 44.4884 91.2176 45.3606C91.2176 45.7885 91.1684 46.2246 91.0699 46.669C90.7582 48.1501 89.9579 49.3396 88.671 50.2365C87.3822 51.1353 85.5319 51.5833 83.1202 51.5833Z" fill="white"/>
<path d="M91.4872 56.4708L95.0309 39.6352H99.6083L99.6821 40.4992C100.207 40.1536 100.769 39.882 101.368 39.6845C101.967 39.487 102.619 39.3883 103.324 39.3883C104.653 39.3883 105.72 39.7467 106.524 40.4626C107.327 41.1785 107.729 42.2445 107.729 43.6589C107.729 44.2185 107.656 44.8356 107.508 45.5104C107.065 47.6004 106.286 49.1355 105.17 50.1138C104.054 51.093 102.57 51.583 100.716 51.583C100.224 51.583 99.7104 51.5337 99.1772 51.4349C98.644 51.3362 98.2211 51.2045 97.9103 51.04L96.7536 56.4708H91.4872ZM100.002 47.7568C100.56 47.7568 101.011 47.5803 101.356 47.2265C101.7 46.8726 101.963 46.2683 102.143 45.4125C102.176 45.215 102.204 45.0294 102.229 44.8566C102.253 44.6838 102.266 44.5321 102.266 44.3995C102.266 43.9552 102.159 43.6461 101.946 43.4742C101.733 43.3014 101.413 43.2155 100.986 43.2155C100.675 43.2155 100.388 43.2649 100.125 43.3636C99.8626 43.4624 99.6411 43.594 99.4607 43.7586L98.6978 47.2886C98.9767 47.6004 99.4114 47.7568 100.002 47.7568Z" fill="white"/>
<path d="M113.513 51.583C112.2 51.583 111.159 51.2292 110.387 50.5216C109.616 49.8139 109.231 48.81 109.231 47.5099C109.231 47.2631 109.243 47.008 109.267 46.7446C109.292 46.4813 109.337 46.218 109.403 45.9547C109.846 43.7824 110.703 42.1449 111.974 41.0422C113.246 39.9396 114.726 39.3883 116.416 39.3883C117.072 39.3883 117.614 39.4743 118.04 39.6471C118.467 39.8199 118.795 40.0219 119.024 40.2514L119.148 39.6342H124.439L121.978 51.3353H117.4L117.326 50.496C116.801 50.8416 116.235 51.1095 115.628 51.2978C115.022 51.488 114.317 51.583 113.513 51.583ZM115.998 47.7814C116.343 47.7814 116.646 47.7321 116.909 47.6333C117.171 47.5346 117.385 47.4029 117.549 47.2384L118.287 43.7083C118.172 43.5437 118.02 43.4203 117.832 43.338C117.644 43.2557 117.402 43.2146 117.107 43.2146C116.5 43.2146 116.008 43.4496 115.63 43.9186C115.253 44.3876 114.974 45.066 114.793 45.9547C114.777 46.1028 114.757 46.239 114.732 46.3625C114.708 46.4859 114.695 46.5974 114.695 46.6962C114.695 47.1076 114.81 47.392 115.04 47.5474C115.268 47.7037 115.588 47.7814 115.998 47.7814Z" fill="white"/>
<path d="M131.428 51.583C130.345 51.583 129.353 51.4139 128.451 51.0765C127.548 50.7392 126.83 50.2244 126.298 49.5332C125.764 48.842 125.497 47.9698 125.497 46.9165C125.497 46.4557 125.547 45.9785 125.645 45.4848C126.088 43.4112 127.023 41.877 128.451 40.8813C129.878 39.8857 131.724 39.3883 133.988 39.3883C134.89 39.3883 135.689 39.4496 136.388 39.573C137.085 39.6964 137.736 39.9149 138.344 40.2276L137.556 43.9305C136.654 43.4532 135.587 43.2146 134.357 43.2146C133.405 43.2146 132.659 43.3837 132.117 43.7211C131.576 44.0585 131.215 44.6464 131.035 45.4857C131.002 45.6338 130.977 45.7737 130.961 45.9053C130.944 46.037 130.936 46.1604 130.936 46.2756C130.936 46.8023 131.125 47.1808 131.502 47.4112C131.879 47.6416 132.519 47.7568 133.422 47.7568C134.012 47.7568 134.611 47.6791 135.218 47.5227C135.825 47.3664 136.416 47.157 136.99 46.8937L136.153 50.7693C135.431 51.0656 134.685 51.2758 133.914 51.3984C133.143 51.5209 132.314 51.583 131.428 51.583Z" fill="white"/>
<path d="M145.061 51.5831C143.913 51.5831 142.891 51.4058 141.997 51.0519C141.103 50.6981 140.397 50.1761 139.881 49.4849C139.364 48.7937 139.106 47.9379 139.106 46.9175C139.106 46.4896 139.155 46.0288 139.254 45.5351C139.532 44.2844 139.963 43.2028 140.545 42.2894C141.127 41.376 141.94 40.6647 142.981 40.1545C144.023 39.6444 145.364 39.3893 147.005 39.3893C148.629 39.3893 149.912 39.7971 150.856 40.6108C151.8 41.4254 152.271 42.4915 152.271 43.808C152.271 43.9891 152.259 44.1783 152.234 44.3758C152.209 44.5733 152.18 44.7708 152.148 44.9683L151.73 46.9925H143.805C143.887 47.4698 144.183 47.8154 144.691 48.0293C145.2 48.2432 146.004 48.3502 147.103 48.3502C147.825 48.3502 148.539 48.289 149.244 48.1646C149.949 48.0412 150.524 47.8976 150.967 47.7331L150.327 50.7447C149.048 51.3034 147.293 51.5831 145.061 51.5831ZM144.151 44.2268H148.039L148.088 43.9059C148.137 43.5603 148.034 43.264 147.78 43.0172C147.526 42.7703 147.095 42.6469 146.488 42.6469C145.782 42.6469 145.241 42.7868 144.864 43.0666C144.487 43.3463 144.249 43.7331 144.151 44.2268Z" fill="white"/>
<path d="M157.884 51.5831C156.834 51.5831 155.857 51.5045 154.955 51.3481C154.053 51.1918 153.372 51.0071 152.912 50.7923L153.675 47.2375C154.02 47.435 154.43 47.6041 154.906 47.744C155.382 47.8839 155.866 47.9872 156.358 48.0531C156.85 48.1189 157.276 48.1518 157.637 48.1518C158.146 48.1518 158.543 48.1353 158.831 48.1024C159.118 48.0695 159.262 47.9461 159.262 47.7321C159.262 47.5182 159.007 47.3491 158.499 47.2256C157.99 47.1022 157.416 46.9166 156.776 46.6697C156.021 46.3735 155.423 46.016 154.98 45.5955C154.537 45.1758 154.315 44.6199 154.315 43.9296C154.315 43.798 154.328 43.6663 154.353 43.5347C154.377 43.403 154.397 43.2713 154.414 43.1397C154.676 41.9219 155.328 40.992 156.37 40.3502C157.411 39.7084 159.023 39.3875 161.206 39.3875C161.714 39.3875 162.251 39.4167 162.817 39.4734C163.383 39.531 163.913 39.6014 164.405 39.6828C164.897 39.7651 165.291 39.8638 165.586 39.979L164.848 43.4844C164.389 43.254 163.875 43.0857 163.309 42.9788C162.743 42.8718 162.222 42.8179 161.746 42.8179C161.32 42.8179 160.898 42.8343 160.479 42.8672C160.061 42.9001 159.827 43.0153 159.777 43.2128C159.745 43.4268 159.958 43.5877 160.417 43.6937C160.877 43.8007 161.435 43.9616 162.091 44.1756C163.059 44.4718 163.751 44.822 164.171 45.2243C164.589 45.6275 164.798 46.1587 164.798 46.8169C164.798 46.9651 164.786 47.1177 164.76 47.2741C164.736 47.4304 164.707 47.5996 164.674 47.7806C164.428 48.9655 163.776 49.8953 162.718 50.5701C161.661 51.2457 160.048 51.5831 157.884 51.5831Z" fill="white"/>
<path d="M4.11609 29.633C4.11609 18.8042 12.867 10.0261 23.6623 10.0261C34.4576 10.0261 43.2085 18.8042 43.2085 29.633" fill="#00F8B8"/>
<path d="M43.2076 33.0735C43.2076 43.9023 34.4567 52.6803 23.6614 52.6803C12.8661 52.6803 4.11609 43.9014 4.11609 33.0735" fill="#00FF67"/>
<path d="M52.1214 38.3607C45.8378 31.7413 45.3593 21.3029 51.3293 14.1075C57.2903 6.923 67.5879 5.49397 75.2132 10.4622" fill="#FF008C"/>
<path d="M67.93 24.3446C74.2136 30.964 74.6921 41.4024 68.722 48.5978C62.7611 55.7823 52.4634 57.2113 44.8381 52.2431" fill="#FF008C"/>
</svg>
