<svg width="37" height="37" viewBox="0 0 37 37" fill="none" xmlns="http://www.w3.org/2000/svg">
<g clip-path="url(#clip0_165_506)">
<path fill-rule="evenodd" clip-rule="evenodd" d="M37.0006 18.4998C37.0006 28.717 28.718 36.9997 18.5008 36.9997C8.28364 36.9997 0.000976562 28.717 0.000976562 18.4998C0.000976562 8.28266 8.28364 0 18.5008 0C28.718 0 37.0006 8.28266 37.0006 18.4998ZM27.5398 12.2811C27.7737 12.8825 27.9369 13.5765 27.9815 14.5861C28.026 15.5994 28.0297 15.9223 28.0297 18.5019C28.0297 21.0815 28.0186 21.4043 27.9741 22.4177C27.9295 23.4272 27.7661 24.1176 27.5324 24.7227C27.0387 25.9994 26.0292 27.009 24.7523 27.5026C24.151 27.7365 23.457 27.8998 22.4475 27.9443C21.4341 27.9889 21.1113 27.9999 18.5317 27.9999C15.9521 27.9999 15.629 27.9889 14.6159 27.9443C13.6062 27.8998 12.9159 27.7365 12.3109 27.5026C11.6799 27.2652 11.1046 26.8902 10.6295 26.4077C10.1469 25.9326 9.77215 25.361 9.53089 24.7227C9.29702 24.1213 9.13363 23.4272 9.08911 22.4177C9.0446 21.4043 9.03344 21.0815 9.03344 18.5019C9.03344 15.9223 9.0446 15.5994 9.09288 14.5823C9.13739 13.5727 9.30065 12.8825 9.53451 12.2774C9.77215 11.6464 10.1469 11.0711 10.6295 10.596C11.1046 10.1097 11.6761 9.73856 12.3146 9.49731C12.9159 9.26359 13.6099 9.10019 14.6195 9.05568C15.6328 9.01116 15.9557 9 18.5353 9C21.1149 9 21.4378 9.01116 22.4549 9.05945C23.4644 9.10396 24.1548 9.26721 24.7597 9.50107C25.3907 9.73856 25.966 10.1135 26.4411 10.596C26.9274 11.0711 27.2986 11.6427 27.5398 12.2811ZM25.9438 24.1065C26.0737 23.7724 26.2296 23.2713 26.2705 22.3434C26.315 21.3413 26.3261 21.0443 26.3261 18.5093C26.3261 15.9742 26.315 15.6736 26.2705 14.6714C26.2296 13.7472 26.0737 13.2425 25.9438 12.9084C25.7916 12.4964 25.5503 12.1252 25.2348 11.8171C24.9305 11.5016 24.5556 11.2603 24.1437 11.1083C23.8096 10.9783 23.3085 10.8225 22.3806 10.7816C21.3821 10.7371 21.0815 10.7259 18.5427 10.7259C16.0077 10.7259 15.707 10.7371 14.7049 10.7816C13.7807 10.8225 13.2759 10.9783 12.9418 11.1083C12.5298 11.2603 12.1586 11.5016 11.8507 11.8171C11.5314 12.1216 11.2902 12.4964 11.1379 12.9084C11.008 13.2425 10.8522 13.7435 10.8114 14.6714C10.7668 15.6698 10.7557 15.9742 10.7557 18.5093C10.7557 21.0443 10.7668 21.345 10.8114 22.3472C10.8522 23.2713 11.008 23.7762 11.1379 24.1102C11.2902 24.5221 11.5314 24.8933 11.8469 25.2014C12.1512 25.5169 12.5262 25.7582 12.9381 25.9104C13.2721 26.0403 13.7732 26.1962 14.7011 26.2369C15.6996 26.2816 16.004 26.2926 18.5391 26.2926C21.0741 26.2926 21.3747 26.2816 22.3768 26.2369C23.3011 26.1962 23.8058 26.0403 24.1399 25.9104C24.9676 25.5911 25.6245 24.9342 25.9438 24.1065ZM18.5352 13.621C15.8406 13.621 13.6543 15.8071 13.6543 18.5018C13.6543 21.1966 15.8406 23.3827 18.5352 23.3827C21.2299 23.3827 23.416 21.1966 23.416 18.5018C23.416 15.8071 21.2299 13.621 18.5352 13.621ZM18.5352 21.6679C16.7871 21.6679 15.3691 20.2501 15.3691 18.5018C15.3691 16.7536 16.7871 15.3358 18.5352 15.3358C20.2834 15.3358 21.7013 16.7536 21.7013 18.5018C21.7013 20.2501 20.2834 21.6679 18.5352 21.6679ZM23.6094 14.5675C24.2388 14.5675 24.749 14.0573 24.749 13.428C24.749 12.7986 24.2388 12.2886 23.6094 12.2886C22.9802 12.2886 22.47 12.7986 22.47 13.428C22.47 14.0573 22.9802 14.5675 23.6094 14.5675Z" fill="white"/>
</g>
<defs>
<clipPath id="clip0_165_506">
<rect width="37" height="37" fill="white"/>
</clipPath>
</defs>
</svg>
