<svg width="37" height="37" viewBox="0 0 37 37" fill="none" xmlns="http://www.w3.org/2000/svg">
<path fill-rule="evenodd" clip-rule="evenodd" d="M37 18.5C37 28.7173 28.7173 37 18.5 37C8.28273 37 0 28.7173 0 18.5C0 8.28273 8.28273 0 18.5 0C28.7173 0 37 8.28273 37 18.5ZM22.8814 19.3252L23.1881 16.7498C23.1967 16.682 23.1908 16.6131 23.171 16.5477C23.1512 16.4822 23.1178 16.4217 23.073 16.37C23.0282 16.3184 22.973 16.2767 22.9111 16.2478C22.8491 16.2188 22.7818 16.2033 22.7134 16.2021H19.7169V14.0478C19.7169 13.0693 19.9749 12.4145 21.343 12.3926H22.6063C22.7354 12.3926 22.8593 12.3413 22.9506 12.25C23.0419 12.1587 23.0932 12.0348 23.0932 11.9057V9.73684C23.0932 9.60772 23.0419 9.48389 22.9506 9.39259C22.8593 9.30129 22.7354 9.25 22.6063 9.25H20.5445C18.0276 9.25 16.309 10.8225 16.309 13.7119V16.2094H14.2935C14.1644 16.2094 14.0405 16.2607 13.9492 16.352C13.8579 16.4433 13.8066 16.5671 13.8066 16.6962V19.2716C13.8066 19.4008 13.8579 19.5246 13.9492 19.6159C14.0405 19.7072 14.1644 19.7585 14.2935 19.7585H16.3212L16.3066 27.3995C16.3059 27.4449 16.3142 27.4899 16.331 27.5321C16.3478 27.5743 16.3727 27.6128 16.4044 27.6453C16.436 27.6779 16.4738 27.7039 16.5155 27.7218C16.5571 27.7398 16.602 27.7494 16.6474 27.75H19.3761C19.4674 27.7487 19.5544 27.7114 19.6183 27.6462C19.6821 27.581 19.7176 27.4932 19.7169 27.4019V19.7585H22.3945C22.5149 19.7592 22.6313 19.7153 22.7212 19.6353C22.8111 19.5553 22.8681 19.4448 22.8814 19.3252Z" fill="white"/>
</svg>
