<svg width="37" height="37" viewBox="0 0 37 37" fill="none" xmlns="http://www.w3.org/2000/svg">
<path fill-rule="evenodd" clip-rule="evenodd" d="M18.5 37C28.7173 37 37 28.7173 37 18.5C37 8.28273 28.7173 0 18.5 0C8.28273 0 0 8.28273 0 18.5C0 28.7173 8.28273 37 18.5 37ZM25.026 11.974C23.4866 10.4172 21.4413 9.462 19.2593 9.28095C17.0774 9.09991 14.9026 9.70493 13.1276 10.9868C11.3527 12.2686 10.0945 14.1429 9.58022 16.2711C9.06597 18.3992 9.32956 20.6412 10.3234 22.5921L9.34969 27.3193C9.33927 27.3665 9.33886 27.4154 9.34851 27.4628C9.35815 27.5102 9.37763 27.555 9.40568 27.5944C9.44585 27.654 9.50328 27.6999 9.57027 27.726C9.63726 27.7521 9.71062 27.7572 9.78055 27.7404L14.4055 26.6426C16.3511 27.6104 18.5769 27.8564 20.6868 27.3368C22.7968 26.8173 24.6539 25.5659 25.9276 23.8054C27.2014 22.045 27.8091 19.8896 27.6427 17.7231C27.4763 15.5565 26.5464 13.5193 25.0187 11.974H25.026ZM23.5782 23.5068C22.5138 24.5685 21.1435 25.2702 19.6599 25.5133C18.1753 25.7565 16.6519 25.5283 15.3038 24.8608L14.6563 24.5394L11.8155 25.2113V25.1748L12.4144 22.3097L12.0979 21.6865C11.4086 20.3347 11.1652 18.7993 11.4027 17.3006C11.6401 15.8019 12.3463 14.417 13.4197 13.3445C14.7675 11.9981 16.5947 11.2418 18.4999 11.2418C20.405 11.2418 22.2322 11.9981 23.5801 13.3445L23.6117 13.3883C24.942 14.739 25.6847 16.5607 25.6778 18.4566C25.671 20.351 24.9164 22.166 23.5782 23.5068ZM21.7399 22.8063C22.4287 22.6384 22.9813 21.969 23.3294 21.4213C23.3869 21.3338 23.423 21.234 23.4347 21.13C23.4465 21.0259 23.4336 20.9206 23.3971 20.8225C23.3606 20.7244 23.3015 20.6362 23.2246 20.5652C23.1478 20.4941 23.0552 20.4422 22.9545 20.4135L21.1776 19.9048C21.0605 19.8713 20.9365 19.8708 20.8192 19.9035C20.7019 19.9361 20.5959 20.0006 20.513 20.0898L20.0773 20.5328C19.988 20.6246 19.8734 20.6877 19.7482 20.7141C19.6229 20.7406 19.4926 20.7291 19.3738 20.6813C18.7231 20.3449 18.1246 19.9161 17.5968 19.4082C17.1063 18.9933 16.6747 18.5134 16.314 17.9817C16.2502 17.8705 16.221 17.7428 16.2301 17.6149C16.2392 17.487 16.2862 17.3647 16.3651 17.2636L16.7449 16.7768C16.8179 16.6826 16.864 16.5704 16.8781 16.452C16.8923 16.3337 16.874 16.2137 16.8252 16.105L16.0779 14.4156C16.0369 14.3208 15.9743 14.2369 15.8951 14.1707C15.8159 14.1044 15.7223 14.0575 15.6218 14.0339C15.5213 14.0102 15.4166 14.0104 15.3162 14.0344C15.2157 14.0585 15.1223 14.1056 15.0434 14.1722C14.5468 14.5909 13.9577 15.2286 13.8871 15.937C13.7678 17.1809 14.3034 18.7509 16.3213 20.635L16.3505 20.6618C18.6703 22.8063 20.5228 23.0984 21.7399 22.8063Z" fill="white"/>
</svg>
