<svg width="19" height="20" viewBox="0 0 19 20" fill="none" xmlns="http://www.w3.org/2000/svg">
<g clip-path="url(#clip0_165_557)">
<path d="M18.9815 6.08605C18.9369 5.07651 18.7737 4.38246 18.5398 3.78105C18.2986 3.14267 17.9274 2.57114 17.4411 2.09601C16.966 1.6135 16.3907 1.23856 15.7597 1.00107C15.1548 0.767211 14.4644 0.603956 13.4549 0.559445C12.4378 0.511164 12.1149 0.5 9.53529 0.5C6.95569 0.5 6.6328 0.511164 5.61949 0.555675C4.60995 0.600186 3.9159 0.763586 3.31464 0.997305C2.67612 1.23856 2.10458 1.60973 1.62946 2.09601C1.14694 2.57114 0.772154 3.14644 0.534521 3.77743C0.300658 4.38246 0.137403 5.07274 0.0928918 6.08228C0.0446112 7.09936 0.0334473 7.42225 0.0334473 10.0019C0.0334473 12.5815 0.0446112 12.9043 0.0891221 13.9177C0.133633 14.9272 0.297033 15.6213 0.530896 16.2227C0.772154 16.861 1.14694 17.4326 1.62946 17.9077C2.10458 18.3902 2.67989 18.7651 3.31087 19.0026C3.9159 19.2365 4.60618 19.3998 5.61587 19.4443C6.62903 19.4889 6.95206 19.4999 9.53167 19.4999C12.1113 19.4999 12.4342 19.4889 13.4475 19.4443C14.457 19.3998 15.1511 19.2365 15.7523 19.0026C17.0292 18.509 18.0388 17.4994 18.5324 16.2227C18.7662 15.6176 18.9296 14.9272 18.9741 13.9177C19.0186 12.9043 19.0297 12.5815 19.0297 10.0019C19.0297 7.42225 19.026 7.09936 18.9815 6.08605ZM17.2705 13.8434C17.2296 14.7713 17.0737 15.2724 16.9438 15.6065C16.6246 16.4342 15.9676 17.0911 15.1399 17.4104C14.8058 17.5403 14.3011 17.6962 13.3769 17.7369C12.3747 17.7816 12.0742 17.7926 9.53906 17.7926C7.00397 17.7926 6.69964 17.7816 5.70112 17.7369C4.7732 17.6962 4.27213 17.5403 3.93808 17.4104C3.52618 17.2582 3.15124 17.0169 2.84691 16.7014C2.53142 16.3933 2.29016 16.0221 2.13793 15.6102C2.00802 15.2762 1.85216 14.7713 1.81142 13.8472C1.76676 12.845 1.75574 12.5443 1.75574 10.0093C1.75574 7.47416 1.76676 7.16983 1.81142 6.17145C1.85216 5.24353 2.00802 4.74246 2.13793 4.40841C2.29016 3.99636 2.53142 3.62157 2.85068 3.31709C3.15863 3.0016 3.5298 2.76034 3.94185 2.60825C4.2759 2.47835 4.78074 2.32248 5.70489 2.2816C6.70704 2.23709 7.00774 2.22592 9.54269 2.22592C12.0815 2.22592 12.3821 2.23709 13.3806 2.2816C14.3085 2.32248 14.8096 2.47835 15.1437 2.60825C15.5556 2.76034 15.9305 3.0016 16.2348 3.31709C16.5503 3.62519 16.7916 3.99636 16.9438 4.40841C17.0737 4.74246 17.2296 5.24716 17.2705 6.17145C17.315 7.1736 17.3261 7.47416 17.3261 10.0093C17.3261 12.5443 17.315 12.8413 17.2705 13.8434Z" fill="#0A2533"/>
<path d="M9.53513 5.12109C6.84055 5.12109 4.6543 7.30721 4.6543 10.0019C4.6543 12.6967 6.84055 14.8828 9.53513 14.8828C12.2299 14.8828 14.416 12.6967 14.416 10.0019C14.416 7.30721 12.2299 5.12109 9.53513 5.12109ZM9.53513 13.168C7.78703 13.168 6.36906 11.7502 6.36906 10.0019C6.36906 8.25368 7.78703 6.83585 9.53513 6.83585C11.2834 6.83585 12.7012 8.25368 12.7012 10.0019C12.7012 11.7502 11.2834 13.168 9.53513 13.168Z" fill="#0A2533"/>
<path d="M15.749 4.92803C15.749 5.55727 15.2388 6.06748 14.6094 6.06748C13.9802 6.06748 13.47 5.55727 13.47 4.92803C13.47 4.29864 13.9802 3.78857 14.6094 3.78857C15.2388 3.78857 15.749 4.29864 15.749 4.92803Z" fill="#0A2533"/>
</g>
<defs>
<clipPath id="clip0_165_557">
<rect width="19" height="19" fill="white" transform="translate(0 0.5)"/>
</clipPath>
</defs>
</svg>
