<svg width="26" height="26" viewBox="0 0 26 26" fill="none" xmlns="http://www.w3.org/2000/svg">
<path d="M13 5.57153C12.0817 5.57153 11.1841 5.84383 10.4206 6.354C9.65706 6.86416 9.06197 7.58927 8.71057 8.43765C8.35916 9.28602 8.26721 10.2195 8.44636 11.1202C8.62551 12.0208 9.0677 12.8481 9.71701 13.4974C10.3663 14.1467 11.1936 14.5889 12.0942 14.768C12.9949 14.9472 13.9284 14.8552 14.7768 14.5038C15.6251 14.1524 16.3502 13.5573 16.8604 12.7938C17.3706 12.0303 17.6429 11.1327 17.6429 10.2144C17.6429 8.98303 17.1537 7.8021 16.283 6.93139C15.4123 6.06069 14.2314 5.57153 13 5.57153ZM13 13.0001C12.449 13.0001 11.9105 12.8367 11.4523 12.5306C10.9942 12.2245 10.6372 11.7895 10.4263 11.2804C10.2155 10.7714 10.1603 10.2113 10.2678 9.67092C10.3753 9.13055 10.6406 8.63418 11.0302 8.24459C11.4198 7.855 11.9162 7.58969 12.4565 7.4822C12.9969 7.37471 13.557 7.42988 14.0661 7.64073C14.5751 7.85157 15.0101 8.20862 15.3162 8.66673C15.6223 9.12484 15.7857 9.66343 15.7857 10.2144C15.785 10.953 15.4913 11.6611 14.969 12.1834C14.4467 12.7056 13.7386 12.9994 13 13.0001Z" fill="#0A2533"/>
<path d="M13 0C10.4288 0 7.91543 0.762437 5.77759 2.19089C3.63975 3.61935 1.97351 5.64967 0.989572 8.02511C0.00563268 10.4006 -0.251811 13.0144 0.249797 15.5362C0.751405 18.0579 1.98953 20.3743 3.80762 22.1924C5.6257 24.0105 7.94208 25.2486 10.4638 25.7502C12.9856 26.2518 15.5994 25.9944 17.9749 25.0104C20.3503 24.0265 22.3806 22.3602 23.8091 20.2224C25.2376 18.0846 26 15.5712 26 13C25.9961 9.55339 24.6252 6.24907 22.188 3.81195C19.7509 1.37483 16.4466 0.00393224 13 0ZM7.42858 22.6358V21.3571C7.42931 20.6185 7.72304 19.9104 8.24531 19.3882C8.76757 18.8659 9.4757 18.5722 10.2143 18.5714H15.7857C16.5243 18.5722 17.2324 18.8659 17.7547 19.3882C18.277 19.9104 18.5707 20.6185 18.5714 21.3571V22.6358C16.8807 23.623 14.9579 24.1433 13 24.1433C11.0421 24.1433 9.11935 23.623 7.42858 22.6358ZM20.4211 21.2884C20.4026 20.0704 19.9064 18.9085 19.0393 18.0529C18.1723 17.1973 17.0038 16.7166 15.7857 16.7143H10.2143C8.99617 16.7166 7.82771 17.1973 6.96066 18.0529C6.09361 18.9085 5.59737 20.0704 5.57886 21.2884C3.89496 19.7848 2.70747 17.8052 2.17364 15.6118C1.63981 13.4183 1.78481 11.1144 2.58946 9.00515C3.3941 6.89592 4.82042 5.08083 6.67956 3.80024C8.5387 2.51965 10.743 1.83395 13.0005 1.83395C15.258 1.83395 17.4622 2.51965 19.3214 3.80024C21.1805 5.08083 22.6068 6.89592 23.4115 9.00515C24.2161 11.1144 24.3611 13.4183 23.8273 15.6118C23.2935 17.8052 22.106 19.7848 20.4221 21.2884H20.4211Z" fill="#0A2533"/>
</svg>
