<svg width="175" height="64" viewBox="0 0 175 64" fill="none" xmlns="http://www.w3.org/2000/svg">
<path d="M77.8539 27.008L81.2008 11.1104H93.5301L92.718 15.0354H85.6797L85.2367 17.0596H91.3645L90.5278 21.0834H84.4L83.957 23.0829H90.9953L90.1832 27.008H77.8539Z" fill="#695EA9"/>
<path d="M92.5458 27.0079L95.0067 15.3069H99.9532L99.904 16.0969C100.396 15.8171 101.031 15.5748 101.811 15.3691C102.59 15.1634 103.399 15.0601 104.235 15.0601C105.351 15.0601 106.188 15.3188 106.745 15.8372C107.303 16.3556 107.582 17.1007 107.582 18.0708C107.582 18.2847 107.566 18.5115 107.533 18.7492C107.5 18.9878 107.459 19.2393 107.41 19.5026L105.835 27.007H100.544L101.996 20.1197C102.012 20.0374 102.024 19.9634 102.033 19.8975C102.041 19.8317 102.045 19.7659 102.045 19.7001C102.045 19.2228 101.733 18.9842 101.11 18.9842C100.798 18.9842 100.486 19.05 100.175 19.1817C99.863 19.3133 99.6005 19.4697 99.3872 19.6507L97.8368 27.007H92.5458V27.0079Z" fill="#695EA9"/>
<path d="M112.356 31.3527C112.094 31.3527 111.724 31.3408 111.249 31.3161C110.773 31.2914 110.309 31.2585 109.859 31.2174C109.407 31.1762 109.075 31.1388 108.861 31.1068L109.624 27.5273C109.953 27.6096 110.379 27.6837 110.904 27.7495C111.429 27.8153 111.888 27.8482 112.282 27.8482C113.644 27.8482 114.62 27.7531 115.211 27.5648C115.801 27.3756 116.154 27.0748 116.269 26.6633L116.318 26.4658C115.957 26.6304 115.506 26.7749 114.965 26.8983C114.423 27.0217 113.915 27.083 113.439 27.083C112.094 27.083 110.986 26.7584 110.117 26.1074C109.247 25.4574 108.812 24.4169 108.812 22.9851C108.812 22.475 108.87 21.9401 108.985 21.3806C109.395 19.3399 110.182 17.7765 111.347 16.6903C112.512 15.6041 114.038 15.061 115.924 15.061C116.63 15.061 117.232 15.1598 117.733 15.3573C118.233 15.5547 118.647 15.8181 118.976 16.1472L119.394 15.3079H123.972L121.88 25.1822C121.601 26.4823 121.117 27.5932 120.428 28.5148C119.739 29.4364 118.746 30.1394 117.45 30.6249C116.154 31.1095 114.456 31.3527 112.356 31.3527ZM115.555 23.4039C116.13 23.4039 116.638 23.2393 117.081 22.9102L117.819 19.4295C117.508 19.0674 117.097 18.8864 116.589 18.8864C115.949 18.8864 115.465 19.0839 115.137 19.4789C114.809 19.8738 114.555 20.4992 114.374 21.355C114.341 21.5525 114.312 21.7335 114.287 21.8981C114.263 22.0626 114.25 22.2108 114.25 22.3424C114.25 22.7703 114.361 23.0546 114.583 23.1945C114.805 23.3344 115.129 23.4039 115.555 23.4039Z" fill="#695EA9"/>
<path d="M129.214 27.2548C127.901 27.2548 126.859 26.901 126.088 26.1933C125.317 25.4857 124.932 24.4818 124.932 23.1817C124.932 22.9348 124.944 22.6797 124.969 22.4164C124.994 22.1531 125.038 21.8898 125.105 21.6265C125.548 19.4541 126.405 17.8166 127.676 16.714C128.947 15.6114 130.428 15.0601 132.118 15.0601C132.775 15.0601 133.316 15.146 133.743 15.3188C134.169 15.4916 134.497 15.6937 134.727 15.9231L134.85 15.306H140.141L137.68 27.007H133.103L133.029 26.1677C132.504 26.5133 131.938 26.7812 131.331 26.9695C130.723 27.1597 130.018 27.2548 129.214 27.2548ZM131.699 23.4532C132.044 23.4532 132.347 23.4038 132.61 23.3051C132.872 23.2063 133.085 23.0747 133.25 22.9101L133.988 19.3801C133.873 19.2155 133.721 19.0921 133.532 19.0098C133.343 18.9275 133.102 18.8863 132.807 18.8863C132.2 18.8863 131.707 19.1213 131.33 19.5903C130.953 20.0594 130.674 20.7378 130.493 21.6265C130.477 21.7746 130.456 21.9108 130.432 22.0342C130.408 22.1577 130.395 22.2692 130.395 22.3679C130.395 22.7794 130.51 23.0637 130.739 23.2191C130.969 23.3755 131.289 23.4532 131.699 23.4532Z" fill="#695EA9"/>
<path d="M144.693 31.3527C144.431 31.3527 144.061 31.3408 143.586 31.3161C143.11 31.2914 142.646 31.2585 142.196 31.2174C141.744 31.1762 141.412 31.1388 141.199 31.1068L141.961 27.5273C142.29 27.6096 142.716 27.6837 143.241 27.7495C143.766 27.8153 144.225 27.8482 144.619 27.8482C145.981 27.8482 146.957 27.7531 147.548 27.5648C148.138 27.3756 148.491 27.0748 148.606 26.6633L148.655 26.4658C148.294 26.6304 147.843 26.7749 147.302 26.8983C146.76 27.0217 146.252 27.083 145.776 27.083C144.431 27.083 143.323 26.7584 142.454 26.1074C141.584 25.4574 141.149 24.4169 141.149 22.9851C141.149 22.475 141.207 21.9401 141.322 21.3806C141.732 19.3399 142.519 17.7765 143.684 16.6903C144.849 15.6041 146.375 15.061 148.261 15.061C148.967 15.061 149.569 15.1598 150.07 15.3573C150.57 15.5547 150.984 15.8181 151.313 16.1472L151.731 15.3079H156.309L154.217 25.1822C153.938 26.4823 153.454 27.5932 152.765 28.5148C152.076 29.4364 151.083 30.1394 149.787 30.6249C148.49 31.1095 146.792 31.3527 144.693 31.3527ZM147.892 23.4039C148.466 23.4039 148.975 23.2393 149.418 22.9102L150.156 19.4295C149.845 19.0674 149.434 18.8864 148.926 18.8864C148.286 18.8864 147.802 19.0839 147.474 19.4789C147.146 19.8738 146.891 20.4992 146.711 21.355C146.678 21.5525 146.65 21.7335 146.624 21.8981C146.6 22.0626 146.587 22.2108 146.587 22.3424C146.587 22.7703 146.698 23.0546 146.92 23.1945C147.141 23.3344 147.465 23.4039 147.892 23.4039Z" fill="#695EA9"/>
<path d="M163.321 27.2549C162.173 27.2549 161.151 27.0775 160.257 26.7237C159.363 26.3698 158.657 25.8478 158.14 25.1566C157.624 24.4654 157.366 23.6096 157.366 22.5893C157.366 22.1614 157.415 21.7006 157.513 21.2069C157.792 19.9561 158.222 18.8745 158.805 17.9611C159.387 17.0478 160.199 16.3365 161.241 15.8263C162.283 15.3161 163.624 15.061 165.264 15.061C166.889 15.061 168.172 15.4688 169.116 16.2825C170.059 17.0971 170.531 18.1632 170.531 19.4798C170.531 19.6608 170.519 19.8501 170.493 20.0475C170.469 20.245 170.44 20.4425 170.408 20.64L169.989 22.6642H162.065C162.147 23.1415 162.442 23.4871 162.951 23.701C163.46 23.915 164.264 24.0219 165.363 24.0219C166.085 24.0219 166.798 23.9607 167.504 23.8363C168.209 23.7129 168.783 23.5694 169.226 23.4048L168.587 26.4165C167.308 26.9751 165.552 27.2549 163.321 27.2549ZM162.411 19.8985H166.299L166.348 19.5776C166.397 19.232 166.294 18.9358 166.04 18.6889C165.786 18.4421 165.355 18.3186 164.748 18.3186C164.042 18.3186 163.501 18.4585 163.123 18.7383C162.747 19.0181 162.509 19.4048 162.411 19.8985Z" fill="#695EA9"/>
<path d="M83.1202 51.5831C82.0538 51.5831 81.0366 51.4926 80.0686 51.3116C79.1007 51.1306 78.305 50.8755 77.6815 50.5463L78.5675 46.3991C79.2565 46.7612 80.0395 47.0574 80.9181 47.2878C81.7958 47.5182 82.6198 47.6334 83.3918 47.6334C84.0481 47.6334 84.5685 47.5676 84.955 47.4359C85.3405 47.3043 85.5656 47.0574 85.6313 46.6954C85.7133 46.2839 85.5082 45.9841 85.016 45.7939C84.5238 45.6046 83.802 45.3367 82.8504 44.9921C81.784 44.5971 80.9719 44.1079 80.4141 43.5228C79.8563 42.9386 79.5774 42.1861 79.5774 41.2636C79.5774 40.8851 79.6266 40.4901 79.725 40.0787C80.0859 38.3671 80.8935 37.1246 82.1486 36.3511C83.4037 35.5777 85.2038 35.1909 87.5508 35.1909C88.1086 35.1909 88.6956 35.2284 89.3108 35.3015C89.926 35.3756 90.5121 35.4661 91.0699 35.5731C91.6277 35.6801 92.0953 35.7998 92.4727 35.9306L91.5867 40.1025C90.832 39.7733 90.1184 39.5393 89.4457 39.3985C88.7731 39.2586 88.1496 39.1891 87.5754 39.1891C87.1652 39.1891 86.7715 39.2101 86.3941 39.2503C86.0168 39.2915 85.7087 39.382 85.4718 39.5219C85.2339 39.6618 85.1145 39.8803 85.1145 40.1765C85.1145 40.4398 85.3068 40.6419 85.6923 40.7818C86.0779 40.9217 86.6895 41.1146 87.5262 41.3614C88.9207 41.7729 89.8841 42.3242 90.4182 43.0154C90.9514 43.7066 91.2176 44.4883 91.2176 45.3605C91.2176 45.7884 91.1684 46.2245 91.0699 46.6689C90.7582 48.15 89.9579 49.3395 88.671 50.2364C87.3822 51.1351 85.5319 51.5831 83.1202 51.5831Z" fill="#695EA9"/>
<path d="M91.4872 56.4707L95.0309 39.635H99.6083L99.6821 40.499C100.207 40.1534 100.769 39.8819 101.368 39.6844C101.967 39.4869 102.619 39.3882 103.324 39.3882C104.653 39.3882 105.72 39.7466 106.524 40.4625C107.327 41.1784 107.729 42.2444 107.729 43.6588C107.729 44.2184 107.656 44.8355 107.508 45.5102C107.065 47.6003 106.286 49.1354 105.17 50.1137C104.054 51.0929 102.57 51.5829 100.716 51.5829C100.224 51.5829 99.7104 51.5336 99.1772 51.4348C98.644 51.3361 98.2211 51.2044 97.9103 51.0398L96.7536 56.4707H91.4872ZM100.002 47.7566C100.56 47.7566 101.011 47.5802 101.356 47.2264C101.7 46.8725 101.963 46.2682 102.143 45.4124C102.176 45.2149 102.204 45.0293 102.229 44.8565C102.253 44.6837 102.266 44.532 102.266 44.3994C102.266 43.955 102.159 43.646 101.946 43.4741C101.733 43.3013 101.413 43.2154 100.986 43.2154C100.675 43.2154 100.388 43.2648 100.125 43.3635C99.8626 43.4622 99.6411 43.5939 99.4607 43.7585L98.6978 47.2885C98.9767 47.6003 99.4114 47.7566 100.002 47.7566Z" fill="#695EA9"/>
<path d="M113.513 51.5829C112.2 51.5829 111.159 51.2291 110.387 50.5214C109.616 49.8138 109.231 48.8099 109.231 47.5098C109.231 47.2629 109.243 47.0078 109.267 46.7445C109.292 46.4812 109.337 46.2179 109.403 45.9546C109.846 43.7822 110.703 42.1448 111.974 41.0421C113.246 39.9395 114.726 39.3882 116.416 39.3882C117.072 39.3882 117.614 39.4741 118.04 39.6469C118.467 39.8197 118.795 40.0218 119.024 40.2513L119.148 39.6341H124.439L121.978 51.3352H117.4L117.326 50.4958C116.801 50.8414 116.235 51.1093 115.628 51.2977C115.022 51.4878 114.317 51.5829 113.513 51.5829ZM115.998 47.7813C116.343 47.7813 116.646 47.732 116.909 47.6332C117.171 47.5345 117.385 47.4028 117.549 47.2382L118.287 43.7082C118.172 43.5436 118.02 43.4202 117.832 43.3379C117.644 43.2556 117.402 43.2145 117.107 43.2145C116.5 43.2145 116.008 43.4494 115.63 43.9185C115.253 44.3875 114.974 45.0659 114.793 45.9546C114.777 46.1027 114.757 46.2389 114.732 46.3624C114.708 46.4858 114.695 46.5973 114.695 46.6961C114.695 47.1075 114.81 47.3918 115.04 47.5473C115.268 47.7036 115.588 47.7813 115.998 47.7813Z" fill="#695EA9"/>
<path d="M131.428 51.5829C130.345 51.5829 129.353 51.4138 128.451 51.0764C127.548 50.739 126.83 50.2243 126.298 49.5331C125.764 48.8419 125.497 47.9697 125.497 46.9164C125.497 46.4556 125.547 45.9784 125.645 45.4846C126.088 43.411 127.023 41.8769 128.451 40.8812C129.878 39.8856 131.724 39.3882 133.988 39.3882C134.89 39.3882 135.689 39.4494 136.388 39.5729C137.085 39.6963 137.736 39.9148 138.344 40.2275L137.556 43.9304C136.654 43.4531 135.587 43.2145 134.357 43.2145C133.405 43.2145 132.659 43.3836 132.117 43.721C131.576 44.0584 131.215 44.6462 131.035 45.4856C131.002 45.6337 130.977 45.7736 130.961 45.9052C130.944 46.0369 130.936 46.1603 130.936 46.2755C130.936 46.8021 131.125 47.1806 131.502 47.411C131.879 47.6414 132.519 47.7566 133.422 47.7566C134.012 47.7566 134.611 47.6789 135.218 47.5226C135.825 47.3662 136.416 47.1569 136.99 46.8936L136.153 50.7692C135.431 51.0654 134.685 51.2757 133.914 51.3982C133.143 51.5208 132.314 51.5829 131.428 51.5829Z" fill="#695EA9"/>
<path d="M145.061 51.583C143.913 51.583 142.891 51.4057 141.997 51.0518C141.103 50.698 140.397 50.1759 139.881 49.4847C139.364 48.7935 139.106 47.9378 139.106 46.9174C139.106 46.4895 139.155 46.0287 139.254 45.535C139.532 44.2843 139.963 43.2027 140.545 42.2893C141.127 41.3759 141.94 40.6646 142.981 40.1544C144.023 39.6442 145.364 39.3892 147.005 39.3892C148.629 39.3892 149.912 39.7969 150.856 40.6106C151.8 41.4253 152.271 42.4913 152.271 43.8079C152.271 43.9889 152.259 44.1782 152.234 44.3757C152.209 44.5732 152.18 44.7707 152.148 44.9681L151.73 46.9924H143.805C143.887 47.4696 144.183 47.8152 144.691 48.0292C145.2 48.2431 146.004 48.3501 147.103 48.3501C147.825 48.3501 148.539 48.2888 149.244 48.1645C149.949 48.0411 150.524 47.8975 150.967 47.733L150.327 50.7446C149.048 51.3033 147.293 51.583 145.061 51.583ZM144.151 44.2267H148.039L148.088 43.9057C148.137 43.5601 148.034 43.2639 147.78 43.0171C147.526 42.7702 147.095 42.6468 146.488 42.6468C145.782 42.6468 145.241 42.7867 144.864 43.0664C144.487 43.3462 144.249 43.7329 144.151 44.2267Z" fill="#695EA9"/>
<path d="M157.884 51.5831C156.834 51.5831 155.857 51.5045 154.955 51.3481C154.053 51.1918 153.372 51.0071 152.912 50.7923L153.675 47.2375C154.02 47.435 154.43 47.6041 154.906 47.744C155.382 47.8839 155.866 47.9872 156.358 48.0531C156.85 48.1189 157.276 48.1518 157.637 48.1518C158.146 48.1518 158.543 48.1353 158.831 48.1024C159.118 48.0695 159.262 47.9461 159.262 47.7321C159.262 47.5182 159.007 47.3491 158.499 47.2256C157.99 47.1022 157.416 46.9166 156.776 46.6697C156.021 46.3735 155.423 46.016 154.98 45.5955C154.537 45.1758 154.315 44.6199 154.315 43.9296C154.315 43.798 154.328 43.6663 154.353 43.5347C154.377 43.403 154.397 43.2713 154.414 43.1397C154.676 41.9219 155.328 40.992 156.37 40.3502C157.411 39.7084 159.023 39.3875 161.206 39.3875C161.714 39.3875 162.251 39.4167 162.817 39.4734C163.383 39.531 163.913 39.6014 164.405 39.6828C164.897 39.7651 165.291 39.8638 165.586 39.979L164.848 43.4844C164.389 43.254 163.875 43.0857 163.309 42.9788C162.743 42.8718 162.222 42.8179 161.746 42.8179C161.32 42.8179 160.898 42.8343 160.479 42.8672C160.061 42.9001 159.827 43.0153 159.777 43.2128C159.745 43.4268 159.958 43.5877 160.417 43.6937C160.877 43.8007 161.435 43.9616 162.091 44.1756C163.059 44.4718 163.751 44.822 164.171 45.2243C164.589 45.6275 164.798 46.1587 164.798 46.8169C164.798 46.9651 164.786 47.1177 164.76 47.2741C164.736 47.4304 164.707 47.5996 164.674 47.7806C164.428 48.9655 163.776 49.8953 162.718 50.5701C161.661 51.2457 160.048 51.5831 157.884 51.5831Z" fill="#695EA9"/>
<path d="M4.11609 29.6327C4.11609 18.8039 12.867 10.0259 23.6623 10.0259C34.4576 10.0259 43.2085 18.8039 43.2085 29.6327" fill="#00F8B8"/>
<path d="M43.2076 33.0732C43.2076 43.902 34.4567 52.6801 23.6614 52.6801C12.8661 52.6801 4.11609 43.9011 4.11609 33.0732" fill="#00FF67"/>
<path d="M52.1214 38.3606C45.8378 31.7412 45.3593 21.3028 51.3293 14.1073C57.2903 6.92288 67.5879 5.49385 75.2132 10.4621" fill="#FF008C"/>
<path d="M67.93 24.3445C74.2136 30.9639 74.6921 41.4023 68.722 48.5977C62.7611 55.7822 52.4634 57.2112 44.8381 52.243" fill="#FF008C"/>
</svg>
