<svg width="179" height="244" viewBox="0 0 179 244" fill="none" xmlns="http://www.w3.org/2000/svg">
<path d="M169.133 12.3966C165.034 14.8477 161.277 18.2108 157.52 21.1749C137.139 37.4204 116.416 53.0958 88.2358 86.1568C50.605 130.333 22.4815 180.438 5.34554 235.216C4.71931 237.154 1.64508 236.356 2.27132 234.361C13.4296 199.134 29.2562 165.446 49.1248 134.323C102.867 50.2457 169.874 11.9976 169.133 12.3966Z" fill="#416C83"/>
<path d="M67.5131 22.5429C63.0156 52.1838 47.5306 78.8606 36.8847 106.563C8.36267 180.609 3.75134 236.584 1.18948 242.798C0.904831 243.425 0.107811 243.311 0.0508804 242.627C-0.632278 236.812 5.5731 196.626 17.9269 154.445C38.5356 84.2187 60.0552 56.8009 66.4883 22.3149C66.6591 21.6309 67.6269 21.9159 67.5131 22.5429Z" fill="#416C83"/>
<path d="M135.26 13.9357C136.057 15.4747 139.188 19.6358 139.644 24.595C140.498 29.3831 138.562 34.9693 138.448 34.7413C138.163 34.7983 143.173 31.6062 145.394 25.735C148.012 20.1489 147.785 11.8836 145.906 8.91951C142.775 2.30731 136 0.825255 134.292 3.56134C132.527 6.24042 133.78 10.4586 135.26 13.9357Z" fill="#416C83"/>
<path d="M88.5772 60.905C89.1465 62.5011 91.8222 67.0042 91.6514 71.9634C91.9361 76.8085 89.3742 82.1097 89.3173 81.8817C89.0327 81.9387 94.3841 79.3166 97.2875 73.7875C100.533 68.5433 101.33 60.392 99.7924 57.1999C97.5152 50.3027 90.9683 48.0227 88.9188 50.5308C86.7554 52.9818 87.4955 57.2569 88.5772 60.905Z" fill="#416C83"/>
<path d="M29.1422 83.9907C30.3378 84.3897 34.1521 84.9598 36.9417 87.3538C39.8451 89.4059 41.7238 93.339 41.553 93.282C41.4392 93.453 42.407 89.1779 40.5283 84.9598C38.9912 80.6846 34.6645 76.4095 32.1026 75.8395C27.0928 74.0154 22.7091 76.6945 23.2215 79.0316C23.7339 81.4257 26.5804 82.9647 29.1422 83.9907Z" fill="#416C83"/>
<path d="M23.2215 98.4692C24.417 98.8682 28.2313 99.4382 31.0209 101.832C33.9243 103.884 35.803 107.817 35.6322 107.76C35.5184 107.931 36.4862 103.656 34.6075 99.4382C33.0704 95.1631 28.7437 90.888 26.1819 90.3179C21.172 88.4939 16.7884 91.173 17.3008 93.51C17.8131 95.8471 20.6596 97.4432 23.2215 98.4692Z" fill="#416C83"/>
<path d="M155.072 44.6596C154.104 43.4055 151.827 39.1874 147.785 36.9073C144.084 34.3993 138.733 33.8293 138.847 34.0003C138.676 34.2283 143.287 31.2072 149.094 31.6062C154.787 31.5492 161.619 34.8553 163.383 37.6484C167.71 42.7785 166.401 49.0487 163.44 49.4477C160.423 49.9037 157.406 47.2246 155.072 44.6596Z" fill="#416C83"/>
<path d="M126.493 71.1084C125.525 69.8543 123.248 65.6362 119.206 63.3562C115.505 60.8481 110.154 60.278 110.268 60.449C110.097 60.6771 114.708 57.656 120.515 58.055C126.208 57.998 133.04 61.3041 134.804 64.0972C139.131 69.2273 137.822 75.4975 134.861 75.8965C131.844 76.3525 128.827 73.6734 126.493 71.1084Z" fill="#416C83"/>
<path d="M75.7679 47.3957C74.1739 47.4527 69.3917 46.8256 65.2358 48.7067C61.023 50.1887 57.4364 54.2929 57.6641 54.2359C57.7211 54.5209 58.0057 48.9917 61.7631 44.5456C65.0651 39.9284 71.7828 36.3373 75.0278 36.5083C81.6886 35.9953 86.0153 40.7835 84.5921 43.4055C83.1688 46.1416 79.1837 46.9966 75.7679 47.3957Z" fill="#416C83"/>
<path d="M67.3993 67.6883C65.8052 67.7453 61.0231 67.1182 56.8672 68.9993C52.6544 70.4813 49.0678 74.5855 49.2955 74.5285C49.3524 74.8135 49.6371 69.2843 53.3944 64.8382C56.6964 60.221 63.4142 56.6299 66.6592 56.8009C73.32 56.2879 77.6467 61.0761 76.2234 63.6981C74.8002 66.3772 70.8151 67.2892 67.3993 67.6883Z" fill="#416C83"/>
<path d="M90.1144 111.808C89.1466 110.554 86.8694 106.335 82.8273 104.055C79.1269 101.547 73.7185 100.977 73.8893 101.148C73.7185 101.376 78.3298 98.3552 84.1367 98.7542C89.8297 98.6972 96.6613 102.003 98.4262 104.796C102.753 109.927 101.443 116.197 98.4831 116.596C95.4658 117.052 92.3916 114.373 90.1144 111.808Z" fill="#416C83"/>
<path d="M171.923 22.7139C171.126 22.0869 169.133 19.6928 166.344 18.7808C163.725 17.6977 160.252 18.0397 160.366 18.1537C160.309 18.3247 162.814 15.8167 166.458 15.3037C169.987 14.5056 174.769 15.7027 176.193 17.1847C179.608 19.8068 179.608 23.9679 177.787 24.595C175.965 25.279 173.688 24.0249 171.923 22.7139Z" fill="#416C83"/>
<path d="M164.294 6.0694C164.351 7.09543 165.034 10.1165 164.066 12.9096C163.383 15.7027 160.992 18.2108 160.992 18.0967C160.821 18.0397 164.294 17.5837 166.913 14.9047C169.703 12.5106 171.581 8.00745 171.297 5.95539C171.24 1.62326 167.938 -0.827818 166.344 0.255214C164.693 1.28125 164.351 3.84633 164.294 6.0694Z" fill="#416C83"/>
<path d="M165.774 153.704C126.151 165.845 91.8222 190.926 58.8597 215.266C36.6 231.682 38.4787 234.817 33.8104 237.496C33.0703 237.952 32.1025 237.211 32.3302 236.356C33.5258 232.195 38.0802 228.661 41.1544 225.811C44.741 222.505 48.5553 219.427 52.4835 216.52C60.8522 210.25 69.5625 204.435 78.2159 198.564C95.8073 186.594 113.797 175.022 132.983 165.902C143.515 160.886 154.445 156.668 165.661 153.419C165.888 153.305 166.002 153.647 165.774 153.704Z" fill="#416C83"/>
<path d="M126.891 148.061C127.46 149.657 130.136 154.16 129.965 159.119C130.25 163.964 127.688 169.265 127.631 169.037C127.347 169.094 132.698 166.472 135.601 160.943C138.846 155.699 139.644 147.548 138.106 144.356C135.829 137.458 129.282 135.178 127.233 137.686C125.069 140.137 125.81 144.47 126.891 148.061Z" fill="#416C83"/>
<path d="M93.6441 167.612C94.2134 169.208 96.8891 173.711 96.7183 178.671C97.003 183.516 94.4411 188.817 94.3842 188.589C94.0995 188.646 99.451 186.024 102.354 180.495C105.599 175.251 106.396 167.099 104.859 163.907C102.582 157.01 96.0352 154.73 93.9857 157.238C91.8223 159.746 92.6194 164.021 93.6441 167.612Z" fill="#416C83"/>
<path d="M60.5107 190.698C61.08 192.294 63.7557 196.797 63.5849 201.756C63.8696 206.601 61.3077 211.903 61.2508 211.675C60.9661 211.732 66.3175 209.11 69.221 203.58C72.466 198.336 73.263 190.185 71.7259 186.993C69.4487 180.096 62.9017 177.816 60.8523 180.324C58.6889 182.775 59.429 187.107 60.5107 190.698Z" fill="#416C83"/>
<path d="M143.856 179.412C142.889 178.158 140.611 173.939 136.569 171.659C132.869 169.151 127.517 168.581 127.631 168.752C127.46 168.98 132.072 165.959 137.879 166.358C143.572 166.301 150.403 169.607 152.168 172.4C156.495 177.531 155.185 183.801 152.225 184.2C149.265 184.656 146.19 181.977 143.856 179.412Z" fill="#416C83"/>
<path d="M109.3 199.59C108.332 198.336 106.055 194.118 102.013 191.838C98.3122 189.33 92.9607 188.76 93.0746 188.931C92.9038 189.159 97.5151 186.138 103.322 186.537C109.015 186.48 115.847 189.786 117.611 192.579C121.938 197.709 120.629 203.979 117.668 204.378C114.651 204.834 111.577 202.212 109.3 199.59Z" fill="#416C83"/>
<path d="M169.589 160.487C168.792 159.86 166.799 157.466 164.01 156.554C161.391 155.471 157.918 155.813 158.032 155.927C157.975 156.098 160.48 153.59 164.124 153.077C167.653 152.279 172.435 153.476 173.859 154.958C177.274 157.58 177.274 161.741 175.453 162.368C173.631 163.109 171.354 161.798 169.589 160.487Z" fill="#416C83"/>
<path d="M161.96 143.843C162.017 144.869 162.7 147.89 161.732 150.683C161.049 153.476 158.658 155.984 158.658 155.87C158.487 155.813 161.96 155.357 164.579 152.678C167.368 150.284 169.247 145.781 168.963 143.729C168.906 139.396 165.604 136.945 164.01 138.028C162.359 139.054 162.017 141.619 161.96 143.843Z" fill="#416C83"/>
</svg>
