<svg width="697" height="255" viewBox="0 0 697 255" fill="none" xmlns="http://www.w3.org/2000/svg">
<path d="M696.996 254.5C696.996 254.5 548.568 73.0194 485.588 52.6259C422.609 32.2323 481.968 113.283 481.968 113.283C481.968 113.283 383.269 -6.37144 341.355 0.266298C295.473 7.55908 318.152 73.1941 318.152 73.1941C318.152 73.1941 287.012 26.5553 236.288 34.5904C177.408 43.9357 318.152 254.5 318.152 254.5H696.996Z" fill="#1C4357"/>
<path d="M402.002 254.5C402.002 254.5 294.25 80.0937 235.501 74.8097C180.372 69.8314 214.217 150.445 210.728 146.253C207.239 142.06 160.179 61.5779 115.343 83.5436C64.1395 108.653 141.773 163.939 141.773 163.939C141.773 163.939 35.3103 124.287 26.9799 165.948C20.0452 200.534 126.502 254 126.502 254L242.002 254.5H402.002Z" fill="#1C4357"/>
<path d="M549.148 182.668C555.08 201.359 557.784 221.053 556.999 241.01H557.74C558.438 221.446 555.778 201.795 549.846 183.148C548.45 178.825 547.098 173.716 543.042 171.096C542.955 171.052 542.911 171.183 542.955 171.227C546.619 173.847 547.84 178.65 549.148 182.668Z" fill="#416C83"/>
<path d="M550.021 241.01C537.198 208.127 519.491 176.161 496.2 146.248C495.982 145.942 495.459 146.335 495.677 146.641C517.659 175.375 535.366 207.079 548.363 241.01H550.021Z" fill="#416C83"/>
<path d="M550.849 172.537C550.5 172.843 549.192 173.585 548.538 174.851C547.796 175.987 547.709 177.646 547.753 177.602C547.84 177.646 546.88 176.292 546.924 174.502C546.837 172.755 547.796 170.659 548.625 170.091C550.151 168.738 552.07 169.043 552.201 169.96C552.419 170.834 551.634 171.794 550.849 172.537Z" fill="#416C83"/>
<path d="M544.613 186.118C545.049 185.943 546.314 185.201 547.709 185.201C549.061 185.114 550.588 185.812 550.501 185.856C550.501 185.943 549.759 184.415 548.189 183.629C546.706 182.712 544.395 182.537 543.522 182.974C541.603 183.629 540.949 185.507 541.691 186.074C542.388 186.642 543.61 186.424 544.613 186.118Z" fill="#416C83"/>
<path d="M546.619 193.367C547.055 193.192 548.32 192.45 549.716 192.45C551.068 192.363 552.594 193.061 552.507 193.105C552.507 193.192 551.766 191.664 550.195 190.878C548.713 189.961 546.401 189.786 545.529 190.223C543.61 190.878 542.955 192.756 543.697 193.323C544.395 193.891 545.616 193.673 546.619 193.367Z" fill="#416C83"/>
<path d="M506.232 175.943C507.017 175.637 509.285 174.284 511.771 174.371C514.169 174.196 516.83 175.463 516.743 175.506C516.786 175.637 515.434 172.973 512.643 171.576C510.026 169.96 505.926 169.611 504.356 170.397C500.911 171.576 499.82 174.851 501.085 175.856C502.263 176.904 504.443 176.511 506.232 175.943Z" fill="#416C83"/>
<path d="M497.16 162.275C497.945 161.969 500.213 160.615 502.699 160.702C505.098 160.528 507.758 161.794 507.671 161.838C507.715 161.969 506.363 159.305 503.571 157.908C500.954 156.292 496.855 155.942 495.284 156.729C491.839 157.908 490.749 161.183 492.013 162.187C493.191 163.235 495.372 162.842 497.16 162.275Z" fill="#416C83"/>
<path d="M554.12 180.965C553.728 181.227 552.332 181.751 551.504 182.886C550.588 183.891 550.239 185.507 550.282 185.507C550.326 185.55 549.628 184.066 549.933 182.319C550.152 180.616 551.416 178.651 552.289 178.214C553.99 177.078 555.865 177.733 555.865 178.651C555.909 179.568 554.993 180.397 554.12 180.965Z" fill="#416C83"/>
<path d="M557.653 189.524C557.13 189.655 555.429 189.655 554.295 190.616C553.117 191.446 552.507 193.236 552.594 193.192C552.638 193.28 551.94 191.14 552.507 189.175C552.899 187.21 554.644 185.419 555.778 185.288C557.959 184.721 560.139 186.336 560.052 187.428C559.921 188.607 558.744 189.175 557.653 189.524Z" fill="#416C83"/>
<path d="M560.488 201.752C559.965 201.795 558.264 201.49 556.999 202.276C555.691 202.887 554.818 204.546 554.862 204.546C554.905 204.677 554.557 202.407 555.429 200.573C556.17 198.695 558.177 197.21 559.267 197.297C561.491 197.123 563.367 199.044 563.105 200.136C562.887 201.228 561.622 201.621 560.488 201.752Z" fill="#416C83"/>
<path d="M527.472 176.685C526.73 176.904 524.288 177.078 522.762 178.607C521.148 179.917 520.45 182.537 520.537 182.493C520.624 182.624 519.36 179.611 520.014 176.729C520.406 173.847 522.718 171.096 524.332 170.834C527.428 169.786 530.699 171.882 530.699 173.498C530.699 175.113 529.042 176.074 527.472 176.685Z" fill="#416C83"/>
<path d="M540.818 172.537C541.08 172.406 541.778 171.925 542.606 171.882C543.391 171.751 544.307 172.144 544.307 172.144C544.307 172.187 543.827 171.314 542.824 170.921C541.908 170.441 540.513 170.441 540.033 170.746C538.899 171.227 538.637 172.362 539.073 172.668C539.51 172.974 540.251 172.755 540.818 172.537Z" fill="#416C83"/>
<path d="M544.089 168.519C544.002 168.781 543.609 169.567 543.653 170.397C543.653 171.227 544.133 172.056 544.133 172.013C544.176 172.013 543.26 171.62 542.737 170.703C542.17 169.873 541.952 168.476 542.17 167.952C542.519 166.772 543.566 166.336 543.915 166.729C544.307 167.209 544.22 167.908 544.089 168.519Z" fill="#416C83"/>
<path d="M491.446 149.305C491.926 149.086 493.191 148.213 494.63 148.126C496.026 147.907 497.683 148.562 497.596 148.562C497.596 148.65 496.724 147.121 495.023 146.423C493.409 145.593 490.967 145.549 490.051 146.117C488.088 146.99 487.565 148.955 488.35 149.479C489.178 150.047 490.4 149.741 491.446 149.305Z" fill="#416C83"/>
<path d="M497.989 142.361C497.814 142.842 496.986 144.152 496.986 145.636C496.855 147.078 497.553 148.65 497.596 148.606C497.683 148.606 496.113 147.82 495.328 146.117C494.412 144.545 494.281 142.099 494.761 141.182C495.503 139.173 497.465 138.562 498.032 139.304C498.599 140.047 498.338 141.313 497.989 142.361Z" fill="#416C83"/>
<path class="grass2" d="M306.378 149.833C327.967 171.319 346.808 195.642 360.896 222.717C364.865 230.316 368.179 238.133 371.625 245.949C372.061 246.998 373.849 246.255 373.457 245.163C373.064 244.072 372.672 243.024 372.323 241.932C372.105 241.321 370.971 241.321 371.058 242.107C371.189 243.198 371.363 244.334 371.494 245.425C372.148 245.338 372.802 245.251 373.457 245.163C368.092 231.015 360.678 217.39 352.696 204.551C328.708 166.209 303.892 147.388 306.378 149.833Z" fill="#416C83"/>
<path class="grass2" d="M333.157 161.493C332.503 162.235 330.191 164.026 329.232 166.69C328.098 169.179 328.359 172.498 328.447 172.41C328.577 172.498 326.309 170.008 325.917 166.471C325.306 163.065 326.571 158.567 328.054 157.213C330.671 154.069 334.596 154.2 335.163 155.947C335.774 157.694 334.465 159.79 333.157 161.493Z" fill="#416C83"/>
<path class="grass2" d="M318.503 145.772C317.848 146.514 315.537 148.305 314.577 150.969C313.443 153.458 313.705 156.777 313.792 156.689C313.923 156.777 311.655 154.287 311.263 150.75C310.652 147.344 311.917 142.846 313.4 141.492C316.017 138.348 319.942 138.479 320.509 140.226C321.12 141.973 319.811 144.113 318.503 145.772Z" fill="#416C83"/>
<path class="grass2" d="M302.67 159.484C303.499 159.004 305.68 156.995 308.471 156.558C311.132 155.86 314.359 156.689 314.228 156.777C314.272 156.951 312.266 154.244 308.82 153.283C305.549 152.06 300.926 152.541 299.356 153.763C295.779 155.816 295.256 159.703 296.87 160.532C298.484 161.362 300.795 160.489 302.67 159.484Z" fill="#416C83"/>
<path class="grass2" d="M318.197 176.559C319.026 176.035 321.207 174.07 323.998 173.633C326.659 172.934 329.886 173.764 329.755 173.851C329.799 174.026 327.793 171.319 324.347 170.314C321.076 169.091 316.453 169.572 314.883 170.795C311.306 172.847 310.783 176.734 312.397 177.563C314.01 178.437 316.322 177.52 318.197 176.559Z" fill="#416C83"/>
<path class="grass2" d="M329.581 191.101C330.409 190.577 332.59 188.612 335.381 188.175C338.042 187.476 341.269 188.306 341.138 188.393C341.182 188.568 339.176 185.86 335.73 184.9C332.459 183.677 327.836 184.157 326.266 185.38C322.69 187.433 322.166 191.319 323.78 192.149C325.394 193.022 327.705 192.105 329.581 191.101Z" fill="#416C83"/>
<path class="grass2" d="M339.045 205.686C339.874 205.206 342.054 203.197 344.846 202.761C347.506 202.062 350.734 202.892 350.603 202.979C350.646 203.154 348.64 200.446 345.195 199.442C341.924 198.219 337.3 198.699 335.73 199.922C332.154 201.974 331.631 205.861 333.244 206.691C334.858 207.564 337.17 206.691 339.045 205.686Z" fill="#416C83"/>
<path class="grass2" d="M345.325 177.389C344.671 178.131 342.36 179.921 341.4 182.585C340.266 185.074 340.528 188.393 340.615 188.306C340.746 188.393 338.478 185.904 338.085 182.367C337.475 178.961 338.74 174.463 340.222 173.109C342.839 169.965 346.765 170.096 347.332 171.843C347.899 173.589 346.634 175.729 345.325 177.389Z" fill="#416C83"/>
<path class="grass2" d="M356.098 193.415C355.444 194.158 353.133 195.948 352.173 198.612C351.039 201.101 351.301 204.42 351.388 204.333C351.519 204.42 349.251 201.931 348.858 198.394C348.248 194.987 349.513 190.489 350.995 189.136C353.612 185.991 357.538 186.122 358.105 187.869C358.672 189.616 357.407 191.712 356.098 193.415Z" fill="#416C83"/>
<path d="M316.627 219.398C317.892 220.185 321.032 222.848 322.646 224.464C327.095 228.962 331.107 235.425 333.331 242.674C333.462 243.155 333.506 243.548 333.942 243.81C334.029 243.853 334.204 243.853 334.247 243.722C334.509 243.242 334.291 242.805 334.16 242.281C333.113 238.657 331.02 234.071 327.792 229.617C322.384 222.15 318.372 220.403 316.627 219.398C316.627 219.355 316.583 219.398 316.627 219.398Z" fill="#416C83"/>
<path d="M312.222 223.896C312.92 223.591 314.883 222.193 317.107 222.106C319.288 221.8 321.774 222.761 321.686 222.805C321.73 222.936 320.334 220.621 317.717 219.486C315.231 218.219 311.481 218.176 310.129 219.005C307.119 220.316 306.291 223.372 307.512 224.202C308.689 225.032 310.608 224.508 312.222 223.896Z" fill="#416C83"/>
<path d="M321.076 213.023C320.858 213.765 319.767 215.861 319.942 218.132C319.942 220.316 321.207 222.674 321.25 222.586C321.381 222.586 318.895 221.538 317.456 219.093C315.886 216.778 315.319 213.11 315.973 211.625C316.845 208.437 319.767 207.258 320.771 208.35C321.73 209.398 321.468 211.363 321.076 213.023Z" fill="#416C83"/>
<path class="grass1" d="M7.55885 42.4971C10.6991 44.3749 13.5777 46.9514 16.4562 49.2222C32.0702 61.6679 47.9459 73.677 69.535 99.0052C98.3642 132.849 119.91 171.234 133.038 213.201C133.517 214.685 135.873 214.074 135.393 212.546C126.844 185.558 114.72 159.749 99.4982 135.906C58.3261 71.4935 6.99187 42.1914 7.55885 42.4971Z" fill="#416C83"/>
<path d="M85.4107 50.2702C88.8562 72.9783 100.719 93.4156 108.875 114.639C130.726 171.365 134.259 214.249 136.222 219.009C136.44 219.489 137.05 219.402 137.094 218.878C137.617 214.423 132.863 183.636 123.399 151.321C107.61 97.5205 91.1242 76.5155 86.1957 50.0956C86.0649 49.5715 85.3234 49.7899 85.4107 50.2702Z" fill="#416C83"/>
<path class="grass1" d="M33.5096 43.6762C32.899 44.8552 30.5002 48.0431 30.1513 51.8423C29.4971 55.5106 30.98 59.7902 31.0672 59.6155C31.2853 59.6592 27.4472 57.2137 25.7462 52.7157C23.74 48.4361 23.9144 42.1041 25.3537 39.8333C27.7525 34.7676 32.9426 33.6322 34.2511 35.7283C35.6031 37.7808 34.6436 41.0123 33.5096 43.6762Z" fill="#416C83"/>
<path class="grass1" d="M69.2734 79.6597C68.8372 80.8824 66.7873 84.3323 66.9182 88.1315C66.7001 91.8434 68.6628 95.9047 68.7064 95.73C68.9245 95.7737 64.8247 93.7649 62.6004 89.529C60.1143 85.5114 59.5037 79.2667 60.6813 76.8212C62.4259 71.5372 67.4416 69.7904 69.0117 71.7119C70.669 73.5897 70.102 76.8648 69.2734 79.6597Z" fill="#416C83"/>
<path d="M114.807 97.3458C113.891 97.6515 110.969 98.0882 108.832 99.9223C106.607 101.494 105.168 104.508 105.299 104.464C105.386 104.595 104.645 101.32 106.084 98.0882C107.262 94.813 110.576 91.5378 112.539 91.1011C116.377 89.7036 119.735 91.7561 119.343 93.5466C118.95 95.3807 116.77 96.5597 114.807 97.3458Z" fill="#416C83"/>
<path d="M119.343 108.438C118.427 108.743 115.505 109.18 113.368 111.014C111.143 112.586 109.704 115.6 109.835 115.556C109.922 115.687 109.181 112.412 110.62 109.18C111.797 105.905 115.112 102.63 117.075 102.193C120.913 100.796 124.271 102.848 123.879 104.639C123.486 106.429 121.305 107.652 119.343 108.438Z" fill="#416C83"/>
<path class="grass1" d="M18.3317 67.2139C19.0732 66.2532 20.8178 63.0217 23.9144 61.2749C26.7493 59.3535 30.8491 58.9168 30.7619 59.0478C30.8927 59.2225 27.3599 56.908 22.9113 57.2137C18.5498 57.17 13.3161 59.7028 11.964 61.8426C8.64932 65.7728 9.65246 70.5765 11.9204 70.8822C14.232 71.2315 16.5435 69.1791 18.3317 67.2139Z" fill="#416C83"/>
<path class="grass1" d="M40.2263 87.4765C40.9677 86.5158 42.7123 83.2843 45.8089 81.5375C48.6439 79.616 52.7436 79.1793 52.6564 79.3103C52.7872 79.485 49.2545 77.1705 44.8058 77.4762C40.4443 77.4326 35.2106 79.9654 33.8586 82.1052C30.5439 86.0354 31.547 90.8391 33.8149 91.1448C36.1265 91.4941 38.4381 89.4416 40.2263 87.4765Z" fill="#416C83"/>
<path d="M79.0866 69.3101C80.3078 69.3537 83.9714 68.8734 87.1553 70.3145C90.3827 71.4499 93.1304 74.5941 92.956 74.5504C92.9124 74.7687 92.6943 70.5328 89.8157 67.1266C87.2861 63.5894 82.1396 60.8382 79.6536 60.9692C74.5507 60.5762 71.236 64.2444 72.3263 66.2532C73.4167 68.3493 76.4697 69.0044 79.0866 69.3101Z" fill="#416C83"/>
<path d="M85.4979 84.8563C86.7192 84.9 90.3828 84.4196 93.5666 85.8607C96.7941 86.9961 99.5418 90.1403 99.3674 90.0967C99.3237 90.315 99.1057 86.0791 96.2271 82.6729C93.6975 79.1357 88.551 76.3845 86.0649 76.5155C80.962 76.1225 77.6473 79.7907 78.7377 81.7995C79.8281 83.8519 82.8811 84.5507 85.4979 84.8563Z" fill="#416C83"/>
<path class="grass1" d="M68.0959 118.656C68.8374 117.696 70.5819 114.464 73.6786 112.717C76.5135 110.796 80.6569 110.359 80.526 110.49C80.6569 110.665 77.1241 108.35 72.6754 108.656C68.314 108.612 63.0802 111.145 61.7282 113.285C58.4135 117.215 59.4166 122.019 61.6846 122.325C63.9961 122.674 66.3513 120.622 68.0959 118.656Z" fill="#416C83"/>
<path class="grass1" d="M5.42179 50.4012C6.03239 49.9209 7.5589 48.0868 9.69601 47.3881C11.7023 46.5583 14.3628 46.8203 14.2755 46.9077C14.3191 47.0387 12.4001 45.1172 9.60878 44.7242C6.90468 44.1128 3.24107 45.0299 2.1507 46.1653C-0.466165 48.1741 -0.466165 51.362 0.929499 51.8423C2.32516 52.3664 4.06974 51.4056 5.42179 50.4012Z" fill="#416C83"/>
<path class="grass1" d="M11.266 37.6498C11.2224 38.4358 10.699 40.7503 11.4405 42.8901C11.9639 45.0299 13.7957 46.9514 13.7957 46.864C13.9265 46.8204 11.266 46.471 9.25976 44.4185C7.12265 42.5844 5.68337 39.1346 5.90144 37.5625C5.94505 34.2436 8.4747 32.3658 9.6959 33.1955C10.9607 33.9816 11.2224 35.9467 11.266 37.6498Z" fill="#416C83"/>
<path d="M10.132 150.753C40.4876 160.055 66.7872 179.269 92.04 197.916C109.093 210.493 107.654 212.895 111.23 214.947C111.797 215.297 112.539 214.729 112.364 214.074C111.448 210.886 107.959 208.179 105.604 205.995C102.856 203.462 99.9342 201.104 96.9248 198.877C90.5135 194.073 83.8404 189.619 77.211 185.121C63.7342 175.951 49.952 167.086 35.2539 160.099C27.1852 156.256 18.8112 153.024 10.2192 150.535C10.0447 150.448 9.9575 150.71 10.132 150.753Z" fill="#416C83"/>
<path d="M39.9208 146.43C39.4847 147.653 37.4348 151.103 37.5657 154.902C37.3476 158.614 39.3102 162.675 39.3538 162.5C39.5719 162.544 35.4722 160.535 33.2478 156.299C30.7618 152.282 30.1512 146.037 31.3288 143.592C33.0734 138.308 38.089 136.561 39.6591 138.482C41.3165 140.36 40.7495 143.679 39.9208 146.43Z" fill="#416C83"/>
<path d="M65.3915 161.409C64.9554 162.631 62.9055 166.081 63.0364 169.881C62.8183 173.592 64.7809 177.654 64.8246 177.479C65.0426 177.523 60.9429 175.514 58.7185 171.278C56.2325 167.26 55.6219 161.016 56.7995 158.57C58.5441 153.286 63.5597 151.539 65.1299 153.461C66.7872 155.382 66.1766 158.658 65.3915 161.409Z" fill="#416C83"/>
<path d="M90.7753 179.095C90.3392 180.318 88.2893 183.767 88.4201 187.567C88.2021 191.279 90.1647 195.34 90.2083 195.165C90.4264 195.209 86.3267 193.2 84.1023 188.964C81.6163 184.946 81.0057 178.702 82.1833 176.256C83.9279 170.972 88.9435 169.226 90.5136 171.147C92.171 173.025 91.604 176.344 90.7753 179.095Z" fill="#416C83"/>
<path d="M26.9235 170.448C27.665 169.488 29.4096 166.256 32.5062 164.509C35.3411 162.588 39.4409 162.151 39.3537 162.282C39.4845 162.457 35.9517 160.142 31.5031 160.448C27.1416 160.404 21.9079 162.937 20.5558 165.077C17.2411 169.007 18.2443 173.811 20.5122 174.117C22.7802 174.466 25.1353 172.413 26.9235 170.448Z" fill="#416C83"/>
<path d="M53.3977 185.907C54.1391 184.947 55.8837 181.715 58.9803 179.968C61.8153 178.047 65.915 177.61 65.8278 177.741C65.9586 177.916 62.4259 175.601 57.9772 175.907C53.6157 175.863 48.382 178.396 47.0299 180.536C43.7152 184.466 44.7184 189.27 46.9863 189.575C49.2979 189.925 51.6531 187.916 53.3977 185.907Z" fill="#416C83"/>
<path d="M7.20988 155.95C7.82048 155.47 9.34699 153.636 11.4841 152.937C13.4904 152.107 16.1508 152.369 16.0636 152.456C16.1072 152.587 14.1882 150.666 11.3969 150.273C8.69277 149.662 5.02915 150.579 3.93879 151.714C1.32192 153.723 1.32192 156.911 2.71758 157.391C4.11325 157.959 5.85783 156.954 7.20988 155.95Z" fill="#416C83"/>
<path d="M13.0541 143.199C13.0105 143.985 12.4871 146.299 13.2286 148.439C13.7519 150.579 15.5837 152.5 15.5837 152.413C15.7146 152.369 13.0541 152.02 11.0478 149.967C8.91073 148.133 7.47145 144.683 7.68953 143.111C7.73314 139.792 10.2628 137.915 11.484 138.744C12.7488 139.53 13.0105 141.495 13.0541 143.199Z" fill="#416C83"/>

<style>

.grass1{
    animation: 4s ease-in-out infinite swing;
    transform-origin: center;
}
.grass2{
     animation: 3s ease-in-out  infinite swing2;
    transform-origin: center;
}
@keyframes swing {

    0%{
        transform: rotate(0);
    }
    50%{
       transform: rotate(2deg) translate(3px, 11px);
    }
    100%{
        
        transform: rotate(0);
    }
    
}

@keyframes swing2 {

    0%{
        transform: rotate(0);
    }
    50%{
        transform: rotate(-8deg) translate(-14px, 1px);
    }
    100%{
        
        transform: rotate(0);
    }
    
}

</style>
</svg>
