<svg width="310" height="572" viewBox="0 0 310 572" fill="none" xmlns="http://www.w3.org/2000/svg">
<g clip-path="url(#clip0_171_1929)">
<path d="M236.133 560.057C236.133 561.226 234.447 562.394 231.464 563.432C221.48 566.937 196.064 569.793 163.387 571.221C156.514 571.481 149.252 571.74 141.731 571.87C134.729 572 127.597 572.13 120.336 572.13C64.0579 572.13 17.1166 567.976 6.74288 562.394C5.31648 561.615 4.53845 560.836 4.53845 560.057C4.53845 559.149 5.57583 558.24 7.52091 557.331C14.0045 554.475 30.6025 551.879 53.2951 550.192C55.2402 550.062 57.3149 549.932 59.26 549.802C67.2997 549.283 75.9877 548.894 85.1944 548.634C96.2165 548.245 108.017 548.115 120.206 548.115C146.4 548.115 170.519 549.023 189.84 550.581C209.29 552.139 224.073 554.216 231.205 556.682C234.447 557.721 236.133 558.759 236.133 560.057Z" fill="#BCFBD6"/>
<path d="M171.297 122.854C206.308 146.349 233.021 185.293 241.579 229.169C250.267 273.175 240.282 321.594 213.57 355.735C183.356 394.418 132.784 412.462 87.6582 400.52C74.5613 397.015 61.8535 391.303 51.0907 382.346C36.1784 370.014 25.5453 352.23 17.765 333.537C-0.129721 290.699 -4.79791 241.501 4.92749 195.548C10.6331 168.807 21.3958 142.585 39.5499 123.633C75.3394 86.896 132.525 96.8914 171.297 122.854Z" fill="#BCFBD6"/>
<path d="M97.5133 517.609C97.5133 517.609 97.1243 523.97 96.7352 531.109C96.2166 539.288 95.6979 548.504 95.5682 549.413C95.1792 551.1 49.9237 572.649 48.3676 569.274C46.8115 565.899 63.7986 542.663 64.9656 539.677C65.4843 538.249 66.1327 532.797 66.5217 527.734C66.9107 522.412 67.2997 517.349 67.2997 517.349L97.5133 517.609Z" fill="#FEE9E8"/>
<path d="M96.8649 531.109C96.3462 539.288 95.8275 548.504 95.6978 549.413C95.3088 551.1 50.0533 572.649 48.4972 569.274C46.9412 565.899 63.9282 542.663 65.0953 539.677C65.6139 538.249 66.2623 532.797 66.6513 527.734C67.6887 527.345 68.7261 527.345 69.6338 527.864C71.9679 529.162 72.0975 532.408 73.2646 534.874C80.9152 534.225 89.2142 533.186 96.8649 531.109Z" fill="#324D63"/>
<path d="M151.457 520.076L152.105 531.888L153.272 552.139C153.272 552.139 207.734 560.057 208.772 557.98C209.809 555.774 181.022 534.485 181.022 534.485L180.244 529.162L178.818 518.907L151.457 520.076Z" fill="#FEE9E8"/>
<path d="M152.105 531.888L153.272 552.139C153.272 552.139 207.734 560.057 208.772 557.98C209.809 555.774 181.022 534.485 181.022 534.485L180.244 529.162C179.207 528.903 178.169 529.033 177.391 529.811C176.224 530.98 176.873 532.927 176.354 534.485C175.446 533.965 173.89 534.225 172.853 534.095C165.98 533.316 158.978 532.667 152.105 531.888Z" fill="#324D63"/>
<path d="M99.5881 115.065C96.2166 116.753 93.6232 119.608 92.1968 122.983C90.7704 126.359 90.6407 130.383 91.8078 133.888C92.3265 135.575 93.2342 137.263 94.1419 138.82C98.6804 146.739 104.516 154.008 111.129 160.239C112.426 153.359 113.593 146.739 113.593 139.729C113.593 134.666 112.944 129.604 110.74 125.06C108.535 120.517 104.256 116.882 99.5881 115.065Z" fill="#240A19"/>
<path d="M99.5881 115.195C98.81 112.339 99.7177 108.964 101.792 106.887C103.867 104.68 107.109 103.771 109.962 104.291C110.61 100.916 113.204 98.3194 116.316 96.8914C122.67 93.9058 130.839 95.4635 135.767 100.526C138.101 99.7473 140.824 99.4877 143.288 99.7473C145.622 100.137 147.956 101.175 149.512 103.122C151.846 105.978 152.105 110.262 150.419 113.637C148.863 117.012 145.751 119.479 142.38 121.036C139.008 122.594 135.248 123.243 131.617 123.892C127.468 124.541 123.188 124.931 119.039 124.411C111.907 123.633 105.423 119.479 99.5881 115.195Z" fill="#240A19"/>
<path d="M106.331 153.359L109.443 173.35L138.749 172.571L136.934 165.821L135.507 159.98L108.795 153.879L106.331 153.359Z" fill="#FF836D"/>
<path opacity="0.33" d="M108.795 153.878C109.184 159.331 112.685 164.393 117.612 166.989C122.54 169.715 128.764 169.845 134.081 167.638C135.118 167.249 136.285 166.6 137.063 165.821L135.507 159.98L108.795 153.878Z" fill="#FF836D"/>
<path d="M144.584 124.022C144.455 124.022 144.455 124.022 144.584 124.022C141.342 113.637 130.839 106.757 119.298 108.055C118.909 108.055 118.52 108.185 118.131 108.185C105.812 110.262 97.1243 121.296 98.5507 133.239C98.81 135.705 99.5881 138.042 100.625 140.248C101.533 142.066 102.571 143.753 103.997 145.181C107.109 159.46 118.131 168.158 134.859 163.485C154.958 157.903 144.584 124.022 144.584 124.022Z" fill="#FF836D"/>
<path d="M123.812 138.928C125.085 138.726 125.953 137.528 125.751 136.254C125.549 134.979 124.353 134.11 123.08 134.313C121.807 134.515 120.939 135.712 121.141 136.987C121.343 138.261 122.539 139.13 123.812 138.928Z" fill="#240A19"/>
<path d="M140.5 135.025C141.632 134.845 142.404 133.781 142.224 132.648C142.044 131.515 140.981 130.742 139.85 130.922C138.718 131.102 137.946 132.166 138.126 133.299C138.306 134.432 139.369 135.205 140.5 135.025Z" fill="#240A19"/>
<path d="M132.914 133.109C134.989 134.537 137.063 136.354 138.101 138.691C139.138 140.897 138.23 142.715 136.156 143.753" stroke="#0E1219" stroke-width="0.4918" stroke-miterlimit="10" stroke-linecap="round" stroke-linejoin="round"/>
<path d="M132.914 144.013C133.043 143.753 133.173 143.623 133.303 143.364C133.433 143.234 133.692 143.104 133.822 143.234C134.211 143.364 134.34 143.753 134.34 144.013" stroke="#0E1219" stroke-width="0.4918" stroke-miterlimit="10" stroke-linecap="round" stroke-linejoin="round"/>
<path d="M135.896 148.167C134.6 147.128 132.525 147.128 131.098 148.037" stroke="#0E1219" stroke-width="0.3848" stroke-miterlimit="10" stroke-linecap="round" stroke-linejoin="round"/>
<path d="M117.612 132.2C117.612 132.719 117.742 133.109 118.131 133.368C118.52 133.758 119.168 133.628 119.687 133.628C121.114 133.368 122.54 132.719 123.577 131.681C123.837 131.421 124.226 131.032 124.226 130.513C124.226 129.085 121.892 128.046 120.595 128.436C119.428 128.955 117.612 130.772 117.612 132.2Z" fill="#240A19"/>
<path d="M142.769 127.008C142.899 127.397 143.028 127.787 142.769 128.176C142.51 128.565 141.991 128.825 141.602 128.955C140.305 129.344 139.008 129.344 137.712 128.955C137.323 128.825 136.934 128.695 136.804 128.306C136.156 127.137 137.712 125.32 138.879 125.19C140.046 124.931 142.25 125.839 142.769 127.008Z" fill="#240A19"/>
<path d="M101.792 138.95C99.0693 139.08 96.2165 140.119 94.6605 142.455C92.8451 145.311 93.7528 149.205 96.2165 151.542C98.6803 153.879 102.181 154.528 105.553 154.398C107.109 154.268 108.665 153.878 109.573 152.71C109.962 152.191 110.091 151.672 110.221 151.023C110.869 147.907 110.351 144.532 109.054 141.806C107.757 139.21 104.256 138.82 101.792 138.95Z" fill="#FF836D"/>
<path d="M100.755 145.051C102.441 145.571 103.867 146.739 104.515 148.426" stroke="#0E1219" stroke-width="0.4918" stroke-miterlimit="10" stroke-linecap="round" stroke-linejoin="round"/>
<path d="M98.9396 139.469C102.052 139.34 105.294 139.859 108.146 141.157C109.702 138.042 109.184 134.017 107.368 131.032C109.832 129.863 111.129 127.137 111.777 124.411C112.037 123.373 112.296 122.334 112.296 121.296C112.296 118.31 110.48 115.454 107.887 114.156C105.294 112.858 101.792 113.248 99.588 115.195C97.1242 117.272 96.0869 120.647 95.6978 123.892C95.0495 129.214 96.6055 134.537 98.9396 139.469Z" fill="#240A19"/>
<path d="M103.867 139.469C105.294 141.027 106.331 142.715 107.109 144.662C108.017 142.974 108.535 141.027 108.924 139.08C109.054 138.171 109.184 137.263 108.924 136.484C108.665 135.575 108.146 134.796 107.239 134.666C106.331 134.407 105.294 134.926 104.645 135.705C103.997 136.484 104.127 138.431 103.867 139.469Z" fill="#240A19"/>
<path d="M105.942 113.507C106.461 114.026 107.109 114.286 107.757 114.546C109.962 115.325 112.296 115.974 114.63 115.844C116.964 115.714 119.428 114.935 121.114 113.377C125.263 115.714 130.061 116.753 134.859 116.363C136.804 116.233 138.879 115.584 139.657 113.897C140.305 112.209 139.527 110.392 138.23 109.094C136.804 107.536 134.859 106.497 132.784 105.719C128.116 104.031 122.929 103.642 118.131 104.81C113.463 105.978 109.313 109.873 105.942 113.507Z" fill="#240A19"/>
<path d="M109.313 171.143C109.313 171.143 124.615 176.466 137.582 168.547C137.582 168.547 154.958 172.831 170.13 182.697L173.112 281.093C173.112 281.093 108.406 292.647 84.9351 279.795L81.3043 189.836L109.313 171.143Z" fill="#FEE9E8"/>
<path d="M82.0823 275.641C82.0823 275.641 68.2074 409.217 67.8184 427.78C67.4294 446.343 63.9282 526.307 63.9282 526.307L100.366 527.215L125.522 356.384L148.085 523.58L184.523 523.97L173.242 281.223L82.0823 275.641Z" fill="#FF8F33"/>
<path d="M77.6735 282.132C111.388 287.714 145.622 289.271 179.725 287.065" stroke="#0E1219" stroke-width="0.3848" stroke-miterlimit="10" stroke-linecap="round" stroke-linejoin="round"/>
<path d="M139.657 279.146C139.527 282.132 139.527 285.117 139.397 288.103C139.268 292.906 139.657 297.579 139.657 302.382C139.657 303.161 139.657 303.94 139.527 304.719C139.268 305.628 138.619 306.536 137.841 307.056C137.323 307.315 136.804 307.575 136.285 307.575C135.378 307.445 134.599 306.796 134.34 305.887C133.951 305.108 133.951 304.07 133.951 303.291C133.821 300.695 133.821 298.099 133.692 295.502" stroke="#0E1219" stroke-width="0.3848" stroke-miterlimit="10" stroke-linecap="round" stroke-linejoin="round"/>
<path d="M133.951 285.767C135.312 285.767 136.415 284.662 136.415 283.3C136.415 281.938 135.312 280.834 133.951 280.834C132.59 280.834 131.487 281.938 131.487 283.3C131.487 284.662 132.59 285.767 133.951 285.767Z" stroke="#0E1219" stroke-width="0.3848" stroke-miterlimit="10" stroke-linecap="round" stroke-linejoin="round"/>
<path d="M138.879 325.229L125.393 356.514L100.236 527.345" stroke="#0E1219" stroke-width="0.5246" stroke-miterlimit="10" stroke-linecap="round" stroke-linejoin="round"/>
<path d="M129.802 347.686L154.18 523.71" stroke="#0E1219" stroke-width="0.3848" stroke-miterlimit="10" stroke-linecap="round" stroke-linejoin="round"/>
<path d="M111.129 301.604C109.832 328.734 107.628 344.701 107.628 344.701C107.628 344.701 85.7131 352.36 63.1501 337.042C63.1501 337.042 81.8229 266.035 80.1372 249.679C78.4514 233.323 78.4514 192.303 78.4514 192.303C78.4514 192.303 85.9724 185.163 95.0495 179.062C95.1791 178.932 95.3088 178.802 95.5681 178.802C99.3286 176.336 103.219 174.129 107.109 172.701C106.85 172.701 112.425 274.343 111.129 301.604Z" fill="#324D63"/>
<path d="M124.485 255.65L87.6582 257.468C87.6582 257.468 88.8252 259.285 86.6208 260.194C84.5461 261.232 76.2471 260.324 77.9328 255.001C77.9328 255.001 76.6361 252.535 77.8031 250.458C77.8031 250.458 77.0251 247.732 78.8405 245.785C78.8405 245.785 78.3218 242.669 80.2669 241.761C82.212 240.722 123.059 238.645 123.059 238.645L124.485 255.65Z" fill="#FF836D"/>
<path d="M184.004 343.533C163.776 353.139 147.696 343.273 147.696 343.273L143.676 232.025V231.116L141.472 169.326L154.828 175.297L155.736 175.687L171.945 182.956L184.004 343.533Z" fill="#324D63"/>
<path d="M101.403 183.865C98.2913 186.98 94.9199 190.875 93.1045 195.288C94.4012 196.846 95.6979 198.404 97.1243 200.091C98.5507 201.779 99.8474 203.337 101.274 205.024C101.403 205.154 101.403 205.284 101.274 205.414H101.144C101.144 205.414 101.014 205.414 101.014 205.284C99.5881 203.596 98.2913 202.038 96.8649 200.351C95.5682 198.663 94.1418 197.106 92.8451 195.418C92.8451 195.418 92.7154 195.288 92.8451 195.158C94.6605 190.745 98.032 186.851 101.144 183.605C99.3287 181.788 97.3836 180.23 95.1792 178.932C95.3089 178.802 95.4386 178.672 95.6979 178.672C97.9023 179.971 99.9771 181.658 101.792 183.475C101.533 183.605 101.533 183.735 101.403 183.865Z" fill="#0E1219"/>
<path d="M115.019 260.583C115.019 260.583 157.033 269.54 177.78 262.271" stroke="#0E1219" stroke-width="0.3848" stroke-miterlimit="10" stroke-linecap="round" stroke-linejoin="round"/>
<path d="M78.3219 192.303C78.3219 192.303 53.2952 216.447 67.4294 244.876C79.8779 270.059 106.72 249.03 111.259 244.227C115.797 239.424 127.079 213.592 127.079 213.592L107.757 198.404L92.7155 209.697L78.3219 192.303Z" fill="#324D63"/>
<path d="M108.146 198.923C108.146 198.923 121.503 183.475 122.021 182.177C122.54 180.879 124.355 161.927 125.911 160.629C127.597 159.331 138.619 154.787 139.916 157.383C139.916 157.383 143.676 156.994 143.936 159.85C143.936 159.85 147.956 159.85 147.826 162.316C147.826 162.316 149.771 165.432 149.771 167.509C149.771 169.586 146.659 173.22 144.844 173.091C144.844 173.091 144.844 180.23 142.12 184.125C139.397 188.019 131.228 194.509 131.228 194.509L121.892 209.308L108.146 198.923Z" fill="#FF836D"/>
<path d="M122.021 182.567C122.021 182.567 124.226 162.706 125.911 160.629C127.597 158.552 138.879 153.1 140.435 157.124C140.435 157.124 143.676 156.864 144.065 159.85C144.065 159.85 147.696 159.72 147.956 162.316C147.956 162.316 150.29 165.951 149.771 168.158C149.252 170.494 147.307 173.091 144.973 173.091" stroke="#0E1219" stroke-width="0.3848" stroke-miterlimit="10" stroke-linecap="round" stroke-linejoin="round"/>
<path d="M140.564 157.124C137.971 157.643 133.821 158.811 131.617 160.239" stroke="#0E1219" stroke-width="0.3848" stroke-miterlimit="10" stroke-linecap="round" stroke-linejoin="round"/>
<path d="M144.195 159.98C140.564 160.499 138.23 160.759 134.859 162.316" stroke="#0E1219" stroke-width="0.3848" stroke-miterlimit="10" stroke-linecap="round" stroke-linejoin="round"/>
<path d="M147.956 162.446C144.584 162.965 141.083 163.614 137.971 165.042" stroke="#0E1219" stroke-width="0.3848" stroke-miterlimit="10" stroke-linecap="round" stroke-linejoin="round"/>
<path d="M140.435 186.072C141.861 184.774 143.028 183.086 143.547 181.139C144.584 178.023 144.325 174.778 145.103 171.663C145.362 170.754 145.751 169.715 146.529 169.066" stroke="#0E1219" stroke-width="0.3848" stroke-miterlimit="10" stroke-linecap="round" stroke-linejoin="round"/>
<path d="M83.6384 220.991L108.017 198.793L127.208 213.592" stroke="#0E1219" stroke-width="0.3848" stroke-miterlimit="10" stroke-linecap="round" stroke-linejoin="round"/>
<path d="M99.1991 206.712C108.276 210.866 116.834 216.058 122.41 224.496" stroke="#0E1219" stroke-width="0.3848" stroke-miterlimit="10" stroke-linecap="round" stroke-linejoin="round"/>
<path d="M65.8734 241.501C70.9306 240.982 76.2472 241.761 80.656 244.357C85.0649 246.953 88.566 251.107 89.8627 256.17" stroke="#0E1219" stroke-width="0.3848" stroke-miterlimit="10" stroke-linecap="round" stroke-linejoin="round"/>
<path d="M171.815 182.826C171.815 182.826 186.857 190.485 191.525 214.5C196.323 238.645 191.136 256.819 175.057 263.569C161.182 269.41 114.889 260.453 114.889 260.453L115.927 237.087L164.294 227.741L171.815 182.826Z" fill="#324D63"/>
<path d="M116.056 237.217L164.035 228.26" stroke="#0E1219" stroke-width="0.3848" stroke-miterlimit="10" stroke-linecap="round" stroke-linejoin="round"/>
<path d="M161.312 228.52C161.442 221.38 161.831 214.111 162.479 206.971" stroke="#0E1219" stroke-width="0.3848" stroke-miterlimit="10" stroke-linecap="round" stroke-linejoin="round"/>
<path d="M171.426 263.699C174.279 254.612 182.189 247.213 191.525 245.136" stroke="#0E1219" stroke-width="0.3848" stroke-miterlimit="10" stroke-linecap="round" stroke-linejoin="round"/>
<path d="M160.404 195.418L143.936 231.895C143.936 231.895 143.936 232.025 143.806 232.025C143.806 232.025 143.806 232.025 143.676 232.025C143.676 232.025 143.676 232.025 143.547 232.025C143.417 232.025 143.417 231.765 143.417 231.635L143.676 230.986L159.756 195.288L149.641 184.125V183.995C149.641 183.995 149.641 183.865 149.771 183.865L156.903 178.283L154.699 175.297L155.606 175.687L157.422 178.153C157.551 178.283 157.422 178.413 157.422 178.543L150.29 184.125L160.274 195.288C160.404 195.158 160.404 195.288 160.404 195.418Z" fill="#0E1219"/>
<path class="cloud" d="M244.609 113.14C273.9 113.14 297.645 89.3694 297.645 60.0471C297.645 30.7248 273.9 6.95441 244.609 6.95441C215.318 6.95441 191.573 30.7248 191.573 60.0471C191.573 89.3694 215.318 113.14 244.609 113.14Z" fill="#BCFBD6"/>
<path class="dot3" d="M183.013 94.1995C185.018 94.1995 186.644 92.5722 186.644 90.5648C186.644 88.5574 185.018 86.9301 183.013 86.9301C181.008 86.9301 179.382 88.5574 179.382 90.5648C179.382 92.5722 181.008 94.1995 183.013 94.1995Z" fill="#FEE9E8"/>
<path class="dot2" d="M170.822 99.4154C172.827 99.4154 174.453 97.788 174.453 95.7806C174.453 93.7732 172.827 92.1459 170.822 92.1459C168.816 92.1459 167.191 93.7732 167.191 95.7806C167.191 97.788 168.816 99.4154 170.822 99.4154Z" fill="#FEE9E8"/>
<path class="dot1" d="M161.113 106.11C163.047 106.11 164.615 104.541 164.615 102.605C164.615 100.67 163.047 99.1003 161.113 99.1003C159.18 99.1003 157.612 100.67 157.612 102.605C157.612 104.541 159.18 106.11 161.113 106.11Z" fill="#FEE9E8"/>
<path class="cloud" d="M243.96 65.6289L243.571 65.7587C243.053 65.7587 242.664 65.4991 242.404 65.1096C241.626 63.4221 241.108 61.8643 241.108 60.3066C241.108 56.4123 243.701 54.0757 246.424 51.6093C247.721 50.441 248.629 49.4025 249.147 48.7534C249.666 48.1044 249.925 47.3255 249.925 46.6764C249.925 44.5995 248.11 43.561 246.165 43.561C243.96 43.561 241.886 44.7293 240.2 45.8976C239.941 46.0274 239.681 46.1572 239.422 46.1572C239.163 46.1572 238.774 46.0274 238.644 45.638L236.699 42.9119C236.569 42.7821 236.439 42.5225 236.439 42.2629C236.439 41.8734 236.569 41.6138 236.828 41.3542C239.681 39.0176 242.923 37.7195 246.165 37.7195C251.611 37.7195 255.89 40.9648 255.89 46.5466C255.89 50.0515 254.205 52.2583 251.741 54.7247L250.703 55.7632C249.407 56.9315 248.629 57.8402 248.11 58.4893C247.591 59.1383 247.332 59.9172 247.332 60.696C247.332 61.3451 247.462 62.124 247.851 63.0326C247.851 63.2923 247.98 63.4221 247.98 63.5519C247.98 63.6817 247.98 63.9413 247.851 64.0711C247.721 64.2009 247.591 64.3307 247.332 64.4606L243.96 65.6289ZM240.459 73.807C240.459 71.3405 242.404 69.3934 244.998 69.3934C247.591 69.3934 249.536 71.3405 249.536 73.807C249.536 76.2734 247.591 78.2205 244.998 78.2205C242.404 78.2205 240.459 76.2734 240.459 73.807Z" fill="white"/>
<path class="question1" d="M51.9985 160.109L51.6094 160.369C51.2204 160.629 50.7017 160.499 50.3127 160.239C48.8863 159.071 47.849 157.773 47.2006 156.345C45.5149 152.84 46.9412 149.465 48.3676 146.09C49.016 144.402 49.405 143.104 49.6644 142.325C49.794 141.546 49.794 140.638 49.405 139.989C48.4973 138.042 46.4226 137.912 44.7368 138.691C42.7917 139.599 41.2357 141.546 40.328 143.494C40.1983 143.753 39.939 143.883 39.8093 144.013C39.5499 144.143 39.1609 144.143 38.9016 143.883L36.0488 142.196C35.7895 142.066 35.6598 141.936 35.5301 141.676C35.4004 141.287 35.4004 141.027 35.5301 140.638C37.2159 137.263 39.5499 134.796 42.6621 133.368C47.7193 131.032 52.9062 132.2 55.2403 137.263C56.7963 140.508 56.148 143.234 54.9809 146.479L54.4622 147.907C53.8139 149.465 53.4248 150.633 53.1655 151.542C52.9062 152.451 53.0358 153.229 53.2952 153.879C53.5545 154.528 54.0732 155.177 54.8512 155.826C54.9809 155.956 55.1106 156.085 55.1106 156.215C55.2403 156.345 55.2403 156.605 55.2403 156.734C55.1106 156.994 55.1106 157.124 54.9809 157.254L51.9985 160.109ZM52.2578 169.066C51.2204 166.86 52.2578 164.134 54.4622 163.095C56.7963 162.057 59.3898 162.965 60.4271 165.302C61.4645 167.639 60.5568 170.235 58.2227 171.273C55.8886 172.312 53.2952 171.273 52.2578 169.066Z" fill="white"/>
<path class="question2" d="M205.53 299.267C206.438 296.93 209.161 295.892 211.365 296.93C213.699 297.969 214.737 300.435 213.829 302.772C212.921 305.108 210.328 306.147 207.994 305.108C205.66 304.07 204.622 301.474 205.53 299.267ZM212.014 292.906L211.625 292.776C211.236 292.647 210.847 292.257 210.847 291.738C210.717 289.92 210.976 288.233 211.495 286.805C213.051 283.17 216.293 282.002 219.794 280.704C221.48 280.055 222.647 279.536 223.425 279.016C224.203 278.497 224.722 277.978 224.981 277.329C225.759 275.382 224.462 273.694 222.647 273.045C220.572 272.266 218.238 272.396 216.163 272.915C215.904 272.915 215.644 272.915 215.385 272.915C215.126 272.785 214.866 272.526 214.866 272.136L214.218 268.761C214.088 268.502 214.218 268.242 214.348 267.982C214.477 267.593 214.737 267.463 215.126 267.204C218.757 266.035 222.128 266.165 225.24 267.463C230.427 269.54 233.021 274.213 230.946 279.406C229.519 282.651 227.185 284.079 223.943 285.377L222.647 285.896C221.091 286.416 219.924 286.935 219.146 287.454C218.368 287.844 217.849 288.493 217.59 289.142C217.33 289.791 217.201 290.57 217.201 291.608C217.201 291.868 217.201 291.997 217.071 292.127C217.071 292.257 216.941 292.517 216.682 292.517C216.423 292.647 216.293 292.647 216.034 292.647L212.014 292.906Z" fill="white"/>
</g>
<defs>
<clipPath id="clip0_171_1929">
<rect width="310" height="572" fill="white"/>
</clipPath>
</defs>


<style>
.cloud {
    animation: 4s ease-in-out infinite swing;
    transform-origin: 59% 16%;
    transform: scale(0);
}
@keyframes swing {

    0%{
        transform: scale(0);
    }
    70%{
        transform: scale(1);
        opacity: 1;
    }
    100%{
        transform: scale(1);
        opacity: 0;
    }
    
}

.dot1{
    animation: 4s ease-in-out infinite blick;
}
.dot2{
    animation: 4s ease-in-out .3s infinite blick;
}
.dot3{
    animation: 4s ease-in-out .6s infinite blick;
}
@keyframes blick {

    0%{
        opacity: 0;
    }
    50%{
        opacity: 1;
    }
    100%{
        
        opacity: 0;
    }
    
}

.question1{
    animation: 2s linear .6s infinite qanim;
    transform-origin: 15% 29%;
}

.question2{
    animation: 3s linear infinite reverse qanim;
   transform-origin: 67% 50%;
}
@keyframes qanim {

    0%{
        transform: rotate(0);
    }
    50%{
        transform: rotate(28deg);
    }
    100%{
        
       transform: rotate(0);
    }
    
}
</style>
</svg>
