<svg width="634" height="433" viewBox="0 0 634 433" fill="none" xmlns="http://www.w3.org/2000/svg">
<path d="M621.989 248.178C605.182 225.883 569.587 213.939 568.651 180.524C568.046 158.806 578.417 147.054 561.829 128.52C521.75 83.7105 459.94 78.4662 407.18 97.1645C354.42 115.863 312.278 153.369 253.631 151.118C221.694 149.882 192.013 135.467 160.406 132.776C150.669 131.953 141.564 132.666 133.064 134.726C101.154 142.496 72.9864 171.655 62.3958 204.082C53.7859 230.359 64.789 256.278 51.2826 282.005C36.8685 309.435 8.53535 328.49 1.38329 360.148C-7.19917 398.149 25.5627 431.179 60.7178 432.223C83.1093 432.882 104.375 432.223 143.627 432.223C177.48 432.223 189.537 431.591 216.523 432.223C267.907 433.376 315.661 432.223 371.863 432.223C423.839 432.223 464.313 430.96 508.353 432.223C540.703 433.156 561.829 432.223 577.619 405.782C598.497 365.832 657.227 294.965 621.989 248.178Z" fill="#BCFBD6"/>
<g clip-path="url(#clip0_466_1018)">
<path d="M265.208 88.0957L251.126 141.08C248.842 149.573 240.088 154.389 231.714 151.854L222.199 148.939L250.872 81.5044L265.208 88.0957Z" fill="#F0C9CF"/>
<path class="pen" d="M256.58 73.3921C255.438 71.9977 246.431 76.6877 244.274 77.1947C242.117 77.7018 244.02 83.0255 248.08 82.5185C252.013 82.0115 253.282 77.8285 253.282 77.8285L256.58 73.3921Z" fill="#D683A7"/>
<path class="pen" d="M249.982 61.9839L249.729 96.7152L253.535 95.9546V61.9839C253.535 61.2234 253.027 60.5896 252.393 60.3361C251.124 60.0826 249.982 60.8431 249.982 61.9839Z" fill="#2A3551"/>
<path class="pen" d="M255.312 74.0258C255.312 74.0258 243.894 85.5607 246.05 88.8563C248.207 92.152 255.312 86.1944 256.708 84.2931C256.581 88.0958 261.402 91.7717 264.32 91.2647C268.76 90.6309 270.536 86.0677 269.141 84.0396C267.745 82.0115 259.499 77.1947 259.499 77.1947C259.499 77.1947 257.596 70.9837 255.312 74.0258Z" fill="#F0C9CF"/>
<path d="M143.538 393.452L139.479 414.62L145.568 425.141L160.412 419.31L166.375 398.776" fill="#F0C9CF"/>
<path d="M107.888 429.324L140.114 410.691L146.203 419.31H160.286L161.808 432.366H108.523C107 432.493 106.366 430.211 107.888 429.324Z" fill="#1F2251"/>
<path d="M282.462 393.452L286.521 414.62L280.432 425.141L265.588 419.31L259.625 398.776" fill="#F0C9CF"/>
<path d="M318.113 429.324L285.888 410.691L279.798 419.31H265.589L264.066 432.366H317.352C319.001 432.493 319.636 430.211 318.113 429.324Z" fill="#1F2251"/>
<path d="M285.126 385.973L254.677 392.691L207.989 236.908L170.816 390.03L140.621 385.593L160.032 222.838L163.077 197.74L208.243 194.318L238.692 191.909L239.199 194.318L239.453 195.585L285.126 385.973Z" fill="#647BF4"/>
<path d="M239.452 195.585L160.031 222.838L163.076 197.74L208.242 194.318H239.198L239.452 195.585Z" fill="#4257B2"/>
<path d="M241.609 190.768C241.863 192.67 240.467 194.571 238.564 194.825L165.741 205.472C163.203 205.852 161.046 203.824 161.173 201.416L163.203 144.376L164.726 102.673L175.89 78.3355L178.174 73.2653H203.675L206.466 73.6455C207.1 73.7723 207.862 73.899 208.496 74.0258C219.534 76.1807 228.922 83.279 233.997 93.4195L249.729 125.109L234.758 140.193L241.609 190.768Z" fill="#EBAF65"/>
<path d="M173.989 96.335C173.481 97.4758 173.354 98.7433 173.354 99.8842L176.145 136.517L173.862 137.911L163.078 144.249L149.63 152.108L147.346 153.375L143.032 116.87C141.256 100.898 150.01 85.5607 164.6 78.7158L173.735 74.5329L178.175 72.5048L181.347 73.3921L183.25 73.8991L179.698 82.772L173.989 96.335Z" fill="#EBAF65"/>
<path opacity="0.25" d="M146.711 192.543C148.183 192.543 149.375 191.351 149.375 189.881C149.375 188.411 148.183 187.219 146.711 187.219C145.24 187.219 144.047 188.411 144.047 189.881C144.047 191.351 145.24 192.543 146.711 192.543Z" fill="white"/>
<path opacity="0.25" d="M162.317 192.543C163.788 192.543 164.981 191.351 164.981 189.881C164.981 188.411 163.788 187.219 162.317 187.219C160.845 187.219 159.652 188.411 159.652 189.881C159.652 191.351 160.845 192.543 162.317 192.543Z" fill="white"/>
<path opacity="0.25" d="M177.922 192.543C179.394 192.543 180.586 191.351 180.586 189.881C180.586 188.411 179.394 187.219 177.922 187.219C176.451 187.219 175.258 188.411 175.258 189.881C175.258 191.351 176.451 192.543 177.922 192.543Z" fill="white"/>
<path opacity="0.25" d="M193.526 192.543C194.997 192.543 196.19 191.351 196.19 189.881C196.19 188.411 194.997 187.219 193.526 187.219C192.054 187.219 190.861 188.411 190.861 189.881C190.861 191.351 192.054 192.543 193.526 192.543Z" fill="white"/>
<path opacity="0.25" d="M209.131 192.543C210.603 192.543 211.795 191.351 211.795 189.881C211.795 188.411 210.603 187.219 209.131 187.219C207.66 187.219 206.467 188.411 206.467 189.881C206.467 191.351 207.66 192.543 209.131 192.543Z" fill="white"/>
<path opacity="0.25" d="M224.737 192.543C226.208 192.543 227.401 191.351 227.401 189.881C227.401 188.411 226.208 187.219 224.737 187.219C223.265 187.219 222.072 188.411 222.072 189.881C222.072 191.351 223.265 192.543 224.737 192.543Z" fill="white"/>
<path opacity="0.25" d="M240.342 192.543C241.813 192.543 243.006 191.351 243.006 189.881C243.006 188.411 241.813 187.219 240.342 187.219C238.871 187.219 237.678 188.411 237.678 189.881C237.678 191.351 238.871 192.543 240.342 192.543Z" fill="white"/>
<path opacity="0.25" d="M256.072 192.543C257.544 192.543 258.737 191.351 258.737 189.881C258.737 188.411 257.544 187.219 256.072 187.219C254.601 187.219 253.408 188.411 253.408 189.881C253.408 191.351 254.601 192.543 256.072 192.543Z" fill="white"/>
<path opacity="0.25" d="M146.711 177.966C148.183 177.966 149.375 176.774 149.375 175.304C149.375 173.834 148.183 172.642 146.711 172.642C145.24 172.642 144.047 173.834 144.047 175.304C144.047 176.774 145.24 177.966 146.711 177.966Z" fill="white"/>
<path opacity="0.25" d="M162.317 177.966C163.788 177.966 164.981 176.774 164.981 175.304C164.981 173.834 163.788 172.642 162.317 172.642C160.845 172.642 159.652 173.834 159.652 175.304C159.652 176.774 160.845 177.966 162.317 177.966Z" fill="white"/>
<path opacity="0.25" d="M177.922 177.966C179.394 177.966 180.586 176.774 180.586 175.304C180.586 173.834 179.394 172.642 177.922 172.642C176.451 172.642 175.258 173.834 175.258 175.304C175.258 176.774 176.451 177.966 177.922 177.966Z" fill="white"/>
<path opacity="0.25" d="M193.526 177.966C194.997 177.966 196.19 176.774 196.19 175.304C196.19 173.834 194.997 172.642 193.526 172.642C192.054 172.642 190.861 173.834 190.861 175.304C190.861 176.774 192.054 177.966 193.526 177.966Z" fill="white"/>
<path opacity="0.25" d="M209.131 177.966C210.603 177.966 211.795 176.774 211.795 175.304C211.795 173.834 210.603 172.642 209.131 172.642C207.66 172.642 206.467 173.834 206.467 175.304C206.467 176.774 207.66 177.966 209.131 177.966Z" fill="white"/>
<path opacity="0.25" d="M224.737 177.966C226.208 177.966 227.401 176.774 227.401 175.304C227.401 173.834 226.208 172.642 224.737 172.642C223.265 172.642 222.072 173.834 222.072 175.304C222.072 176.774 223.265 177.966 224.737 177.966Z" fill="white"/>
<path opacity="0.25" d="M240.342 177.966C241.813 177.966 243.006 176.774 243.006 175.304C243.006 173.834 241.813 172.642 240.342 172.642C238.871 172.642 237.678 173.834 237.678 175.304C237.678 176.774 238.871 177.966 240.342 177.966Z" fill="white"/>
<path opacity="0.25" d="M256.072 177.966C257.544 177.966 258.737 176.774 258.737 175.304C258.737 173.834 257.544 172.642 256.072 172.642C254.601 172.642 253.408 173.834 253.408 175.304C253.408 176.774 254.601 177.966 256.072 177.966Z" fill="white"/>
<path opacity="0.25" d="M146.711 163.389C148.183 163.389 149.375 162.197 149.375 160.727C149.375 159.257 148.183 158.065 146.711 158.065C145.24 158.065 144.047 159.257 144.047 160.727C144.047 162.197 145.24 163.389 146.711 163.389Z" fill="white"/>
<path opacity="0.25" d="M162.317 163.389C163.788 163.389 164.981 162.197 164.981 160.727C164.981 159.257 163.788 158.065 162.317 158.065C160.845 158.065 159.652 159.257 159.652 160.727C159.652 162.197 160.845 163.389 162.317 163.389Z" fill="white"/>
<path opacity="0.25" d="M177.922 163.389C179.394 163.389 180.586 162.197 180.586 160.727C180.586 159.257 179.394 158.065 177.922 158.065C176.451 158.065 175.258 159.257 175.258 160.727C175.258 162.197 176.451 163.389 177.922 163.389Z" fill="white"/>
<path opacity="0.25" d="M193.526 163.389C194.997 163.389 196.19 162.197 196.19 160.727C196.19 159.257 194.997 158.065 193.526 158.065C192.054 158.065 190.861 159.257 190.861 160.727C190.861 162.197 192.054 163.389 193.526 163.389Z" fill="white"/>
<path opacity="0.25" d="M209.131 163.389C210.603 163.389 211.795 162.197 211.795 160.727C211.795 159.257 210.603 158.065 209.131 158.065C207.66 158.065 206.467 159.257 206.467 160.727C206.467 162.197 207.66 163.389 209.131 163.389Z" fill="white"/>
<path opacity="0.25" d="M224.737 163.389C226.208 163.389 227.401 162.197 227.401 160.727C227.401 159.257 226.208 158.065 224.737 158.065C223.265 158.065 222.072 159.257 222.072 160.727C222.072 162.197 223.265 163.389 224.737 163.389Z" fill="white"/>
<path opacity="0.25" d="M240.342 163.389C241.813 163.389 243.006 162.197 243.006 160.727C243.006 159.257 241.813 158.065 240.342 158.065C238.871 158.065 237.678 159.257 237.678 160.727C237.678 162.197 238.871 163.389 240.342 163.389Z" fill="white"/>
<path opacity="0.25" d="M256.072 163.389C257.544 163.389 258.737 162.197 258.737 160.727C258.737 159.257 257.544 158.065 256.072 158.065C254.601 158.065 253.408 159.257 253.408 160.727C253.408 162.197 254.601 163.389 256.072 163.389Z" fill="white"/>
<path opacity="0.25" d="M146.711 148.812C148.183 148.812 149.375 147.62 149.375 146.15C149.375 144.68 148.183 143.488 146.711 143.488C145.24 143.488 144.047 144.68 144.047 146.15C144.047 147.62 145.24 148.812 146.711 148.812Z" fill="white"/>
<path opacity="0.25" d="M162.317 148.812C163.788 148.812 164.981 147.62 164.981 146.15C164.981 144.68 163.788 143.488 162.317 143.488C160.845 143.488 159.652 144.68 159.652 146.15C159.652 147.62 160.845 148.812 162.317 148.812Z" fill="white"/>
<path opacity="0.25" d="M177.922 148.812C179.394 148.812 180.586 147.62 180.586 146.15C180.586 144.68 179.394 143.488 177.922 143.488C176.451 143.488 175.258 144.68 175.258 146.15C175.258 147.62 176.451 148.812 177.922 148.812Z" fill="white"/>
<path opacity="0.25" d="M193.526 148.812C194.997 148.812 196.19 147.62 196.19 146.15C196.19 144.68 194.997 143.488 193.526 143.488C192.054 143.488 190.861 144.68 190.861 146.15C190.861 147.62 192.054 148.812 193.526 148.812Z" fill="white"/>
<path opacity="0.25" d="M209.131 148.812C210.603 148.812 211.795 147.62 211.795 146.15C211.795 144.68 210.603 143.488 209.131 143.488C207.66 143.488 206.467 144.68 206.467 146.15C206.467 147.62 207.66 148.812 209.131 148.812Z" fill="white"/>
<path opacity="0.25" d="M224.737 148.812C226.208 148.812 227.401 147.62 227.401 146.15C227.401 144.68 226.208 143.488 224.737 143.488C223.265 143.488 222.072 144.68 222.072 146.15C222.072 147.62 223.265 148.812 224.737 148.812Z" fill="white"/>
<path opacity="0.25" d="M240.342 148.812C241.813 148.812 243.006 147.62 243.006 146.15C243.006 144.68 241.813 143.488 240.342 143.488C238.871 143.488 237.678 144.68 237.678 146.15C237.678 147.62 238.871 148.812 240.342 148.812Z" fill="white"/>
<path opacity="0.25" d="M256.072 148.812C257.544 148.812 258.737 147.62 258.737 146.15C258.737 144.68 257.544 143.488 256.072 143.488C254.601 143.488 253.408 144.68 253.408 146.15C253.408 147.62 254.601 148.812 256.072 148.812Z" fill="white"/>
<path opacity="0.25" d="M146.711 134.362C148.183 134.362 149.375 133.17 149.375 131.7C149.375 130.23 148.183 129.038 146.711 129.038C145.24 129.038 144.047 130.23 144.047 131.7C144.047 133.17 145.24 134.362 146.711 134.362Z" fill="white"/>
<path opacity="0.25" d="M162.317 134.362C163.788 134.362 164.981 133.17 164.981 131.7C164.981 130.23 163.788 129.038 162.317 129.038C160.845 129.038 159.652 130.23 159.652 131.7C159.652 133.17 160.845 134.362 162.317 134.362Z" fill="white"/>
<path opacity="0.25" d="M177.922 134.362C179.394 134.362 180.586 133.17 180.586 131.7C180.586 130.23 179.394 129.038 177.922 129.038C176.451 129.038 175.258 130.23 175.258 131.7C175.258 133.17 176.451 134.362 177.922 134.362Z" fill="white"/>
<path opacity="0.25" d="M193.526 134.362C194.997 134.362 196.19 133.17 196.19 131.7C196.19 130.23 194.997 129.038 193.526 129.038C192.054 129.038 190.861 130.23 190.861 131.7C190.861 133.17 192.054 134.362 193.526 134.362Z" fill="white"/>
<path opacity="0.25" d="M209.131 134.362C210.603 134.362 211.795 133.17 211.795 131.7C211.795 130.23 210.603 129.038 209.131 129.038C207.66 129.038 206.467 130.23 206.467 131.7C206.467 133.17 207.66 134.362 209.131 134.362Z" fill="white"/>
<path opacity="0.25" d="M224.737 134.362C226.208 134.362 227.401 133.17 227.401 131.7C227.401 130.23 226.208 129.038 224.737 129.038C223.265 129.038 222.072 130.23 222.072 131.7C222.072 133.17 223.265 134.362 224.737 134.362Z" fill="white"/>
<path opacity="0.25" d="M240.342 134.362C241.813 134.362 243.006 133.17 243.006 131.7C243.006 130.23 241.813 129.038 240.342 129.038C238.871 129.038 237.678 130.23 237.678 131.7C237.678 133.17 238.871 134.362 240.342 134.362Z" fill="white"/>
<path opacity="0.25" d="M256.072 134.362C257.544 134.362 258.737 133.17 258.737 131.7C258.737 130.23 257.544 129.038 256.072 129.038C254.601 129.038 253.408 130.23 253.408 131.7C253.408 133.17 254.601 134.362 256.072 134.362Z" fill="white"/>
<path opacity="0.25" d="M146.711 119.785C148.183 119.785 149.375 118.593 149.375 117.123C149.375 115.653 148.183 114.461 146.711 114.461C145.24 114.461 144.047 115.653 144.047 117.123C144.047 118.593 145.24 119.785 146.711 119.785Z" fill="white"/>
<path opacity="0.25" d="M162.317 119.785C163.788 119.785 164.981 118.593 164.981 117.123C164.981 115.653 163.788 114.461 162.317 114.461C160.845 114.461 159.652 115.653 159.652 117.123C159.652 118.593 160.845 119.785 162.317 119.785Z" fill="white"/>
<path opacity="0.25" d="M177.922 119.785C179.394 119.785 180.586 118.593 180.586 117.123C180.586 115.653 179.394 114.461 177.922 114.461C176.451 114.461 175.258 115.653 175.258 117.123C175.258 118.593 176.451 119.785 177.922 119.785Z" fill="white"/>
<path opacity="0.25" d="M193.526 119.785C194.997 119.785 196.19 118.593 196.19 117.123C196.19 115.653 194.997 114.461 193.526 114.461C192.054 114.461 190.861 115.653 190.861 117.123C190.861 118.593 192.054 119.785 193.526 119.785Z" fill="white"/>
<path opacity="0.25" d="M209.131 119.785C210.603 119.785 211.795 118.593 211.795 117.123C211.795 115.653 210.603 114.461 209.131 114.461C207.66 114.461 206.467 115.653 206.467 117.123C206.467 118.593 207.66 119.785 209.131 119.785Z" fill="white"/>
<path opacity="0.25" d="M224.737 119.785C226.208 119.785 227.401 118.593 227.401 117.123C227.401 115.653 226.208 114.461 224.737 114.461C223.265 114.461 222.072 115.653 222.072 117.123C222.072 118.593 223.265 119.785 224.737 119.785Z" fill="white"/>
<path opacity="0.25" d="M240.342 119.785C241.813 119.785 243.006 118.593 243.006 117.123C243.006 115.653 241.813 114.461 240.342 114.461C238.871 114.461 237.678 115.653 237.678 117.123C237.678 118.593 238.871 119.785 240.342 119.785Z" fill="white"/>
<path opacity="0.25" d="M256.072 119.785C257.544 119.785 258.737 118.593 258.737 117.123C258.737 115.653 257.544 114.461 256.072 114.461C254.601 114.461 253.408 115.653 253.408 117.123C253.408 118.593 254.601 119.785 256.072 119.785Z" fill="white"/>
<path opacity="0.25" d="M146.711 105.208C148.183 105.208 149.375 104.016 149.375 102.546C149.375 101.076 148.183 99.884 146.711 99.884C145.24 99.884 144.047 101.076 144.047 102.546C144.047 104.016 145.24 105.208 146.711 105.208Z" fill="white"/>
<path opacity="0.25" d="M162.317 105.208C163.788 105.208 164.981 104.016 164.981 102.546C164.981 101.076 163.788 99.884 162.317 99.884C160.845 99.884 159.652 101.076 159.652 102.546C159.652 104.016 160.845 105.208 162.317 105.208Z" fill="white"/>
<path opacity="0.25" d="M177.922 105.208C179.394 105.208 180.586 104.016 180.586 102.546C180.586 101.076 179.394 99.884 177.922 99.884C176.451 99.884 175.258 101.076 175.258 102.546C175.258 104.016 176.451 105.208 177.922 105.208Z" fill="white"/>
<path opacity="0.25" d="M193.526 105.208C194.997 105.208 196.19 104.016 196.19 102.546C196.19 101.076 194.997 99.884 193.526 99.884C192.054 99.884 190.861 101.076 190.861 102.546C190.861 104.016 192.054 105.208 193.526 105.208Z" fill="white"/>
<path opacity="0.25" d="M209.131 105.208C210.603 105.208 211.795 104.016 211.795 102.546C211.795 101.076 210.603 99.884 209.131 99.884C207.66 99.884 206.467 101.076 206.467 102.546C206.467 104.016 207.66 105.208 209.131 105.208Z" fill="white"/>
<path opacity="0.25" d="M224.737 105.208C226.208 105.208 227.401 104.016 227.401 102.546C227.401 101.076 226.208 99.884 224.737 99.884C223.265 99.884 222.072 101.076 222.072 102.546C222.072 104.016 223.265 105.208 224.737 105.208Z" fill="white"/>
<path opacity="0.25" d="M240.342 105.208C241.813 105.208 243.006 104.016 243.006 102.546C243.006 101.076 241.813 99.884 240.342 99.884C238.871 99.884 237.678 101.076 237.678 102.546C237.678 104.016 238.871 105.208 240.342 105.208Z" fill="white"/>
<path opacity="0.25" d="M256.072 105.208C257.544 105.208 258.737 104.016 258.737 102.546C258.737 101.076 257.544 99.884 256.072 99.884C254.601 99.884 253.408 101.076 253.408 102.546C253.408 104.016 254.601 105.208 256.072 105.208Z" fill="white"/>
<path opacity="0.25" d="M146.711 90.6309C148.183 90.6309 149.375 89.4391 149.375 87.969C149.375 86.4989 148.183 85.3071 146.711 85.3071C145.24 85.3071 144.047 86.4989 144.047 87.969C144.047 89.4391 145.24 90.6309 146.711 90.6309Z" fill="white"/>
<path opacity="0.25" d="M162.317 90.6309C163.788 90.6309 164.981 89.4391 164.981 87.969C164.981 86.4989 163.788 85.3071 162.317 85.3071C160.845 85.3071 159.652 86.4989 159.652 87.969C159.652 89.4391 160.845 90.6309 162.317 90.6309Z" fill="white"/>
<path opacity="0.25" d="M177.922 90.6309C179.394 90.6309 180.586 89.4391 180.586 87.969C180.586 86.4989 179.394 85.3071 177.922 85.3071C176.451 85.3071 175.258 86.4989 175.258 87.969C175.258 89.4391 176.451 90.6309 177.922 90.6309Z" fill="white"/>
<path opacity="0.25" d="M193.526 90.6309C194.997 90.6309 196.19 89.4391 196.19 87.969C196.19 86.4989 194.997 85.3071 193.526 85.3071C192.054 85.3071 190.861 86.4989 190.861 87.969C190.861 89.4391 192.054 90.6309 193.526 90.6309Z" fill="white"/>
<path opacity="0.25" d="M209.131 90.6309C210.603 90.6309 211.795 89.4391 211.795 87.969C211.795 86.4989 210.603 85.3071 209.131 85.3071C207.66 85.3071 206.467 86.4989 206.467 87.969C206.467 89.4391 207.66 90.6309 209.131 90.6309Z" fill="white"/>
<path opacity="0.25" d="M224.737 90.6309C226.208 90.6309 227.401 89.4391 227.401 87.969C227.401 86.4989 226.208 85.3071 224.737 85.3071C223.265 85.3071 222.072 86.4989 222.072 87.969C222.072 89.4391 223.265 90.6309 224.737 90.6309Z" fill="white"/>
<path opacity="0.25" d="M240.342 90.6309C241.813 90.6309 243.006 89.4391 243.006 87.969C243.006 86.4989 241.813 85.3071 240.342 85.3071C238.871 85.3071 237.678 86.4989 237.678 87.969C237.678 89.4391 238.871 90.6309 240.342 90.6309Z" fill="white"/>
<path opacity="0.25" d="M256.072 90.6309C257.544 90.6309 258.737 89.4391 258.737 87.969C258.737 86.4989 257.544 85.3071 256.072 85.3071C254.601 85.3071 253.408 86.4989 253.408 87.969C253.408 89.4391 254.601 90.6309 256.072 90.6309Z" fill="white"/>
<path opacity="0.25" d="M146.711 76.0539C148.183 76.0539 149.375 74.8621 149.375 73.392C149.375 71.9219 148.183 70.7301 146.711 70.7301C145.24 70.7301 144.047 71.9219 144.047 73.392C144.047 74.8621 145.24 76.0539 146.711 76.0539Z" fill="white"/>
<path opacity="0.25" d="M162.317 76.0539C163.788 76.0539 164.981 74.8621 164.981 73.392C164.981 71.9219 163.788 70.7301 162.317 70.7301C160.845 70.7301 159.652 71.9219 159.652 73.392C159.652 74.8621 160.845 76.0539 162.317 76.0539Z" fill="white"/>
<path opacity="0.25" d="M177.922 76.0539C179.394 76.0539 180.586 74.8621 180.586 73.392C180.586 71.9219 179.394 70.7301 177.922 70.7301C176.451 70.7301 175.258 71.9219 175.258 73.392C175.258 74.8621 176.451 76.0539 177.922 76.0539Z" fill="white"/>
<path opacity="0.25" d="M193.526 76.0539C194.997 76.0539 196.19 74.8621 196.19 73.392C196.19 71.9219 194.997 70.7301 193.526 70.7301C192.054 70.7301 190.861 71.9219 190.861 73.392C190.861 74.8621 192.054 76.0539 193.526 76.0539Z" fill="white"/>
<path opacity="0.25" d="M209.131 76.0539C210.603 76.0539 211.795 74.8621 211.795 73.392C211.795 71.9219 210.603 70.7301 209.131 70.7301C207.66 70.7301 206.467 71.9219 206.467 73.392C206.467 74.8621 207.66 76.0539 209.131 76.0539Z" fill="white"/>
<path opacity="0.25" d="M224.737 76.0539C226.208 76.0539 227.401 74.8621 227.401 73.392C227.401 71.9219 226.208 70.7301 224.737 70.7301C223.265 70.7301 222.072 71.9219 222.072 73.392C222.072 74.8621 223.265 76.0539 224.737 76.0539Z" fill="white"/>
<path opacity="0.25" d="M240.342 76.0539C241.813 76.0539 243.006 74.8621 243.006 73.392C243.006 71.9219 241.813 70.7301 240.342 70.7301C238.871 70.7301 237.678 71.9219 237.678 73.392C237.678 74.8621 238.871 76.0539 240.342 76.0539Z" fill="white"/>
<path opacity="0.25" d="M256.072 76.0539C257.544 76.0539 258.737 74.8621 258.737 73.392C258.737 71.9219 257.544 70.7301 256.072 70.7301C254.601 70.7301 253.408 71.9219 253.408 73.392C253.408 74.8621 254.601 76.0539 256.072 76.0539Z" fill="white"/>
<path d="M213.064 132.587L228.669 98.2362C229.303 96.9687 230.445 95.9546 231.84 95.5743L295.149 78.2087C296.164 77.9552 298.447 80.6171 297.94 81.5044L274.976 124.221C274.215 125.742 272.946 126.883 271.424 127.517L211.922 150.08L213.064 132.587Z" fill="#2A3551"/>
<path d="M214.206 135.122L229.811 100.771C230.446 99.5038 231.587 98.4898 232.983 98.1095L296.291 80.7439C297.306 80.4904 298.321 81.5044 297.814 82.5185L276.119 126.756C275.358 128.278 274.089 129.418 272.567 130.052L213.064 152.615L214.206 135.122Z" fill="#364380"/>
<path d="M229.557 143.235C229.557 143.235 230.826 146.277 224.609 151.981C218.266 157.812 208.75 154.009 208.75 154.009L183.503 173.149C179.951 175.811 175.637 177.206 171.324 177.206C168.152 177.206 164.98 176.445 161.935 174.924C156.48 172.135 152.674 167.065 151.405 161.108L151.278 160.22L149.629 152.235L163.077 144.376L173.861 138.038L174.242 140.066L175.891 149.319L203.422 135.756C203.422 135.756 209.004 126.883 211.542 123.714C214.206 120.545 217.124 120.038 218.139 122.067C219.027 124.095 213.191 132.461 213.191 132.461C213.191 132.461 215.348 132.334 222.072 129.925C228.669 127.644 232.983 122.827 234.886 124.348C236.662 125.742 235.647 129.925 233.236 133.221C233.744 139.052 229.557 143.235 229.557 143.235Z" fill="#F0C9CF"/>
<path d="M174.242 139.939L151.278 160.22L149.629 152.235L163.204 144.249L173.861 138.038L174.242 139.939Z" fill="#D683A7"/>
<path d="M208.497 74.1525C207.482 80.1101 204.056 86.0676 195.049 87.0817C187.944 87.8422 182.996 85.6874 179.57 82.772C178.048 81.3777 176.779 79.9833 175.764 78.4623C174.876 77.0679 174.115 75.8004 173.734 74.6596L178.175 72.6315L181.347 73.5188H203.676L206.467 73.899C207.101 73.899 207.862 74.0258 208.497 74.1525Z" fill="white"/>
<path d="M195.809 83.0255C183.249 84.4198 178.174 72.6314 178.174 72.6314L180.711 71.4906C180.711 71.4906 181.092 61.6036 180.204 55.7728L183.756 56.6601L201.391 61.2234C199.742 65.026 200.249 70.3498 200.376 72.1244C200.376 72.5047 200.503 72.6314 200.503 72.6314L203.675 73.5187C203.675 73.392 204.182 82.1382 195.809 83.0255Z" fill="#F0C9CF"/>
<path d="M200.376 71.9977C193.272 72.1244 184.391 69.7161 181.6 60.5896C180.965 58.5615 181.853 57.2939 183.756 56.6602L201.391 61.2234C199.742 65.0261 200.123 70.3498 200.376 71.9977Z" fill="#D683A7"/>
<path d="M177.16 49.4351L170.816 41.5762C167.517 37.52 167.898 31.5624 171.577 27.8865C168.152 19.6473 172.973 10.2673 181.727 8.23922L188.324 6.8449C189.466 6.59138 190.608 6.08436 191.496 5.45058L197.713 0.887344C199.235 -0.253464 201.265 -0.253464 202.914 0.633831C204.944 1.9014 205.705 4.56328 204.564 6.71814L202.66 10.3941C202.407 10.7743 202.914 11.2814 203.295 11.0279L214.713 3.9295C216.236 3.0422 218.139 3.29572 219.28 4.56328C220.422 5.83084 220.549 7.60544 219.534 8.99976L211.668 20.0276C211.415 20.4078 211.795 20.9149 212.176 20.7881L214.079 20.1543C215.982 19.5205 218.266 20.2811 219.28 22.0557C220.295 23.7035 220.042 25.9851 218.773 27.3794C214.967 31.3089 207.989 39.2945 207.101 43.8578C205.832 49.9421 177.16 49.4351 177.16 49.4351Z" fill="#1F2251"/>
<path d="M208.117 37.1397C207.863 38.4072 207.736 40.1818 207.736 42.8437C207.736 44.6183 208.117 47.5337 208.117 50.7026C208.117 52.9842 207.99 55.2658 207.482 57.5474C206.341 62.7445 203.296 67.0542 195.557 67.0542C179.698 67.0542 178.049 51.3364 178.049 51.3364C178.049 51.3364 177.668 55.1391 173.989 53.3645C171.324 51.9702 170.436 46.0126 173.481 44.4915C175.257 43.6042 177.16 44.745 178.429 45.8858C178.937 46.3929 179.825 45.8858 179.698 45.2521L179.063 37.7734C183.377 39.041 198.982 34.7313 205.072 28.647C205.199 30.2948 206.341 32.0694 207.229 33.4637C207.99 34.6045 208.244 35.8721 208.117 37.1397Z" fill="#F0C9CF"/>
<path d="M196.824 54.5053L198.22 53.618C199.235 53.111 199.615 51.8434 199.108 50.8294L196.824 45.5056" stroke="#C85E8B" stroke-width="0.5252" stroke-miterlimit="9" stroke-linecap="round"/>
<path d="M190.736 49.3083C191.296 49.3083 191.751 48.7408 191.751 48.0408C191.751 47.3407 191.296 46.7732 190.736 46.7732C190.175 46.7732 189.721 47.3407 189.721 48.0408C189.721 48.7408 190.175 49.3083 190.736 49.3083Z" fill="black"/>
<path d="M202.915 48.6745C203.476 48.6745 203.93 48.107 203.93 47.407C203.93 46.7069 203.476 46.1394 202.915 46.1394C202.355 46.1394 201.9 46.7069 201.9 47.407C201.9 48.107 202.355 48.6745 202.915 48.6745Z" fill="black"/>
<path d="M185.787 43.8577C185.787 43.8577 187.944 40.6888 192.131 42.0831" stroke="#1F2251" stroke-width="0.7879" stroke-miterlimit="10" stroke-linecap="round" stroke-linejoin="round"/>
<path d="M206.086 42.2099C206.086 42.2099 203.548 39.4213 199.488 41.9564" stroke="#1F2251" stroke-width="0.7879" stroke-miterlimit="10" stroke-linecap="round" stroke-linejoin="round"/>
<path d="M192.004 57.5475L197.967 57.801C197.967 57.801 197.713 60.9699 194.668 60.7164C191.75 60.5896 192.004 57.5475 192.004 57.5475Z" fill="white"/>
<path d="M173.1 47.5337C174.876 46.3928 176.525 47.7872 176.144 50.449" stroke="#C85E8B" stroke-width="0.5252" stroke-miterlimit="9" stroke-linecap="round"/>
<path d="M187.562 57.6742C189.524 57.6742 191.114 56.0851 191.114 54.125C191.114 52.1648 189.524 50.5758 187.562 50.5758C185.6 50.5758 184.01 52.1648 184.01 54.125C184.01 56.0851 185.6 57.6742 187.562 57.6742Z" fill="#EAB7C0"/>
<path d="M207.989 50.7026C207.989 52.9842 207.862 55.2658 207.355 57.5474C207.101 57.5474 206.847 57.6742 206.593 57.6742C204.563 57.6742 203.041 56.0263 203.041 54.125C203.041 52.0969 204.69 50.5758 206.593 50.5758C207.228 50.5758 207.608 50.5758 207.989 50.7026Z" fill="#EAB7C0"/>
<path d="M175.892 149.192L165.869 154.389" stroke="#C85E8B" stroke-width="0.5252" stroke-miterlimit="9" stroke-linecap="round"/>
<path d="M233.11 133.348C230.826 137.784 218.646 139.432 218.646 139.432" stroke="#C85E8B" stroke-width="0.5252" stroke-miterlimit="9" stroke-linecap="round"/>
<path d="M229.558 143.235C224.61 148.559 216.49 147.291 216.49 147.291" stroke="#C85E8B" stroke-width="0.5252" stroke-miterlimit="9" stroke-linecap="round"/>
<path d="M173.861 138.038L169.674 107.363" stroke="#1F2251" stroke-width="0.5252" stroke-miterlimit="10" stroke-linecap="round" stroke-linejoin="round"/>
<path d="M225.878 162.375L195.049 188.233" stroke="#1F2251" stroke-width="0.5252" stroke-miterlimit="10" stroke-linecap="round" stroke-linejoin="round"/>
<path d="M168.532 400.424L139.733 396.748C137.83 396.494 136.434 394.72 136.688 392.818L137.322 388.255C137.576 386.354 139.352 384.959 141.255 385.213L170.055 388.889C171.958 389.142 173.353 390.917 173.1 392.818L172.465 397.381C172.212 399.283 170.435 400.677 168.532 400.424Z" fill="#647BF4"/>
<path d="M140.748 384.959L170.563 388.889" stroke="#1F2251" stroke-width="0.5252" stroke-miterlimit="10" stroke-linecap="round" stroke-linejoin="round"/>
<path d="M287.03 394.339L259.118 402.452C257.215 402.959 255.185 401.945 254.678 400.043L253.409 395.607C252.902 393.705 253.917 391.677 255.82 391.17L283.731 383.058C285.634 382.551 287.664 383.565 288.172 385.466L289.44 389.903C290.075 391.804 288.933 393.832 287.03 394.339Z" fill="#647BF4"/>
<path d="M255.439 391.424L284.366 383.058" stroke="#1F2251" stroke-width="0.5252" stroke-miterlimit="10" stroke-linecap="round" stroke-linejoin="round"/>
<path opacity="0.25" d="M236.755 107.942C238.445 106.694 239.038 104.632 238.08 103.337C237.122 102.043 234.975 102.005 233.285 103.254C231.595 104.502 231.001 106.564 231.959 107.859C232.917 109.154 235.064 109.191 236.755 107.942Z" fill="white"/>
<path opacity="0.25" d="M235.924 106.824C236.77 106.2 237.049 105.146 236.55 104.471C236.05 103.795 234.959 103.754 234.114 104.378C233.269 105.002 232.989 106.056 233.489 106.731C233.989 107.407 235.079 107.448 235.924 106.824Z" fill="white"/>
<path d="M210.526 222.711L202.406 259.977" stroke="#1F2251" stroke-width="0.5252" stroke-miterlimit="10" stroke-linecap="round" stroke-linejoin="round"/>
<path d="M381.294 356.819L379.264 415.127L385.353 425.775L400.197 419.944L404.003 362.016" fill="#F0C9CF"/>
<path d="M347.546 429.958L379.771 411.325L385.86 419.944H399.943L401.465 433H348.18C346.784 433 346.15 430.845 347.546 429.958Z" fill="#EBAF65"/>
<path d="M479.999 356.819L498.649 415.127L492.432 425.775L477.715 419.944L457.162 362.016" fill="#F0C9CF"/>
<path d="M530.24 429.958L498.015 411.325L491.925 419.944H477.843L476.32 433H529.606C531.001 433 531.636 430.845 530.24 429.958Z" fill="#EBAF65"/>
<path d="M383.069 164.53L375.457 384.959L405.779 387.114L417.324 249.203L462.871 391.297L489.767 382.804C489.767 382.804 453.355 232.852 449.295 211.43C445.236 190.008 447.266 178.727 440.795 163.769L383.069 164.53Z" fill="#292F69"/>
<path class="head" d="M407.301 16.4783C398.547 14.07 391.95 26.8724 393.98 42.7169C396.01 58.5615 382.435 73.6455 383.957 80.1101C385.48 86.5746 415.802 95.5743 435.974 95.4476C456.273 95.3208 462.49 86.4479 458.811 80.1101C455.005 73.7722 449.169 67.6879 449.676 48.8012C450.057 29.7878 436.989 -5.57729 407.301 16.4783Z" fill="#1F2251"/>
<path class="hand" d="M365.562 106.729L354.27 131.827L337.016 91.2646C337.016 91.2646 334.859 77.3214 332.956 73.5187C331.18 69.5892 331.814 64.3922 329.404 63.6317C326.993 62.8711 326.232 67.0541 326.232 70.73C326.232 74.406 325.598 77.8284 325.598 77.8284C325.598 77.8284 315.702 69.2089 315.067 66.4203C314.433 63.7584 314.814 54.3784 312.657 53.2376C310.5 52.0968 307.963 54.7587 307.455 62.6176C306.948 70.4765 322.807 93.5462 322.807 93.5462L334.479 149.953L367.084 155.91L386.495 124.221L365.562 106.729Z" fill="#F0C9CF"/>
<path d="M465.536 114.208L453.483 122.954L452.341 123.714L443.334 130.179L441.938 165.671L436.483 165.544H435.341L419.482 165.164H418.34L402.481 164.783H401.34L385.481 164.403H384.339H382.69C382.69 164.403 383.324 155.784 380.787 143.108C378.249 130.432 381.802 121.686 381.802 121.686L365.182 106.602L373.682 93.2928C376.346 89.2366 380.025 85.9409 384.339 83.9128C384.72 83.786 385.1 83.5325 385.481 83.4058C386.75 82.8988 388.018 82.3917 389.287 82.1382L401.213 79.0961L401.847 78.9693L402.355 78.8425L406.414 77.8285H418.213H419.355H432.169L435.214 79.3496L436.356 79.9833L447.14 85.5606C448.916 86.4479 450.692 87.5887 452.088 88.9831C452.468 89.3633 452.849 89.6168 453.23 89.9971C455.894 92.5322 457.924 95.7011 459.319 99.1236L465.536 114.208Z" fill="#647BF4"/>
<path opacity="0.25" d="M385.861 83.5325V164.53H384.719V84.0395C385.099 83.9127 385.48 83.786 385.861 83.5325Z" fill="white"/>
<path opacity="0.25" d="M402.734 78.8425V164.91H401.592V79.2228L402.226 78.9693L402.734 78.8425Z" fill="white"/>
<path opacity="0.25" d="M419.736 77.8285V165.29H418.594V77.8285H419.736Z" fill="white"/>
<path opacity="0.25" d="M436.609 80.1101V165.671L435.467 165.544V79.4763L436.609 80.1101Z" fill="white"/>
<path opacity="0.25" d="M453.609 90.2507V122.954L452.467 123.714V89.1099C452.847 89.4901 453.228 89.8704 453.609 90.2507Z" fill="white"/>
<path d="M436.609 80.1101C433.057 87.3352 423.796 91.5181 412.504 90.7576C402.989 90.1238 401.847 83.786 402.228 79.096L406.795 77.9552L432.55 78.082L436.609 80.1101Z" fill="white"/>
<path d="M432.549 77.9553C432.549 77.9553 427.855 87.3352 415.802 87.3352C403.749 87.3352 406.794 77.9553 406.794 77.9553L410.22 76.8144L409.966 70.9837L409.712 62.491L430.138 56.2799C429.758 57.1672 429.377 58.308 429.25 59.8291C428.362 66.2937 429.377 76.9412 429.377 76.9412L432.549 77.9553Z" fill="#F0C9CF"/>
<path d="M430.139 56.1531C429.758 57.0404 429.378 58.1812 429.251 59.7023C423.542 71.2371 413.9 71.3639 410.094 70.8568L409.84 62.3641L430.139 56.1531Z" fill="#D683A7"/>
<path class="head" d="M407.682 25.478C409.585 35.4918 431.026 42.4634 432.549 43.6042C433.437 44.238 433.691 45.8858 433.817 47.0266C433.817 47.2801 434.198 47.2801 434.325 47.1534C434.832 45.6323 435.974 43.6042 437.75 43.3507C440.542 42.9704 443.333 46.6464 441.683 50.8293C440.034 55.139 433.564 52.8574 433.564 52.8574C433.564 52.8574 428.235 65.6598 416.182 66.0401C404.003 66.4204 401.339 56.1531 402.227 49.8153C403.115 43.4774 403.115 40.3085 402.48 36.6326C401.973 32.9567 406.667 30.2948 407.682 25.478Z" fill="#F0C9CF"/>
<path class="head" d="M438.766 45.759C437.751 46.0125 436.609 48.8012 437.117 50.1955" stroke="#C85E8B" stroke-width="0.5252" stroke-miterlimit="9" stroke-linecap="round"/>
<path class="head" d="M414.279 53.8715L412.883 52.9842C411.868 52.4772 411.488 51.2096 411.995 50.1956L414.279 44.8718" stroke="#C85E8B" stroke-width="0.5252" stroke-miterlimit="9" stroke-linecap="round"/>
<path class="head" d="M420.495 48.6744C421.056 48.6744 421.51 48.1069 421.51 47.4068C421.51 46.7068 421.056 46.1393 420.495 46.1393C419.935 46.1393 419.48 46.7068 419.48 47.4068C419.48 48.1069 419.935 48.6744 420.495 48.6744Z" fill="black"/>
<path class="head" d="M408.316 47.9139C408.876 47.9139 409.331 47.3464 409.331 46.6463C409.331 45.9463 408.876 45.3788 408.316 45.3788C407.755 45.3788 407.301 45.9463 407.301 46.6463C407.301 47.3464 407.755 47.9139 408.316 47.9139Z" fill="black"/>
<path class="head" d="M424.81 40.562C424.81 40.562 422.273 37.7734 418.34 39.8015" stroke="#1F2251" stroke-width="0.7879" stroke-miterlimit="10" stroke-linecap="round" stroke-linejoin="round"/>
<path class="head" d="M405.018 40.4353C405.018 40.4353 407.555 37.6466 411.615 40.1817" stroke="#1F2251" stroke-width="0.7879" stroke-miterlimit="10" stroke-linecap="round" stroke-linejoin="round"/>
<path class="head" d="M406.542 52.2236C409.414 52.2236 411.743 49.8968 411.743 47.0266C411.743 44.1564 409.414 41.8296 406.542 41.8296C403.669 41.8296 401.34 44.1564 401.34 47.0266C401.34 49.8968 403.669 52.2236 406.542 52.2236Z" stroke="#647BF4" stroke-width="0.7879" stroke-miterlimit="10"/>
<path class="head" d="M420.877 52.2236C423.75 52.2236 426.079 49.8968 426.079 47.0266C426.079 44.1564 423.75 41.8296 420.877 41.8296C418.005 41.8296 415.676 44.1564 415.676 47.0266C415.676 49.8968 418.005 52.2236 420.877 52.2236Z" stroke="#647BF4" stroke-width="0.7879" stroke-miterlimit="10"/>
<path class="head" d="M411.488 45.7591C411.488 45.7591 413.645 43.6042 415.802 45.7591" stroke="#647BF4" stroke-width="0.7879" stroke-miterlimit="10"/>
<path class="head" d="M415.803 58.4347C415.803 58.4347 419.101 59.829 421.893 57.4207" stroke="#C85E8B" stroke-width="0.5252" stroke-miterlimit="9" stroke-linecap="round"/>
<path d="M379.01 164.023H328.642C327.754 164.023 326.993 163.516 326.866 162.755L316.082 123.588C315.828 122.574 316.336 121.559 317.351 121.306L317.985 121.179H368.353L379.01 164.023Z" fill="#99A3CA"/>
<path d="M345.136 148.432C347.308 148.432 349.069 146.672 349.069 144.502C349.069 142.332 347.308 140.573 345.136 140.573C342.964 140.573 341.203 142.332 341.203 144.502C341.203 146.672 342.964 148.432 345.136 148.432Z" fill="#E6E9FC"/>
<path d="M379.009 164.023H419.1C420.115 164.023 420.876 163.262 420.876 162.248V161.614C420.876 160.6 420.115 159.84 419.1 159.84H379.136C378.121 159.84 377.36 160.6 377.36 161.614V162.248C377.233 163.262 377.994 164.023 379.009 164.023Z" fill="#7988B8"/>
<path d="M366.449 123.461L377.106 161.995C377.36 163.009 378.375 163.516 379.39 163.262L380.024 163.136C381.039 162.882 381.547 161.868 381.293 160.854L370.636 122.32C370.382 121.306 369.367 120.799 368.352 121.052L367.718 121.179C366.83 121.559 366.195 122.573 366.449 123.461Z" fill="#7988B8"/>
<path d="M483.805 175.304C483.805 180.248 481.648 184.938 477.715 188.233C472.006 192.923 463.759 193.304 457.669 189.121L429.631 169.854C429.631 169.854 414.407 173.149 407.556 172.515C400.705 171.882 393.346 168.206 393.346 166.811C393.219 165.417 421.004 162.502 419.608 161.361C418.34 160.22 405.906 160.093 405.779 157.431C405.653 154.77 408.697 153.882 413.899 153.502C419.101 153.122 425.698 155.784 425.698 155.784L453.736 159.713L445.744 136.517L443.587 130.306L465.662 114.208L467.058 118.898L483.043 170.361C483.551 172.008 483.805 173.656 483.805 175.304Z" fill="#F0C9CF"/>
<path d="M465.536 114.208L467.059 118.771L445.618 136.517L443.461 130.179L465.536 114.208Z" fill="#D683A7"/>
<path d="M453.609 159.713L465.535 161.361" stroke="#C85E8B" stroke-width="0.5252" stroke-miterlimit="9" stroke-linecap="round"/>
<path d="M386.496 162.502C386.846 162.502 387.13 162.218 387.13 161.868C387.13 161.518 386.846 161.234 386.496 161.234C386.145 161.234 385.861 161.518 385.861 161.868C385.861 162.218 386.145 162.502 386.496 162.502Z" fill="#1F2251"/>
<path d="M389.16 162.502C389.51 162.502 389.794 162.218 389.794 161.868C389.794 161.518 389.51 161.234 389.16 161.234C388.809 161.234 388.525 161.518 388.525 161.868C388.525 162.218 388.809 162.502 389.16 162.502Z" fill="#1F2251"/>
<path d="M404.765 395.226L375.712 394.212C373.682 394.086 372.16 392.438 372.287 390.537L372.414 385.973C372.54 383.945 374.19 382.424 376.093 382.551L405.146 383.565C407.176 383.692 408.698 385.339 408.572 387.241L408.445 391.804C408.445 393.705 406.795 395.353 404.765 395.226Z" fill="#99A3CA"/>
<path d="M491.924 388.635L464.14 397.001C462.237 397.508 460.207 396.494 459.699 394.593L458.431 390.156C457.923 388.255 458.938 386.227 460.841 385.72L488.626 377.354C490.529 376.847 492.559 377.861 493.066 379.762L494.335 384.199C494.969 386.1 493.828 388.128 491.924 388.635Z" fill="#99A3CA"/>
<path d="M408.57 220.556L422.526 265.935" stroke="#1F2251" stroke-width="0.5252" stroke-miterlimit="10" stroke-linecap="round" stroke-linejoin="round"/>
<path d="M385.861 142.221C393.347 149.066 406.541 150.08 406.541 150.08" stroke="#1F2251" stroke-width="0.5252" stroke-miterlimit="10" stroke-linecap="round" stroke-linejoin="round"/>
<path d="M443.461 130.179L433.945 114.208" stroke="#1F2251" stroke-width="0.5252" stroke-miterlimit="10" stroke-linecap="round" stroke-linejoin="round"/>
<path d="M382.182 121.813C386.241 113.7 387.13 103.18 387.13 103.18" stroke="#1F2251" stroke-width="0.5252" stroke-miterlimit="10" stroke-linecap="round" stroke-linejoin="round"/>
</g>
<defs>
<clipPath id="clip0_466_1018">
<rect width="424" height="433" fill="white" transform="translate(107)"/>
</clipPath>
</defs>

<style>

.hand{
    animation: 3s ease-in-out infinite swing;
    transform-origin: center;
}
@keyframes swing {

    0%{
        transform: rotate(0);
    }
    50%{
        transform: rotate(-5deg) translate(10px, 6px);
    }
    100%{
        
        transform: rotate(0);
    }
    
}


.head{
    animation: 2s ease-in-out .5s infinite headanim;
    transform-origin: center;
}
@keyframes headanim {

    0%{
        transform: rotate(0);
    }
    50%{
        transform: rotate(-6deg) translate(15px, 12px);
    }
    100%{
        
        transform: rotate(0);
    }
}


.pen{
    animation: 2s ease-in-out infinite penanim;
    transform-origin: center;
}
@keyframes penanim {

    0%{
        transform: translate(0);
    }
    50%{
        transform: translate(-5px, 5px);
    }
    100%{
        transform: translate(0);
    }
    
}

</style>

</svg>
